<svg width="308" height="936" viewBox="0 0 308 936" fill="none" xmlns="http://www.w3.org/2000/svg">
<path fill-rule="evenodd" clip-rule="evenodd" d="M49.732 0.459765C39.052 2.22176 28.929 9.95276 24.427 19.7848C22.768 23.4098 21.695 28.3098 20.99 35.4808C19.302 52.6688 16.614 58.5828 5.586 69.3728L0 74.8388L0.073 116.873C0.145 158.46 0.165 158.854 1.931 153.907C2.912 151.157 5.298 145.757 7.232 141.907C12.913 130.599 16.003 120.949 15.976 114.597C15.954 109.185 15.319 107.149 9.558 94.0068L7.848 90.1068L16.744 81.3368C27.521 70.7128 30.543 69.5728 50.838 68.4748C62.991 67.8168 65.14 67.4208 70.29 64.8888C84.7 57.8058 92.418 41.4778 88.554 26.2478C84.097 8.68477 67.343 -2.44524 49.732 0.459765ZM0.07 228.657L0 274.407H4.948C11.695 274.407 22.904 270.697 41.692 262.245C61.2 253.47 72.637 249.503 80.661 248.729C91.305 247.702 94.566 250.802 108.457 275.152C119.202 293.986 124.517 301.29 130.441 305.366C139.9 311.874 155.388 315.036 172.028 313.856C183.926 313.013 187.137 313.933 192.947 319.853L197.285 324.273L196.74 330.59C196.44 334.064 194.113 343.432 191.568 351.407C189.023 359.382 186.225 368.607 185.35 371.907C183.346 379.464 183.384 390.777 185.437 397.838C188.203 407.352 192.669 411.884 209.652 422.407C222.019 430.07 227.693 442.592 226.738 460.111C226.126 471.325 224.537 476.485 216.469 493.447C205.61 516.277 205.721 529.835 216.91 547.147C225.739 560.807 236.457 567.665 253.185 570.359C261.608 571.716 269.016 570.197 279.678 564.928C300.676 554.549 308.768 540.303 307.805 515.407C307.491 507.295 306.978 504.927 304.291 499.199C300.16 490.393 291.389 481.799 278.137 473.573C262.66 463.967 256.945 458.171 250.972 446.025C242.143 428.073 241.106 418.046 246.618 403.907C248.78 398.36 249.346 395.247 249.344 388.907C249.336 368.476 237.975 357.102 215 354.524C209.977 353.96 209.473 353.677 209.193 351.252C209.024 349.792 210.486 342.565 212.443 335.191C216.696 319.159 216.82 315.484 213.365 307.781C209.544 299.264 209.21 290.588 212.039 273.387C214.078 260.986 214.202 258.626 213.122 252.766C210.995 241.224 202.216 226.903 192.826 219.658C185.292 213.846 178.107 210.791 167.463 208.875C155.583 206.736 150.031 207.8 137.038 214.708C113.743 227.092 109.762 228.407 95.57 228.407C87.298 228.407 85.331 228.834 71.53 233.621C58.978 237.975 55.322 238.841 49.358 238.871C40.914 238.914 39.479 237.962 34.829 229.237C31.885 223.714 27.919 219.543 15.818 209.244C10.449 204.674 4.938 195.972 1.522 186.669C0.311 183.37 0.132 188.534 0.07 228.657ZM0 368.907C0 388.982 0.112 405.401 0.25 405.394C0.388 405.387 3.353 404.487 6.839 403.394C10.326 402.301 14.601 401.409 16.339 401.411C22.778 401.418 29.367 407.736 33.223 417.598C34.927 421.956 35.437 426.311 36.073 441.907C36.897 462.145 37.993 468.025 42.996 479.058C46.975 487.834 51.115 493.543 61.171 504.121C70.74 514.187 74.806 520.977 75.679 528.347C76.794 537.757 72.146 544.74 56.93 556.519C42.645 567.577 40 573.844 40 596.638C40 613.604 39.378 615.672 32.859 620.394C25.986 625.373 19.056 627.407 8.962 627.407H0V689.018V750.63L3.541 749.965C10.102 748.734 16.372 745.337 29.877 735.693C45.852 724.285 50.208 722.407 60.695 722.407C71.031 722.407 75.138 724.509 83.732 734.198C95.947 747.969 98.375 749.534 108.5 750.168C113.529 750.482 116.767 750.129 120 748.911C133.065 743.993 132.435 744.101 138.236 745.787C141.2 746.649 145.172 748.378 147.063 749.631C151.977 752.885 156.532 762.631 159.11 775.407C164.628 802.753 175.301 819.566 192.455 827.938C211.827 837.393 229.171 836.874 250.399 826.205C263.312 819.715 272.932 808.097 278.308 792.5C281.025 784.62 281.204 783.206 280.785 772.956C280.398 763.492 279.879 760.785 277.167 754.083C272.606 742.812 266.304 733.665 258.4 726.847C245.129 715.399 241.251 710.753 235.778 699.743C230.961 690.052 230.578 688.75 230.54 681.933C230.501 674.708 230.638 674.306 238.27 659.242C247.123 641.769 248.814 635.644 247.085 627.321C244.471 614.744 237.509 605.402 227.148 600.568C222.237 598.278 220.192 597.932 211.482 597.92C202.183 597.908 200.99 598.14 194.84 601.167C175.755 610.557 169.54 633.356 181.11 651.539C184.283 656.526 191.059 663.109 200.737 670.606C208.923 676.947 212.528 684.005 211.696 692.062C210.833 700.427 206.951 707.339 198.964 714.734C190.884 722.215 180.369 727.798 170.371 729.917C152.357 733.733 144.341 729.924 136.672 713.904C134.566 709.506 131.701 704.702 130.304 703.23C126.003 698.694 118.517 696.03 110 696.002C103.254 695.98 101.578 696.405 93.331 700.228C81.973 705.493 73.676 707.137 66.651 705.516C55.872 703.028 53.062 698.361 48.445 675.28C44.928 657.698 44.651 644.566 47.677 638.907C52.155 630.535 58.383 626.813 74.642 622.79C98.271 616.943 107.777 607.909 109.62 589.548C110.203 583.733 108.999 579.021 102.679 562.39C94.792 541.636 98.986 534.248 130.575 513.251C162.219 492.217 171.31 476.85 169.651 447.198C168.957 434.798 167.23 428.961 160.966 417.838C154.354 406.096 145.683 397.802 134 392.044C117.351 383.837 104.202 382.68 81.5 387.424C58.639 392.202 38.33 388.557 31.672 378.483C30.372 376.516 25.622 367.615 21.116 358.703C13.997 344.622 12.181 341.837 7.262 337.453C4.148 334.678 1.241 332.407 0.8 332.407C0.36 332.407 0 348.832 0 368.907ZM0 831.299C0 853.908 0.205 872.407 0.455 872.407C0.705 872.407 5.093 870.513 10.205 868.198C19.033 864.201 19.987 863.987 29.182 863.948C38.594 863.908 38.951 863.99 41.988 866.897C46.317 871.042 50.51 880.104 53.536 891.86C54.946 897.334 57.484 904.41 59.176 907.586C65.027 918.563 76.749 928.422 88.978 932.652C97.744 935.683 114.633 935.847 123.361 932.985C140.223 927.456 154.521 911.663 158.049 894.67C159.856 885.97 158.782 872.321 155.644 864.098C147.345 842.353 128.202 829.366 104.54 829.428C94.31 829.455 87.043 831.95 73.009 840.253C60.35 847.742 56.164 849.072 50.54 847.389C41.832 844.785 37.664 839.367 34.039 825.942C29.025 807.372 17.401 794.333 2.75 790.845L0 790.19V831.299Z" fill="url(#paint0_linear_206_184)"/>
<defs>
<linearGradient id="paint0_linear_206_184" x1="267.358" y1="234.798" x2="-37.7289" y2="271.737" gradientUnits="userSpaceOnUse">
<stop offset="0.012213" stop-color="#F6F3E4"/>
<stop offset="0.624677" stop-color="#FFC6BF"/>
<stop offset="1" stop-color="#F7F3E4"/>
</linearGradient>
</defs>
</svg>

