<svg width="921" height="905" viewBox="0 0 921 905" fill="none" xmlns="http://www.w3.org/2000/svg">
<path fill-rule="evenodd" clip-rule="evenodd" d="M525.517 1.78323C528.657 1.21331 532.575 0.597416 534.224 0.413445C540.729 -0.310441 570.57 -0.025471 576.471 0.816397C589.817 2.7211 598.596 4.65981 610.704 8.37722C638.317 16.8539 667.5 34.9291 685.941 54.9759C695.721 65.6083 708.678 81.3868 708.678 82.6646C708.678 83.1235 710.14 85.6881 711.927 88.3647C713.713 91.0403 716.051 94.9466 717.12 97.0443C718.189 99.142 719.764 101.216 720.619 101.653C721.474 102.09 728.022 102.49 735.17 102.543C746.773 102.629 751.847 103.073 766.162 105.255C777.949 107.052 800.048 113.676 811.65 118.89C816.417 121.032 821.167 123.101 823.647 124.116C824.472 124.453 826.946 125.859 829.145 127.24C831.345 128.62 834.044 130.138 835.144 130.613C836.929 131.384 844.945 136.677 852.711 142.213C862.011 148.844 883.568 169.978 888.115 176.923C889.657 179.279 892.653 183.773 894.773 186.907C896.892 190.043 898.637 193.192 898.649 193.906C898.661 194.621 899.551 196.33 900.626 197.705C901.702 199.079 902.592 200.965 902.604 201.895C902.616 202.825 903.04 203.842 903.545 204.154C904.425 204.698 908.802 217.582 909.165 220.701C909.262 221.526 909.854 224.87 910.482 228.134C911.109 231.396 911.623 236.207 911.623 238.823C911.623 241.439 912.021 243.825 912.508 244.126C912.994 244.426 913.637 245.916 913.936 247.435C914.234 248.954 915.433 253.796 916.6 258.195C918.86 266.719 919.155 268.312 920.465 279.114C922.08 292.434 919.862 321.089 916.717 327.521C916.27 328.436 915.112 331.659 914.145 334.683C912.524 339.75 908.884 347.628 903.877 356.904C901.916 360.539 899.614 363.603 892.758 371.703L889.389 375.685L892.732 391.928C895.935 407.483 896.076 409.104 896.065 430.168C896.054 450.073 895.828 453.009 893.697 461.034C892.401 465.911 890.282 471.898 888.986 474.335C887.691 476.772 886.63 479.305 886.629 479.963C886.628 481.277 880.7 493.607 879.018 495.792C878.44 496.543 877.389 498.732 876.683 500.657C872.802 511.232 864.053 528.966 861.641 531.149C860.539 532.146 859.637 533.495 859.637 534.146C859.637 537.505 835.175 563.197 825.359 570.146C822.252 572.346 815.826 576.958 811.078 580.395C806.331 583.832 802.017 586.644 801.49 586.644C800.964 586.644 798.471 588.218 795.95 590.143C793.43 592.068 790.952 593.642 790.442 593.642C789.933 593.642 787.635 594.879 785.337 596.392C783.039 597.905 779.496 599.987 777.462 601.02C775.43 602.053 772.854 603.87 771.74 605.057C769.795 607.126 769.78 607.365 771.375 610.882C773.268 615.061 775.936 615.964 779.615 613.67C781.348 612.59 784.729 612.14 791.112 612.14C798.738 612.14 800.936 612.529 805.152 614.627C813.877 618.969 820.182 624.345 824.248 630.911C827.676 636.448 828.118 637.899 828.247 644.043C828.357 649.349 827.919 651.782 826.35 654.541C822.9 660.611 820.612 662.481 813.893 664.716C805.076 667.651 793.813 667.083 784.848 663.252C778.056 660.35 768.421 651.761 767.19 647.515C766.811 646.205 765.163 641.76 763.529 637.636C759.544 627.577 758.722 625.626 757.072 622.307C756.298 620.75 755.665 618.907 755.665 618.213C755.665 617.518 754.788 616.155 753.717 615.185C751.849 613.495 751.387 613.53 742.674 616.03C737.674 617.465 732.252 618.639 730.627 618.639C727.677 618.639 723.787 621.522 723.546 623.888C723.1 628.261 722.79 630.024 721.214 637.179C717.676 653.239 711.228 669.893 704.388 680.629C703.161 682.554 701.264 685.674 700.169 687.563C695.846 695.028 678.863 712.322 670.024 718.261C660.088 724.936 650.101 730.621 648.309 730.621C647.641 730.621 646.613 731.102 646.024 731.691C644.4 733.316 629.316 738.316 619.201 740.583C608.843 742.905 605.741 743.317 592.721 744.098C587.154 744.432 582.795 745.173 582.169 745.893C581.585 746.567 580.301 749.593 579.319 752.618C575.442 764.559 572.723 771.364 567.091 783.218C565.235 787.125 563.716 790.782 563.716 791.344C563.716 791.906 563.016 792.948 562.159 793.659C561.302 794.37 559.949 796.338 559.153 798.031C557.279 802.012 554.069 807.272 549.837 813.294C544.457 820.949 542.61 823.273 535.974 830.736C532.538 834.6 529.725 838.128 529.725 838.575C529.725 839.855 507.206 859.678 500.908 863.943C497.788 866.056 493.413 869.274 491.186 871.095C488.959 872.915 485.585 875.126 483.688 876.009C481.791 876.892 477.539 879.168 474.24 881.065C470.941 882.964 467.567 884.789 466.742 885.121C465.917 885.453 463.893 886.338 462.243 887.086C457.734 889.135 451.763 891.555 442.249 895.19C441.149 895.61 439.574 896.047 438.75 896.162C437.925 896.276 435.226 897.051 432.751 897.884C415.858 903.569 387.544 906.297 366.769 904.239C359.798 903.549 343.686 900.538 341.889 899.59C341.002 899.122 337.802 898.007 334.778 897.111C329.08 895.424 327.718 894.866 316.685 889.69C309.079 886.122 308.786 886.092 302.786 888.226C291.833 892.125 272.397 896.432 257.985 898.157C240.722 900.222 207.947 900.181 199.814 898.082C198.989 897.869 196.418 897.428 194.1 897.102C186.224 895.993 184.323 895.662 176.82 894.087C172.696 893.221 168.197 892.113 166.822 891.623C165.448 891.133 160.949 889.727 156.825 888.499C152.701 887.27 148.877 885.952 148.327 885.569C147.778 885.186 145.978 884.559 144.328 884.176C142.679 883.793 139.418 882.606 137.08 881.538C132.7 879.538 125.475 876.323 122.834 875.202C121.373 874.581 113.394 870.232 105.339 865.665C103.139 864.418 100.63 862.768 99.7614 862C98.8936 861.23 97.9268 860.601 97.6129 860.601C96.5852 860.601 86.4129 853.512 83.3448 850.656C81.6952 849.121 79.6048 847.47 78.6991 846.985C72.9246 843.894 48.2602 819.432 43.1415 811.72C41.1711 808.751 37.4891 803.479 34.9587 800.003C29.1203 791.983 23.8607 783.663 23.8607 782.447C23.8607 781.93 22.736 779.851 21.3614 777.829C19.9867 775.805 18.862 773.409 18.862 772.505C18.862 771.6 18.1872 770.3 17.3624 769.615C16.5377 768.93 15.8628 767.765 15.8628 767.026C15.8628 765.774 13.7844 760.412 11.7259 756.355C9.50654 751.981 3.62012 730.933 2.29047 722.622C1.89458 720.148 1.39468 716.998 1.17774 715.623C0.9618 714.249 0.52497 705.025 0.207055 695.127C-0.238826 681.214 0.00104845 674.634 1.26371 666.131C2.89627 655.144 6.2234 639.913 7.81597 636.136C8.27985 635.036 10.0834 630.312 11.8239 625.637C14.7222 617.852 16.6496 613.523 19.6139 608.14C20.2197 607.04 20.9915 605.466 21.3274 604.641C22.1352 602.661 23.8807 599.776 26.479 596.121C27.6437 594.483 28.9113 592.13 29.2952 590.893C29.6791 589.656 30.377 588.643 30.8449 588.643C31.3127 588.643 32.7103 586.957 33.951 584.894C35.1927 582.832 38.2658 578.821 40.7812 575.981C50.9224 564.531 51.5633 562.627 47.3544 556.433C45.9798 554.411 44.8551 552.437 44.8551 552.049C44.8551 551.66 43.5054 548.486 41.8559 544.994C40.2063 541.503 38.8567 538.062 38.8567 537.348C38.8567 536.635 38.4618 535.624 37.9799 535.102C37.1041 534.152 32.9733 522.699 32.3214 519.412C32.1315 518.454 30.8598 513.505 29.4952 508.414C28.1305 503.323 26.7479 497.358 26.423 495.158C26.0981 492.958 25.6253 489.809 25.3723 488.159C21.6853 464.115 23.1249 432.621 28.9323 410.256C30.131 405.639 34.5078 392.206 35.8005 389.175C38.9637 381.758 40.6292 378.148 44.5641 370.177C48.753 361.694 50.1426 359.324 57.2457 348.565C62.0215 341.33 65.8484 336.883 76.4206 326.283C88.0605 314.613 101.901 302.689 106.58 300.302C111.722 297.675 113.42 294.325 112.104 289.395C110.084 281.825 112.116 259.219 116.392 241.698C119.216 230.124 123.803 216.14 127.542 207.703C133.354 194.588 143.235 175.969 145.873 173.16C146.948 172.017 147.828 170.642 147.828 170.107C147.828 169.571 149.159 167.575 150.786 165.672C152.413 163.768 153.763 161.732 153.785 161.147C153.808 160.563 155.835 157.864 158.292 155.148C160.747 152.434 162.772 149.851 162.791 149.41C162.809 148.969 165.86 145.363 169.572 141.396C173.284 137.43 177.67 132.603 179.319 130.669C188.487 119.925 220.285 95.7045 234.304 88.7896C236.504 87.7038 239.653 86.052 241.303 85.1182C242.952 84.1843 245.089 83.0375 246.051 82.5716C247.014 82.1047 248.588 81.3228 249.55 80.8339C251.833 79.6741 258.256 76.8555 268.795 72.3892C272.227 70.9344 286.837 65.9072 289.79 65.1643C292.563 64.4675 309.264 60.607 311.284 60.1971C332.09 55.9708 361.88 54.9609 382.903 57.7685C390.402 58.7693 398.274 60.0551 400.398 60.625C402.521 61.1949 406.508 61.9308 409.258 62.2598L414.256 62.8596L422.953 53.4252C427.737 48.236 434.196 42.3009 437.306 40.2352C440.417 38.1705 444.427 35.195 446.217 33.6233C452.04 28.5091 475.278 16.048 486.237 12.1616C488.986 11.1868 491.686 10.076 492.235 9.69202C493.465 8.83515 513.071 3.67293 516.975 3.179C518.533 2.98103 522.377 2.35314 525.517 1.78323ZM474.24 134.054C479.189 133.766 483.376 133.397 483.544 133.234C483.712 133.07 487.311 133.112 491.542 133.326C498.24 133.666 502.765 134.15 519.599 136.327C525.923 137.145 544.137 141.962 547.683 143.754C551.297 145.581 556.153 147.756 565.466 151.723C568.353 152.952 570.714 154.303 570.714 154.726C570.714 155.148 572.402 156.228 574.463 157.125C580.154 159.6 593.618 169.175 601.301 176.208C614.084 187.91 621.293 195.764 628.487 205.826C631.877 210.569 635.134 215.518 635.725 216.825C636.316 218.131 637.877 221.001 639.196 223.201C646.934 236.117 654.033 255.143 655.344 266.48C655.707 269.621 656.671 273.222 657.487 274.48C658.832 276.554 658.794 276.897 657.081 278.16C655.246 279.512 655.256 279.612 657.441 281.66C660.043 284.099 660.338 285.691 658.191 285.691C657.366 285.691 656.691 286.414 656.691 287.298C656.691 288.262 657.249 288.69 658.088 288.368C659.009 288.015 659.668 288.745 660.021 290.511C660.732 294.063 660.149 326.091 659.282 331.184C658.907 333.383 658.545 335.746 658.479 336.433C658.412 337.121 658.095 337.684 657.774 337.684C657.454 337.685 657.065 339.52 656.911 341.762C656.417 348.953 650.71 368.26 647.24 374.479C645.77 377.111 640.957 387.992 640.618 389.445C640.524 389.846 639.604 391.247 638.572 392.559C637.541 393.871 636.697 395.288 636.697 395.708C636.697 398.323 615.87 424.819 608.825 431.168C606.384 433.368 602.831 436.673 600.93 438.513C595.601 443.671 564.54 463.872 562.23 463.683C561.941 463.659 559.009 465.002 555.712 466.665C552.416 468.329 549.713 469.347 549.705 468.926C549.696 468.506 549.349 468.697 548.933 469.351C548.518 470.005 547.063 470.789 545.7 471.094C544.336 471.399 539.848 472.586 535.724 473.732C521.29 477.744 517.153 478.615 507.412 479.691C498.983 480.622 494.51 480.805 486.737 480.535C485.912 480.507 484.113 480.589 482.738 480.718C479.689 481.004 465.003 479.733 462.256 478.945C461.165 478.632 459.14 478.268 457.758 478.137C450.764 477.471 434.653 473.376 432.251 471.655C431.702 471.26 429.902 470.616 428.253 470.224C424.265 469.274 406.348 461.421 405.926 460.437C405.742 460.012 405.14 459.664 404.588 459.664C403.633 459.664 389.601 450.892 387.056 448.703C386.392 448.132 385.417 447.665 384.89 447.665C384.362 447.665 383.781 447.245 383.598 446.732C383.415 446.219 380.37 443.631 376.832 440.982C368.435 434.695 348.957 413.528 344.42 405.759C343.269 403.786 341.957 401.723 341.504 401.173C337.019 395.721 327.094 376.932 326.189 372.181C325.776 370.017 324.462 366.479 321.731 360.179C320.777 357.979 319.734 354.24 319.411 351.868C319.088 349.498 318.608 347.209 318.345 346.784C316.599 343.959 313.929 325.351 313.34 311.916C313.026 304.734 313.191 303.681 314.594 303.917C315.483 304.066 316.371 303.401 316.569 302.438C316.983 300.426 314.248 299.992 313.413 301.938C313.118 302.626 313.09 301.838 313.35 300.188C313.611 298.539 314.069 294.264 314.369 290.69C315.011 283.018 315.408 280.075 316.257 276.692C316.602 275.317 317.277 271.718 317.757 268.693C319.238 259.353 327.036 237.8 332.045 229.2C332.686 228.1 334.18 225.326 335.364 223.037C336.549 220.747 338.475 217.527 339.647 215.884C340.818 214.239 341.776 212.438 341.776 211.881C341.776 211.324 342.133 210.72 342.568 210.536C343.004 210.353 344.432 208.449 345.741 206.305C348.977 201.004 359.832 188.337 365.441 183.317C367.966 181.056 371.471 177.858 373.23 176.208C382.105 167.887 408.198 150.712 411.964 150.712C412.588 150.712 413.809 150.089 414.677 149.329C415.546 148.568 419.18 146.918 422.754 145.661C426.328 144.404 429.702 143.051 430.252 142.655C433.476 140.334 461.93 134.769 474.24 134.054ZM658.191 295.742C657.641 295.771 657.036 295.044 656.845 294.127C656.63 293.085 657.004 292.628 657.845 292.908C659.403 293.427 659.675 295.663 658.191 295.742ZM658.707 303.178C658.148 303.523 657.691 303.104 657.691 302.247C657.691 300.49 658.291 300.233 659.148 301.619C659.465 302.131 659.266 302.832 658.707 303.178ZM658.155 315.365C657.586 315.554 657.12 314.799 657.12 313.686C657.12 312.574 657.586 311.819 658.155 312.008C658.725 312.198 659.191 312.953 659.191 313.686C659.191 314.419 658.725 315.175 658.155 315.365ZM657.941 326.434C657.197 326.682 656.691 325.973 656.691 324.685C656.691 323.396 657.197 322.687 657.941 322.935C658.629 323.164 659.191 323.952 659.191 324.685C659.191 325.418 658.629 326.205 657.941 326.434Z" fill="#FF917E"/>
<path fill-rule="evenodd" clip-rule="evenodd" d="M483.544 133.234C483.376 133.397 479.189 133.766 474.24 134.054C461.93 134.769 433.476 140.334 430.252 142.655C429.702 143.051 426.328 144.404 422.754 145.661C419.18 146.918 415.546 148.568 414.677 149.329C413.809 150.089 412.588 150.712 411.964 150.712C408.198 150.712 382.105 167.887 373.23 176.208C371.471 177.858 367.966 181.056 365.441 183.317C359.832 188.337 348.977 201.004 345.741 206.305C344.432 208.449 343.004 210.353 342.568 210.536C342.133 210.72 341.776 211.324 341.776 211.881C341.776 212.438 340.818 214.239 339.647 215.884C338.475 217.527 336.549 220.747 335.364 223.037C334.18 225.326 332.686 228.1 332.045 229.2C327.036 237.8 319.238 259.353 317.757 268.693C317.277 271.718 316.602 275.317 316.257 276.692C315.408 280.075 315.011 283.018 314.369 290.69C314.069 294.264 313.611 298.539 313.35 300.188C313.09 301.838 313.118 302.626 313.413 301.938C314.248 299.992 316.983 300.426 316.569 302.438C316.371 303.401 315.483 304.066 314.594 303.917C313.191 303.681 313.026 304.734 313.34 311.916C313.929 325.351 316.599 343.959 318.345 346.784C318.608 347.209 319.088 349.498 319.411 351.868C319.734 354.24 320.777 357.979 321.731 360.179C324.462 366.479 325.776 370.017 326.189 372.181C327.094 376.932 337.019 395.721 341.504 401.173C341.957 401.723 343.269 403.786 344.42 405.759C348.957 413.528 368.435 434.695 376.832 440.982C380.37 443.631 383.415 446.219 383.598 446.732C383.781 447.245 384.362 447.665 384.89 447.665C385.417 447.665 386.392 448.132 387.056 448.703C389.601 450.892 403.633 459.664 404.588 459.664C405.14 459.664 405.742 460.012 405.926 460.437C406.348 461.421 424.265 469.274 428.253 470.224C429.902 470.616 431.702 471.26 432.251 471.655C434.653 473.376 450.764 477.471 457.758 478.137C459.14 478.268 461.165 478.632 462.256 478.945C465.003 479.733 479.689 481.004 482.738 480.718C484.113 480.589 485.912 480.507 486.737 480.535C494.51 480.805 498.983 480.622 507.412 479.691C517.153 478.615 521.29 477.744 535.724 473.732C539.848 472.586 544.336 471.399 545.7 471.094C547.063 470.789 548.518 470.005 548.933 469.351C549.349 468.697 549.696 468.506 549.705 468.926C549.713 469.347 552.416 468.329 555.712 466.665C559.009 465.002 561.941 463.659 562.23 463.683C564.54 463.872 595.601 443.671 600.93 438.513C602.831 436.673 606.384 433.368 608.825 431.168C615.87 424.819 636.697 398.323 636.697 395.708C636.697 395.288 637.541 393.871 638.572 392.559C639.604 391.247 640.524 389.846 640.618 389.445C640.957 387.992 645.77 377.111 647.24 374.479C650.71 368.26 656.417 348.953 656.911 341.762C657.065 339.52 657.454 337.685 657.774 337.684C658.095 337.684 658.412 337.121 658.479 336.433C658.545 335.746 658.907 333.383 659.282 331.184C660.149 326.091 660.732 294.063 660.021 290.511C659.668 288.745 659.009 288.015 658.088 288.368C657.249 288.69 656.691 288.262 656.691 287.298C656.691 286.414 657.366 285.691 658.191 285.691C660.338 285.691 660.043 284.099 657.441 281.66C655.256 279.612 655.246 279.512 657.081 278.16C658.794 276.897 658.832 276.554 657.487 274.48C656.671 273.222 655.707 269.621 655.344 266.48C654.033 255.143 646.934 236.117 639.196 223.201C637.877 221.001 636.316 218.131 635.725 216.825C635.134 215.518 631.877 210.569 628.487 205.826C621.293 195.764 614.084 187.91 601.301 176.208C593.618 169.175 580.154 159.6 574.463 157.125C572.402 156.228 570.714 155.148 570.714 154.726C570.714 154.303 568.353 152.952 565.466 151.723C556.153 147.756 551.297 145.581 547.683 143.754C544.137 141.962 525.923 137.145 519.599 136.327C502.765 134.15 498.24 133.666 491.542 133.326C487.311 133.112 483.712 133.07 483.544 133.234ZM437.939 296.319C437.342 286.936 441.443 279.964 449.754 276.232C452.096 275.18 455.453 274.761 459.951 274.958C465.516 275.202 467.384 275.765 470.939 278.264C476.757 282.352 479.702 287.793 479.723 294.489C479.759 306.264 470.8 314.993 458.66 315.011C451.917 315.021 445.904 312.024 441.383 306.401C438.881 303.287 438.269 301.495 437.939 296.319ZM658.191 295.742C657.641 295.771 657.036 295.044 656.845 294.127C656.63 293.085 657.004 292.628 657.845 292.908C659.403 293.427 659.675 295.663 658.191 295.742ZM658.707 303.178C658.148 303.523 657.691 303.104 657.691 302.247C657.691 300.49 658.291 300.233 659.148 301.619C659.465 302.131 659.266 302.832 658.707 303.178ZM658.155 315.365C657.586 315.554 657.12 314.799 657.12 313.686C657.12 312.574 657.586 311.819 658.155 312.008C658.725 312.198 659.191 312.953 659.191 313.686C659.191 314.419 658.725 315.175 658.155 315.365ZM657.941 326.434C657.197 326.682 656.691 325.973 656.691 324.685C656.691 323.396 657.197 322.687 657.941 322.935C658.629 323.164 659.191 323.952 659.191 324.685C659.191 325.418 658.629 326.205 657.941 326.434ZM593.708 345.523C593.708 336.279 601.277 327.526 610.704 325.872C621.144 324.04 629.858 328.221 634.23 337.162C636.489 341.776 636.851 343.544 636.325 347.38C634.573 360.16 622.283 368.532 609.963 365.335C600.262 362.819 593.708 354.831 593.708 345.523ZM491.736 347.564C491.736 346.818 496.738 336.047 498.066 333.933C499.875 331.055 503.471 332.602 506.714 337.655C511.44 345.021 520.712 353.156 527.107 355.55C533.738 358.03 539.832 358.894 551.845 359.056C563.568 359.214 564.13 359.883 560.231 369.056C558.683 372.701 556.798 376.196 556.043 376.821C555.107 377.599 552.068 377.742 546.452 377.274C523.519 375.362 508.845 368.492 496.484 353.881C493.873 350.794 491.736 347.951 491.736 347.564Z" fill="#FEAB9D"/>
<path d="M610.704 325.872C601.277 327.526 593.708 336.279 593.708 345.523C593.708 354.831 600.262 362.819 609.963 365.335C622.283 368.532 634.573 360.16 636.325 347.38C636.851 343.544 636.489 341.776 634.23 337.162C629.858 328.221 621.144 324.04 610.704 325.872Z" fill="#98655C"/>
<path d="M449.754 276.232C441.443 279.964 437.342 286.936 437.939 296.319C438.269 301.495 438.881 303.287 441.383 306.401C445.904 312.024 451.917 315.021 458.66 315.011C470.8 314.993 479.759 306.264 479.723 294.489C479.702 287.793 476.757 282.352 470.939 278.264C467.384 275.765 465.516 275.202 459.951 274.958C455.453 274.761 452.096 275.18 449.754 276.232Z" fill="#98675E"/>
<path d="M498.066 333.933C496.738 336.047 491.736 346.818 491.736 347.564C491.736 347.951 493.873 350.794 496.484 353.881C508.845 368.492 523.519 375.362 546.452 377.274C552.068 377.742 555.107 377.599 556.043 376.821C556.798 376.196 558.683 372.701 560.231 369.056C564.13 359.883 563.568 359.214 551.845 359.056C539.832 358.894 533.738 358.03 527.107 355.55C520.712 353.156 511.44 345.021 506.714 337.655C503.471 332.602 499.875 331.055 498.066 333.933Z" fill="#98675E"/>
</svg>

