<svg width="948" height="805" viewBox="0 0 948 805" fill="none" xmlns="http://www.w3.org/2000/svg">
<path fill-rule="evenodd" clip-rule="evenodd" d="M450.282 172.197C390.169 179.782 339.524 213.975 309.669 267.13C289.14 303.681 282.473 343.186 289.001 389.602C289.272 391.527 289.711 393.854 289.977 394.772C290.243 395.691 290.619 397.267 290.813 398.276C291.689 402.824 293.792 409.867 297.033 419.102C314.137 467.832 353.409 509.194 401.308 528.927C421.428 537.216 436.132 540.672 460.049 542.735C507.45 546.822 561.433 527.948 597.43 494.701C605.866 486.91 620.994 469.354 627.034 460.347C640.954 439.589 650.214 416.637 655.78 389.102C658.075 377.747 658.539 344.219 656.576 331.602C651.158 296.771 638.473 267.27 617.661 241.102C606.126 226.597 587.398 209.567 572.388 199.934C559.116 191.416 537.706 181.942 521.946 177.614C500.198 171.641 471.738 169.49 450.282 172.197ZM338.347 294.61C338.347 287.323 341.767 281.995 348.841 278.264C350.49 277.394 354.057 276.664 356.77 276.642C373.217 276.509 381.818 293.992 371.238 306.05C360.214 318.614 338.347 311.008 338.347 294.61ZM477.729 342.417C476.391 335.01 480.941 327.177 488.755 323.436C493.803 321.019 501.8 321.544 506.771 324.619C515.911 330.271 518.01 343.827 510.924 351.449C500.324 362.852 480.445 357.442 477.729 342.417ZM386.724 347.272C386.185 341.999 386.425 340.311 388.218 336.794C390.393 332.529 393.108 331.356 395.03 333.852C395.56 334.54 396.547 338.32 397.225 342.253C398.787 351.323 403.152 360.643 407.183 363.515C413.648 368.121 420.789 367.341 435.468 360.424C440.24 358.175 444.851 356.606 445.712 356.937C447.744 357.717 447.702 360.648 445.597 365.067C444.158 368.085 442.813 369.021 436.353 371.502C419.47 377.983 407.924 379.414 400.594 375.933C393.689 372.654 388.151 361.211 386.724 347.272Z" fill="#FA8A7E"/>
<path d="M488.755 323.436C480.941 327.177 476.391 335.01 477.729 342.417C480.445 357.442 500.324 362.852 510.924 351.449C518.01 343.827 515.911 330.271 506.771 324.619C501.8 321.544 493.803 321.019 488.755 323.436Z" fill="#95625C"/>
<path d="M388.218 336.794C386.425 340.311 386.185 341.999 386.724 347.272C388.151 361.211 393.689 372.654 400.594 375.933C407.924 379.414 419.47 377.983 436.353 371.502C442.813 369.021 444.158 368.085 445.597 365.067C447.702 360.648 447.744 357.717 445.712 356.937C444.851 356.606 440.24 358.175 435.468 360.424C420.789 367.341 413.648 368.121 407.183 363.515C403.152 360.643 398.787 351.323 397.225 342.253C396.547 338.32 395.56 334.54 395.03 333.852C393.108 331.356 390.393 332.529 388.218 336.794Z" fill="#95625C"/>
<path fill-rule="evenodd" clip-rule="evenodd" d="M308.966 2.6072C310.559 2.0602 315.686 1.1872 320.358 0.667199C332.565 -0.691801 363.094 0.142183 373.326 2.11318C400.138 7.27918 423.72 15.7762 439.788 26.0602C442.83 28.0082 445.761 29.6022 446.3 29.6022C446.839 29.6022 447.28 30.0222 447.28 30.5352C447.28 31.0482 448.099 31.7272 449.099 32.0452C451.416 32.7802 464.405 42.6562 471.203 48.8522C474.071 51.4642 477.07 53.6022 477.868 53.6022C478.667 53.6022 482.323 51.0542 485.992 47.9392C498.325 37.4712 524.291 22.2962 533.727 20.0422C535.376 19.6482 537.175 18.9992 537.725 18.5982C538.274 18.1982 539.848 17.6292 541.222 17.3342C542.597 17.0392 546.869 15.9212 550.717 14.8512C554.564 13.7802 560.86 12.3052 564.708 11.5742C573.513 9.90018 608.585 9.80622 615.927 11.4372C618.813 12.0782 623.534 13.1072 626.42 13.7252C639.001 16.4192 668.764 28.1222 669.976 30.8522C670.16 31.2652 670.746 31.6022 671.278 31.6022C672.296 31.6022 688.164 41.8292 690.358 43.8992C691.059 44.5612 693.774 46.8242 696.391 48.9292C708.334 58.5352 721.681 73.5422 731.401 88.2902C735.086 93.8842 738.101 98.7262 738.101 99.0512C738.101 99.3762 739.138 101.32 740.403 103.372C742.314 106.467 745.601 113.712 751.171 127.102C753.023 131.554 756.928 144.522 758.398 151.102C760.911 162.35 764.085 181.75 764.085 185.86C764.085 189.047 765.578 189.602 774.142 189.602C785.363 189.602 808.524 193.511 823.049 197.857C866.168 210.757 901.298 235.854 923.498 269.619C932.181 282.824 942.976 306.948 942.976 313.148C942.976 314.278 943.364 315.63 943.839 316.152C944.313 316.675 945.489 321.827 946.452 327.602C947.846 335.958 948.108 341.981 947.738 357.102C947.221 378.189 946.269 384.007 940.297 402.602C937.522 411.246 937.154 412.18 933.61 419.616C932.165 422.649 930.983 425.687 930.983 426.366C930.983 427.046 930.582 427.602 930.091 427.602C929.602 427.602 928.933 428.67 928.605 429.976C927.772 433.299 913.818 453.885 907.505 461.102C895.69 474.612 885.011 484.69 872.749 493.903C870.699 495.443 869.021 497.42 869.021 498.295C869.021 499.17 870.83 502.751 873.04 506.254C882.04 520.512 890.964 542.186 894.39 558.102C897.608 573.055 898.187 579.276 897.693 593.602C897.014 613.3 895.757 620.326 890.087 636.102C888.02 641.854 881.075 655.049 876.401 662.102C859.436 687.708 828.508 708.139 794.916 715.931C791.426 716.74 785.872 718.01 782.574 718.752C774.442 720.583 730.363 720.573 720.612 718.739C680.204 711.138 650.579 699.124 617.675 676.993C604.151 667.897 602.24 666.361 590.435 655.102C585.244 650.152 580.286 645.941 579.415 645.743C578.544 645.546 577.222 646.221 576.476 647.243C571.589 653.943 551.614 672.249 543.232 677.71L540.764 679.319L544.673 685.71C546.823 689.226 548.859 692.327 549.196 692.602C549.534 692.877 552.707 697.152 556.247 702.102C559.787 707.052 563.232 711.777 563.902 712.602C575.87 727.319 599.83 759.587 603.32 765.686C610.538 778.297 607.815 787.17 594.062 795.865C575.546 807.571 553.391 807.566 544.463 795.854C542.098 792.751 541.722 791.328 541.722 785.485C541.722 779.114 541.929 778.495 545.22 775.032C550.75 769.212 556.05 767.32 566.659 767.381C571.763 767.411 577.796 768.089 580.51 768.938C584.49 770.184 585.407 770.212 585.834 769.101C586.324 767.825 584.657 763.669 583.227 762.602C582.859 762.327 580.565 759.454 578.13 756.217C575.695 752.98 572.578 748.879 571.204 747.102C569.83 745.325 566.713 741.224 564.278 737.987C561.843 734.75 559.594 731.877 559.281 731.602C558.219 730.669 536.322 701.072 534.734 698.421C528.424 687.891 526.577 686.395 522.47 688.485C516.441 691.555 505.925 694.839 492.752 697.769C484.855 699.525 450.864 699.525 443.283 697.769C409.727 689.998 385.134 676.389 361.078 652.281C359.53 650.729 357.718 649.641 357.052 649.863C356.387 650.085 355.067 653.83 354.119 658.184C353.172 662.539 351.935 668.021 351.368 670.366C350.115 675.561 350.003 697.621 351.213 700.805C351.694 702.068 352.897 705.577 353.887 708.602C354.878 711.627 356.784 716.127 358.123 718.602C363.567 728.662 369.801 739.122 370.54 739.435C370.973 739.619 371.327 740.1 371.327 740.505C371.327 740.911 373.825 745.036 376.878 749.672C379.931 754.309 384.254 761.702 386.481 766.102C390.151 773.349 390.546 774.862 390.674 782.18C390.802 789.526 390.571 790.577 388.118 793.795C382.747 800.842 369.602 804.233 353.947 802.61C339.393 801.101 329.943 795.981 327.391 788.224C323.48 776.339 336.703 766.499 352.52 769.522C355.993 770.185 361.465 771.645 364.681 772.766C371.611 775.181 373.548 774.33 371.27 769.872C368.906 765.249 357.936 748.125 357.109 747.769C356.684 747.585 356.336 747.032 356.336 746.538C356.336 746.045 354.746 743.154 352.803 740.114C348.154 732.842 339.346 715.286 339.346 713.291C339.346 712.427 338.957 711.479 338.48 711.184C336.887 710.199 335.998 701.242 335.99 686.102C335.983 672.169 336.605 666.145 339.241 654.602C341.274 645.698 343.505 636.064 343.99 634.095C344.284 632.897 343.383 630.478 341.754 628.095C340.254 625.899 337.555 621.402 335.759 618.102C332.017 611.232 329.469 610.105 326.042 613.805C321.889 618.287 305.796 630.411 296.354 636.172C288.373 641.042 281.742 644.396 267.89 650.569C259.082 654.494 243.66 658.817 228.415 661.633C216.35 663.862 181.554 664.409 172.275 662.516C155.553 659.105 151.352 658.137 145.466 656.339C109.728 645.426 79.4371 624.551 55.8756 594.602C51.3833 588.891 38.5312 569.361 38.5312 568.244C38.5312 568.016 36.5075 563.525 34.034 558.264C31.5605 553.003 29.5368 548.092 29.5368 547.35C29.5368 546.609 29.152 545.575 28.6823 545.052C27.0373 543.225 21.1609 520.98 18.6404 507.042C17.2443 499.324 17.2113 463.143 18.5935 455.162C21.4697 438.543 26.8634 417.118 28.6663 415.152C30.6111 413.03 29.3339 408.566 24.8976 401.984C16.8136 389.991 8.92543 371.685 4.69303 355.102C-1.17636 332.098 0.0128989 301.569 7.63422 279.602C8.30181 277.677 9.16028 275.202 9.54204 274.102C11.1271 269.526 17.9219 255.915 21.1109 250.927C22.9968 247.977 24.5398 245.122 24.5398 244.583C24.5398 244.043 24.8766 243.601 25.2894 243.6C25.7021 243.599 27.3881 241.59 29.0371 239.135C32.7028 233.679 50.289 216.228 56.712 211.672C62.4275 207.618 62.9572 206.432 60.4638 203.26C59.0336 201.441 57.1388 200.603 53.2732 200.079C46.7812 199.199 43.885 197.753 40.0013 193.454C28.5724 180.801 31.1328 163.602 44.4456 163.602C49.1647 163.602 51.5552 164.749 56.6961 169.482C60.4078 172.899 61.0504 172.996 67.2326 171.074C68.9156 170.551 70.1788 171.115 72.4794 173.417C74.1453 175.084 75.4975 177.27 75.4835 178.275C75.4695 179.28 73.6706 183.697 71.486 188.091C69.3013 192.485 67.5134 196.422 67.5134 196.841C67.5134 197.26 68.4249 198.514 69.5392 199.629L71.5659 201.657L78.2838 198.178C93.6943 190.197 104.564 186.471 120.481 183.714C136.795 180.888 146.208 179.598 150.888 179.546C153.677 179.515 157.533 178.952 159.457 178.296L162.955 177.102L163.59 166.602C165.198 140.038 169.391 122.446 179.032 101.799C180.908 97.7822 182.443 94.3322 182.443 94.1322C182.443 93.2072 192.152 77.4722 196.035 72.1022C202.994 62.4802 213.112 51.5702 222.597 43.4622C226.045 40.5142 229.472 37.5392 230.211 36.8512C236.38 31.1172 269.54 12.6022 273.642 12.6022C274.381 12.6022 275.414 12.2262 275.935 11.7662C276.457 11.3062 280.932 9.72317 285.879 8.24917C290.826 6.77517 296.255 5.12617 297.943 4.58517C299.631 4.04517 302.149 3.6022 303.54 3.6022C304.931 3.6022 307.372 3.1542 308.966 2.6072ZM309.669 267.13C339.524 213.975 390.169 179.782 450.282 172.197C471.738 169.49 500.198 171.641 521.946 177.614C537.706 181.942 559.116 191.416 572.388 199.934C587.398 209.567 606.126 226.597 617.661 241.102C638.473 267.27 651.158 296.771 656.576 331.602C658.539 344.219 658.075 377.747 655.78 389.102C650.214 416.637 640.954 439.589 627.034 460.347C620.994 469.354 605.866 486.91 597.43 494.701C561.433 527.948 507.45 546.822 460.049 542.735C436.132 540.672 421.428 537.216 401.308 528.927C353.409 509.194 314.137 467.832 297.033 419.102C293.792 409.867 291.689 402.824 290.813 398.276C290.619 397.267 290.243 395.691 289.977 394.772C289.711 393.854 289.272 391.527 289.001 389.602C282.473 343.186 289.14 303.681 309.669 267.13Z" fill="#F36757"/>
<path d="M348.841 278.264C341.767 281.995 338.347 287.323 338.347 294.61C338.347 311.008 360.214 318.614 371.238 306.05C381.818 293.992 373.217 276.509 356.77 276.642C354.057 276.664 350.49 277.394 348.841 278.264Z" fill="#95625C"/>
</svg>
