<svg width="1108" height="966" viewBox="0 0 1108 966" fill="none" xmlns="http://www.w3.org/2000/svg">
<path fill-rule="evenodd" clip-rule="evenodd" d="M690.504 0.932214C678.803 1.79521 669.906 3.18721 658.004 6.01821C641.889 9.85121 633.797 12.4382 620.964 17.8572C596.941 28.0022 575.467 41.3772 557.716 57.2502C551.149 63.1232 548.674 63.9892 546.376 61.2172C544.128 58.5052 532.598 49.6562 523.504 43.6632C500.465 28.4812 477.037 19.2312 449.004 14.2472C436.28 11.9852 402.73 11.6922 391.504 13.7442C376.134 16.5542 358.077 21.3872 350.004 24.8502C326.049 35.1262 307.002 46.7172 291.045 60.7272C271.289 78.0732 250.4 105.567 239.268 128.873C229.701 148.904 224.876 163.146 219.452 187.373C218.601 191.172 215.843 210.965 215.272 217.373C215.035 220.027 214.6 220.403 211.504 220.628C201.125 221.386 178.029 224.152 171.504 225.419C107.661 237.815 55.0379 272.551 25.3779 321.873C14.6309 339.745 7.26497 358.942 3.12197 379.873C-1.94403 405.475 -0.867044 431.508 6.51696 461.873C9.25796 473.147 17.535 493.491 23.725 504.167C25.253 506.804 26.504 509.201 26.504 509.493C26.504 510.289 36.019 524.33 42.3479 532.873C49.263 542.207 74.393 567.417 84.742 575.403C88.998 578.686 92.485 581.999 92.492 582.765C92.499 583.531 90.7519 586.932 88.6099 590.323C77.7299 607.55 67.338 632.859 63.13 652.373C59.503 669.196 59.075 673.138 59.056 689.873C59.038 706.831 59.591 711.823 63.156 726.873C71.344 761.43 93.593 792.814 124.504 813.406C132.919 819.012 151.081 828.873 152.99 828.873C153.382 828.873 155.12 829.493 156.853 830.251C158.586 831.009 162.029 832.29 164.504 833.098C187.664 840.658 202.591 842.875 230.294 842.868C254.418 842.863 266.532 841.371 295.004 834.897C297.204 834.397 303.954 832.345 310.004 830.337C337.738 821.133 362.831 808.736 388.501 791.557C402.824 781.972 407.59 777.994 426.164 760.123C428.593 757.785 431.351 755.876 432.292 755.88C433.234 755.884 435.051 757.424 436.33 759.302C439.416 763.835 456.467 780.263 464.004 785.966C467.304 788.463 473.491 792.66 477.754 795.293L485.504 800.08L485.515 804.727C485.522 807.282 485.813 833.561 486.163 863.123C486.676 906.513 486.551 916.873 485.516 916.873C484.81 916.873 479.682 915.005 474.119 912.722C464.441 908.751 463.529 908.568 452.992 908.491C440.521 908.401 436.868 909.725 432.755 915.828C427.549 923.554 427.22 936.649 431.963 947.378C435.151 954.59 438.496 958.306 444.504 961.308C452.63 965.368 457.176 966.057 472.564 965.562C498.486 964.728 509.897 960.783 515.055 950.873C516.521 948.056 516.843 945.324 516.702 936.873C516.605 931.098 516.067 923.448 515.505 919.873C514.943 916.298 514.01 903.923 513.432 892.373C512.854 880.823 511.987 863.948 511.506 854.873C510.298 832.099 510.058 813.404 510.955 811.952C511.368 811.284 512.448 811.033 513.355 811.395C516.208 812.535 528.699 815.555 536.504 816.992C547.648 819.044 577.589 818.768 589.004 816.508C608.178 812.711 620.648 808.39 638.703 799.286C644.158 796.535 647.644 795.29 648.05 795.948C648.407 796.525 648.543 830.867 648.352 872.262L648.004 947.527L650.74 951.115C652.628 953.591 654.953 955.163 658.24 956.188C676.675 961.933 681.185 963.077 688.167 963.781C713.794 966.365 730.418 955.31 730.482 935.643C730.518 924.775 726.004 915.762 718.819 912.352C712.968 909.576 702.953 910.072 692.004 913.68C687.054 915.311 680.881 916.947 678.287 917.316C673.916 917.937 673.536 917.817 673.096 915.679C672.563 913.08 671.021 866.086 671.217 858.373C671.605 843.119 671.42 788.63 670.967 784.373L670.434 779.373L684.219 765.324C698.43 750.84 707.998 738.472 716.092 724.123C721.195 715.076 722.679 714.279 726.58 718.49C732.449 724.828 753.763 740.569 765.361 747.133C801.509 767.59 835.599 776.78 875.578 776.844C901.121 776.884 917.755 774.359 941.504 766.838C978.102 755.246 1013.17 731.608 1038.15 701.689C1050.76 686.588 1065.55 662.244 1071.45 646.868C1072.61 643.846 1073.96 640.473 1074.46 639.373C1079.89 627.313 1085.88 601.425 1087.45 583.201C1090.27 550.505 1086.65 519.327 1076.52 489.087L1073.47 479.967L1078.4 472.625C1082.77 466.121 1094.5 444.045 1094.5 442.33C1094.5 441.97 1095.12 440.257 1095.88 438.524C1098.49 432.554 1101.49 422.674 1104.44 410.373C1106.94 399.885 1107.97 378.674 1106.71 363.622C1106.05 355.785 1105.09 347.798 1104.58 345.873C1104.07 343.948 1102.88 339.448 1101.95 335.873C1099.14 325.08 1095.55 315.969 1089.35 303.851C1068.29 262.686 1027.43 230.29 980.504 217.549C967.8 214.1 951.892 211.539 932.666 209.847C926.431 209.298 920.539 208.427 919.573 207.91C918.063 207.102 917.729 204.834 917.182 191.672C915.897 160.776 907.545 132.318 891.261 103.358C882.713 88.1552 864.626 65.6302 852.053 54.5302C834.291 38.8482 810.398 23.7872 792.236 16.8242C789.358 15.7202 786.104 14.4122 785.004 13.9172C778.337 10.9132 759.116 5.78822 744.004 2.98422C736.891 1.66522 713.227 -0.186778 706.054 0.0152221C703.277 0.0942221 696.279 0.506214 690.504 0.932214Z" fill="#D14C41"/>
</svg>

