<svg width="1105" height="963" viewBox="0 0 1105 963" fill="none" xmlns="http://www.w3.org/2000/svg">
<path fill-rule="evenodd" clip-rule="evenodd" d="M493.899 156.766C456.762 160.948 425.743 175.634 399.839 201.3C376.269 224.652 361.876 252.682 356.383 285.926C352.369 310.218 354.693 338.052 362.634 360.77C370.851 384.278 383.647 404.087 402.079 421.832C409.253 428.738 427.21 442.8 428.856 442.8C429.072 442.8 431.88 444.287 435.095 446.103C438.31 447.92 444.341 450.822 448.497 452.552C482.905 466.872 520.279 468.497 555.941 457.226C571.253 452.386 592.26 440.983 604.441 430.898C635.983 404.785 655.057 371.701 661.286 332.3C662.747 323.059 662.613 298.356 661.047 288.3C657.324 264.389 649.067 242.98 636.17 223.805C634.504 221.327 631.037 216.825 628.467 213.8C625.897 210.775 622.927 207.239 621.868 205.942C617.509 200.609 601.322 187.084 592.441 181.356C573.829 169.35 552.538 160.946 533.941 158.264C531.191 157.868 528.256 157.421 527.418 157.273C522.695 156.434 499.906 156.09 493.899 156.766ZM459.687 209.012C458.955 201.386 462.542 195.965 470.125 193.237C476.277 191.024 483.049 193.169 487.822 198.841C491.257 202.923 491.465 210.407 488.286 215.55C485.957 219.319 479.741 222.742 475.159 222.778C467.527 222.838 460.407 216.504 459.687 209.012ZM509.384 247.917C506.801 241.014 505.77 230.921 507.348 227.974C509.858 223.285 514.755 226.106 515.835 232.864C516.793 238.854 521.045 247.311 524.108 249.318C527.996 251.865 534.999 251.482 542.504 248.311C551.049 244.7 553.748 244.26 555.37 246.214C556.978 248.152 555.237 253.257 552.599 254.333C546.612 256.778 536.393 259.899 531.593 260.749C520.655 262.687 513.325 258.452 509.384 247.917ZM574.441 245.049C574.441 239.698 578.587 233.635 583.941 231.156C587.947 229.302 595.885 229.999 599.265 232.502C605.976 237.472 608.055 244.596 604.798 251.46C599.478 262.67 581.897 262.571 576.441 251.3C575.341 249.028 574.441 246.215 574.441 245.049Z" fill="#F47167"/>
<path d="M583.941 231.156C578.587 233.635 574.441 239.698 574.441 245.049C574.441 246.215 575.341 249.028 576.441 251.3C581.897 262.571 599.478 262.67 604.798 251.46C608.055 244.596 605.976 237.472 599.265 232.502C595.885 229.999 587.947 229.302 583.941 231.156Z" fill="#98655C"/>
<path d="M507.348 227.974C505.77 230.921 506.801 241.014 509.384 247.917C513.325 258.452 520.655 262.687 531.593 260.749C536.393 259.899 546.612 256.778 552.599 254.333C555.237 253.257 556.978 248.152 555.37 246.214C553.748 244.26 551.049 244.7 542.504 248.311C534.999 251.482 527.996 251.865 524.108 249.318C521.045 247.311 516.793 238.854 515.835 232.864C514.755 226.106 509.858 223.285 507.348 227.974Z" fill="#98655C"/>
<path fill-rule="evenodd" clip-rule="evenodd" d="M670.441 2.63399C674.016 2.15999 679.416 1.39102 682.441 0.927018C690.324 -0.283982 722.678 -0.316994 730.941 0.878007C734.791 1.43401 740.641 2.25399 743.941 2.69899C750.042 3.52199 756.345 4.93201 764.441 7.28401C766.916 8.00301 771.641 9.37203 774.941 10.325C778.241 11.277 781.369 12.449 781.891 12.929C782.414 13.408 783.615 13.8 784.56 13.8C785.505 13.8 787.553 14.442 789.11 15.228C790.667 16.013 797.341 19.267 803.941 22.46C810.541 25.652 816.166 28.531 816.441 28.858C816.716 29.184 818.512 30.317 820.432 31.375C824.795 33.781 841.155 45.814 846.659 50.666C862.649 64.762 877.342 82.367 888.083 100.3C889.502 102.67 898.006 120.001 899.858 124.3C900.569 125.95 901.891 129.003 902.796 131.084C903.701 133.165 904.441 135.726 904.441 136.775C904.441 137.824 904.852 138.936 905.354 139.246C905.856 139.557 906.57 141.606 906.941 143.8C907.312 145.994 908.026 148.043 908.529 148.354C909.031 148.664 909.441 150.437 909.441 152.294C909.441 154.151 909.962 156.937 910.598 158.485C911.235 160.033 912.111 164.225 912.546 167.8C912.981 171.375 913.796 177.45 914.357 181.3C914.917 185.15 915.391 192.436 915.409 197.491C915.43 203.664 915.846 206.932 916.674 207.444C917.352 207.863 921.965 208.545 926.924 208.96C935.08 209.642 942.684 210.61 963.987 213.679C967.862 214.237 972.278 215.168 973.801 215.747C975.325 216.326 977.616 216.8 978.893 216.8C980.169 216.8 982.501 217.472 984.077 218.294C985.652 219.115 987.927 219.79 989.133 219.794C990.338 219.797 991.601 220.25 991.941 220.8C992.281 221.35 993.206 221.8 993.997 221.8C995.273 221.8 1001.68 224.524 1012.44 229.637C1014.37 230.551 1018.69 232.988 1022.05 235.05C1025.41 237.113 1028.63 238.8 1029.22 238.8C1029.8 238.8 1030.42 239.164 1030.61 239.608C1030.79 240.053 1033.19 241.936 1035.94 243.792C1038.69 245.649 1041.17 247.423 1041.44 247.734C1041.72 248.045 1044.63 250.55 1047.92 253.3C1055.21 259.39 1065.97 270.539 1071.07 277.3C1073.15 280.05 1075.21 282.45 1075.65 282.633C1076.08 282.817 1076.44 283.409 1076.44 283.95C1076.44 284.491 1077.52 286.366 1078.84 288.117C1081.88 292.142 1088.53 304.364 1091.73 311.8C1096.76 323.51 1100.31 335.314 1102.85 348.8C1104.7 358.621 1105.05 392.729 1103.37 399.3C1102.81 401.5 1101.95 405.775 1101.47 408.8C1100.43 415.274 1098.57 422.592 1097.32 425.036C1096.84 425.991 1096.44 427.273 1096.44 427.885C1096.44 428.497 1095.83 430.416 1095.08 432.149C1094.33 433.882 1092.92 437.325 1091.95 439.8C1089.13 446.969 1083.72 457.527 1079.38 464.3C1078.33 465.95 1077.15 467.975 1076.78 468.8C1076.4 469.625 1075.82 470.525 1075.49 470.8C1072.24 473.531 1070.3 481.133 1072.3 483.35C1073.24 484.392 1075.85 492.426 1076.92 497.539C1077.29 499.32 1078.01 501.034 1078.52 501.348C1079.03 501.661 1079.44 503.437 1079.44 505.294C1079.44 507.151 1079.94 509.937 1080.55 511.485C1081.16 513.033 1082.06 517.225 1082.55 520.8C1083.04 524.375 1083.86 529.775 1084.37 532.8C1085.52 539.639 1085.57 579.346 1084.44 586.8C1083.98 589.825 1083.16 595.225 1082.62 598.8C1082.08 602.375 1081.15 606.567 1080.54 608.115C1079.94 609.663 1079.44 612.224 1079.44 613.806C1079.44 615.388 1079.02 616.944 1078.5 617.264C1077.98 617.585 1077.25 619.867 1076.88 622.336C1076.51 624.805 1075.81 627.071 1075.33 627.371C1074.84 627.672 1074.44 628.679 1074.44 629.609C1074.43 630.539 1073.76 632.589 1072.94 634.164C1072.11 635.74 1071.44 637.616 1071.44 638.333C1071.44 639.051 1070.8 640.912 1070.01 642.469C1069.23 644.026 1065.97 650.7 1062.78 657.3C1059.59 663.9 1056.71 669.525 1056.39 669.8C1056.06 670.075 1055.49 670.975 1055.12 671.8C1054.16 673.959 1052.33 676.773 1049.19 680.94C1047.68 682.946 1046.44 685.048 1046.44 685.611C1046.44 686.173 1046.09 686.783 1045.66 686.967C1045.23 687.15 1042.68 690.225 1040.01 693.8C1033.81 702.073 1012.93 722.938 1004.44 729.333C1000.87 732.028 997.791 734.585 997.608 735.016C997.424 735.447 996.913 735.8 996.472 735.8C996.03 735.8 993.03 737.542 989.805 739.672C980.516 745.805 968.804 752.1 958.941 756.261C956.741 757.189 953.591 758.535 951.941 759.252C950.291 759.969 946.241 761.378 942.941 762.383C939.641 763.388 936.513 764.568 935.992 765.005C935.469 765.442 934.119 765.798 932.992 765.795C931.864 765.792 928.916 766.43 926.441 767.212C901.025 775.245 848.857 775.245 823.441 767.212C820.966 766.43 817.955 765.792 816.75 765.795C815.545 765.798 814.281 765.35 813.941 764.8C813.601 764.25 812.338 763.797 811.133 763.794C809.927 763.79 807.652 763.115 806.077 762.294C804.501 761.472 802.604 760.8 801.862 760.8C800.474 760.8 795.004 758.613 790.287 756.173C788.827 755.418 786.914 754.8 786.037 754.8C785.159 754.8 784.441 754.35 784.441 753.8C784.441 753.25 783.982 752.8 783.42 752.8C781.945 752.8 769.183 746.547 767.62 745.058C766.893 744.366 765.655 743.8 764.87 743.8C764.084 743.8 763.441 743.402 763.441 742.917C763.441 742.431 762.654 741.749 761.691 741.401C760.728 741.053 759.041 740.206 757.941 739.519C753.733 736.89 746.919 732.295 746.441 731.763C746.166 731.457 743.016 728.999 739.441 726.301C735.866 723.603 730.691 719.242 727.941 716.61C722.254 711.167 718.834 710.384 717.852 714.3C717.508 715.675 716.823 716.8 716.333 716.8C715.842 716.8 715.441 717.364 715.441 718.052C715.441 719.479 703.493 738.124 702.253 738.633C701.806 738.817 701.441 739.604 701.441 740.383C701.441 741.162 701.104 741.812 700.691 741.826C700.278 741.84 698.141 744.292 695.941 747.276C693.741 750.259 686.656 757.919 680.196 764.298L668.452 775.897L668.457 825.098C668.461 869.107 669.593 909.143 671.017 915.657C671.446 917.615 671.99 917.919 674.237 917.457C675.724 917.151 679.191 916.452 681.941 915.903C684.691 915.355 690.045 913.757 693.838 912.353C706.247 907.759 718.347 909.526 723.287 916.654C725.769 920.234 728.441 928.866 728.441 933.3C728.441 942.102 722.483 952.146 714.941 956.057C707.119 960.113 702.626 960.991 692.171 960.509C682.698 960.072 675.28 958.735 671.314 956.751C670.419 956.303 668.052 955.63 666.053 955.255C664.054 954.88 662.172 954.174 661.871 953.687C661.57 953.199 660.07 952.8 658.538 952.8C655.597 952.8 651.409 949.708 649.617 946.215C648.049 943.157 647.849 922.579 648.72 853.627L649.499 791.953L647.398 791.286C646.081 790.869 644.642 791.213 643.541 792.21C642.574 793.084 641.473 793.8 641.092 793.8C640.712 793.8 638.619 794.925 636.441 796.3C634.263 797.675 631.852 798.8 631.083 798.8C630.315 798.8 629.126 799.475 628.441 800.3C627.756 801.125 626.154 801.8 624.878 801.8C623.602 801.8 622.303 802.214 621.991 802.72C621.678 803.225 618.164 804.63 614.182 805.841C610.2 807.052 606.513 808.438 605.991 808.921C605.468 809.405 603.81 809.8 602.306 809.8C600.802 809.8 598.304 810.302 596.756 810.915C593.826 812.076 588.142 812.936 570.465 814.891C562.341 815.79 557.513 815.771 548.965 814.808C530.974 812.78 527.087 812.178 524.126 810.959C522.578 810.322 520.017 809.8 518.435 809.8C516.854 809.8 515.281 809.35 514.941 808.8C514.601 808.25 512.711 807.8 510.74 807.8H507.157L507.772 823.55C509.625 870.992 510.436 888.271 510.942 891.126C511.573 894.681 513.417 919.341 514.122 933.67C514.602 943.406 513.824 947.008 510.219 951.735C507.873 954.811 503.011 957.8 500.351 957.8C499.228 957.8 497.327 958.34 496.125 959C490.832 961.909 465.479 963.671 456.002 961.79C445.197 959.644 437.747 955.013 433.615 947.874C431.248 943.785 428.441 933.648 428.441 929.19C428.441 921.446 434.442 909.8 438.433 909.8C439.472 909.8 440.601 909.35 440.941 908.8C441.285 908.243 445.852 907.806 451.25 907.815C461.832 907.83 467.64 909.278 477.473 914.35C478.866 915.068 481.341 915.801 482.973 915.978L485.941 916.3L486.199 857.092L486.457 797.883L478.81 792.842C474.605 790.069 470.776 787.8 470.302 787.8C469.829 787.8 469.441 787.419 469.441 786.953C469.441 786.487 468.585 785.699 467.538 785.203C463.007 783.053 440.578 762.06 434.201 754C433.244 752.79 431.766 751.8 430.917 751.8C430.069 751.8 425.515 755.625 420.797 760.3C416.08 764.975 412.074 768.8 411.895 768.8C411.716 768.8 409.628 770.564 407.255 772.719C403.185 776.417 383.93 790.8 383.05 790.8C382.826 790.8 380.234 792.425 377.291 794.411C374.349 796.398 371.041 798.429 369.941 798.926C368.841 799.423 366.591 800.699 364.941 801.761C359.039 805.56 331.53 818.8 329.54 818.8C328.935 818.8 328.441 819.25 328.441 819.8C328.441 820.35 327.498 820.8 326.345 820.8C325.193 820.8 323.055 821.437 321.595 822.216C320.135 822.995 314.216 825.056 308.441 826.795C302.666 828.534 297.16 830.372 296.205 830.878C295.25 831.385 293.394 831.8 292.08 831.8C290.767 831.8 287.779 832.475 285.441 833.3C283.103 834.125 279.701 834.8 277.88 834.8C276.06 834.8 273.327 835.273 271.806 835.851C264.177 838.752 219.612 840.887 207.441 838.934C203.866 838.361 197.791 837.408 193.941 836.818C180.71 834.788 171.53 832.615 165.79 830.152C164.057 829.408 162.174 828.8 161.606 828.8C160.539 828.8 150.593 824.819 144.458 821.936C142.542 821.036 138.147 818.613 134.69 816.55C131.234 814.488 128.159 812.8 127.857 812.8C127.555 812.8 123.176 809.719 118.125 805.954C106.191 797.057 93.2165 784.203 87.4415 775.557C86.0665 773.498 84.6045 771.811 84.1915 771.807C83.7785 771.803 83.4415 771.358 83.4415 770.818C83.4415 770.277 81.7425 767.015 79.6665 763.568C74.9555 755.744 69.4415 744.319 69.4415 742.38C69.4415 741.576 68.9915 740.64 68.4415 740.3C67.8914 739.96 67.4384 738.921 67.4354 737.991C67.4314 737.061 66.7564 735.011 65.9354 733.436C65.1134 731.86 64.4415 729.527 64.4415 728.251C64.4415 726.974 63.9204 724.663 63.2844 723.115C60.6994 716.829 58.5304 690.465 59.6044 678.393C60.9764 662.983 62.1594 654.422 63.3244 651.485C63.9394 649.937 64.4415 647.568 64.4415 646.221C64.4415 644.875 64.8655 642.991 65.3825 642.036C65.9005 641.081 67.2275 637.375 68.3315 633.8C72.9195 618.948 80.0954 603.258 88.6074 589.471C91.2664 585.165 93.4415 581.056 93.4415 580.339C93.4415 579.623 91.7545 577.77 89.6915 576.222C87.6295 574.673 85.7165 573.145 85.4415 572.827C85.1665 572.509 82.9165 570.69 80.4415 568.785C68.9314 559.925 53.0485 543.828 43.9515 531.8C41.2475 528.225 38.7844 525.075 38.4784 524.8C37.7414 524.137 32.1485 515.708 31.1795 513.8C30.7605 512.975 29.5284 510.95 28.4404 509.3C27.3534 507.65 26.1535 505.625 25.7755 504.8C25.3975 503.975 24.8295 503.075 24.5145 502.8C23.8845 502.25 22.2424 498.872 17.4664 488.3C15.7274 484.45 13.9425 480.61 13.4995 479.767C13.0575 478.924 12.3784 476.792 11.9914 475.029C11.6044 473.266 10.8725 471.566 10.3645 471.252C9.85646 470.939 9.44145 469.554 9.44145 468.175C9.44145 466.797 8.90846 464.686 8.25746 463.484C7.60546 462.283 6.71746 459.5 6.28346 457.3C5.84846 455.1 4.76544 449.925 3.87544 445.8C-0.551556 425.279 0.213454 388.204 5.45445 369.3C8.52645 358.216 9.82344 354.027 11.0734 351.149C11.8254 349.416 12.4415 347.588 12.4415 347.087C12.4415 346.586 13.2865 344.404 14.3185 342.238C21.7445 326.663 25.2205 320.271 29.0665 315.117C30.3725 313.366 31.4415 311.453 31.4415 310.867C31.4415 310.28 31.8615 309.8 32.3745 309.8C32.8875 309.8 33.5664 309.012 33.8834 308.05C34.2014 307.088 35.6935 304.9 37.2015 303.189C38.7085 301.478 41.0665 298.715 42.4415 297.048C46.1185 292.592 55.3235 283.026 61.5205 277.222C66.4965 272.561 85.6905 257.8 86.7745 257.8C87.0305 257.8 89.4475 256.315 92.1445 254.5C96.5215 251.554 114.906 242.21 121.441 239.61C122.816 239.063 125.215 237.982 126.772 237.207C128.329 236.433 130.19 235.8 130.908 235.8C131.625 235.8 133.501 235.128 135.077 234.306C136.652 233.485 138.927 232.81 140.132 232.806C141.337 232.803 142.569 232.402 142.87 231.915C143.17 231.429 145.436 230.728 147.905 230.358C150.374 229.987 152.656 229.26 152.977 228.742C153.297 228.224 154.853 227.8 156.435 227.8C158.017 227.8 160.578 227.298 162.126 226.685C164.974 225.556 169.628 224.801 185.941 222.821C190.891 222.22 199.426 221.182 204.907 220.514L214.873 219.3L216.114 213.3C216.796 210 217.373 204.822 217.397 201.793C217.421 198.765 217.924 194.715 218.513 192.793C219.103 190.872 219.984 186.825 220.47 183.8C221.589 176.84 223.757 167.605 224.577 166.3C224.923 165.75 225.536 163.725 225.939 161.8C226.342 159.875 227.01 157.85 227.422 157.3C227.835 156.75 228.412 155.175 228.705 153.8C229.696 149.154 233.519 139.87 240.237 125.8C245.821 114.104 259.934 92.7 269.639 81.209C272.696 77.59 289.392 60.838 292.493 58.28C299.192 52.752 311.437 43.8 312.299 43.8C312.835 43.8 313.424 43.445 313.608 43.011C313.99 42.104 322.047 37.197 327.941 34.28C330.141 33.191 332.171 31.998 332.451 31.629C332.732 31.26 334.194 30.649 335.701 30.271C337.208 29.893 338.441 29.182 338.441 28.692C338.441 28.201 339.255 27.8 340.25 27.8C341.245 27.8 342.932 27.139 344 26.332C345.067 25.524 346.677 24.849 347.577 24.832C348.476 24.814 350.501 24.128 352.077 23.306C353.652 22.485 355.702 21.81 356.632 21.806C357.562 21.803 358.601 21.35 358.941 20.8C359.281 20.25 360.546 19.797 361.75 19.794C362.955 19.79 365.23 19.115 366.805 18.294C368.381 17.472 370.939 16.8 372.49 16.8C374.042 16.8 376.578 16.295 378.126 15.677C381.051 14.51 386.988 13.676 406.422 11.703C415.348 10.796 420.577 10.813 429.922 11.779C449.879 13.843 461.745 15.783 466.941 17.832C468.041 18.266 471.416 19.352 474.441 20.245C485.095 23.391 510.057 34.518 513.262 37.55C513.989 38.238 515.021 38.8 515.555 38.8C516.089 38.8 517.069 39.252 517.733 39.805C518.397 40.358 523.891 44.361 529.941 48.7C535.991 53.039 542.263 57.987 543.878 59.695C547.497 63.521 549.782 63.607 553.366 60.05C556.918 56.525 561.823 52.443 567.191 48.546C569.528 46.849 571.441 45.087 571.441 44.63C571.441 44.174 572.079 43.8 572.858 43.8C573.637 43.8 574.424 43.463 574.608 43.05C575.075 41.998 591.271 31.373 596.56 28.647C598.97 27.405 601.091 26.032 601.274 25.595C601.458 25.158 602.141 24.8 602.793 24.8C603.445 24.8 607.562 23 611.941 20.8C616.32 18.6 620.613 16.8 621.481 16.8C622.349 16.8 623.932 16.139 625 15.332C626.068 14.524 627.864 13.849 628.991 13.832C630.119 13.814 631.469 13.408 631.991 12.929C632.513 12.449 635.641 11.277 638.941 10.325C642.241 9.37203 646.966 8.00301 649.441 7.28401C657.805 4.85401 663.914 3.50099 670.441 2.63399ZM399.839 201.3C425.743 175.634 456.762 160.948 493.899 156.766C499.906 156.09 522.695 156.434 527.418 157.273C528.256 157.421 531.191 157.868 533.941 158.264C552.538 160.946 573.829 169.35 592.441 181.356C601.322 187.084 617.509 200.609 621.868 205.942C622.927 207.239 625.897 210.775 628.467 213.8C631.037 216.825 634.504 221.327 636.17 223.805C649.067 242.98 657.324 264.389 661.047 288.3C662.613 298.356 662.747 323.059 661.286 332.3C655.057 371.701 635.983 404.785 604.441 430.898C592.26 440.983 571.253 452.386 555.941 457.226C520.279 468.497 482.905 466.872 448.497 452.552C444.341 450.822 438.31 447.92 435.095 446.103C431.88 444.287 429.072 442.8 428.856 442.8C427.21 442.8 409.253 428.738 402.079 421.832C383.647 404.087 370.851 384.278 362.634 360.77C354.693 338.052 352.369 310.218 356.383 285.926C361.876 252.682 376.269 224.652 399.839 201.3Z" fill="#E75347"/>
<path d="M470.125 193.237C462.542 195.965 458.955 201.386 459.687 209.012C460.407 216.504 467.527 222.838 475.159 222.778C479.741 222.742 485.957 219.319 488.286 215.55C491.465 210.407 491.257 202.923 487.822 198.841C483.049 193.169 476.277 191.024 470.125 193.237Z" fill="#98655C"/>
</svg>

