<svg width="147" height="18" viewBox="0 0 147 18" fill="none" xmlns="http://www.w3.org/2000/svg">
<path d="M129.703 5.04822C136.081 4.04086 141.811 2.36909 145.966 0.304019C146.48 0.0484841 146.75 -0.0409378 146.832 0.0168946C146.898 0.0631118 146.971 0.36755 146.994 0.693507C147.143 2.75444 144.294 5.75757 140.985 7.02924C140.043 7.39118 139.028 7.64282 137.056 8.00378C129.886 9.31606 122.058 10.0844 113.261 10.3395C107.007 10.5208 96.6695 10.4236 90.5659 10.1262C89.2285 10.061 87.3266 9.96911 86.3395 9.92192C85.3524 9.87464 83.7371 9.7844 82.75 9.72137C81.7629 9.65826 80.5384 9.58506 80.0289 9.55866C79.5194 9.53226 78.3471 9.45802 77.4236 9.39377C76.5002 9.32944 74.911 9.22093 73.892 9.15254C72.8731 9.08406 71.9352 9.01258 71.8078 8.9935C71.6804 8.97449 70.9249 8.91966 70.1288 8.87174C69.3328 8.82382 68.0562 8.73163 67.2919 8.66689C66.5277 8.60215 65.3553 8.50899 64.6867 8.45968C64.018 8.41046 62.8716 8.31885 62.1393 8.25614C61.4069 8.19336 59.7916 8.06583 58.5498 7.97275C57.3079 7.87966 55.1455 7.71526 53.7444 7.60747C52.3434 7.49969 50.1028 7.33715 48.7654 7.24634C46.4405 7.08852 45.5022 7.02793 42.4043 6.83575C40.0318 6.68865 34.9543 6.51442 33.0105 6.51345C31.0313 6.51239 29.2281 6.64845 27.6493 6.91779C24.5437 7.4477 21.1324 8.66804 18.3193 10.2554C15.9072 11.6167 13.271 13.8075 11.831 15.6477C11.128 16.5461 10.5507 17.0031 9.5716 17.4367C7.70807 18.2619 4.64853 18.1702 2.63887 17.2289C0.748819 16.3435 -0.264341 14.8576 0.0597573 13.4464C0.404119 11.9461 2.07162 10.0005 4.47555 8.29416C10.1771 4.24695 19.0234 2.04735 29.6066 2.04548C32.7203 2.04491 37.3245 2.33059 43.3812 2.89998C44.9561 3.04805 46.8001 3.21708 48.6786 3.38538C49.427 3.45248 50.1694 3.52502 50.3286 3.54654C50.4878 3.56815 51.4518 3.66105 52.4708 3.75292C55.1064 3.99075 57.2728 4.1879 60.4603 4.47982C61.9887 4.61985 63.8645 4.78515 64.6288 4.84712C65.393 4.90918 66.9562 5.03556 68.1025 5.12816C69.2488 5.22067 70.812 5.34982 71.5762 5.41504C74.1773 5.63736 82.9362 6.20845 85.2395 6.30592C85.8127 6.33021 87.4019 6.40339 88.7711 6.46861C93.8224 6.70904 97.1975 6.78173 103.303 6.78173C112.305 6.78165 117.701 6.52377 124.435 5.77187C126.64 5.5256 126.95 5.48302 129.703 5.04822Z" fill="#6C4CDC"/>
</svg>

