<svg width="791" height="1238" viewBox="0 0 791 1238" fill="none" xmlns="http://www.w3.org/2000/svg">
<path fill-rule="evenodd" clip-rule="evenodd" d="M351.004 7.25C347.454 28.867 343.959 36.546 332.232 48.492C321.999 58.917 315.325 62.032 301.162 62.994C288.866 63.83 283.761 65.731 276.393 72.216C269.039 78.69 267.38 82.761 267.517 94C267.589 99.908 268.225 105.082 269.199 107.684C271.221 113.085 270.362 113.837 260.711 115.11C256.69 115.64 250.115 116.508 246.098 117.039C237.333 118.197 233.486 120.022 229.109 125.098C224.51 130.432 215.393 134.54 201.877 137.367C195.539 138.693 188.213 140.783 185.597 142.013C176.195 146.432 165.968 158.054 161.778 169.082C158.449 177.844 157.737 185.796 159.419 195.44C161.535 207.574 164.301 212.435 174.052 221.155C195.835 240.634 198.079 243.359 202.847 256.12C204.313 260.043 207.537 264.721 213.529 271.62C223.484 283.08 226.268 287.155 227.927 292.694C229.296 297.261 228.736 298.834 223.37 305.5C219.009 310.917 217.151 314.79 213.799 325.446C210.504 335.919 205.316 343.282 196.143 350.504C185.59 358.811 182.741 359.464 156.901 359.498C130.563 359.532 129.451 359.844 119.387 370.014C116.129 373.306 112.766 376 111.913 376C109.373 376 95.6599 369.969 92.0629 367.269C87.9059 364.149 83.4429 357.083 78.4889 345.777C72.8039 332.804 65.3169 326.287 53.6089 324.123C42.8839 322.141 31.4369 326.176 24.0819 334.532C13.2459 346.842 14.0479 366.381 25.8599 377.844C35.1859 386.895 45.6808 388.932 60.7098 384.609C76.1078 380.179 79.7929 380.166 91.0969 384.503C96.4299 386.549 101.605 389.119 102.597 390.215C103.926 391.683 104.545 394.484 104.947 400.854C105.636 411.784 108.23 417.64 117.427 429.033C127.38 441.36 128.044 442.75 128.654 452.516C129.15 460.474 129.023 461.214 126.554 464.743C125.108 466.81 120.127 471.989 115.485 476.252C105.442 485.478 101.94 491.643 101.15 501.492C99.9439 516.517 109.955 527.172 127.815 529.873C131.437 530.42 137.742 531.36 141.827 531.961C150.721 533.27 154.702 535.522 157.769 540.979C161.353 547.355 162.087 555.65 160.223 568.697C158.757 578.96 158.757 580.62 160.223 588.607C162.305 599.942 165.597 606.463 173.206 614.323C191.944 633.679 214.559 637.861 237.802 626.268C244.047 623.153 246.438 621.204 251.606 615.017C262.021 602.547 265.841 592.898 265.865 579C265.878 571.064 264.568 564.993 260.902 556C256.27 544.637 257.185 528.308 263.113 516.53C269.235 504.369 276.355 499.951 293.901 497.43C313.922 494.552 318.885 491.438 327.816 476.145C333.611 466.222 337.072 462.554 343.719 459.29C348.829 456.781 350.407 456.507 359.401 456.566C372.479 456.653 377.598 458.784 385.805 467.557C392.783 475.016 395.912 482.232 395.879 490.788C395.838 501.492 391.6 507.105 378.625 513.639C371.081 517.438 362.992 524.351 359.328 530.131C358.062 532.128 356.268 536.371 355.341 539.559C351.812 551.698 355.516 563.445 366.991 576.5C377.382 588.323 380.223 597.566 375.993 605.79C374.943 607.83 369.346 614.337 363.556 620.249C355.916 628.049 352.152 632.776 349.835 637.483C346.878 643.489 346.676 644.541 347.106 651.734C347.649 660.821 349.983 666.141 355.981 671.962C366.88 682.539 377.914 685.772 390.219 681.995C406.839 676.894 411.015 677.272 418.278 684.535C425.152 691.409 426.822 696.801 431.273 726.5C433.886 743.935 438.448 752.429 450.635 762.548C465.417 774.821 479.746 778.435 498.152 774.535C510.583 771.9 518.583 766.735 527.503 755.584C537.96 742.511 541.481 731.948 540.591 716.312C539.933 704.741 537.411 698.829 526.641 683.606C511.634 662.395 505.35 645.441 507.738 632.601C509.719 621.949 513.153 616.648 527.889 601.5C535.379 593.8 542.469 586.118 543.645 584.429C547.668 578.648 548.334 573.167 546.907 557.57C545.752 544.932 545.791 542.594 547.273 535.95C548.187 531.852 550.247 526.206 551.85 523.403C555.795 516.509 563.737 509.582 570.699 506.963C578.072 504.19 601.452 502.088 606.217 503.77C607.968 504.388 612.237 505.203 615.704 505.582C622.493 506.323 626.824 508.619 630.309 513.324C633.393 517.486 632.887 523.064 628.557 532.653C624.692 541.215 623.12 550.025 624.319 556.415C625.286 561.572 629.951 566.377 641.17 573.775C646.543 577.318 651.606 581.168 652.42 582.331C653.235 583.494 653.901 586.407 653.901 588.806C653.901 593 653.48 593.602 642.912 604.533C625.804 622.228 622.322 628.655 619.365 648C616.976 663.628 617.763 670.924 622.923 681C632.481 699.664 634.052 703.708 635.549 713.5C637.993 729.498 636.056 739.262 627.948 751.806C623.023 759.426 612.768 769.871 606.813 773.333C604.269 774.812 596.024 777.556 588.313 779.489C580.391 781.476 571.172 784.56 566.901 786.651C556.631 791.682 546.554 801.769 541.578 812C534.471 826.615 533.345 837.278 537.021 855.176C539.96 869.488 540.008 883.342 537.15 892.5C531.018 912.149 512.894 929.475 493.401 934.322C473.968 939.154 461.057 936.378 444.408 923.788C438.785 919.536 436.804 917.273 434.293 912.235C427.185 897.975 424.803 886.05 424.385 862.629C424.129 848.26 423.632 842.866 421.989 836.622C415.483 811.884 398.091 791.929 375.822 783.653C365.724 779.899 357.842 778.894 336.901 778.69C317.629 778.502 317.333 778.466 311.551 775.628C304.758 772.292 300.679 766.833 298.84 758.62C297.749 753.743 297.9 752.893 301.973 740.998C305.841 729.7 306.251 727.588 306.241 719C306.232 711.484 305.747 708.247 303.916 703.5C295.837 682.549 278.926 670.643 257.402 670.755C244.104 670.824 235.003 675.191 219.401 688.99C205.007 701.721 193.566 704.22 180.285 697.534C176.499 695.628 170.251 691.604 166.401 688.591C155.165 679.799 145.659 673.395 142.002 672.154C137.277 670.55 128.365 670.714 121.869 672.523C118.862 673.361 112.975 674.801 108.789 675.723C99.2638 677.82 95.3638 676.857 87.5278 670.473C80.7528 664.955 76.6839 657.112 74.3109 645C71.5199 630.758 66.5068 622.825 57.0438 617.674C49.4368 613.534 41.6129 612.449 33.7639 614.444C4.06091 621.996 -0.887148 661.641 26.2089 674.98C31.5909 677.63 34.7668 678.322 48.9328 679.933C59.1869 681.1 67.5318 682.61 71.0478 683.937C82.4428 688.235 88.5998 696.324 95.4448 715.987C99.8798 728.731 100.39 729.542 110.582 740.114C121.136 751.061 124.212 757.237 124.723 768.511C125.353 782.388 121.849 789.209 101.75 813.238C85.1429 833.091 82.9278 839.175 82.9028 865C82.8868 881.392 82.0669 884.714 76.8779 889.402C73.3669 892.574 72.2738 892.999 67.6478 892.991C58.3748 892.974 48.7079 885.725 45.3279 876.252C44.5909 874.188 43.9799 868.45 43.9689 863.5C43.9449 852.929 45.5878 848.143 54.2048 833.689C66.0458 813.828 65.6548 801.322 52.8088 789.005C45.2158 781.725 40.2029 779.618 30.4369 779.599C20.4699 779.579 16.4038 781.485 8.89184 789.692C1.40184 797.876 -0.389092 802.378 0.0659083 811.871C0.544908 821.845 2.95185 826.67 12.8599 837.516C29.8889 856.159 31.7519 867.446 21.4419 889.5C19.6409 893.35 15.6619 900.229 12.5979 904.787C8.99989 910.14 6.60686 914.955 5.83886 918.389C1.97286 935.662 10.9069 954.447 26.6829 962.213C32.8159 965.233 34.1349 965.5 42.9009 965.5C51.6559 965.5 52.9899 965.231 59.0809 962.232C67.6169 958.03 75.8578 949.343 78.9538 941.285C80.5388 937.157 81.3669 932.205 81.8429 924C82.6419 910.22 84.1039 906.719 90.2169 903.943C95.6839 901.461 104.556 901.458 117.401 903.933C138.037 907.908 147.519 907.611 158.358 902.648C168.79 897.873 183.336 881.278 187.414 869.5C189.685 862.94 190.386 851.987 189.014 844.5C187.094 834.03 182.056 825.502 170.344 812.902C153.208 794.464 148.06 785.13 147.145 770.836C146.275 757.258 152.412 742.913 164.401 730.494C171.735 722.897 177.361 719.893 185.477 719.242C197.213 718.3 202.744 722.041 213.945 738.495C222.206 750.633 231.829 760.178 239.096 763.445C242.29 764.881 248.182 766.277 253.901 766.954C275.014 769.451 282.216 772.268 286.596 779.743C288.924 783.715 289.103 784.831 288.693 792.793C288.309 800.245 287.629 802.941 283.973 811.5C277.168 827.429 274.183 836.883 273.079 846C271.999 854.924 272.787 866.365 275.022 874.186C275.7 876.559 276.287 883.456 276.328 889.514C276.398 900.005 276.246 900.843 273.127 907.185C270.615 912.293 268.777 914.556 265.233 916.903C258.153 921.593 257.381 921.649 230.656 919.392C208.747 917.541 188.936 929.656 179.108 950.913C175.727 958.225 174.954 971.701 177.382 981C179.217 988.028 185.051 1001.4 187.427 1004.03C189.727 1006.57 190.428 1016.8 188.601 1021.17C186.758 1025.59 184.005 1027.53 177.576 1028.97C170.214 1030.61 163.371 1034.52 156.239 1041.15C148.886 1047.99 143.65 1050.66 135.759 1051.59C128.955 1052.39 126.808 1051.37 110.54 1039.64C95.7729 1028.98 92.5038 1027.66 82.2208 1028.17C71.7998 1028.68 64.6549 1031.99 56.9109 1039.91C45.5319 1051.54 43.1369 1066.91 50.2749 1082.51C52.0539 1086.39 54.4369 1089.15 59.6239 1093.35C67.9559 1100.08 71.5639 1101.7 80.0989 1102.58C84.8259 1103.06 88.1129 1102.79 92.3489 1101.56C102.078 1098.73 107.571 1094.43 120.276 1079.68C133.617 1064.2 142.975 1062.77 158.187 1073.9C168.528 1081.46 176.225 1083.39 188.901 1081.6C193.769 1080.91 194.8 1081.09 197.869 1083.18C202.761 1086.51 203.518 1090.04 201.999 1102.46C200.604 1113.88 201.175 1117.66 205.621 1126.43C209.348 1133.79 211.746 1136.66 217.351 1140.45C228.071 1147.72 241.793 1148.91 251.857 1143.43C258.9 1139.59 268.197 1129.49 270.329 1123.35C271.255 1120.68 272.45 1112.89 272.984 1106.04C274.1 1091.73 275.665 1088.02 283.473 1081.15C294.657 1071.3 307.368 1068.56 330.485 1070.99C341.724 1072.18 348.731 1071.14 357.393 1067C386.83 1052.96 393.612 1014.04 370.442 992.127C362.008 984.15 346.54 978.02 334.901 978.041C324.969 978.059 302.782 992.432 297.893 1002.02C294.766 1008.15 292.865 1017.53 292.477 1028.74C291.94 1044.27 287.701 1053.7 275.527 1066.45C266.563 1075.83 256.178 1077.77 217.6 1077.29C211.494 1077.21 208.461 1075.56 206.893 1071.47C206.465 1070.35 205.077 1060.96 203.808 1050.62C201.217 1029.47 201.343 1028.64 207.828 1024.27C212.344 1021.23 216.988 1020.08 229.074 1019.03C237.748 1018.28 240.305 1017.61 246.805 1014.41C256.722 1009.53 267.235 999.222 271.797 989.9C274.928 983.504 275.054 982.745 275.868 965.4C276.786 945.85 278.182 939.78 283.214 933.475C289.966 925.013 302.309 923.078 324.452 927.009C335.571 928.983 339.085 929.178 353.258 928.608C362.137 928.251 375.926 927.699 383.901 927.381C405.554 926.517 416.797 929.801 426.949 939.952C436.311 949.315 438.928 957.958 438.769 979C438.686 989.872 439.074 993.96 440.76 1000C441.912 1004.12 442.865 1008.67 442.877 1010.09C442.974 1020.74 430.911 1047.83 416.429 1069.5C401.19 1092.3 387.761 1107.44 375.641 1115.48C367.549 1120.84 365.945 1123.89 364.798 1136.09C363.725 1147.48 362.509 1151.1 358.033 1156.2C352.812 1162.14 346.452 1164.22 330.901 1165.05C314.441 1165.92 308.333 1167.92 300.614 1174.98C287.07 1187.36 285.01 1206.79 295.63 1222C305.991 1236.83 324.875 1242.14 340.334 1234.58C346.381 1231.62 355.512 1222.45 358.337 1216.49C360.81 1211.28 361.886 1201.29 361.2 1189.94C360.547 1179.13 361.468 1175.08 366.191 1168C372.163 1159.04 374.581 1157.21 382.817 1155.38C401.533 1151.23 405.901 1145.85 405.901 1126.92C405.901 1119.04 406.736 1117.01 417.065 1099.8C428.427 1080.86 451.97 1044.67 455.144 1041.26C462.445 1033.42 490.466 1031.75 507.531 1038.14C513.673 1040.43 522.204 1047.71 524.835 1052.89C533.297 1069.55 527.058 1099.43 512.3 1112.92C503.056 1121.37 492.758 1123.13 480.27 1118.4C474.727 1116.3 472.273 1115.9 467.558 1116.31C452.594 1117.63 442.931 1131.33 446.818 1145.71C450.452 1159.16 466.414 1167.41 478.474 1162.07C484.906 1159.23 487.011 1157.17 493.885 1146.99C503.697 1132.46 510.306 1127.9 524.392 1125.94C533.111 1124.72 536.404 1125.08 549.901 1128.68C570.093 1134.06 585.889 1130.25 596.118 1117.54C602.847 1109.18 605.237 1102.55 605.328 1091.98C605.394 1084.29 605.081 1082.81 602.112 1076.78C599.814 1072.11 596.971 1068.42 592.668 1064.53C584.022 1056.7 578.57 1054.32 565.401 1052.6C543.553 1049.74 534.008 1043.2 529.485 1027.97C527.308 1020.64 527.511 1015.8 530.37 1006.85C534.409 994.203 535.179 984.515 533.298 970C531.187 953.713 531.819 944.894 535.682 936.706C541.709 923.935 554.261 910.34 564.496 905.499C570.193 902.803 580.605 900.353 598.283 897.546C623.146 893.599 637.955 883.317 647.603 863.303C654.247 849.521 654.322 836.599 647.883 815.38C642.829 798.728 641.71 790.352 643.311 781.179C646.05 765.49 652.576 753.337 664.901 740.973C674.901 730.941 684.182 725.627 698.901 721.505C704.126 720.041 713.576 716.448 719.901 713.52C734.967 706.544 737.89 705.703 745.394 706.18C752.695 706.645 758.558 710.006 761.29 715.293C762.762 718.142 767.189 745.843 768.596 761.011C769.507 770.84 765.5 779.967 758.865 783.175C756.96 784.096 752.251 785.388 748.401 786.046C727.65 789.59 717.88 799.487 717.911 816.932C717.924 824.195 720.987 830.681 728.202 838.722C736.792 848.297 739.133 852.932 739.679 861.449C740.041 867.088 739.74 869.549 738.315 872.593C737.309 874.742 730.376 882.8 722.908 890.5C715.44 898.2 707.876 906.374 706.099 908.664C701.117 915.087 698.071 922.724 695.449 935.367C693.024 947.063 688.828 956.946 684.703 960.679C683.292 961.956 680.655 962.575 675.51 962.834C669.468 963.139 666.841 962.701 659.348 960.136C648.137 956.297 642.022 955.507 634.397 956.913C621.431 959.302 609.13 968.643 603.334 980.5C600.631 986.029 600.401 987.364 600.401 997.5C600.401 1006.77 600.752 1009.26 602.63 1013.33C605.783 1020.16 610.382 1025.62 617.227 1030.66C629.997 1040.06 645.472 1041.48 659.515 1034.54C670.967 1028.88 677.89 1019.55 681.432 1005C683.837 995.12 686.715 988.552 690.032 985.374C692.682 982.835 693.761 982.5 699.28 982.5C704.5 982.5 706.669 983.092 712.464 986.097C716.28 988.075 723.02 991.567 727.443 993.857C731.94 996.186 738.772 998.72 742.943 999.606C757.377 1002.67 774.345 999.643 785.209 992.053L790.401 988.426L790.66 936.143C790.905 886.659 790.825 883.886 789.16 884.348C788.193 884.616 784.862 885.124 781.759 885.477C774.792 886.267 770.755 884.75 764.511 878.995C758.519 873.472 755.901 867.888 755.901 860.635C755.901 853.838 756.763 852.007 764.903 841.5C775.841 827.382 777.428 822.267 775.697 806.697C773.819 789.807 777.08 782.159 786.866 780.506L790.901 779.824L790.892 738.662L790.884 697.5L783.061 697.372C773.809 697.22 767.316 694.767 761.713 689.308C755.244 683.006 753.351 676.527 750.962 652.5C748.898 631.751 739.788 614.12 725.603 603.418C717.599 597.381 713.307 595.568 696.92 591.306C669.715 584.23 665.907 579.549 673.59 562.626C678.338 552.168 678.667 544.226 674.673 536.5C671.356 530.086 667.957 526.98 659.901 523.002C647.887 517.071 644.537 511.942 646.98 503.218C651.414 487.38 682.31 477.605 700.228 486.372C709.588 490.951 716.225 501.905 720.416 519.689C725.066 539.427 730.339 547.122 746.725 558.086C756.909 564.9 762.532 566.357 776.318 565.754C782.414 565.487 788.188 564.935 789.151 564.527C790.786 563.835 790.901 560.337 790.901 511.296V458.807L786.882 454.241C781.994 448.688 779.388 440.758 780.29 434.181C780.639 431.632 783.084 425.631 785.905 420.398C790.752 411.407 790.901 410.881 790.91 402.815L790.919 394.5L782.74 387C762.447 368.391 762.579 368.548 763.129 363.67C763.401 361.26 764.833 356.644 766.312 353.414C769.736 345.933 780.404 329.882 786.332 323.288L790.901 318.206V307.226C790.901 298.611 790.573 295.973 789.378 294.981C788.54 294.286 786.074 290.293 783.896 286.108C778.787 276.289 775.461 272.339 765.578 264.36C753.491 254.601 751.363 253.73 738.321 253.206C725.203 252.679 719.114 253.796 709.261 258.535C680.518 272.36 671.702 311.335 691.399 337.5C699.189 347.849 710.068 354.425 725.257 357.966C740.324 361.479 747.628 366.56 749.936 375.129C751.284 380.137 750.597 383.385 746.287 392.377C742.702 399.86 742.322 402.755 743.979 410C745.282 415.698 747.882 419.456 754.014 424.5C760.476 429.817 764.688 435.816 765.493 440.851C766.023 444.162 765.627 446.04 763.47 450.448C758.457 460.695 746.171 468.8 732.291 471.018C720.13 472.96 713.722 470.575 703.155 460.171C698.489 455.576 696.621 452.795 694.579 447.398C691.737 439.886 688.277 427.595 685.035 413.5C681.73 399.128 675.224 387.287 664.927 376.901C650.731 362.583 636.9 356.063 616.401 354.025C589.804 351.38 575.418 343.467 571.271 329.2C569.373 322.674 569.891 317.321 573.422 306.939C578.97 290.625 578.801 281.431 572.722 269C562.41 247.913 537.182 239.317 515.964 249.66C508.177 253.456 499.576 262.352 495.623 270.698C492.63 277.016 492.401 278.247 492.401 288C492.401 297.728 492.635 298.994 495.586 305.223C499.118 312.68 505.816 320.431 512.625 324.941C515.523 326.86 520.487 328.672 526.747 330.095C553.934 336.275 562.56 346.531 557.362 366.49C556.515 369.741 552.726 378.273 548.943 385.45C540.719 401.05 538.371 407.697 536.825 419.757C535.252 432.021 536.812 444.993 541.605 459.5C545.003 469.783 545.245 471.348 545.32 483.5L545.401 496.5L541.679 504.295C537.199 513.677 529.136 522.542 521.628 526.341C518.72 527.812 512.996 529.713 508.907 530.566C493.255 533.829 480.529 543.592 477.258 554.844C475.221 561.852 475.225 572.172 477.268 579.164C478.126 582.099 481.072 588.046 483.815 592.381C490.025 602.194 491.896 607.453 492.575 617C494.026 637.418 481.552 660.121 464.16 668.716C457.046 672.233 455.84 672.505 445.845 672.847C431.935 673.323 425.6 671.623 420.583 666.07C416.782 661.862 415.721 658.822 413.965 647.101C412.502 637.337 409.238 631.14 400.978 622.445C392.418 613.433 390.764 608.422 393.38 599.425C394.748 594.719 396.189 592.603 401.758 587.121C405.457 583.479 411.247 578.134 414.624 575.241C421.412 569.428 424.908 563.302 426.851 553.815C428.673 544.923 426.914 538.335 419.094 524.751C414.767 517.237 414.647 516.797 415.117 510.251C415.856 499.959 420.373 492.767 428.761 488.532C430.609 487.598 436.557 485.344 441.979 483.522C460.453 477.312 471.241 469.297 479.177 455.883C484.863 446.274 487.092 438.211 487.162 427C487.274 409.03 483.158 399.389 469.93 386.637C459.186 376.28 455.633 374.194 439.07 368.521C415.758 360.535 406.181 354.442 400.48 343.967C396.59 336.82 396.213 330.13 398.88 315.543C400.288 307.84 400.842 301.97 400.436 299.043C399.458 291.997 394.648 283.256 386.929 274.5C383.05 270.1 379.146 264.588 378.253 262.25C376.75 258.316 376.753 257.676 378.29 253.651C381.925 244.133 390.677 237.107 405.99 231.414C428.34 223.105 442.266 209.726 451.448 187.744C457.439 173.403 466.603 165.062 476.401 165.032C480.764 165.018 487.166 167.694 497.641 173.91C501.359 176.116 507.226 178.643 510.679 179.526C518.524 181.531 524.326 180.512 537.369 174.84C546.83 170.725 553.068 169.323 557.248 170.372C560.34 171.148 570.09 179.952 572.909 184.513C574.063 186.38 576.361 192.084 578.015 197.19C588.882 230.716 607.259 245.934 636.941 245.985C653.182 246.013 664.837 241.083 677.015 229.034C688.954 217.221 693.901 205.291 693.901 188.316C693.901 178.044 692.113 170.079 687.83 161.276C683.121 151.598 676.128 144.784 660.318 134.468C652.573 129.414 645.319 123.978 644.199 122.389C639.413 115.6 637.509 110.547 637.455 104.493C637.407 99.162 638.019 97.247 642.883 87.493C647.718 77.797 648.362 75.792 648.341 70.5C648.309 62.694 645.534 56.606 638.722 49.404C633.445 43.824 633.429 43.789 633.057 36.427C632.729 29.93 632.991 28.522 635.238 24.688C638.013 19.953 642.559 15.954 653.401 8.714C657.251 6.142 661.526 3.14 662.901 2.041L665.401 0.044L628.561 0.022L591.721 0L596.675 3.916C609.481 14.039 617.145 29.67 613.989 39.232C613.357 41.147 610.129 45.816 606.815 49.607C598.74 58.844 597.618 61.191 597.557 68.983C597.482 78.43 600.741 84.897 610.269 94.211C619.955 103.68 623.327 110.431 622.7 119.1C622.331 124.2 621.795 125.514 618.839 128.564C614.876 132.653 597.404 144.255 587.901 149.108C579.44 153.428 570.225 154.24 564.314 151.184C559.553 148.723 552.797 141.742 546.629 132.909C536.592 118.536 526.206 113.395 512.446 115.992C504.69 117.455 501.182 119.534 491.208 128.579C479.068 139.589 475.757 141.463 468.413 141.483C463.214 141.497 461.048 140.898 454.815 137.722C450.737 135.643 443.351 131.011 438.401 127.428C420.842 114.718 408.716 109.035 395.901 107.51C389.055 106.695 377.817 108.911 367.759 113.058C357.035 117.481 352.776 120.264 346.863 126.714C335.214 139.422 330.357 150.275 329.233 166.109C328.135 181.57 331.716 192.61 343.953 211.501C347.391 216.808 351.303 224.153 352.646 227.825C355.523 235.685 356.686 248.091 355.02 253.14C354.37 255.109 348.698 262.416 341.891 270.054C335.221 277.536 328.685 285.939 327.153 289C324.674 293.954 324.401 295.542 324.401 305C324.401 314.128 324.722 316.153 326.858 320.5C330.031 326.956 337.218 334.108 344.02 337.58C346.98 339.09 354.351 341.614 360.401 343.189C379.214 348.086 384.797 353.438 385.659 367.404C386.213 376.378 384.131 385.5 379.061 396.31C376.948 400.815 373.704 408.752 371.853 413.948C367.522 426.1 363.862 431.41 356.241 436.596C347.663 442.435 340.298 445 332.113 445C326.108 445 324.417 444.505 316.063 440.304C307.457 435.975 306.028 435.574 297.822 435.182C289.749 434.796 288.416 435.002 283.519 437.399C272.738 442.673 266.514 452.88 265.302 467.275C263.981 482.956 259.146 494.659 249.036 506.651C238.949 518.614 230.989 522.615 210.715 525.91C203.903 527.017 195.42 528.609 191.865 529.447C183.768 531.355 172.871 531.432 168.512 529.611C160.567 526.291 157.729 519.735 158.073 505.5C158.338 494.573 155.904 487.305 149.911 481.13C143.764 474.796 142.588 471.753 143.123 463.568C143.862 452.264 149.254 443.808 159.082 438.544C171.679 431.796 179.138 424.146 182.981 414.033C184.006 411.334 185.323 404.936 185.908 399.813C188.095 380.649 193.999 368.071 203.699 361.908C212.617 356.24 220.09 355.079 242.623 355.857C261.629 356.513 277.634 338.48 273.92 320.594C272.255 312.573 268.131 307.042 251.856 291C233.07 272.485 227.223 265.771 224.183 259.227C219.936 250.085 221.624 246.28 240.477 222.5C245.709 215.9 251.389 207.674 253.098 204.22C259.088 192.114 257.825 177.937 249.012 158.365C244.696 148.781 244.167 145.491 246.04 139.899C247.607 135.218 250.594 132.185 254.827 130.976C256.793 130.414 266.725 129.267 276.899 128.426C287.073 127.585 297.402 126.448 299.853 125.899C305.906 124.542 314.997 119.559 319.478 115.142C324.357 110.332 326.425 105.451 328.386 94.114C331.842 74.137 341.568 63.621 360.901 58.959C364.53 58.083 370.823 57.757 379.401 57.999C400.416 58.593 407.382 58.2 413.405 56.083C432.291 49.445 445.68 27.441 443.459 6.693L442.742 0H397.468H352.194L351.004 7.25ZM478.71 2.75C478.082 4.263 477.539 9.1 477.502 13.5C477.445 20.438 477.844 22.363 480.513 28C484.107 35.592 490.003 41.844 496.665 45.127C500.557 47.044 503.006 47.462 510.401 47.471C518.233 47.48 520.05 47.137 524.401 44.825C534.195 39.621 540.87 30.275 544.747 16.339C546.321 10.68 548.454 5.077 550.682 0.75C550.894 0.337 535.044 0 515.46 0H479.851L478.71 2.75ZM714.69 4.25C712.693 10.835 713.015 29.392 715.236 35.763C718.279 44.492 724.151 52.177 733.095 59.135C745.823 69.037 748.699 71.859 749.962 75.685C752.817 84.335 748.924 92.66 738.417 100.375C727.166 108.636 721.245 117.128 718.933 128.316C714.805 148.301 729.878 169.121 751.339 173.076C762.842 175.196 773.671 171.424 784.679 161.463L790.901 155.832V135.429V115.026L782.346 105.999C769.459 92.401 767.054 84.881 772.729 75.932C775.629 71.36 783.208 64.113 788.134 61.203L790.901 59.569V29.784V0H753.44H715.978L714.69 4.25Z" fill="url(#paint0_linear_206_182)"/>
<defs>
<linearGradient id="paint0_linear_206_182" x1="1070.5" y1="976.5" x2="-0.000128212" y2="228" gradientUnits="userSpaceOnUse">
<stop stop-color="#FFC6BF"/>
<stop offset="1" stop-color="#F7F3E4"/>
</linearGradient>
</defs>
</svg>

