<svg width="216" height="247" viewBox="0 0 216 247" fill="none" xmlns="http://www.w3.org/2000/svg">
<path fill-rule="evenodd" clip-rule="evenodd" d="M0.414675 16.9728C1.22396 21.2405 2.2906 23.6714 4.77773 26.9182C10.5944 34.5103 12.2001 37.2675 13.3102 41.5694C13.7925 43.4374 13.8926 45.0877 13.7693 49.1107C13.5716 55.5558 12.9214 57.4091 8.55573 63.9774C4.47398 70.1183 4.50306 70.0536 4.50638 73.0223C4.50858 75.1199 4.70667 75.9954 5.57523 77.7447C6.8558 80.3227 9.84918 83.1833 11.9136 83.8009C15.6552 84.9211 19.9177 83.8679 23.0569 81.0478C25.2613 79.0675 25.9004 77.9536 26.4089 75.2045C26.9119 72.4874 26.2771 70.381 23.0367 64.0102C21.6471 61.2784 20.2553 58.3189 19.9439 57.4334C19.192 55.2957 19.2388 51.0523 20.04 48.7377C21.4 44.8085 26.6011 38.3726 29.5477 36.9732C34.1413 34.7921 39.4005 37.1406 41.3515 42.244C41.9808 43.8903 41.9753 43.9616 40.9362 47.7989C39.071 54.6873 39.0249 55.32 40.1442 58.626C41.4432 62.4611 42.7989 64.3354 45.9952 66.7151C49.3284 69.1972 50.0725 70.0109 51.0718 72.2686C52.145 74.6921 51.8991 78.1195 50.3486 82.353C48.7297 86.7729 47.8155 88.1421 43.2503 92.9804C38.3534 98.1703 37.4248 99.4685 35.9432 103.195C33.3714 109.664 32.9719 114.757 34.6453 119.744C39.5551 134.376 54.8074 140.824 68.5453 134.076C74.7696 131.018 78.0502 127.132 80.3116 120.135C81.7818 115.586 81.8683 114.507 81.4357 106.131C81.1706 101.001 81.2056 100.468 81.9338 98.5532C82.365 97.4202 83.3238 95.8876 84.0653 95.1471C85.3941 93.8191 85.9582 93.5955 90.1898 92.7159C91.8816 92.3646 92.6699 91.9474 93.9251 90.7397C96.3242 88.4309 96.8061 85.9739 95.7771 81.2994C94.7167 76.4828 95.1379 74.6505 97.8352 72.3436C99.7929 70.6694 102.103 69.8954 105.139 69.8957C108.092 69.8961 111.258 71.2635 113.34 73.4383C115.904 76.1157 116.487 78.8438 115.718 84.5642C115.135 88.904 115.328 90.303 116.77 92.192C118.169 94.0247 119.419 94.6924 124.68 96.4185C130.223 98.2369 131.86 99.0969 132.44 100.495C133.219 102.375 132.645 109.878 131.339 114.901C129.952 120.232 129.302 121.651 127.839 122.543C125.961 123.687 124.623 123.436 121.011 121.26C117.057 118.879 113.808 117.902 110.762 118.178C106.322 118.58 101.995 121.641 100.075 125.74C99.0495 127.929 99.0378 128.097 99.238 137.535C99.3209 141.433 98.1677 143.748 95.593 144.853C94.8842 145.157 92.4818 145.534 90.2542 145.691C85.1651 146.05 82.6518 146.948 80.0321 149.34C77.8241 151.356 76.626 153.492 76.024 156.488C75.2158 160.508 77.4526 165.972 80.9383 168.495C82.8668 169.891 85.2527 170.587 89.6574 171.039C92.3827 171.318 93.4173 171.595 94.565 172.354C97.6397 174.388 98.2079 178.621 96.4479 186.389C95.6511 189.904 95.4582 191.696 95.4435 195.707C95.4273 200.236 95.5112 200.889 96.3975 203.114C99.4166 210.699 104.247 215.048 112.714 217.807C118.721 219.764 123.61 219.379 129.702 216.471C135.21 213.841 138.328 210.352 142.367 202.299C145.31 196.431 146.142 195.351 148.693 194.08C151.721 192.573 154.534 192.955 158.013 195.347C158.926 195.975 160.788 196.983 162.151 197.587C168.722 200.5 171.503 202.721 172.019 205.466C172.441 207.717 170.792 212.131 167.903 216.477C164.238 221.993 163.811 229.812 166.837 235.989C170.512 243.488 178.857 247.955 187.088 246.827C196.123 245.589 203.809 236.713 203.835 227.486C203.856 220.536 199.481 213.054 193.688 210.133C192.483 209.525 189.541 208.49 187.152 207.833C182.436 206.536 180.925 205.733 179.65 203.842C177.869 201.202 178.163 198.369 180.647 194.236C182.747 190.741 183.536 188.758 183.929 185.983C184.611 181.171 183.173 176.849 179.755 173.433C176.489 170.17 172.126 168.587 167.399 168.95C161.643 169.391 157.906 172.177 154.702 178.417C152.416 182.87 151.718 183.805 149.869 184.891C148.025 185.973 146.051 186.027 144.034 185.048C143.197 184.643 140.539 182.293 138.008 179.723C134.08 175.735 133.077 174.926 130.46 173.641C124.511 170.72 118.204 169.942 112.53 171.428C107.104 172.848 103.822 172.07 101.671 168.853L100.564 167.197L100.589 158.899C100.614 150.827 100.639 150.556 101.509 148.967C102.239 147.634 102.871 147.098 104.93 146.066C106.999 145.028 107.796 144.818 109.348 144.905C113.901 145.159 115.13 145.016 117.246 143.985C119.977 142.655 123.174 139.436 124.427 136.756C124.971 135.593 125.851 133.713 126.383 132.579C127.116 131.014 127.644 130.395 128.58 130.004C131.193 128.913 132.867 129.483 136.83 132.816C139.913 135.408 142.398 136.652 147.412 138.115C151.646 139.35 153.877 139.362 157.633 138.17C161.679 136.885 164.857 134.909 167.561 131.994C170.315 129.027 172.011 125.731 172.77 121.875C174.513 113.014 169.495 102.997 161.359 99.0995C156.932 96.9787 155.725 96.8835 143.724 97.7079C140.721 97.9142 140.348 97.8594 138.458 96.9357C137.078 96.261 136.105 95.4583 135.431 94.4375C134.486 93.0079 134.441 92.7335 134.52 88.8955C134.61 84.4885 134.204 83.0011 132.191 80.3643C131.032 78.8464 130.069 78.2928 126.469 77.0759C123.308 76.0076 121.217 74.6748 120.228 73.0995C119.627 72.1423 119.51 71.4309 119.61 69.3436C119.773 65.9297 120.991 63.359 123.935 60.2145C126.451 57.5272 130.303 55.2946 133.061 54.9249C134.743 54.6994 138.821 55.7883 141.638 57.2145C143.775 58.2965 148.073 62.8371 151.19 67.3063C155.154 72.9903 157.236 75.423 160.058 77.67C165.037 81.6352 170.581 83.7049 177.331 84.1187C181.184 84.3549 184.391 83.8616 189.85 82.1922C194.153 80.876 199.947 80.5651 202.896 81.4918C205.352 82.2635 208.281 84.6967 209.405 86.8991C209.853 87.7754 210.286 89.6872 210.498 91.7226C211.365 100.047 212.406 103.39 214.866 105.744L216 106.828L215.904 92.7508L215.807 78.6731L213.854 78.0128C210.308 76.8136 208.663 74.5052 207.85 69.5846C207.479 67.3416 207.517 65.9279 208.086 60.6942C208.664 55.384 208.699 53.9846 208.321 51.1524C207.817 47.3714 206.609 43.7236 204.539 39.73C203.167 37.0843 202.502 36.1521 198.591 31.3827C196.266 28.5486 194.021 23.9473 193.318 20.5761C192.339 15.885 193.582 10.062 196.359 6.33324C197.874 4.29746 198.881 3.38259 201.632 1.54029L203.657 0.183951L194.305 0.0857459C189.162 0.0313028 184.897 0.0430522 184.829 0.111473C184.76 0.179893 185.072 1.21769 185.521 2.4173C186.189 4.2 186.34 5.37092 186.345 8.82891C186.351 12.771 186.278 13.2099 185.27 15.2666C183.508 18.8607 181.072 20.9631 175.473 23.7225C172.798 25.0406 170.203 26.1188 169.706 26.1188C169.209 26.1188 167.452 26.4631 165.803 26.8836C162.538 27.7165 161.333 27.6348 159.415 26.4503C157.31 25.1506 156.925 23.9716 156.903 18.7614C156.881 13.4078 156.308 11.2498 154.28 8.88332C152.848 7.21063 151.569 6.71363 146.035 5.67956C144.314 5.35767 142.213 4.7904 141.367 4.41923C140.055 3.8424 139.732 3.46978 139.164 1.87174L138.499 2.44636e-05L118.702 2.53289e-05C107.815 2.58048e-05 98.9067 0.0809588 98.9067 0.179546C98.9067 0.278148 100.15 1.34605 101.669 2.5523C107.981 7.56416 114.141 9.00477 123.023 7.54652C127.531 6.80638 131.774 6.82697 133.397 7.59619C135.592 8.63726 135.91 9.51241 135.91 14.5155C135.91 18.6187 135.986 19.0995 136.937 21.0356C138.869 24.9663 141.701 26.6511 147.229 27.1588C152.653 27.6573 154.502 29.2207 154.503 33.3121C154.505 38.3325 148.247 44.4053 141.219 46.2042C135.375 47.7003 130.48 44.9148 124.672 36.7871C122.199 33.3276 120.207 31.1966 118.416 30.0955C115.881 28.5372 108.378 26.4867 105.211 26.4867C101.735 26.4867 95.474 29.0658 92.4118 31.7594C91.467 32.59 90.1353 34.1424 89.4527 35.2089C87.5984 38.1044 85.5929 44.4388 85.4003 48.0071C85.2556 50.6867 85.3617 51.2793 86.5822 54.6288C89.8816 63.6813 90.1441 64.5845 90.3385 67.5366C90.6537 72.3182 89.6261 74.2204 84.812 77.7664C81.3256 80.3341 80.7704 81.3704 80.4839 85.8404C80.2254 89.8733 79.6864 91.3941 78.0616 92.671C75.6647 94.5549 70.425 92.774 65.8623 88.5247C61.2802 84.257 59.2298 79.7654 59.5898 74.7848C59.8045 71.8153 61.0243 69.1689 64.4709 64.1934C67.4673 59.8683 67.5225 59.751 67.9916 56.7311C68.7272 51.9922 67.3178 47.5112 64.0704 44.267C62.0652 42.2632 60.7817 41.6742 54.2938 39.779C51.5261 38.9704 48.7507 38.0448 48.1266 37.7222C46.7731 37.0229 44.4145 32.6632 44.4145 30.861C44.4145 30.222 45.1476 27.2655 46.0438 24.2912C48.6826 15.5341 49.7338 8.94922 48.5567 8.55414C48.2835 8.46254 48.0964 7.75474 48.0964 6.81264C48.0964 5.70828 47.6874 4.43139 46.751 2.61302L45.406 2.85328e-05L24.3419 2.94536e-05L3.27772 3.03743e-05L2.25563 2.27568C0.120859 7.02893 -0.512428 12.0831 0.414675 16.9728ZM182.728 151.005C184.266 158.176 189.455 164.85 195.639 167.609C196.697 168.081 199.762 168.889 202.45 169.405C211.076 171.06 211.614 171.246 214.426 173.521L215.991 174.788L215.991 150.491L215.991 126.195L214.588 125.48C210.244 123.265 203.165 123 197.766 124.849C189.965 127.521 184.349 133.939 182.694 142.075C181.995 145.512 182.004 147.623 182.728 151.005Z" fill="url(#paint0_linear_469_71)" fill-opacity="0.4"/>
<defs>
<linearGradient id="paint0_linear_469_71" x1="80.8177" y1="-193.341" x2="118.948" y2="237.962" gradientUnits="userSpaceOnUse">
<stop stop-color="#D7C0F5"/>
<stop offset="0.5" stop-color="#6C4CDC"/>
<stop offset="1" stop-color="#D7C0F5"/>
</linearGradient>
</defs>
</svg>


