<svg width="141" height="446" viewBox="0 0 141 446" fill="none" xmlns="http://www.w3.org/2000/svg">
<path fill-rule="evenodd" clip-rule="evenodd" d="M131.394 1.909C126.707 4.037 123.631 9.344 122.548 17.171C121.34 25.9 112.619 34 104.43 34C101.038 34 96.316 36.54 94.945 39.104C94.332 40.249 93.981 43.503 94.165 46.334L94.5 51.481L88.546 52.316C84.19 52.927 81.719 53.917 79.338 56.008C77.278 57.817 74.409 59.116 71.516 59.55C62.607 60.886 56.931 66.784 56.212 75.453C55.613 82.682 57.119 86.076 63.174 91.146C65.881 93.412 69.033 97.118 70.181 99.383C71.328 101.647 74.006 105.696 76.133 108.381C78.26 111.065 79.986 113.99 79.969 114.881C79.952 115.771 78.829 118.3 77.474 120.5C76.119 122.7 75.008 125.272 75.005 126.215C74.998 128.7 69.068 135.073 65.298 136.649C63.478 137.409 58.495 138 53.901 138H45.737L41.368 142.368C37.387 146.35 37 147.175 37 151.688C37 155.904 37.594 157.435 41 162C46.618 169.529 46.494 172.915 40.374 179.128C36.504 183.057 35.731 184.478 35.643 187.828C35.474 194.3 38.781 196.708 50.326 198.519C55.369 199.31 57.077 203.062 56.299 211.641C55.574 219.636 57.165 224.13 62.269 228.498C67.673 233.124 72.763 234.496 78.982 233.004C84.185 231.756 90.092 226.596 91.94 221.685C93.444 217.691 93.229 211.24 91.419 206.043C88.259 196.968 93.234 187.655 101.9 186.424C108.793 185.444 112.428 183.362 114.889 178.983C117.911 173.607 120.545 172 126.34 172C130.693 172 131.665 172.43 135.118 175.882C138.197 178.961 139 180.513 139 183.382C139 187.265 138.193 188.27 131.173 193.129C126.336 196.477 123.567 201.754 124.477 205.894C124.801 207.372 126.852 211.211 129.033 214.426C131.215 217.64 133 220.894 133 221.657C133 222.42 131.278 224.947 129.174 227.272C123.316 233.747 122 236.119 122 240.207C122 247.563 130.114 252.939 137.75 250.642L141 249.664L140.968 240.082C140.946 233.246 140.516 229.944 139.468 228.559C138.661 227.491 138 225.44 138 224C138 222.56 138.661 220.509 139.468 219.441C140.704 217.807 140.941 210.821 140.968 175.297C140.989 147.186 140.64 132.304 139.922 130.728C139.183 129.105 139.148 126.688 139.811 123.038C141.005 116.469 140.236 113.637 135.616 107.584C133.627 104.978 132 102.354 132 101.752C132 101.15 134.025 98.717 136.5 96.345L141 92.034V70.517V49H138.682C134.899 49 126.473 51.84 123.637 54.071C118.96 57.75 115.819 64.353 115.703 70.752C115.611 75.785 116.183 77.601 120.299 85.346C126.344 96.721 126.388 99.233 120.654 105.642C115.018 111.941 114 113.989 114 119.03C114 125.927 118.76 130.403 128.275 132.453C135.551 134.02 136.935 141.124 132.217 152.683C128.154 162.637 127.354 163.779 122.825 166.089C118.388 168.353 116.24 168.251 108.969 165.431C101.3 162.456 94.735 165.945 93.526 173.638C91.807 184.576 86.453 192.782 79.67 194.876C73.854 196.672 62.272 198.285 59.747 197.651C56.871 196.929 55.207 193.296 55.201 187.723C55.198 185.16 54.324 182.802 52.481 180.387C50.27 177.487 49.874 176.148 50.349 173.164C50.916 169.607 51.526 168.9 58.997 163.154C62.828 160.208 64.542 156.859 65.467 150.513C66.933 140.453 70.875 136.745 80.5 136.373C83.8 136.245 87.322 136.109 88.327 136.07C89.332 136.032 91.469 134.685 93.077 133.077C95.371 130.783 96 129.258 96 125.995C96 122.137 95.388 121.199 87.554 113.056C82.908 108.227 78.806 103.077 78.439 101.611C77.748 98.861 77.916 98.549 86.498 86.641C90.65 80.88 91.004 76.663 88.001 68.761C84.321 59.079 85.461 57.563 97.187 56.553C110.129 55.437 113.755 52.907 115.393 43.851C116.872 35.671 122.465 32 133.45 32H141V16V0L138.25 0.0219994C136.738 0.0339994 133.652 0.883 131.394 1.909ZM42 247.704C39.476 248.622 35.211 253.075 33.958 256.101C32.105 260.574 33.588 265.469 38.454 270.948C46.061 279.513 45.736 284.481 36.845 295.532C30.153 303.851 29 306.799 29 315.588C29 320.23 28.562 322.086 27.171 323.345C22.893 327.217 16.258 323.345 15.332 316.435C14.885 313.105 15.436 311.084 18.393 305.212C20.377 301.273 22 297.096 22 295.929C22 291.054 15.932 285 11.046 285C5.35701 285 0 290.487 0 296.315C0 299.439 4.13399 306.728 6.86099 308.414C7.40699 308.752 8.362 310.567 8.983 312.449C10.424 316.816 9.089 322.093 5.021 328.095C-4.189 341.688 10.003 357.255 23.102 347.927C26.203 345.72 29 339.414 29 334.635C29 332.567 29.765 330.618 31.024 329.479C32.889 327.791 33.656 327.746 40.813 328.908C51.308 330.613 55.33 329.723 60.502 324.551C67.151 317.901 68.398 307.662 63.316 301.425C62.317 300.199 59.597 296.873 57.272 294.036C50.439 285.697 49.851 279.831 55.012 271.481C58.051 266.563 61.717 264 65.712 264C69.382 264 72.15 266.291 77 273.345C79.753 277.347 86.121 281 90.348 281C94.637 281 99.923 283.667 100.941 286.344C102.036 289.225 101.626 291.319 98.282 299.941C95.944 305.968 95.829 307.105 96.489 317.67L97.195 328.959L94.05 332.104C90.96 335.194 90.785 335.237 84.044 334.573C66.375 332.832 57.279 345.73 64.628 362.105C67.126 367.671 67.174 368.086 65.605 370.48C64.697 371.866 63.099 373 62.054 373C61.008 373 58.068 374.591 55.52 376.536C48.551 381.856 46.618 381.892 39.108 376.841C34.095 373.469 31.863 372.564 28.765 372.645C18.094 372.925 12.346 386.533 19.669 394.177C26.303 401.101 32.611 400.44 40.977 391.943C44.221 388.648 47.712 386 48.813 386C49.904 386 53.398 387.368 56.577 389.04C60.831 391.278 63.112 391.915 65.219 391.452C69.653 390.478 70.999 392.32 71.007 399.372C71.017 408.611 75.278 413.884 82.8 413.965C90.08 414.043 94.742 409.24 95.671 400.705C96.413 393.889 98.197 391.243 103.685 388.815C107.389 387.177 109.398 386.935 114.851 387.473C120.673 388.047 122.053 387.834 125.947 385.762C130.96 383.094 135.015 376.732 134.978 371.593C134.896 360.007 122.271 351.745 112.391 356.81C105.773 360.204 103.876 363.02 103.032 370.708C101.941 380.646 98.355 386.406 91.685 388.933C87.657 390.459 74.501 390.309 73.184 388.722C72.601 388.019 71.813 384.016 71.433 379.826C70.638 371.048 71.091 370.474 79.71 369.346C91.205 367.841 96.978 360.889 97.015 348.507C97.045 338.146 101.277 334.984 112.572 336.882C117.166 337.654 123.505 337.836 130.355 337.394L141 336.705V314.421V292.136L138.066 290.047C133.249 286.617 127.201 285.001 119.124 284.985C106.224 284.96 103.32 281.743 106.251 270.724C108.707 261.495 106.953 255.354 100.444 250.39C95.212 246.399 88.403 245.988 82.717 249.32C80.31 250.73 77.734 252.615 76.993 253.508C74.606 256.384 69.946 258.213 66.603 257.585C64.868 257.26 60.364 254.745 56.594 251.997C49.903 247.119 46.422 246.095 42 247.704ZM134.25 400.994C129.268 405.666 128 407.464 128 409.862C128 417.283 123.595 420.996 114.782 421.004C103.837 421.013 97.862 431.755 103.78 440.786C107.264 446.105 115.909 447.625 121.209 443.851C125.135 441.055 127 436.414 127 429.436C127 422.457 129.489 418.496 134.8 417.025C141.085 415.285 141.104 415.246 140.788 404.734L140.5 395.134L134.25 400.994Z" fill="url(#paint0_linear_542_63)"/>
<defs>
<linearGradient id="paint0_linear_542_63" x1="178.5" y1="-35" x2="11" y2="513" gradientUnits="userSpaceOnUse">
<stop stop-color="#FFC6BF"/>
<stop offset="1" stop-color="#F7F3E4"/>
</linearGradient>
</defs>
</svg>

