<svg width="207" height="348" viewBox="0 0 207 348" fill="none" xmlns="http://www.w3.org/2000/svg">
<path fill-rule="evenodd" clip-rule="evenodd" d="M54.558 1.87917C50.095 3.93917 47.887 6.16917 43.063 13.4892C36.966 22.7382 34.012 23.7902 27.651 18.9772C20.638 13.6702 14.152 14.2412 9.146 20.6042C5.424 25.3362 6.462 31.1632 12.205 37.7742C16.334 42.5282 15.922 45.2202 10.184 50.9582C4.83 56.3122 3.276 60.7952 5.102 65.6162C6.795 70.0832 9.783 72.6562 14.879 74.0342C20.593 75.5792 22.058 76.6402 22.058 79.2312C22.058 81.9042 15.588 92.4272 12.405 94.9312C10.048 96.7852 9.599 96.8242 6.337 95.4612C0.356 92.9622 0.058 93.2242 0.058 100.989C0.058 106.608 0.36 107.989 1.589 107.989C2.432 107.989 3.386 107.297 3.711 106.452C4.546 104.275 9.59 101.883 11.745 102.642C12.742 102.994 16.258 106.069 19.558 109.477C24.496 114.576 26.456 115.888 30.634 116.889C44.583 120.231 57.815 108.381 55.601 94.5312C54.447 87.3152 50.865 82.6242 44.234 79.6492C40.975 78.1862 36.872 76.9892 35.117 76.9892C28.577 76.9892 26.302 74.0422 28.599 68.5462C29.401 66.6252 30.056 63.3512 30.054 61.2712C30.05 57.3852 26.92 50.9892 25.022 50.9892C24.436 50.9892 23.294 49.4042 22.484 47.4662C20.662 43.1062 21.284 41.7782 28.591 34.4132C36.206 26.7362 39.505 27.2772 46.335 37.3232C47.312 38.7602 50.205 41.1632 52.765 42.6632C56.677 44.9562 58.863 45.4562 66.488 45.8022C79.344 46.3842 80.432 47.6152 77.625 58.3922C75.889 65.0582 76.827 69.4402 80.802 73.2322C90.243 82.2402 102.51 78.0112 106.163 64.4892C108.303 56.5702 111.739 55.2832 119.841 59.3662C129.379 64.1722 136.176 63.5882 143.059 57.3692C147.762 53.1202 149.433 48.5242 148.846 41.4492C147.414 24.1792 124.352 18.9952 114.945 33.8292C113.357 36.3322 112.048 39.3052 112.036 40.4352C112.024 41.5652 111.146 44.4012 110.085 46.7392C108.305 50.6602 107.861 50.9882 104.357 50.9762C99.634 50.9602 88.24 47.4642 85.844 45.2952C83.593 43.2582 83.526 37.9082 85.671 31.6122C88.151 24.3342 87.241 15.1482 83.506 9.76017C77.514 1.11517 64.117 -2.53183 54.558 1.87917ZM163.558 60.8292C155.979 64.4442 153.321 68.5412 150.494 80.9692C148.23 90.9252 146.334 92.1142 135.404 90.4352C131.409 89.8222 131.011 90.0172 125.04 95.5052C119.351 100.736 118.534 101.166 115.288 100.639C113.339 100.323 109.452 98.5492 106.651 96.6992C97.949 90.9482 92.579 89.8542 84.681 92.2202C78.832 93.9722 71.559 101.308 70.048 106.979C67.581 116.238 71.405 126.543 79.228 131.72C82.795 134.081 84.455 134.447 92.923 134.743C104.786 135.156 106.591 135.522 109.083 138.014C110.575 139.506 111.058 141.346 111.058 145.539C111.058 152.521 112.892 156.09 118.439 159.907C125.695 164.9 126.095 169.514 119.892 176.678C114.04 183.437 111.757 189.102 111.505 197.489C111.39 201.339 111.242 205.476 111.177 206.683C111.111 207.89 109.991 210.117 108.688 211.633L106.318 214.388L98.85 212.529C91.534 210.707 91.31 210.708 87.829 212.579C74.453 219.769 75.484 219.433 70.952 218.075C68.043 217.204 64.768 214.831 60.36 210.402C52.24 202.242 47.272 199.598 40.058 199.598C31.443 199.598 24.742 203.833 20.45 211.989C19.03 214.688 18.603 217.741 18.583 225.324C18.559 234.847 18.469 235.236 15.752 237.574C13.411 239.59 11.876 239.989 6.473 239.989H0L0.279 253.239L0.558 266.489L4.248 266.796C11.908 267.433 17.984 260.763 18.036 251.662C18.066 246.386 22.405 241.989 27.58 241.989C33.093 241.989 37.867 244.694 40.108 249.087C42.881 254.523 42.546 257.816 38.584 264.035C34.646 270.216 34.465 271.613 36.558 279.652C38.236 286.091 37.913 288.038 34.39 292.74C31.201 296.996 27.869 298.626 20.557 299.502C10.553 300.701 4.143 305.709 0.973 314.804C-1.04 320.576 1.395 329.354 6.319 334.08C13.304 340.785 22.321 341.613 32.501 336.486C36.319 334.563 40.482 332.989 41.751 332.989C44.378 332.989 47.254 335.534 49.469 339.817C51.618 343.972 56.741 347.99 59.885 347.985C64.87 347.978 68.567 344.691 71.289 337.843C74.288 330.301 76.606 328.655 83.058 329.486C85.533 329.805 89.621 330.323 92.142 330.639C99.875 331.605 105.372 327.37 108.063 318.375C109.222 314.499 109.084 313.799 105.676 306.249C103.652 301.767 102.058 296.636 102.058 294.602C102.058 289.96 105.511 282.577 108.642 280.526C109.975 279.653 112.194 277.15 113.574 274.964C115.687 271.617 116.614 270.989 119.445 270.989C121.294 270.989 124.72 271.664 127.058 272.489C129.396 273.314 133.39 273.989 135.934 273.99C138.994 273.99 142.702 275.005 146.898 276.99C159.072 282.749 169.061 279.898 174.535 269.099C175.972 266.266 176.142 264.132 175.575 256.099C175.187 250.608 175.304 245.418 175.847 243.989C176.496 242.282 176.377 239.902 175.472 236.489C173.556 229.265 173.682 227.99 176.308 227.985C179.26 227.98 184.628 224.661 186.084 221.941C186.775 220.648 187.001 217.824 186.648 214.887C186.323 212.193 185.795 207.816 185.473 205.159C184.728 199.011 187.802 192 192.923 188.167C194.89 186.694 198.65 183.416 201.279 180.882C205.882 176.445 206.058 176.065 206.058 170.6C206.058 163.622 204.31 159.22 200.149 155.719C193.153 149.832 183.092 150.109 176.841 156.359C170.141 163.06 169.572 168.946 174.558 179.989C178.283 188.239 179.055 194.707 176.883 199.474C176.237 200.892 173.522 203.624 170.85 205.543C163.301 210.967 162.429 215.363 166.558 227.182C170.982 239.846 169.439 242.989 158.796 242.989C148.651 242.989 144.846 245.887 138.043 258.794C136.216 262.262 133.849 265.566 132.784 266.136C130.189 267.525 126.051 266.636 115.726 262.472C103 257.341 97.169 258.006 93.552 265C91.493 268.981 91.714 271.663 94.58 277.489C97.41 283.241 97.784 289.685 95.541 294.023C94.706 295.637 91.461 298.653 88.329 300.725C81.303 305.374 78.533 309.35 77.643 316.064C77.131 319.917 76.193 322.007 73.984 324.217C71.093 327.108 70.829 327.169 64.158 326.499C58.823 325.963 56.623 326.163 54.23 327.4C50.104 329.534 46.742 329.402 44.588 327.022C42.705 324.942 38.051 308.6 38.068 304.128C38.082 300.375 42.293 291.95 45.682 288.898C47.264 287.473 50.256 285.292 52.332 284.052C60.754 279.018 61.219 269.182 53.328 262.993C49.334 259.861 48.134 257.173 48.093 251.272C48.059 246.244 48.293 245.792 54.573 238.772C62.581 229.82 66.495 226.989 70.861 226.989C73.673 226.989 75.251 228.039 80.53 233.423C87.483 240.514 91.347 242.039 97.346 240.059C101.833 238.578 104.102 235.975 108.389 227.386C112.923 218.304 113.964 217.864 130.073 218.216L142.562 218.489L147.653 215.236C154.91 210.598 158.484 203.815 158.406 194.824C158.324 185.459 155.354 180.643 145.813 174.408C132.241 165.538 131.201 163.542 134.654 152.984C137.548 144.137 133.858 138.269 123.757 135.654C112.704 132.792 111.075 130.037 113.019 117.489C113.857 112.083 114.681 109.977 116.637 108.239C119.733 105.489 121.104 105.454 128.189 107.944C136.26 110.781 140.386 109.278 143.969 102.199C145.262 99.6432 147.205 97.5042 148.773 96.9072C156.187 94.0882 170.058 102.72 170.058 110.153C170.058 112.453 168.76 114.493 164.563 118.792C158.954 124.537 157.24 128.594 158.426 133.32C160.66 142.221 172.646 145.807 179.361 139.584C180.761 138.286 182.461 135.374 183.139 133.113C184.311 129.2 184.195 128.667 180.714 122.023C178.703 118.184 177.058 113.892 177.058 112.484C177.058 108.203 179.806 103.017 184.556 98.3342C194.696 88.3382 196.388 77.8442 189.469 67.8612C184.331 60.4462 171.603 56.9922 163.558 60.8292ZM4.058 130.871L0.558 131.489L0.292 158.103C-0.02 189.261 -0.616 187.545 10.468 187.389C20.947 187.242 26.866 184.237 35.35 174.758C45.943 162.923 50.088 162.47 58.28 172.254C64.839 180.088 72.954 182.178 80.04 177.859C85.907 174.282 88.209 170.199 88.219 163.35C88.23 155.853 83.565 150.011 75.927 147.954C70.579 146.514 65.654 148.035 59.699 152.966C50.974 160.19 44.391 157.883 36.456 144.821C29.409 133.22 18.164 128.378 4.058 130.871Z" fill="url(#paint0_linear_540_55)"/>
<defs>
<linearGradient id="paint0_linear_540_55" x1="11.5" y1="174" x2="191.5" y2="208" gradientUnits="userSpaceOnUse">
<stop stop-color="#FFC6BF"/>
<stop offset="1" stop-color="#F7F3E4"/>
</linearGradient>
</defs>
</svg>

