<svg width="928" height="921" viewBox="0 0 928 921" fill="none" xmlns="http://www.w3.org/2000/svg">
<path fill-rule="evenodd" clip-rule="evenodd" d="M75.8419 1.68656C68.9971 5.10627 67.2994 12.561 70.3708 25.7117C76.1796 50.585 99.8715 69.6803 124.817 69.5951C137.823 69.5515 154.996 64.6404 157.293 60.3081C157.83 59.2943 159.104 58.4649 160.123 58.4649C163.745 58.4649 171.091 47.6558 183.146 24.588C188.461 14.4161 188.891 13.8968 194 11.4581C202.732 7.28929 205.722 7.78475 221.799 16.0679L235.812 23.2869H243.892C250.733 23.2869 252.821 22.8657 257.511 20.542C263.573 17.5375 271.118 10.0659 271.118 7.06831C271.118 6.02684 270.274 4.12128 269.242 2.83505L267.365 0.495465L173.263 0.262597C86.9931 0.0485556 78.8837 0.167467 75.8419 1.68656ZM334.296 1.53396C333.976 2.37724 333.965 4.94078 334.272 7.23181C335.274 14.6767 333.29 19.6561 326.671 26.3231C321.667 31.361 318.365 33.4786 306.217 39.4361C288.62 48.0651 284.621 51.5175 278.645 63.2363C270.533 79.1476 269.128 89.814 273.496 102.307C279.432 119.279 289.635 128.967 308.43 135.477C316.426 138.248 320.706 138.274 334.36 135.635C364.306 129.848 378.906 139.068 383.111 166.422C385.613 182.69 378.892 195.2 367.646 195.209C364.185 195.212 362.542 194.425 357.336 190.266C348.75 183.408 343.471 181.018 336.905 181.018C328.86 181.018 323.378 183.94 315.022 192.679C307.27 200.786 304.545 201.809 298.808 198.758C295.486 196.991 287.544 188.662 281.64 180.754C268.047 162.545 250.986 154.479 229.105 155.919C221.881 156.395 217.188 157.475 206.522 161.117C195.553 164.864 191.694 165.735 185.694 165.82C179.267 165.911 177.654 165.55 173.007 162.979C166.059 159.136 162.102 153.539 157.616 141.208C152.556 127.299 149.222 120.987 144.299 115.991C136.362 107.938 123.451 103.885 112.585 106.037C99.5249 108.622 89.1808 116.924 83.3493 129.5C79.0919 138.681 79.2981 144.338 84.4952 160.892C89.4488 176.671 90.3698 183.274 88.1046 186.764C85.6745 190.506 80.0836 193.812 71.3478 196.671C57.4688 201.213 52.4307 205.602 45.7804 218.946C44.2997 221.917 41.9884 226.025 40.6432 228.077C32.0772 241.14 8.01612 237.019 2.09633 221.473L0.210124 216.518L0.163975 250.507C0.113899 287.535 0.358388 289.354 5.65566 291.386C10.8518 293.38 12.7105 291.135 19.242 274.983C26.2635 257.617 27.6077 254.927 30.7222 251.992C36.8453 246.222 47.9258 245.158 60.6982 249.114C74.7618 253.47 80.3035 253.122 88.9893 247.339C95.4423 243.043 99.086 237.585 100.453 230.169C101.406 224.997 101.27 222.968 99.4317 214.911C96.7364 203.1 96.759 199.327 99.5485 195.149C103.324 189.496 108.994 186.317 121.518 182.834C127.923 181.052 137.14 178.396 142 176.93C147.736 175.201 152.155 174.434 154.59 174.745C160.148 175.456 165.452 179.467 168.143 184.991C170.258 189.331 170.532 191.556 171.173 209.582C171.561 220.482 172.165 233.944 172.515 239.497C173.331 252.416 171.453 261.416 165.387 273.646C158.009 288.519 143.488 302.161 131.246 305.717C128.52 306.509 120.051 308.06 112.427 309.164C91.2457 312.228 81.1784 316.433 72.7617 325.727C64.5364 334.81 58.9475 346.653 57.5464 357.972C56.7206 364.642 58.2975 375.456 62.0041 388.542C68.1154 410.122 67.9946 419.47 61.417 433.869C52.903 452.509 43.8304 460.237 24.554 465.268C15.1181 467.73 4.79848 472.867 2.54898 476.222C0.729541 478.935 0.590113 481.157 0.315185 511.845L0.0216015 544.575L2.27994 548.014C9.44378 558.922 31.4361 559.685 52.1578 549.747C64.3931 543.877 67.6176 542.919 75.2321 542.888C83.3572 542.856 89.9054 544.89 97.0526 549.668C105.951 555.618 112.357 566.39 119.914 588.117C127.289 609.319 130.395 616.089 138.143 627.83C150.101 645.951 152.901 656.705 148.081 665.998C145.292 671.377 134.439 679.947 126.781 682.82C116.94 686.512 107.24 692.758 103.62 697.734C93.9979 710.963 90.6025 729.608 95.4089 742.819C102.671 762.776 101.135 771.229 89.655 774.496C86.5827 775.37 79.1773 777.604 73.1976 779.46C54.5889 785.237 53.3144 784.579 46.6121 765.734C45.209 761.787 42.7965 756.095 41.253 753.086C38.0913 746.924 36.4476 739.565 36.4476 731.577C36.4476 727.087 37.2184 724.666 41.0006 717.274C47.2179 705.126 53.1073 698.83 62.1632 694.652C77.2882 687.674 86.3146 679.603 88.9284 670.721C91.4607 662.114 92.6537 653.329 92.2551 646.215C91.9467 640.692 91.2732 638.484 88.4797 633.833C78.2671 616.827 60.1052 607.29 43.745 610.342C31.0855 612.703 18.1511 621.709 12.5789 632.042C9.43592 637.87 7.02539 647.708 7.00576 654.789C6.9871 661.511 9.89937 670.161 15.4559 679.882C21.6732 690.761 23.9079 697.646 24.4264 707.525C25.1873 722.011 20.5106 731.645 9.96221 737.319C0.49487 742.411 0.656882 741.863 0.302421 770.085C-0.115863 803.295 0.547893 804.74 16.2247 804.785C24.5737 804.807 24.7023 804.77 34.8589 799.272C41.7665 795.532 46.2154 793.736 48.567 793.736C53.5305 793.736 56.9366 797.063 58.6009 803.538C61.2225 813.738 66.5836 820.237 77.6868 826.677C87.3289 832.27 91.1504 839.292 89.4567 848.304C88.9618 850.938 86.3284 858.016 83.6046 864.034C75.4501 882.047 74.8128 890.67 80.7601 902.496C84.4697 909.873 87.2465 912.458 96.7393 917.378C102.634 920.432 104.69 920.99 110.089 921C130.906 921.038 145.439 906.021 145.436 884.473C145.436 878.796 144.9 876.343 142.61 871.524C138.952 863.826 135.676 860.878 121.381 852.42C108.449 844.767 104.65 841.396 103.196 836.277C101.57 830.556 102.069 820.458 104.212 815.691C107.239 808.961 108.258 800.375 106.967 792.487C105.545 783.802 107.065 779.988 113.247 776.728C117.07 774.712 118.623 774.533 130.313 774.765C156.423 775.285 170.774 768.103 179.736 750.032C188.469 732.423 187.492 716.286 176.674 699.453C168.248 686.345 166.474 677.427 170.689 669.374C175.537 660.111 184.694 654.391 200.842 650.54C221.722 645.562 230.704 640.277 246.686 623.569C260.777 608.839 267.422 604.468 275.722 604.468C283.534 604.468 290.049 610.373 298.614 625.218C301.582 630.363 305.465 636.051 307.24 637.857C313.404 644.128 324.852 648.752 341.261 651.597C357.73 654.453 363.926 659.029 366.834 670.483C369.205 679.825 366.912 688.527 358.561 701.87C353.334 710.224 347.185 715.856 339.045 719.748C332.887 722.693 331.827 722.881 321.685 722.834C311.238 722.785 310.387 722.61 295.665 717.478C283.174 713.122 278.933 712.09 272.004 711.716C252.113 710.642 235.932 720.665 227.012 739.586C217.473 759.819 219.251 773.142 234.402 794.962C241.644 805.393 245.587 813.955 245.588 819.249C245.589 824.673 240.809 830.328 234.062 832.887C222.965 837.095 215.411 844.135 210.506 854.84C206.962 862.573 206.794 873.716 210.094 882.129C219.091 905.064 250.543 911.752 267.656 894.367C269.83 892.159 273.377 887.267 275.537 883.496C280.44 874.936 292.64 862.339 299.134 859.129C306.859 855.312 316.697 855.708 330.75 860.406C343.346 864.616 349.196 865.018 356.59 862.183C364.401 859.188 367.65 856.075 371.79 847.618C376.955 837.07 377.08 830.607 372.291 821.637C367.679 812.997 360.733 808.073 349.881 805.753C337.669 803.14 328.769 808.544 316.776 825.855C310.237 835.293 305.089 840.1 297.822 843.552C289.521 847.495 280.975 848.232 274.92 845.529C264.275 840.777 259.67 833.01 262.719 824.951C264.926 819.122 267.216 817.296 279.49 811.581C297.381 803.25 298.869 802.367 304.604 796.674C309.26 792.052 311.619 788.205 319.616 772.199C330.36 750.692 335.409 744.061 344.437 739.603C348.46 737.617 351.852 736.798 357.388 736.477C365.053 736.032 366.844 736.465 383.053 742.683C389.358 745.102 403.261 744.385 410.278 741.281C416.761 738.412 422.582 732.086 426.585 723.558C429.28 717.819 429.691 715.877 429.68 708.964C429.668 701.945 429.276 700.187 426.398 694.288C422.715 686.737 419.854 684.251 406.619 677.089C387.531 666.763 380.858 661.135 377.651 652.662C375.383 646.668 376.112 636.725 379.617 625.865C383.512 613.796 384.655 604.586 383.163 597.297C377.944 571.791 352.547 555.831 327.611 562.386C319.119 564.619 313.641 568.012 303.566 577.281C293.765 586.298 291.68 587.2 282.424 586.426C271.845 585.54 266.209 579.193 257.971 558.885C255.429 552.617 251.543 544.691 249.337 541.271C235.483 519.793 212.24 508.06 186.712 509.661C175.024 510.393 168.398 512.2 155.281 518.234C138.414 525.993 131.575 527.608 115.433 527.642L101.631 527.671L93.4746 522.716C79.7664 514.388 72.3503 504.259 69.2887 489.681C66.4658 476.239 68.244 463.493 74.8227 450.025C82.7357 433.826 95.5405 424.737 117.631 419.644C133.583 415.967 142.142 411.705 150.264 403.393C165.133 388.178 169.22 371.224 164.215 345.537C161.724 332.758 161.682 331.143 163.645 323.499C166.124 313.848 172.383 301.953 178.479 295.306C185.146 288.039 189.414 285.432 200.423 281.898C207.833 279.519 210.034 279.25 220.06 279.505C236.548 279.923 238.685 279.901 244.277 279.262C250.167 278.588 261.569 272.794 271.524 265.418C279.728 259.339 286.177 249.611 291.791 234.851C293.968 229.128 296.173 223.419 296.692 222.165C297.916 219.202 303.817 216.705 307.608 217.545C309.205 217.899 313.467 220.196 317.08 222.65C326.668 229.163 332.428 231.879 336.627 231.868C342.862 231.852 350.172 227.627 357.867 219.592C365.666 211.45 367.746 210.077 372.285 210.077C377.88 210.077 381.742 212.802 386.123 219.84C388.379 223.463 390.54 226.651 390.925 226.923C392.402 227.967 395.71 235.734 398.733 245.255C401.336 253.451 401.817 256.364 401.518 262.101C401.052 271.014 397.573 278.756 391.098 285.292C385.374 291.068 379.947 293.996 365.336 299.19C348.271 305.256 346.951 306.791 337.8 331.2C328.92 354.89 321.028 362.712 303.013 365.68C294.547 367.075 284.181 366.298 268.78 363.112C250.18 359.264 242.333 359.886 229.394 366.234C214.014 373.78 201.404 394.488 201.404 412.199C201.404 431.379 212.022 448.738 229.044 457.389C245.27 465.635 252.852 465.661 279.955 457.562C296.343 452.665 307.03 453.256 314.341 459.465C318.227 462.765 318.917 464.628 320.709 476.676C322.517 488.824 325.437 494.264 332.997 499.568C343.801 507.148 354.785 508.67 364.662 503.954C373.509 499.729 377.952 493.352 384.58 475.36C390.079 460.434 394.586 456.403 405.637 456.528C409.787 456.574 414.765 457.528 419.874 459.256C429.396 462.475 438.312 462.871 445.619 460.396C452.092 458.205 459.929 451.197 463.207 444.669C466.021 439.065 468.432 428.732 468.466 422.137C468.522 411.005 473.794 403.694 483.903 400.728C495.144 397.431 510.346 401.596 517.633 409.971C522.05 415.049 526.434 424.964 527.088 431.355C527.852 438.827 525.676 444.731 518.075 455.809C508.751 469.401 508.194 474.223 513.806 492.765C518.119 507.017 516.325 516.617 507.444 526.798C499.17 536.285 489.34 540.811 474.341 542.041C468.407 542.528 461.379 543.788 458.083 544.956C445.776 549.316 436.332 558.485 429.472 572.734C426.565 578.775 425.824 581.565 425.464 587.852C424.244 609.11 433.979 626.656 451.971 635.624C471.626 645.422 486 644.136 506.771 630.718C512.932 626.737 520.125 624.286 525.644 624.286C533.509 624.286 538.241 628.639 546.524 643.486C555.049 658.768 568.977 664.833 581.181 658.577C587.671 655.25 593.82 648.632 595.963 642.667C596.95 639.915 598.96 634.27 600.428 630.121C603.637 621.049 606.382 618.186 614.502 615.446C622.307 612.813 622.556 612.823 636.048 616.359C649.624 619.916 657.627 620.179 665.205 617.318C674.609 613.767 677.772 610.68 683.605 599.362C688.78 589.32 688.889 588.934 688.9 580.68C688.911 572.252 688.91 572.248 681.851 557.393C671.782 536.2 670.854 529.001 676.299 514.319C679.708 505.13 683.667 499.416 690.405 493.961C695.938 489.483 700.755 483.318 704.498 475.924C705.387 474.168 706.964 472.274 708.004 471.713C711.872 469.623 720.388 470.617 733.217 474.656C744.481 478.202 746.872 478.62 755.928 478.62C767.518 478.62 773.728 480.309 785.059 486.543C793.82 491.364 802.993 494.475 808.445 494.475C814.58 494.475 826.546 490.892 832.62 487.237C842.623 481.217 851.101 469.365 854.059 457.266C855.801 450.144 855.389 444.75 851.904 429.073C849.868 419.916 850.085 415.181 852.886 407.673C856.092 399.077 855.996 396.69 851.904 383.063C850.014 376.771 848.467 370.34 848.467 368.774C848.467 366.067 848.728 365.895 853.774 365.297C865.946 363.853 875.159 357.918 879.265 348.877C882.523 341.704 882.201 329.551 878.514 320.566C873.43 308.175 874.642 297.697 883.077 281.153C887.457 272.561 891.097 268.897 904.356 259.732C921.655 247.775 928 237.91 928 222.971C928 201.816 920.855 189.836 903.114 181.244C889.991 174.889 878.516 174.969 865.828 181.502C853.082 188.064 842.576 205.218 842.576 219.466C842.576 227.551 844.673 234.428 850.474 245.367C857.596 258.794 860.25 267.613 860.25 277.846C860.25 293.019 856.142 300.16 841.645 310.18C828.867 319.012 825.526 325.075 825.547 339.394C825.558 346.568 826.135 348.963 831.626 364.6C834.962 374.104 837.96 384.173 838.286 386.976C838.841 391.738 838.663 392.323 835.588 395.857C830.777 401.387 827.717 402.318 814.339 402.318C796.163 402.318 785.437 406.109 777.409 415.37C775.176 417.946 769.152 427.931 764.023 437.557C754.143 456.102 750.815 460.22 744.783 461.362C739.501 462.361 727.876 459.121 708.058 451.122C691.826 444.572 680.447 440.964 676.017 440.964C671.199 440.964 663.489 444.253 659.408 448.049C653.156 453.865 650.126 460.615 650.126 468.725C650.126 476.504 652.274 484.521 655.034 487.041C657.941 489.696 662.087 503.69 662.225 511.32C662.297 515.262 661.647 519.81 660.549 523.039C658.061 530.362 649.609 539.234 639.191 545.459C622.975 555.148 616.546 563.932 614.657 578.971C613.211 590.478 612.247 593.709 608.631 599.164C602.31 608.695 591.11 612.753 581.873 608.859C579.702 607.943 575.39 607.312 571.39 607.325C565.55 607.344 563.382 607.91 555.966 611.358C550.537 613.882 545.917 615.367 543.501 615.364C536.39 615.357 529.996 609.408 527.002 600.009C522.727 586.589 517.395 561.056 517.381 553.93C517.345 535.97 530.388 515.457 547.94 505.87C564.363 496.9 571.263 484.306 567.297 470.538C565.121 462.985 561.017 457.234 553.224 450.819C545.555 444.507 542.417 439.488 541.124 431.469C539.977 424.363 541.526 412.331 544.289 406.865C545.394 404.677 553.157 395.667 561.539 386.843C577.956 369.557 584.583 364.584 593.764 362.661C603.595 360.601 609.14 363.724 619.756 377.301C630.332 390.83 639.538 396.377 651.391 396.366C659.481 396.359 663.374 395.158 670.618 390.433C677.861 385.708 680.272 382.119 688.065 364.47C691.902 355.783 695.029 350.192 697.445 347.703C704.648 340.283 719.74 338.084 740.225 341.471C753.306 343.633 765.495 342.966 773.627 339.644C789.896 332.994 798.115 325.45 805.565 310.328L810.665 299.976L811.011 287.71C811.427 273.023 809.714 264.517 804.611 255.929C798.625 245.852 791.708 239.859 772.862 228.417C747.231 212.859 744.238 206.57 751.844 184.26C757.411 167.928 756.391 157.638 748.281 148.341C743.461 142.815 737.853 140.124 725.832 137.57C720.646 136.468 714.308 134.665 711.747 133.562C705.911 131.049 700.657 125.269 699.155 119.711C697.668 114.208 698.505 101.013 701.266 86.43C704.615 68.7409 708.356 65.0427 722.295 65.6393C728.632 65.9108 731.573 66.6193 737.514 69.3017C747.414 73.7728 755.266 73.9869 763.331 70.0043C769.512 66.9522 771.466 64.6117 774.877 56.1679C777.95 48.5625 782.794 42.9469 787.393 41.6577C800.126 38.0884 818.122 43.8249 829.969 55.2295C836.966 61.9649 839.68 67.3278 839.766 74.5923C839.852 81.8905 837.582 86.3398 830.894 91.9752C817.144 103.563 811.758 111.536 810.558 122.082C809 135.761 818.804 150.064 832.251 153.726C842.871 156.62 855.976 153.614 863.081 146.656C867.868 141.967 870.403 137.149 872.073 129.564C873.857 121.458 872.314 115.749 864.637 102.046C861.132 95.7893 857.78 88.8905 857.19 86.7144C855.372 80.0038 856.559 73.205 861.214 63.6772C864.86 56.2145 866.928 53.536 875.943 44.5919C884.867 35.7389 887.052 32.9217 890.592 25.7038C895.736 15.2167 896.456 10.6297 893.664 6.13386C889.869 0.0227916 889.667 0 838.847 0H792.835L791.18 7.67971C788.424 20.4786 783.859 26.2527 774.432 28.8658C771.014 29.8131 769.52 29.6744 764.516 27.9423C755.597 24.8535 752.794 24.5186 746.616 25.7999C741.688 26.8235 740.248 27.7044 735.55 32.5679C732.58 35.6438 728.511 40.2268 726.509 42.7537C721.172 49.4881 715.609 51.899 706.755 51.3154C698.751 50.7872 695.213 49.2265 682.529 40.6282C671.6 33.22 667.19 31.0181 659.73 29.2434C647.639 26.3657 636.487 27.7629 623.789 33.7442C604.052 43.0431 591.898 64.0141 593.443 86.1079C594.076 95.173 596.932 103.31 602.52 111.975C613.7 129.311 628.386 136.513 651.108 135.802C677.613 134.972 677.504 134.963 684.753 138.54C694.113 143.16 694.534 144.066 695.351 161.373C696.305 181.572 698.164 185.588 710.888 194.952C725.083 205.398 727.925 209.138 728.045 217.534C728.146 224.591 724.504 231.47 714.982 242.209C706.674 251.58 701.528 260.647 698.63 271.02C697.379 275.503 696.941 281.354 696.85 294.802C696.733 312.15 696.654 312.806 693.957 318.734C692.432 322.087 689.869 326.1 688.263 327.652C685.73 330.099 684.596 330.468 679.762 330.42C676.32 330.385 670.984 329.267 665.836 327.501C659.762 325.418 655.62 324.639 650.617 324.641C642.444 324.644 638.441 326.249 626.684 334.237C616.456 341.186 610.514 343.286 603.017 342.6C592.755 341.661 587.433 338.132 570.594 321.097C554.553 304.872 550.239 301.891 535.246 296.679C523.625 292.64 505.991 295.463 493.888 303.301C483.094 310.292 473.005 324.882 470.494 337.135C469.763 340.704 469.447 349.715 469.641 361.466L469.95 380.128L467.281 384.217C465.815 386.466 462.501 389.787 459.917 391.596L455.222 394.886L440.698 394.585C427.049 394.301 425.86 394.428 420.942 396.7C410.012 401.75 403.612 410.125 400.554 423.375C395.243 446.395 383.916 454.477 367.068 447.271C358.321 443.529 349.834 443.09 340.684 445.904C331.07 448.861 325.635 448.875 320.49 445.958C308.343 439.067 301.195 415.963 306.413 400.448C310.889 387.138 321.292 375.099 333.636 368.941C339.89 365.822 342.165 365.227 349.293 364.85C353.88 364.607 360.812 364.923 364.697 365.553C376.281 367.43 388.186 363.976 396.615 356.29C401.715 351.641 404.293 346.195 405.673 337.158C406.59 331.154 406.495 328.563 405.096 321.447C402.867 310.111 403.532 302.276 407.436 293.856C410.826 286.544 418.528 277.745 424.768 274.054C431.833 269.875 443.363 266.535 454.051 265.57C465.421 264.545 473.295 262.231 484.86 256.514C494.851 251.577 503.177 244.015 513.536 230.473C534.14 203.537 548.844 203.383 568.34 229.896C576.898 241.534 589.41 247.402 603.817 246.533C631.083 244.888 648.452 214.361 636.298 189.446C630.617 177.801 621.315 170.512 608.749 167.866C594.645 164.894 584.631 168.147 570.757 180.208C560.631 189.009 558.023 190.392 550.379 191.011C545.326 191.42 543.417 191.087 538.926 189.012C529.506 184.66 521.143 175.269 513.563 160.531C508.433 150.558 494.808 137.327 484.188 132.006C479.597 129.706 472.97 127.079 469.459 126.168C460.302 123.793 443.97 123.998 432.009 126.64C426.803 127.79 417.964 129.202 412.367 129.776C400.139 131.032 393.943 129.785 384.035 124.075C378.246 120.74 377.334 119.755 374.216 113.486C370.91 106.838 370.78 106.158 370.78 95.6496C370.78 86.2784 371.111 83.9854 373.107 79.5301C377.237 70.3095 385.349 65.0378 392.62 66.8482C394.109 67.2188 398.697 69.052 402.815 70.9209C416.041 76.925 424.631 75.1968 433.766 64.6969C441.827 55.4297 448.535 53.2675 456.489 57.3719C461.188 59.7977 463.829 62.3345 470.643 70.9695C480.77 83.801 490.149 89.9181 503.207 92.2091C523.875 95.8349 546.258 84.4184 555.393 65.5927C562.209 51.5443 562.08 36.0996 555.022 21.2475C550.257 11.2193 546.675 7.08813 539.316 3.12936L533.498 0L511.543 0.00594559C499.468 0.00891838 488.041 0.444928 486.151 0.976067C480.618 2.52985 475.962 7.23578 469.567 17.7377C463.001 28.521 455.087 37.8972 450.555 40.2625C446.772 42.2365 445.069 41.7648 429.826 34.5161C418.188 28.9818 416.777 28.5457 411.867 28.956C405.195 29.5149 402.834 31.2589 395.322 41.1831C391.666 46.0119 387.591 50.1173 384.598 51.9842C380.39 54.6102 378.878 54.9927 372.82 54.9669C367.571 54.9451 364.856 54.3981 361.725 52.7314C351.603 47.3447 346.556 39.7502 346.462 29.7646C346.397 22.6893 347.723 20.3745 355.035 14.8035C361.201 10.1045 362.274 7.85412 360.009 4.36604C357.714 0.831391 354.698 0 344.175 0C336.691 0 334.765 0.299261 334.296 1.53396ZM6.24578 144.998C0.790418 148.056 0.633316 148.937 0.304385 178.274L0 205.432L3.54363 202.293C5.49169 200.566 9.83948 197.893 13.2054 196.353C24.7357 191.077 29.9839 184.182 31.168 172.756C32.037 164.365 29.7727 157.915 23.8667 151.954C19.4747 147.522 13.0159 143.714 9.93669 143.741C9.12663 143.749 7.46626 144.314 6.24578 144.998Z" fill="url(#paint0_linear_206_81)"/>
<defs>
<linearGradient id="paint0_linear_206_81" x1="-231.5" y1="-57.5" x2="731" y2="710" gradientUnits="userSpaceOnUse">
<stop stop-color="#FFC6BF"/>
<stop offset="1" stop-color="#F7F3E4"/>
</linearGradient>
</defs>
</svg>

