<svg width="194" height="26" viewBox="0 0 194 26" fill="none" xmlns="http://www.w3.org/2000/svg">
<path d="M170.387 7.55344C178.765 6.13893 186.294 3.79146 191.751 0.89174C192.426 0.532924 192.781 0.40736 192.889 0.488567C192.975 0.553464 193.071 0.980949 193.102 1.43865C193.297 4.33256 189.555 8.54949 185.207 10.3351C183.97 10.8434 182.637 11.1967 180.046 11.7036C170.627 13.5462 160.344 14.6252 148.787 14.9833C140.571 15.2379 126.992 15.1015 118.974 14.6838C117.217 14.5923 114.718 14.4632 113.422 14.397C112.125 14.3306 110.003 14.2039 108.706 14.1154C107.41 14.0267 105.801 13.924 105.132 13.8869C104.462 13.8498 102.922 13.7456 101.709 13.6554C100.496 13.565 98.4084 13.4127 97.0698 13.3166C95.7312 13.2205 94.4991 13.1201 94.3318 13.0933C94.1645 13.0666 93.172 12.9896 92.1262 12.9223C91.0804 12.855 89.4034 12.7256 88.3995 12.6347C87.3955 12.5438 85.8554 12.413 84.977 12.3437C84.0985 12.2746 82.5926 12.146 81.6305 12.0579C80.6684 11.9698 78.5465 11.7907 76.9151 11.66C75.2837 11.5293 72.443 11.2984 70.6025 11.1471C68.762 10.9957 65.8186 10.7675 64.0617 10.64C61.0075 10.4184 59.775 10.3333 55.7052 10.0634C52.5886 9.85689 45.9184 9.61224 43.365 9.61087C40.7649 9.60939 38.3961 9.80044 36.3221 10.1786C32.2423 10.9227 27.761 12.6363 24.0656 14.8653C20.8968 16.7767 17.4337 19.853 15.5421 22.437C14.6185 23.6984 13.8602 24.3402 12.5739 24.949C10.1259 26.1078 6.10664 25.979 3.4666 24.6572C0.983701 23.414 -0.347257 21.3276 0.0785014 19.346C0.530879 17.2393 2.72142 14.5074 5.87939 12.1113C13.3693 6.42831 24.9904 3.33969 38.8933 3.33706C42.9838 3.33627 49.0321 3.7374 56.9886 4.53692C59.0575 4.74484 61.48 4.9822 63.9477 5.21852C64.9308 5.31273 65.9061 5.41459 66.1152 5.44482C66.3244 5.47516 67.5907 5.60561 68.9293 5.7346C72.3916 6.06856 75.2376 6.34539 79.4249 6.7553C81.4328 6.95193 83.897 7.18403 84.9009 7.27106C85.9048 7.35819 87.9583 7.53566 89.4642 7.66568C90.9701 7.79559 93.0236 7.97693 94.0276 8.06852C97.4446 8.38069 108.951 9.18261 111.977 9.31947C112.73 9.35357 114.817 9.45633 116.616 9.54792C123.252 9.88552 127.686 9.98759 135.706 9.98759C147.532 9.98748 154.621 9.62537 163.466 8.56957C166.364 8.22376 166.771 8.16397 170.387 7.55344Z" fill="#6C4CDC"/>
</svg>

