<svg width="276" height="304" viewBox="0 0 276 304" fill="none" xmlns="http://www.w3.org/2000/svg">
<path d="M6.9268 77.6082C-0.62646 62.5815 -1.88578 50.4541 2.57909 35.7416C10.0441 8.2038 21.2133 -0.198731 56.2668 0.00414793C96.8047 5.03079 114.821 41.5538 96.1389 80.8323C90.6224 92.4271 89.1183 98.7344 90.3297 105.191C93.9319 124.392 114.025 138.237 138.445 138.343C149.097 138.391 154.432 136.655 164.89 129.749C185.726 115.987 191.895 101.032 187.225 75.6113C182.71 51.0237 185.437 41.8368 203.067 23.8625C203.584 23.335 204.161 22.8322 204.756 22.3939C226.314 6.50966 238.516 6.56722 261.638 25.856C262.482 26.5604 263.264 27.3835 263.907 28.2756C288.23 62.0304 271.533 99.1866 229.036 104.77C212.335 106.964 200.412 117.853 192.99 137.699C186.118 156.062 186.288 163.894 193.999 184.379C197.478 193.628 201.131 205.936 202.116 211.73C204.073 223.244 211.481 237.903 219.491 247.422C223.645 252.359 226.18 258.991 224.466 265.211L223.061 270.315C220.87 278.271 212.588 282.755 204.339 282.978C193.062 283.283 179.53 286.953 159.8 294.653C138.147 303.101 133.932 303.876 114.539 302.973C89.1927 301.794 76.8391 296.578 60.3268 280.087C45.9498 265.729 38.2689 248.716 36.5622 227.454C34.8903 206.623 40.2443 189.821 56.0724 166.216C69.8024 145.742 71.0884 134.972 61.7806 118.434C56.8524 109.68 53.2343 106.935 41.4424 103.013C22.7044 96.7775 12.9518 89.5997 6.9268 77.6082Z" fill="#B39FF6"/>
</svg>

