<svg width="216" height="375" viewBox="0 0 216 375" fill="none" xmlns="http://www.w3.org/2000/svg">
<path d="M32.7544 157.566C24.9821 144.514 21.6889 132.603 22.4313 120.227C23.1453 108.325 33.9284 87.5368 43.4479 79.711C59.4023 66.5961 79.0111 62.9206 99.9153 69.1273C126.811 77.1127 136.027 70.9972 134.481 46.1934C133.129 24.4937 143.577 8.36534 162.978 2.20825C178.689 -2.77666 200.239 4.89321 209.079 18.6156C228.341 48.5192 203.766 86.5779 168.207 81.9112C161.657 81.0512 154.272 81.5869 150.071 83.2263C143.77 85.686 142.683 86.9173 140.291 94.2998C138.688 99.2431 138.161 107.166 138.99 113.873C140.846 128.924 138.819 139.696 131.81 152.008C115.541 180.589 113.758 184.564 114.283 191.081C115.032 200.368 121.142 208.905 131.217 214.745C143.537 221.885 148.711 228.605 149.929 239.046C151.675 254.013 144.527 264.59 128.165 271.256C123.367 273.21 117.92 276.895 116.06 279.447C111.487 285.725 112.008 296.697 117.378 307.14C119.133 310.555 123.719 321.35 125.915 326.563C126.713 328.458 127.15 330.501 126.837 332.534C125.058 344.089 115.317 363.827 108.263 368.175C100.528 372.944 91.1746 373.808 86.693 374.096C56.7133 376.017 35.9105 345.257 48.1357 317.084C53.6299 304.42 57.2905 301.521 77.3338 293.958C87.2055 290.234 96.5981 285.488 98.2064 283.413C102.064 278.436 101.387 270.11 96.1429 258.071C90.5758 245.29 90.9283 238.113 97.8775 222.768C102.361 212.869 103.323 208.892 102.308 204.47C100.305 195.753 95.1755 189.867 86.1129 185.89C78.6692 182.622 76.8111 182.65 67.6574 186.171C54.4962 191.232 52.412 195.783 56.5614 210.399C60.6014 224.63 58.3553 234.059 48.8542 242.752C41.364 249.605 34.41 251.476 23.9057 249.465C2.63842 245.394 -5.94422 221.878 7.26962 203.882C12.0751 197.337 23.3882 190.627 26.9673 192.198C29.5764 193.343 37.9605 188.641 39.4798 185.18C42.2403 178.891 40.0171 169.763 32.7544 157.566Z" fill="#D7C0F5"/>
</svg>

