<svg width="291" height="341" viewBox="0 0 291 341" fill="none" xmlns="http://www.w3.org/2000/svg">
<path d="M251.897 195.82C249.044 187.932 250.79 181.955 258.714 172.468C270.501 161.611 276.639 162.594 286.112 175.651C294.924 191.051 291.749 202.896 277.176 208.985C263.257 214.803 261.114 230.67 271.331 252.252C276.689 263.562 277.455 267.083 277.414 280.183C277.354 298.83 272.579 310.563 260.03 322.891C235.817 346.678 198.513 346.841 174.349 323.269C160.904 310.154 155.97 296.754 157.105 276.436C157.854 263.015 158.887 259.618 166.972 243.974C174.954 228.527 176.099 224.819 176.841 211.99C178.073 190.707 172.011 181.637 152.884 176.143C144.895 173.85 139.67 169.61 133.342 160.284C129.206 154.187 128.531 151.171 128.531 138.745C128.531 125.291 128.149 123.895 122.99 118.498C112.88 107.916 97.8442 108.688 89.3168 120.223C84.1464 127.219 77.9476 144.894 77.9626 152.606C77.9851 165.888 81.758 173.045 95.8266 186.506C110.038 200.103 113.545 205.973 113.545 216.165C113.545 229.947 99.5677 243.586 85.4447 243.586C71.4846 243.586 57.3335 229.947 57.3522 216.511C57.3579 213.403 59.4466 204.959 61.9962 197.746C67.2697 182.827 67.8204 172.102 64.0419 157.906C58.9933 138.938 50.0987 127.779 28.7615 113.641C16.3882 105.443 12.4429 100.924 5.90878 87.4694C-8.38659 58.0319 4.17033 21.355 33.7258 6.21844C47.6203 -0.897371 69.0718 -1.86222 84.4499 3.93835C96.2013 8.36932 115.418 25.0853 115.418 30.8765C115.418 32.4896 116.128 33.8086 116.995 33.8086C120.388 33.8086 122.911 49.2954 122.911 70.1201L122.911 86.0988C122.911 89.8577 124.322 93.4795 126.866 96.2474L129.342 98.9432L131.161 100.921C134.093 104.111 138.261 105.877 142.592 105.765L154.668 105.452C170.404 105.045 174.769 105.579 180.784 108.648C190.922 113.821 197.202 122.063 199.763 133.554C201.769 142.554 201.537 144.623 197.093 157.322C194.414 164.973 192.243 174.669 192.266 178.868C192.356 195.556 204.038 210.111 223.052 217.225C247.87 226.513 259.795 217.664 251.897 195.82Z" fill="#FCDCD5"/>
</svg>

