<svg width="51" height="51" viewBox="0 0 51 51" fill="none" xmlns="http://www.w3.org/2000/svg">
<ellipse cx="25.4886" cy="25.3751" rx="25.1175" ry="25.1678" fill="#6C4CDC"/>
<path d="M16.914 32.3986C16.4836 32.8298 16.4836 33.5291 16.914 33.9603C17.3444 34.3916 18.0423 34.3916 18.4727 33.9603L16.914 32.3986ZM34.3817 17.562C34.3817 16.9521 33.8882 16.4577 33.2796 16.4577L23.3605 16.4577C22.7519 16.4577 22.2584 16.9521 22.2584 17.562C22.2584 18.1719 22.7519 18.6663 23.3605 18.6663L32.1774 18.6663L32.1774 27.5009C32.1774 28.1108 32.6709 28.6052 33.2796 28.6052C33.8882 28.6052 34.3817 28.1108 34.3817 27.5009L34.3817 17.562ZM18.4727 33.9603L34.0589 18.3429L32.5002 16.7811L16.914 32.3986L18.4727 33.9603Z" fill="white"/>
</svg>

