
<svg width="58" height="58" viewBox="0 0 58 58" fill="none" xmlns="http://www.w3.org/2000/svg">
<circle cx="29" cy="29" r="29" fill="#F8F7F2"/>
<path d="M19.0993 37.0954C18.6019 37.5928 18.6019 38.3993 19.0993 38.8968C19.5968 39.3942 20.4032 39.3942 20.9007 38.8968L19.0993 37.0954ZM39.2692 20.0007C39.2692 19.2972 38.6989 18.7269 37.9954 18.7269L26.5317 18.7269C25.8282 18.7269 25.2579 19.2972 25.2579 20.0007C25.2579 20.7041 25.8282 21.2744 26.5317 21.2744L36.7217 21.2744L36.7217 31.4644C36.7217 32.1679 37.292 32.7382 37.9954 32.7381C38.6989 32.7382 39.2692 32.1679 39.2692 31.4644L39.2692 20.0007ZM20.9007 38.8968L38.8961 20.9013L37.0947 19.1L19.0993 37.0954L20.9007 38.8968Z" fill="#6C4CDC"/>
</svg>

