<svg width="376" height="269" viewBox="0 0 376 269" fill="none" xmlns="http://www.w3.org/2000/svg">
<path d="M89.1768 0.979854C93.991 2.699 99.9828 7.53131 102.67 14.6076C106.124 23.7043 106.547 29.918 106.597 31.5604C106.606 31.8514 106.592 32.14 106.567 32.4301C104.923 51.4071 91.1186 67.2462 76.1287 67.2462C73.345 67.2462 68.4517 69.981 64.4413 73.7739C58.6073 79.2937 57.543 81.5884 57.543 88.6412C57.543 93.2288 58.7948 98.3687 60.3247 100.066C61.8547 101.762 64.0009 108.807 65.0962 115.723C66.7054 125.896 68.2104 129.315 72.9703 133.627C81.024 140.924 90.54 140.75 101.791 133.102C112.785 125.627 123.039 122.834 138.957 122.975C152.804 123.097 161.806 126.253 178.176 136.722C196.418 148.39 210.325 142.521 213.091 121.989C215.1 107.081 217.973 99.6149 224.263 92.9497C237.229 79.2122 260.741 76.8826 276.386 87.7885C291.516 98.3338 296.699 116.665 290.417 137.432C287.179 148.138 288.889 156.763 295.368 162.401C299.964 166.401 303.687 166.951 320.911 166.18C337.064 165.459 347.896 169.128 358.897 179.051C393.587 210.342 371.991 268.591 325.636 268.769C290.493 268.905 265.014 232.989 276.858 200.008C278.388 195.744 279.655 187.829 279.671 182.418C279.694 174.588 278.778 171.711 275.179 168.32C269.981 163.42 260.498 160.288 250.736 160.247C247.01 160.232 240.076 158.864 235.33 157.205C221.346 152.32 211.329 156.232 204.7 169.169C203.56 171.396 201.728 180.406 200.629 189.193C197.463 214.531 186.585 231.105 165.6 242.569C156.486 247.549 153.057 248.314 139.644 248.363C118.497 248.438 104.408 242.833 91.3494 229.146C80.2107 217.473 75.8042 204.602 74.222 179.117C72.6747 154.171 63.3519 143.828 46.495 148.351C29.6594 152.869 18.8104 150.71 9.29632 140.946C-8.6153 122.56 0.581968 92.721 26.3908 85.4898C32.8449 83.6815 39.1156 80.3867 41.8317 77.3807C45.7841 73.0025 46.2477 71.014 45.2625 62.6606C44.6347 57.3482 43.3268 52.501 42.3532 51.8866C41.3796 51.2741 39.5057 47.1517 38.1902 42.7289C34.6782 30.9237 37.1432 18.2251 44.6038 9.70117C54.1973 -1.25995 80.9655 0.0862086 86.8783 0.528957C87.6672 0.588039 88.4318 0.713802 89.1768 0.979854Z" fill="white"/>
</svg>

