<svg width="58" height="58" viewBox="0 0 58 58" fill="none" xmlns="http://www.w3.org/2000/svg">
<circle cx="29" cy="29" r="28.5" fill="#F8F7F2" stroke="#8333EA"/>
<path d="M41.7228 30.2737C42.4263 30.2737 42.9966 29.7035 42.9966 29C42.9966 28.2965 42.4263 27.7263 41.7228 27.7263V30.2737ZM15.3728 28.0993C14.8753 28.5968 14.8753 29.4032 15.3728 29.9007L23.4788 38.0068C23.9763 38.5042 24.7828 38.5042 25.2802 38.0068C25.7776 37.5093 25.7776 36.7028 25.2802 36.2054L18.0748 29L25.2802 21.7946C25.7776 21.2972 25.7776 20.4907 25.2802 19.9932C24.7828 19.4958 23.9763 19.4958 23.4788 19.9932L15.3728 28.0993ZM41.7228 27.7263H16.2734V30.2737H41.7228V27.7263Z" fill="#8333EA"/>
</svg>

