<svg width="58" height="58" viewBox="0 0 58 58" fill="none" xmlns="http://www.w3.org/2000/svg">
<circle cx="29" cy="29" r="28.5" fill="#F8F7F2" stroke="#8333EA"/>
<path d="M16.273 27.7248C15.5695 27.7248 14.9993 28.2951 14.9993 28.9985C14.9993 29.702 15.5695 30.2723 16.273 30.2723V27.7248ZM42.6231 29.8992C43.1205 29.4018 43.1205 28.5953 42.6231 28.0979L34.517 19.9918C34.0195 19.4943 33.2131 19.4943 32.7156 19.9918C32.2182 20.4892 32.2182 21.2957 32.7156 21.7931L39.921 28.9985L32.7156 36.2039C32.2182 36.7014 32.2182 37.5079 32.7156 38.0053C33.2131 38.5027 34.0195 38.5027 34.517 38.0053L42.6231 29.8992ZM16.273 30.2723H41.7224V27.7248H16.273V30.2723Z" fill="#8333EA"/>
</svg>

