<svg width="49" height="49" viewBox="0 0 49 49" fill="none" xmlns="http://www.w3.org/2000/svg">
<path fill-rule="evenodd" clip-rule="evenodd" d="M29.698 12.25H19.302C15.4137 12.25 12.25 15.4133 12.25 19.302V29.7934C12.25 33.6816 15.4133 36.8454 19.302 36.8454H29.698C33.5867 36.8454 36.75 33.6816 36.75 29.7934V19.302C36.75 15.4137 33.5867 12.25 29.698 12.25ZM34.4162 29.7934C34.4162 32.3949 32.2995 34.5115 29.698 34.5115H19.302C16.7005 34.5115 14.5838 32.3949 14.5838 29.7934V19.302C14.5838 16.7005 16.7005 14.5838 19.302 14.5838H29.698C32.2995 14.5838 34.4162 16.7005 34.4162 19.302V29.7934ZM24.5195 18.1752C20.9935 18.1752 18.1243 21.0135 18.1243 24.5026C18.1243 27.9913 20.9931 30.8297 24.5195 30.8297C28.0454 30.8297 30.9146 27.9913 30.9146 24.5026C30.9146 21.0135 28.0454 18.1752 24.5195 18.1752ZM24.5195 28.5003C22.2774 28.5003 20.4537 26.7066 20.4537 24.5026C20.4537 22.2982 22.2774 20.505 24.5195 20.505C26.7611 20.505 28.5852 22.2982 28.5852 24.5026C28.5852 26.707 26.7615 28.5003 24.5195 28.5003ZM32.5338 17.9167C32.5338 18.7477 31.8602 19.4214 31.0292 19.4214C30.1981 19.4214 29.5244 18.7477 29.5244 17.9167C29.5244 17.0857 30.1981 16.412 31.0292 16.412C31.8602 16.412 32.5338 17.0857 32.5338 17.9167Z" fill="#FE6F5F"/>
</svg>

