<svg width="52" height="17" viewBox="0 0 52 17" fill="none" xmlns="http://www.w3.org/2000/svg">
<path d="M0.170642 1.6092H4.33092V14H0.170642V1.6092ZM21.4628 14V0.901905H23.0489V6.73465H30.0328V0.901905H31.6189V14H30.0328V8.14167H23.0489V14H21.4628ZM39.3398 9.98359V4.17643H40.8491V14H39.3398V12.3372H39.2374C39.0072 12.836 38.649 13.2602 38.163 13.6099C37.6769 13.9552 37.0629 14.1279 36.3211 14.1279C35.7071 14.1279 35.1613 13.9936 34.6838 13.725C34.2063 13.4521 33.8311 13.0428 33.5582 12.497C33.2853 11.947 33.1489 11.2542 33.1489 10.4185V4.17643H34.6582V10.3162C34.6582 11.0325 34.8586 11.6038 35.2594 12.0302C35.6645 12.4565 36.1804 12.6697 36.8071 12.6697C37.1823 12.6697 37.5639 12.5738 37.9519 12.3819C38.3442 12.1901 38.6725 11.8959 38.9368 11.4993C39.2055 11.1028 39.3398 10.5976 39.3398 9.98359ZM42.3775 14V0.901905H43.8868V5.73694H44.0147C44.1256 5.5664 44.2791 5.34895 44.4752 5.0846C44.6756 4.81598 44.9613 4.57722 45.3322 4.3683C45.7074 4.15511 46.2148 4.04852 46.8544 4.04852C47.6815 4.04852 48.4106 4.25531 49.0416 4.66889C49.6727 5.08247 50.1651 5.66872 50.519 6.42766C50.8729 7.1866 51.0498 8.08198 51.0498 9.1138C51.0498 10.1541 50.8729 11.0559 50.519 11.8191C50.1651 12.5781 49.6748 13.1664 49.048 13.5843C48.4213 13.9979 47.6986 14.2047 46.8799 14.2047C46.2489 14.2047 45.7437 14.1002 45.3642 13.8913C44.9847 13.6781 44.6927 13.4372 44.488 13.1686C44.2833 12.8957 44.1256 12.6697 44.0147 12.4906H43.8357V14H42.3775ZM43.8612 9.08821C43.8612 9.8301 43.97 10.4846 44.1874 11.0516C44.4049 11.6145 44.7225 12.0558 45.1403 12.3755C45.5582 12.691 46.0698 12.8488 46.6753 12.8488C47.3063 12.8488 47.8329 12.6825 48.255 12.3499C48.6813 12.0131 49.0011 11.5612 49.2143 10.9941C49.4318 10.4228 49.5405 9.78746 49.5405 9.08821C49.5405 8.39749 49.4339 7.77499 49.2207 7.22071C49.0118 6.66217 48.6941 6.22087 48.2678 5.89683C47.8457 5.56853 47.3148 5.40438 46.6753 5.40438C46.0613 5.40438 45.5454 5.56 45.1276 5.87125C44.7097 6.17824 44.3942 6.60887 44.181 7.16315C43.9678 7.71317 43.8612 8.35486 43.8612 9.08821Z" fill="white"/>
<path fill-rule="evenodd" clip-rule="evenodd" d="M12.2639 14.4374C12.2877 14.4374 12.312 14.4369 12.3367 14.436C12.5458 14.428 12.7573 14.4651 12.9323 14.5799L16.1428 16.6864C16.4404 16.8816 16.8291 16.866 17.11 16.6475L18.6528 15.4475C18.8148 15.3215 18.9096 15.1278 18.9096 14.9225C18.9096 14.6984 18.7967 14.4894 18.6094 14.3664L17.5398 13.6646C17.0737 13.3587 17.0372 12.6886 17.3963 12.2621C17.7673 11.8214 18.0737 11.3338 18.3152 10.7994C18.7115 9.9109 18.9096 8.96839 18.9096 7.97184C18.9096 6.69914 18.6274 5.57652 18.0631 4.60399C17.5108 3.61945 16.7304 2.85703 15.7218 2.31674C14.7253 1.76443 13.5786 1.48828 12.2819 1.48828C10.9852 1.48828 9.83259 1.76443 8.82404 2.31674C7.82749 2.85703 7.04706 3.61945 6.48275 4.60399C5.93045 5.58853 5.6543 6.71115 5.6543 7.97184C5.6543 9.22052 5.93045 10.3371 6.48275 11.3217C7.04706 12.2942 7.82749 13.0566 8.82404 13.6089C9.83259 14.1612 10.9792 14.4374 12.2639 14.4374ZM11.4883 9.78374C11.402 9.77746 11.339 9.85603 11.3479 9.94212C11.3568 10.0282 11.435 10.0886 11.5202 10.1038C11.7404 10.1429 11.9161 10.3065 12.0291 10.4449C12.1185 10.5543 12.1532 10.6956 12.1532 10.8368V11.3191C12.1532 11.8317 11.7215 12.2486 11.1908 12.2486C10.9139 12.2486 10.6505 12.1334 10.468 11.9326C10.3656 11.8199 10.2944 11.6887 10.2577 11.5482C10.213 11.3773 10.295 11.2077 10.3776 11.0516C10.5238 10.775 10.6237 10.3833 10.4508 9.99683C10.4155 9.91781 10.3173 9.89603 10.2441 9.94212C10.1708 9.98821 10.1508 10.0847 10.1817 10.1655C10.2761 10.4124 10.219 10.6509 10.139 10.8271C10.0605 10.9999 9.88738 11.113 9.69752 11.1135C9.22884 11.1147 8.88287 10.8338 8.71132 10.55C8.44714 10.1129 8.50037 9.59123 8.84692 9.22092C8.91821 9.14476 8.89405 9.01729 8.80004 8.97241C8.33065 8.74825 8.03906 8.29476 8.03906 7.78894C8.03906 7.34205 8.26658 6.938 8.63721 6.69646C8.77695 6.60539 8.95316 6.58926 9.10813 6.65094C9.15878 6.67109 9.21245 6.69582 9.26574 6.72595C9.49061 6.8531 9.62529 7.02688 9.66767 7.24388C9.68426 7.32884 9.7524 7.3997 9.83896 7.3997C9.92552 7.3997 9.99698 7.32917 9.98538 7.24339C9.94019 6.90916 9.74705 6.63801 9.42003 6.45309C9.16212 6.30726 8.90163 6.09166 8.96088 5.80135C8.99097 5.65389 9.05197 5.51155 9.1428 5.38234C9.35736 5.07707 9.69888 4.89691 10.0798 4.88806C10.169 4.88598 10.2402 4.80644 10.2322 4.71746C10.2094 4.46085 10.2939 4.2134 10.4702 4.02068C10.6525 3.82136 10.9152 3.70703 11.1908 3.70703C11.7214 3.70703 12.1532 4.124 12.1531 4.63654V6.50509C12.1531 6.50716 12.1509 6.508 12.1496 6.50641C12.1104 6.45893 11.7687 6.045 11.1363 6.20777C11.0534 6.22909 11.0109 6.31781 11.0366 6.39938C11.0633 6.48415 11.1539 6.52941 11.2417 6.51554C11.6621 6.44915 11.9221 6.69053 12.0552 6.87402C12.1287 6.97529 12.1532 7.1016 12.1532 7.22671V9.46917C12.1532 9.7087 11.8349 9.84716 11.6002 9.79919C11.5639 9.79179 11.5266 9.78653 11.4883 9.78374ZM11.6734 5.27774C11.7585 5.25958 11.8132 5.17522 11.7763 5.09641C11.6959 4.92441 11.5275 4.72452 11.2361 4.67093C11.151 4.65528 11.08 4.72731 11.08 4.81387C11.08 4.90043 11.1521 4.96693 11.2346 4.99324C11.3464 5.02892 11.4163 5.10101 11.4591 5.16778C11.5057 5.24062 11.5888 5.2958 11.6734 5.27774ZM10.1572 8.8816C10.4887 8.8816 10.7314 8.73591 10.8905 8.59133C11.0126 8.4803 11.0987 8.35803 11.153 8.26686C11.1974 8.19228 11.16 8.10071 11.0798 8.0677C10.9998 8.03482 10.9076 8.0725 10.8607 8.14521C10.7411 8.33096 10.4717 8.63006 10.0077 8.55472C9.92224 8.54085 9.83401 8.58499 9.80799 8.66754C9.78196 8.75009 9.82767 8.8392 9.91252 8.85634C9.99889 8.87379 10.0804 8.8816 10.1572 8.8816ZM15.5144 6.6481C15.6674 6.58795 15.8408 6.60471 15.9788 6.694C16.3516 6.93526 16.5807 7.34053 16.5807 7.78894C16.5807 8.29478 16.2891 8.74825 15.8198 8.97245C15.7258 9.01733 15.7016 9.1448 15.7729 9.22096C16.1194 9.59126 16.1727 10.1129 15.9085 10.55C15.737 10.8338 15.391 11.1147 14.9223 11.1135C14.7325 11.113 14.5593 11 14.4808 10.8271C14.4008 10.651 14.3437 10.4124 14.4381 10.1656C14.469 10.0847 14.449 9.98824 14.3758 9.94215C14.3025 9.89606 14.2044 9.91785 14.169 9.99686C13.9962 10.3833 14.096 10.775 14.2423 11.0516C14.3248 11.2077 14.4069 11.3774 14.3622 11.5482C14.3254 11.6888 14.2543 11.8199 14.1519 11.9326C13.9694 12.1335 13.7059 12.2487 13.429 12.2487C12.8984 12.2487 12.4666 11.8317 12.4666 11.3192V10.8353C12.4666 10.6949 12.5009 10.5542 12.5894 10.4452C12.702 10.3066 12.8777 10.1424 13.0996 10.1036C13.1849 10.0886 13.263 10.0282 13.2719 9.94214C13.2808 9.85604 13.2178 9.77745 13.1315 9.78372C13.0932 9.78651 13.0559 9.79176 13.0196 9.79916C12.7849 9.84711 12.4666 9.70866 12.4666 9.46912V7.23041C12.4666 7.10331 12.4921 6.97515 12.567 6.87244C12.6047 6.82065 12.6523 6.76427 12.7103 6.7116C12.9005 6.53878 13.1261 6.47327 13.3826 6.51598C13.468 6.53019 13.5559 6.48597 13.5819 6.40342C13.608 6.32086 13.5622 6.23174 13.4774 6.2146C13.018 6.12182 12.6954 6.30156 12.4995 6.47963C12.487 6.49097 12.4666 6.4823 12.4666 6.46548V4.63654C12.4666 4.124 12.8983 3.70703 13.429 3.70703C13.7046 3.70703 13.9672 3.82136 14.1496 4.02068C14.3259 4.2134 14.4104 4.46087 14.3875 4.71746C14.3796 4.80644 14.4508 4.88598 14.54 4.88806C14.9209 4.89691 15.2624 5.07707 15.477 5.38234C15.5678 5.51155 15.6288 5.65389 15.6589 5.80135C15.7181 6.09166 15.4576 6.30725 15.1997 6.45309C14.8727 6.63801 14.6796 6.90916 14.6344 7.24339C14.6228 7.32917 14.6943 7.3997 14.7808 7.3997C14.8674 7.3997 14.9355 7.32869 14.9523 7.24377C15.0187 6.90747 15.2957 6.7341 15.5144 6.6481ZM12.8607 5.27759C12.9409 5.31004 13.0332 5.27134 13.086 5.2028C13.1466 5.12421 13.2436 5.03256 13.3849 4.99189C13.4681 4.96796 13.5398 4.90042 13.5398 4.81387C13.5398 4.72731 13.469 4.65549 13.3837 4.67029C13.0699 4.72474 12.8829 4.93647 12.7895 5.08053C12.7422 5.15343 12.7802 5.24501 12.8607 5.27759ZM13.7293 8.59134C13.8884 8.73593 14.131 8.88161 14.4626 8.88161C14.5393 8.88161 14.6209 8.8738 14.7073 8.85635C14.7921 8.83922 14.8378 8.75011 14.8118 8.66755C14.7858 8.585 14.6976 8.54086 14.6121 8.55474C14.1482 8.63007 13.8788 8.33109 13.7591 8.14533C13.7123 8.07257 13.62 8.03485 13.5399 8.06777C13.4597 8.10076 13.4224 8.19222 13.4667 8.26678C13.521 8.35796 13.6071 8.48028 13.7293 8.59134Z" fill="white"/>
</svg>

