<svg width="92" height="44" viewBox="0 0 92 44" fill="none" xmlns="http://www.w3.org/2000/svg">
<path d="M2.03206 13.4914H9.25368V35H2.03206V13.4914ZM38.992 35V12.2637H41.7452V22.3884H53.8683V12.2637H56.6215V35H53.8683V24.8308H41.7452V35H38.992ZM70.0237 28.0281V17.9478H72.6437V35H70.0237V32.1136H69.8461C69.4465 32.9795 68.8248 33.7159 67.981 34.3228C67.1373 34.9223 66.0715 35.222 64.7837 35.222C63.718 35.222 62.7706 34.9889 61.9417 34.5226C61.1128 34.049 60.4615 33.3384 59.9878 32.3911C59.5141 31.4363 59.2773 30.2337 59.2773 28.783V17.9478H61.8973V28.6054C61.8973 29.8488 62.2451 30.8406 62.9408 31.5807C63.644 32.3208 64.5395 32.6908 65.6275 32.6908C66.2788 32.6908 66.9412 32.5243 67.6147 32.1913C68.2956 31.8582 68.8655 31.3475 69.3243 30.6592C69.7906 29.9709 70.0237 29.0939 70.0237 28.0281ZM75.2967 35V12.2637H77.9167V20.6566H78.1388C78.3312 20.3605 78.5976 19.9831 78.9381 19.5242C79.2859 19.0579 79.7818 18.6435 80.4257 18.2808C81.077 17.9108 81.9578 17.7257 83.0679 17.7257C84.5038 17.7257 85.7693 18.0847 86.8647 18.8026C87.9601 19.5205 88.8149 20.5382 89.4292 21.8556C90.0435 23.173 90.3507 24.7272 90.3507 26.5183C90.3507 28.3242 90.0435 29.8895 89.4292 31.2143C88.8149 32.5317 87.9638 33.5531 86.8758 34.2784C85.7879 34.9963 84.5334 35.3553 83.1123 35.3553C82.017 35.3553 81.1399 35.1739 80.4812 34.8113C79.8225 34.4412 79.3156 34.023 78.9603 33.5568C78.605 33.0831 78.3312 32.6908 78.1388 32.38H77.8279V35H75.2967ZM77.8723 26.4739C77.8723 27.7617 78.0611 28.8978 78.4385 29.8821C78.816 30.8591 79.3674 31.6251 80.0927 32.1802C80.818 32.7278 81.7061 33.0017 82.7571 33.0017C83.8525 33.0017 84.7665 32.713 85.4992 32.1358C86.2393 31.5511 86.7944 30.7665 87.1645 29.7822C87.5419 28.7904 87.7307 27.6877 87.7307 26.4739C87.7307 25.2749 87.5456 24.1943 87.1756 23.2322C86.8129 22.2626 86.2615 21.4966 85.5214 20.9341C84.7887 20.3642 83.8673 20.0793 82.7571 20.0793C81.6913 20.0793 80.7958 20.3494 80.0705 20.8897C79.3452 21.4226 78.7975 22.1701 78.4274 23.1323C78.0574 24.087 77.8723 25.2009 77.8723 26.4739Z" fill="#4B26CB"/>
<path fill-rule="evenodd" clip-rule="evenodd" d="M23.0251 35.4762C23.0664 35.4762 23.1085 35.4754 23.1514 35.4738C23.5144 35.4599 23.8815 35.5244 24.1852 35.7236L29.7583 39.3801C30.2747 39.719 30.9495 39.6919 31.4371 39.3126L34.1152 37.2297C34.3964 37.011 34.5609 36.6746 34.5609 36.3184C34.5609 35.9294 34.365 35.5665 34.0398 35.3531L32.1833 34.1347C31.3741 33.6037 31.3107 32.4405 31.9341 31.7002C32.5782 30.9352 33.1099 30.0889 33.5293 29.1612C34.217 27.6189 34.5609 25.9829 34.5609 24.253C34.5609 22.0438 34.0711 20.0951 33.0916 18.4069C32.1329 16.6979 30.7782 15.3745 29.0275 14.4366C27.2976 13.4779 25.3072 12.9985 23.0563 12.9985C20.8054 12.9985 18.8046 13.4779 17.0539 14.4366C15.3241 15.3745 13.9694 16.6979 12.9898 18.4069C12.0311 20.116 11.5518 22.0646 11.5518 24.253C11.5518 26.4205 12.0311 28.3588 12.9898 30.0678C13.9694 31.756 15.3241 33.0794 17.0539 34.0382C18.8046 34.9969 20.795 35.4762 23.0251 35.4762ZM21.6784 27.3986C21.5286 27.3877 21.4193 27.5241 21.4347 27.6736C21.4502 27.823 21.5859 27.9278 21.7338 27.9542C22.116 28.0222 22.421 28.3061 22.6172 28.5463C22.7723 28.7361 22.8326 28.9815 22.8326 29.2266V30.0638C22.8326 30.9535 22.0832 31.6773 21.1621 31.6773C20.6815 31.6773 20.2241 31.4773 19.9073 31.1287C19.7295 30.933 19.6061 30.7054 19.5423 30.4614C19.4647 30.1649 19.6071 29.8704 19.7504 29.5994C20.0043 29.1192 20.1776 28.4394 19.8775 27.7685C19.8162 27.6314 19.6459 27.5935 19.5187 27.6735C19.3915 27.7536 19.3568 27.921 19.4104 28.0613C19.5743 28.4898 19.4752 28.904 19.3363 29.2097C19.2 29.5098 18.8995 29.706 18.5699 29.7069C17.7564 29.7089 17.1558 29.2214 16.858 28.7287C16.3995 27.97 16.4919 27.0645 17.0934 26.4217C17.2172 26.2895 17.1752 26.0682 17.012 25.9903C16.1973 25.6012 15.6911 24.814 15.6911 23.936C15.6911 23.1602 16.086 22.4589 16.7294 22.0396C16.972 21.8815 17.2778 21.8535 17.5469 21.9606C17.6348 21.9955 17.7279 22.0385 17.8204 22.0908C18.2108 22.3115 18.4446 22.6131 18.5181 22.9898C18.5469 23.1373 18.6652 23.2603 18.8155 23.2603C18.9657 23.2603 19.0898 23.1379 19.0696 22.989C18.9912 22.4088 18.6559 21.9381 18.0883 21.6171C17.6406 21.364 17.1884 20.9897 17.2912 20.4858C17.3435 20.2298 17.4494 19.9828 17.607 19.7585C17.9795 19.2286 18.5723 18.9158 19.2335 18.9005C19.3884 18.8969 19.5119 18.7588 19.4981 18.6043C19.4584 18.1589 19.6051 17.7294 19.9112 17.3948C20.2277 17.0488 20.6836 16.8504 21.162 16.8504C22.0832 16.8504 22.8326 17.5742 22.8325 18.4639V21.7074C22.8325 21.711 22.8286 21.7124 22.8263 21.7097C22.7583 21.6273 22.1652 20.9087 21.0674 21.1913C20.9236 21.2283 20.8497 21.3823 20.8943 21.5239C20.9407 21.671 21.098 21.7496 21.2504 21.7255C21.9802 21.6103 22.4314 22.0293 22.6625 22.3478C22.79 22.5236 22.8326 22.7428 22.8326 22.96V26.8526C22.8326 27.2684 22.28 27.5087 21.8727 27.4255C21.8098 27.4126 21.745 27.4035 21.6784 27.3986ZM21.9997 19.5769C22.1474 19.5454 22.2425 19.3989 22.1785 19.2621C22.0388 18.9636 21.7466 18.6166 21.2407 18.5236C21.0929 18.4964 20.9697 18.6214 20.9698 18.7717C20.9698 18.9219 21.0949 19.0374 21.2381 19.0831C21.4321 19.145 21.5535 19.2701 21.6277 19.386C21.7087 19.5125 21.8529 19.6082 21.9997 19.5769ZM19.3679 25.8326C19.9434 25.8326 20.3646 25.5798 20.6407 25.3288C20.8527 25.1361 21.0022 24.9238 21.0964 24.7655C21.1735 24.6361 21.1087 24.4771 20.9693 24.4199C20.8305 24.3628 20.6704 24.4282 20.5891 24.5544C20.3814 24.8768 19.9138 25.396 19.1083 25.2652C18.96 25.2412 18.8069 25.3178 18.7617 25.4611C18.7165 25.6044 18.7959 25.7591 18.9431 25.7888C19.0931 25.8191 19.2346 25.8326 19.3679 25.8326ZM28.6672 21.9556C28.9328 21.8512 29.2337 21.8803 29.4732 22.0353C30.1205 22.4541 30.5181 23.1576 30.5181 23.936C30.5181 24.814 30.012 25.6012 29.1973 25.9904C29.034 26.0683 28.9921 26.2895 29.1159 26.4217C29.7174 27.0645 29.8098 27.97 29.3513 28.7287C29.0535 29.2214 28.453 29.709 27.6394 29.7069C27.3098 29.7061 27.0093 29.5098 26.873 29.2097C26.7341 28.904 26.635 28.4899 26.7989 28.0614C26.8526 27.9211 26.8178 27.7536 26.6907 27.6736C26.5635 27.5936 26.3932 27.6314 26.3318 27.7686C26.0318 28.4394 26.2051 29.1193 26.459 29.5995C26.6022 29.8705 26.7447 30.1649 26.6671 30.4615C26.6032 30.7055 26.4798 30.9331 26.302 31.1288C25.9852 31.4774 25.5279 31.6774 25.0472 31.6774C24.1261 31.6774 23.3767 30.9536 23.3767 30.0639V29.224C23.3767 28.9802 23.4361 28.736 23.5898 28.5468C23.7852 28.3062 24.0903 28.0213 24.4755 27.9538C24.6235 27.9279 24.7591 27.823 24.7745 27.6736C24.79 27.5241 24.6807 27.3877 24.5308 27.3986C24.4642 27.4034 24.3995 27.4125 24.3366 27.4254C23.9292 27.5086 23.3767 27.2683 23.3767 26.8525V22.9664C23.3767 22.7458 23.4209 22.5233 23.5508 22.3451C23.6164 22.2552 23.699 22.1573 23.7996 22.0659C24.1297 21.7659 24.5214 21.6522 24.9667 21.7263C25.1149 21.751 25.2675 21.6742 25.3127 21.5309C25.3579 21.3876 25.2785 21.2329 25.1312 21.2031C24.3337 21.0421 23.7738 21.3541 23.4337 21.6632C23.4121 21.6829 23.3767 21.6678 23.3767 21.6386V18.4639C23.3767 17.5742 24.1261 16.8504 25.0472 16.8504C25.5256 16.8504 25.9815 17.0488 26.2981 17.3948C26.6041 17.7294 26.7508 18.1589 26.7111 18.6043C26.6973 18.7588 26.8209 18.8969 26.9758 18.9005C27.6369 18.9158 28.2297 19.2286 28.6022 19.7585C28.7598 19.9828 28.8658 20.2298 28.918 20.4858C29.0208 20.9897 28.5687 21.364 28.121 21.6171C27.5533 21.9381 27.218 22.4088 27.1396 22.989C27.1195 23.1379 27.2435 23.2603 27.3938 23.2603C27.544 23.2603 27.6623 23.137 27.6914 22.9896C27.8066 22.4059 28.2876 22.1049 28.6672 21.9556ZM24.0608 19.5766C24.2 19.633 24.3602 19.5658 24.4519 19.4468C24.557 19.3104 24.7254 19.1513 24.9707 19.0807C25.1151 19.0392 25.2395 18.9219 25.2395 18.7717C25.2395 18.6214 25.1167 18.4968 24.9687 18.5225C24.4239 18.617 24.0993 18.9845 23.9371 19.2346C23.8551 19.3611 23.921 19.5201 24.0608 19.5766ZM25.5686 25.3288C25.8447 25.5798 26.2658 25.8327 26.8414 25.8327C26.9746 25.8327 27.1162 25.8191 27.2661 25.7888C27.4134 25.7591 27.4928 25.6044 27.4476 25.4611C27.4024 25.3178 27.2493 25.2412 27.101 25.2653C26.2956 25.396 25.828 24.877 25.6203 24.5546C25.5389 24.4283 25.3787 24.3628 25.2397 24.42C25.1005 24.4772 25.0357 24.636 25.1127 24.7654C25.2069 24.9237 25.3564 25.136 25.5686 25.3288Z" fill="#4B26CB"/>
</svg>

