<svg width="1077" height="1130" viewBox="0 0 1077 1130" fill="none" xmlns="http://www.w3.org/2000/svg">
<path opacity="0.4" d="M90.7719 412.412C76.4632 414.534 65.6949 419.274 57.0148 427.27C48.6667 434.96 39.8324 455.424 39.7964 467.154C39.7367 486.815 48.8405 503.489 66.0128 515.171C88.1066 530.202 89.1492 540.68 69.9249 554.467C53.1064 566.53 47.5072 583.943 54.655 601.957C60.4448 616.545 79.0853 627.823 94.532 626.084C128.191 622.294 141.453 581.263 116.587 557.846C112.007 553.533 107.952 547.763 106.63 543.678C104.648 537.55 104.901 536.008 108.904 529.801C111.584 525.643 117.11 520.486 122.555 517.061C134.774 509.372 141.497 501.394 146.354 488.815C157.63 459.615 159.488 455.907 164.611 452.373C171.911 447.335 181.888 446.704 192.266 450.62C204.955 455.41 213.028 455.181 221.462 449.796C233.552 442.076 237.046 430.439 232.104 414.359C230.654 409.645 230.091 403.409 230.852 400.501C232.727 393.35 241.132 387.131 252.07 384.807C256.847 383.79 266.889 380.987 274.383 378.574C286.566 374.652 288.693 374.537 294.473 377.491C303.5 382.104 307.14 392.037 305.829 408.479C305.269 415.512 305.656 425.45 306.689 430.562C312.758 460.567 298.153 491.684 271.187 506.205C267.325 508.284 256.954 510.694 248.142 511.56C219.886 514.333 206.316 522.372 196.108 542.383C188.465 557.364 188.192 568.871 194.931 591.923C201.65 614.905 201.194 624.42 192.576 641.252C183.865 658.261 175.868 664.46 156.076 669.542C142.717 672.974 133.301 678.373 121.516 689.358C115.612 694.86 102.861 697.224 94.0736 694.44C84.7041 691.476 78.2677 685.302 71.5232 672.814C66.7084 663.9 64.6042 661.733 55.8103 656.631C43.2583 649.349 31.8053 648.916 19.7461 655.266C8.94733 660.953 0.414805 674.759 0.404908 686.558C0.399417 695.812 4.41348 706.381 10.6311 713.477C19.0698 723.11 21.0012 726.148 24.1197 734.688C29.1632 748.5 27.0065 759.135 16.111 774.181C7.29645 786.352 9.3133 799.47 21.2708 807.753C31.5492 814.871 47.5673 811.1 53.1297 800.251C58.2002 790.365 55.8138 778.859 47.1498 771.412C32.4378 758.771 36.5522 735.464 56.1284 720.552C85.0507 698.518 107.565 706.261 122.109 743.243C126.369 754.072 126.046 764.176 121.268 769.642C119.696 771.44 79.6213 835.751 72.3703 838.409C52.8012 845.583 49.0842 851.4 53.0153 868.694C55.1054 877.883 54.9449 878.788 49.6495 887.7C44.477 896.407 43.2349 897.397 31.8112 901.928C13.2466 909.292 9.48919 912.29 4.39002 923.82C-0.818197 935.594 -0.262448 944.676 6.34987 955.851C17.0006 973.855 45.5095 976.913 59.6731 961.572C70.4858 949.859 72.274 934.936 64.7119 919.509C55.4154 900.547 58.8408 886.796 74.76 879.178C86.5686 873.527 88.9786 870.352 90.6086 858.303C93.7598 835.012 137.565 763.729 160.972 761.262C170.538 760.255 178.133 757.97 185.684 753.828C199.758 746.106 211.093 744.982 223.271 750.098C237.697 756.161 245.608 767.743 255.223 796.876C260.955 814.243 265.087 823.222 271.117 831.417C285.381 850.8 288.413 863.905 281.085 874.484C277.884 879.107 266.109 887.403 260.36 889.087C254.943 890.675 242.207 897.74 239.878 900.45C227.394 914.97 222.862 936.413 229.261 950.69C236.588 967.033 234.374 979.042 223.611 981.357C220.257 982.076 211.345 984.671 203.807 987.122C186.577 992.72 185.768 992.152 177.552 968.708C175.826 963.782 173.46 958.804 172.297 957.647C171.133 956.49 169.571 950.679 168.824 944.733C167.56 934.675 167.894 933.095 173.633 922.009C180.061 909.591 186.993 903.011 197.615 899.245C204.214 896.905 214.219 889.453 218.905 883.39C223.556 877.372 227.356 854.467 225.036 846.447C222.798 838.717 213.521 827.102 205.489 821.972C177.295 803.969 140.101 823.948 139.026 857.672C138.676 868.721 140.271 873.695 148.782 888.095C158.262 904.13 159.672 920.104 152.795 933.558C149.904 939.214 147.421 941.362 139.473 945.072C126.816 950.98 122.149 954.898 117.929 963.154C110.994 976.724 111.733 988.503 120.195 999.275C126.348 1007.11 135.47 1011.72 145.299 1011.95C155.976 1012.21 158.846 1011.39 168.288 1005.33C172.786 1002.45 178.246 1000.06 180.422 1000.02C185.967 999.911 190.807 1004.7 191.484 1010.96C192.323 1018.73 199.573 1027.78 208.682 1032.44C225.217 1040.89 227.475 1051.1 217.201 1070.97C208.44 1087.92 207.573 1098.74 214.015 1110.77C218.108 1118.43 219.906 1120.1 229.093 1124.79C238.185 1129.44 240.704 1129.96 248.729 1128.82C261.263 1127.06 270.146 1120.94 275.625 1110.3C281.234 1099.41 281.403 1087.21 276.08 1077.29C272.439 1070.5 270.414 1068.83 255.602 1060.37C240.747 1051.88 238.947 1050.39 236.927 1044.9C234.235 1037.58 234.666 1028.28 238 1021.76C241.047 1015.8 242.009 1004.54 240.049 997.77C237.988 990.649 241.456 984.906 249.504 982.11C253.216 980.822 257.004 980.142 257.925 980.601C262.18 982.726 280.181 981.861 288.34 979.138C301.335 974.802 308.529 968.549 315.022 955.946C323.935 938.645 322.157 920.182 309.963 903.404C294.134 881.621 305.64 861.587 337.39 855.658C355.988 852.184 369.376 844.223 382.904 828.596C404.777 803.33 420.643 802.989 434.009 827.502C437.092 833.154 441.152 839.633 443.031 841.896C448.798 848.849 462.932 854.91 478.106 856.937C493.894 859.046 500.464 862.858 504.205 872.08C507.94 881.288 507.065 889.264 501.02 901.092C486.56 929.384 464.334 936.6 431.7 923.596C414.877 916.892 404.592 915.885 392.137 919.723C378.54 923.913 370.092 931.39 363.014 945.501C352.623 966.215 354.78 980.707 371.686 1003.75C386.083 1023.37 385.35 1034.69 369.303 1040.57C349.578 1047.79 338.913 1067.68 344.546 1086.76C348.519 1100.21 358.089 1108.64 372.523 1111.41C388.466 1114.47 403.346 1107.4 410.729 1093.26C415.656 1083.83 427.318 1071.2 434.82 1067.18C444.094 1062.2 454.374 1062.43 468.606 1067.93C481.281 1072.82 488.312 1072.92 497.844 1068.36C504.062 1065.38 505.922 1063.37 510.171 1055.06C515.766 1044.11 515.674 1037.72 509.768 1026.92C507.297 1022.4 504.13 1019.6 497.938 1016.43C481.568 1008.07 468.477 1012.25 456.988 1029.53C447.605 1043.64 441.543 1049.17 431.584 1052.72C422.196 1056.06 416.712 1055.85 408.9 1051.86C399.121 1046.86 395.458 1038.43 399.528 1030.29C402.225 1024.9 406.92 1021.92 423.068 1015.33C438.175 1009.17 445.514 1002.48 451.784 989.163C464.206 962.775 468.81 955.301 476.135 949.631C487.704 940.676 502.569 939.879 517.378 947.421C528.688 953.179 544.643 951.829 555.507 944.195C562.869 939.021 570.293 923.455 569.581 914.688C568.822 905.358 565.286 896.869 560.159 892.077C557.874 889.94 549.033 884.628 540.513 880.273C515.508 867.493 509.871 856.108 517.395 833.569C522.918 817.023 523.752 808.019 520.683 798.042C510.414 764.64 468.294 754.744 443.533 779.913C433.258 790.356 430.814 791.756 422.257 792.095C409.629 792.593 401.472 784.222 393.927 763.02C383.32 733.21 358.607 714.845 327.68 713.792C315.06 713.363 301.972 716.508 288.98 723.094C276.723 729.307 262.116 733.009 248.962 733.236C237.76 733.429 235.992 732.948 226.04 727.014C213.475 719.521 207.141 711.676 203.098 698.595C196.648 677.726 203.264 652.366 218.85 638.233C227.939 629.988 237.362 625.706 253.489 622.491C268.066 619.584 277.107 614.81 286.073 605.285C299.707 590.803 304.017 572.676 299.061 550.67C295.55 535.084 295.877 529.821 301.154 516.943C307.959 500.33 318.398 489.364 331.156 485.424C346.439 480.707 347.391 480.533 354.365 481.232C357.98 481.595 361.907 481.642 363.095 481.337C364.282 481.032 366.389 481.362 367.776 482.071C369.164 482.781 372.531 482.725 375.259 481.948C377.986 481.17 380.694 480.777 381.274 481.074C384.506 482.726 407.04 469.779 414.421 462.027C420.188 455.973 427.356 442.155 431.243 429.603C433.199 423.289 434.485 421.532 438.443 419.777C443.643 417.468 446.922 418.619 458.506 426.811C462.627 429.725 468.126 432.599 470.729 433.198C478.294 434.943 488.718 429.992 495.81 421.289C503.399 411.97 507.68 409.945 515.125 412.143C519.482 413.428 521.619 415.397 524.645 420.917C526.791 424.831 529.164 428.349 529.919 428.735C531.509 429.548 534.403 436.471 539.066 450.619C546.288 472.532 533.146 493.189 507.413 500.373C501.747 501.955 494.382 504.902 491.047 506.923C484.751 510.738 482.639 514.72 473.733 539.569C463.953 566.849 443.388 574.928 405.626 566.327C388.821 562.499 381.987 562.562 371.28 566.636C357.903 571.726 349.603 579.383 342.591 593.103C335.514 606.95 334.655 617.41 339.42 631.693C344.255 646.182 351.24 654.249 365.013 661.238C380.668 669.186 390.77 669.511 411.498 662.736C429.617 656.814 439.998 656.31 448.632 660.932C455.345 664.525 457.278 668.573 458.461 681.515C458.925 686.577 459.817 690.98 460.445 691.301C461.073 691.622 462.175 693.705 462.896 695.933C463.765 698.62 467.399 701.877 473.708 705.627C485.074 712.379 494.8 712.792 505.513 706.976C512.906 702.961 517.79 694.92 524.329 675.992C529.925 659.789 540.451 656.155 560.568 663.478C585.909 672.702 607.474 656.645 608.293 627.941C608.534 619.467 609.544 615.307 612.196 611.876C620.083 601.67 636.055 599.568 650.443 606.843C656.719 610.015 659.334 612.639 663.407 619.841C671.521 634.192 670.654 644.837 660.271 658.378C650.082 671.668 649.04 677.877 654.259 694.266C657.304 703.83 658.26 710.661 657.231 715.503C653.736 731.95 634.377 746.804 616.435 746.805C595.417 746.806 579.957 756.299 570.345 775.106C565.19 785.194 564.397 788.359 564.704 797.607C565.416 818.974 575.856 834.29 595.576 842.898C601.493 845.48 609.412 847.658 613.172 847.734C622.652 847.927 635.464 844.249 642.12 839.425C656.351 829.112 669.469 826.677 677.3 832.891C679.508 834.643 683.079 839.571 685.238 843.843C693.836 860.855 704.505 868.41 717.168 866.457C725.662 865.147 735.448 856.864 738.312 848.562C746.949 823.508 746.214 824.625 756.55 820.879C765.224 817.735 767.17 817.797 779.418 821.588C794.573 826.282 803.403 825.896 814.387 820.055C820.987 816.546 822.51 814.721 828.324 803.346C836.551 787.248 836.074 780.871 825.158 761.061C815.416 743.383 814.396 731.865 821.165 715.955C825.014 706.91 827.079 704.159 834.568 698.097C841.813 692.232 844.383 688.887 848.728 679.672C855.276 665.784 884.597 682.807 893.987 682.552C899.55 682.403 911.015 679.816 927.053 688.353C948.763 699.906 953.041 700.626 970.2 695.615C981.421 692.339 991.226 683.552 997.62 671.042C1003.01 660.492 1003.65 652.633 1000.26 638.808C996.441 623.28 996.753 616.6 1001.75 606.668C1006.65 596.933 989.295 568.667 997.193 568.649C1003.64 568.635 1014.05 565.399 1019.04 561.858C1029.14 554.695 1032.89 537.205 1026.9 525.233C1021.21 513.878 1021.55 503.235 1028.07 488.603C1034.35 474.503 1036.78 472.053 1059.63 456.879C1076.14 442.627 1079.86 432.203 1074.83 408.695C1071.39 396.365 1065.73 389.789 1052.9 383.25C1039.79 376.569 1029.88 376.066 1016.86 381.423C1006.75 385.582 1000 392.127 994.279 403.322C986.864 417.831 988.026 430.423 998.447 448.478C1014.09 475.582 1011.04 499.72 990.441 511.727C976.784 519.69 972.445 526.997 972.132 542.568C971.825 557.893 991.299 590.119 984.364 597.782C976.462 606.516 974.622 605.796 961.095 605.425C954.51 605.243 945.131 606.468 940.256 608.148C926.286 612.959 922.035 617.543 910.36 640.365C901.41 657.866 899.371 660.844 894.057 664.173C883.456 670.812 848.576 652.443 836.073 648.534C822.163 644.184 818.61 643.997 810.194 647.171C802.567 650.047 795.782 658.682 793.792 668.046C792.388 674.652 795.232 688.696 798.29 690.259C801.406 691.852 806.847 709.66 806.508 717.16C805.844 731.892 797.976 742.046 779.476 752.053C765.298 759.72 757.513 772.293 757.043 788.283C756.75 798.183 752.09 806.644 743.948 812.051C736.79 816.806 730.429 817.444 723.826 814.069C718.298 811.243 705.745 812.007 700.208 815.508C682.176 826.904 669.905 819.976 665.583 795.962C664.634 790.692 662.437 781.47 660.698 775.466C656.235 760.056 657.068 750.45 664.061 736.663C670.439 724.091 679.206 715.038 690.141 709.736C715.528 697.424 717.226 670.062 693.611 653.798C684.452 647.491 680.715 637.507 682.314 623.61C683.792 610.75 686.246 606.197 696.933 596.471C701.758 592.08 707.603 585.941 709.923 582.832C716.033 574.639 729.432 566.076 737.688 565.09C747.649 563.9 754.007 567.76 762.806 580.333C777.549 601.403 799.963 606.005 817.491 591.562C823.264 586.806 825.088 583.863 831.893 568.326C839.316 551.385 839.996 550.368 846.154 547.009C854.017 542.721 866.923 540.908 876.642 542.727C901.495 547.377 914.087 546.369 927.656 538.639C940.52 531.311 945.182 526.423 951.97 513.141C956.982 503.334 957.758 500.011 957.862 487.909C958.082 462.349 948.682 447.722 922.309 432.587C891.818 415.089 888.376 408.448 897.404 384.522C900.979 375.048 901.753 370.359 900.702 364.553C898.02 349.743 888.759 341.533 871.579 338.736C850.171 335.253 842.577 328.363 842.501 312.364C842.456 303.32 846.497 278.703 848.828 273.793C853.467 264.033 868.265 262.135 882.607 269.459C891.969 274.24 901.872 274.345 910.207 269.751C915.838 266.646 917.212 264.883 920.442 256.593C925.492 243.636 930.816 239.975 943.908 240.457C962.201 241.128 983.32 255.525 986.555 269.527C989.067 280.394 986.108 286.814 974.547 295.582C957.739 308.332 952.554 325.251 960.856 340.26C973.381 362.898 1008.99 360.644 1017.87 336.651C1022.3 324.679 1020.88 316.528 1011.88 302.407C1001.48 286.075 1000.88 278.403 1008.79 262.931C1013.19 254.304 1016.5 250.17 1023.68 244.285C1031.06 238.235 1034.1 234.37 1038.87 224.966C1049.07 204.855 1047.18 185.091 1033.4 167.926C1026.84 159.758 1024.54 158.053 1013.7 153.305C999.567 147.116 989.417 146.454 975.256 150.802C954.981 157.029 942.586 174.009 938.738 200.825C936.193 218.578 932.133 225.2 921.735 228.563C916.68 230.2 913.499 229.982 909.003 227.69C902.202 224.222 892 224.417 885.471 228.141C883.039 229.527 878.321 234.376 874.983 238.918C867.137 249.592 861.91 252.422 851.154 251.819C844.341 251.438 840.649 250.166 834.509 246.089C830.171 243.206 822.994 238.443 818.559 235.503C800.925 223.808 774.734 225.716 756.355 240.035C736.869 255.216 730.183 283.608 740.95 305.44C752.991 329.85 773.929 340.109 804.005 336.335C816.137 334.813 819.662 335.151 827.525 338.596C839.11 343.67 840.181 345.882 840.047 364.485C839.925 381.494 843.6 388.461 857.574 397.719C862.502 400.984 867.988 405.687 869.763 408.169C876.888 418.126 873.671 430.321 860.506 443.277C846.279 457.275 839.059 478.14 841.461 498.314C843.547 515.839 836.153 532.709 825.898 533.816C823.119 534.117 815.831 532.538 809.703 530.308C794.446 524.753 784.374 526.299 771.093 536.229C759.325 545.029 752.064 547.216 741.83 545.04C731.981 542.947 723.593 536.718 709.961 521.369C699.77 509.897 697.525 508.175 685.853 502.879C670.598 495.957 661.769 495.311 647.107 500.045C634.341 504.166 624.714 511.859 617.323 523.846C610.081 535.589 608.18 547.076 610.393 565.708C612.313 581.869 609.833 588.587 599.392 595.513C593.865 599.179 590.913 599.705 582.803 598.468C569.914 596.503 562.024 597.793 554.879 603.032C545.924 609.596 541.54 616.347 539.744 626.338C535.586 649.456 521.772 659.477 505.517 651.169C497.218 646.928 486.242 646.594 476.614 650.294C464.788 654.837 456.156 652.109 449.58 641.748C437.332 622.454 438.95 602.437 454.16 585.088C467.232 570.173 483.678 564.314 501.31 568.287C516.626 571.736 534.862 564.212 541.329 551.775C545.103 544.519 546.303 531.665 543.945 523.754C539.642 509.311 544.536 493.256 556.895 481.276C564.306 474.09 581.964 467.546 593.918 467.554C605.571 467.564 624.639 460.6 635.693 452.297C641.269 448.107 648.242 440.777 652.678 434.439C661.464 421.883 670.087 414.477 678.716 412.077C688.256 409.422 699.418 415.834 708.784 429.343C714.801 438.025 717.598 440.574 725.114 444.226C745.817 454.284 768.709 446.854 778.991 426.737C791.491 402.278 777.101 373.298 750.193 368.742C736.38 366.403 724.552 370.366 713.639 380.989C704.119 390.253 698.939 392.888 690.147 392.929C677.374 392.99 664.966 382.193 654.595 361.993C644.905 343.117 623.469 328.314 602.17 325.787C590.629 324.418 584.471 324.891 568.702 328.36C563.198 329.57 553.648 330.876 547.481 331.259C538.051 331.846 534.629 331.146 525.963 326.859C516.676 322.264 515.292 320.959 511.945 313.63C505.498 299.518 507.744 280.296 516.898 271.249C523.038 265.18 530.416 265.147 542.129 271.134C549.974 275.143 552.385 275.539 559.452 273.983C565.3 272.694 568.784 270.643 571.568 266.85C577.382 258.931 581.192 256.139 587.05 255.507C595.163 254.63 602.763 259.523 610.47 270.58C624.121 290.168 645.85 297.825 667.716 290.749C698.646 280.742 711.452 246.675 695.169 217.715C689.525 207.677 688.769 206.998 675.821 200.339C664.448 194.489 660.516 193.319 650.584 192.816C640.606 192.312 638.219 191.595 634.887 188.11C630.261 183.272 630.296 180.586 635.131 169.016C641.854 152.927 637.229 134.183 624.991 127.928C622.736 126.775 619.9 122.541 618.216 117.817C615.767 110.944 615.852 108.65 618.763 102.954C620.657 99.2495 623.792 95.617 625.733 94.8795C627.672 94.1436 632.319 89.3429 636.06 84.212C641.563 76.6628 644.193 74.5251 649.83 73.0137C659.367 70.4558 667.005 74.5371 672.964 85.3721C678.786 95.9613 685.941 102.463 698.896 108.94C710.165 114.575 718.761 115.755 736.346 114.079C755.941 112.21 764.787 122.708 758.553 140.435C754.028 153.306 753.274 160.525 755.619 168.512C760.454 184.975 778.542 196.592 795.72 194.264C812.331 192.013 824.096 179.356 827.577 159.984C829.373 149.997 834.318 143.74 841.894 141.87C847.269 140.543 850.512 141.64 864.149 149.395C876.939 156.666 887.229 158.188 900.238 154.731C941.259 143.826 947.803 87.8438 910.319 68.5045C881.902 53.8425 846.436 72.2961 842.419 103.835C841.899 107.912 839.659 114.828 837.438 119.205C834.225 125.538 832.296 127.481 827.98 128.73C821.746 130.534 812.77 129.136 804.844 125.127C801.819 123.597 795.637 121.831 791.106 121.205C777.76 119.358 771.259 112.052 771.227 98.8595C771.223 96.5892 773.458 88.5544 776.194 81.0028C784.087 59.2304 782.114 41.3408 769.844 23.3931C764.514 15.5982 762.052 13.56 751.205 7.96693C734.103 -0.851021 720.374 -2.15851 704.145 3.48705C690.302 8.30155 681.42 16.8711 669.619 36.7962C658.07 56.3005 646.247 60.7934 634.456 50.16C622.681 39.5402 613 36.7913 601.261 40.7369C579.161 48.1669 574.297 76.0726 592.223 92.5994C596.706 96.7322 600.426 101.99 601.386 105.542C602.781 110.714 602.336 112.512 598.09 118.85C595.389 122.88 592.329 126.253 591.286 126.346C590.245 126.437 587.025 128.99 584.134 132.017C576.416 140.096 573.172 151.372 575.698 161.345C579.36 175.799 588.379 183.059 607.149 186.661L611.175 187.434C614.85 188.139 617.775 190.925 618.656 194.562C620.01 200.144 619.54 201.499 611.474 215.323C602.429 230.827 593.983 240.258 587.949 241.592C585.55 242.122 579.663 239.98 570.142 235.114C558.375 229.1 554.911 228.011 550.081 228.809C542.945 229.988 541.485 231.175 533.76 242.077C526.743 251.979 520.477 255.695 510.962 255.603C496.429 255.462 484.042 243.531 483.976 229.61C483.937 221.479 485.397 219.382 495.872 212.539C509.81 203.436 512.215 192.186 502.639 180.876C493.494 170.073 498.478 155.902 516.229 142.236C525.534 135.075 527.678 132.461 533.236 121.5C541.148 105.896 542.168 94.0564 536.946 78.3989C526.873 48.1885 495.775 32.1232 465.522 41.4961C448.69 46.711 438.846 55.798 431.119 73.2569C426.015 84.7881 425.427 88.0664 425.503 104.588C425.577 120.901 424.95 124.487 420.092 135.521C412.035 153.827 403.098 158.816 384.772 155.238C377.117 153.742 370.942 155.052 361.673 160.142C355.614 163.468 353.763 165.7 348.457 176.08C342.713 187.32 341.798 188.323 335.183 190.629C322.218 195.152 309.985 188.086 307.786 174.808C306.453 166.756 308.82 149.344 312.125 142.908C317.815 131.822 324.023 127.454 341.525 122.216C359.203 116.926 364.639 113.52 368.991 105.005C374.875 93.4922 369.021 76.1295 357.222 70.0988C345.558 64.1376 327.911 69.4893 322.191 80.721C320.868 83.32 319.008 91.2661 318.059 98.3807C316.095 113.096 311.976 122.29 302.758 132.536C290.441 146.225 278.245 151.75 254.382 154.449C240.544 156.014 235.318 158.105 224.114 166.554C199.602 185.042 194.434 221.043 212.664 246.309C221.235 258.186 238.746 268.152 254.071 269.873C265.781 271.19 288.973 265.431 291.446 260.593C292.134 259.246 293.291 258.447 294.015 258.817C296.85 260.266 305.571 248.406 314.462 231.009L321.119 217.983C322.83 214.636 325.735 212.053 329.26 210.746L332.141 209.677L334.111 208.947C338.173 207.442 342.687 207.766 346.492 209.837L356.08 215.054C369.053 222.113 372.928 223.531 379.264 223.536C389.943 223.544 398.709 219.34 405.754 210.834C411.273 204.172 411.963 202.345 413.672 189.839C414.701 182.303 417.026 173.276 418.838 169.778C426.038 155.876 442.013 148.704 460.937 150.881C485.637 153.72 491.823 166.204 475.898 181.08C470.146 186.451 469.053 192.189 471.623 203.499C475.189 219.189 467.347 229.08 442.751 239.909C425.119 247.673 422.278 250.216 414.551 265.15C406.67 280.38 405.66 290.413 410.628 304.141C415.675 318.089 421.619 324.707 435.598 331.947C449.977 339.392 455.623 340 473.721 336.058C488.684 332.799 502.833 334.823 509.817 341.223C523.234 353.521 526.916 382.422 516.353 392.519C508.782 399.758 501.941 398.859 491.977 389.319C480.54 378.373 462.749 380.398 453.159 393.74C443.648 406.973 434.548 404.436 420.136 384.532C414.396 376.606 408.117 370.086 402.822 366.553C385.902 355.266 363.17 353.75 341.502 362.466C314.713 373.242 299.545 366.826 291.592 341.351C289.333 334.121 285.45 325.357 282.962 321.879C266.316 298.612 231.097 301.781 217.684 327.753C211.655 339.427 211.722 343.872 218.221 363.206C221.422 372.728 223.582 382.511 223.02 384.947C221.674 390.786 215.126 395.298 203.087 398.676C190.306 402.263 185.226 406.842 178.096 421.202C173.497 430.467 171.143 433.569 167.27 435.482C159.635 439.251 152.204 439.01 143.81 434.72C136.915 431.196 135.816 429.809 132.897 420.939C128.701 408.186 130.801 403.91 144.08 398.174C157.01 392.589 162.611 385.257 163.298 373.018C163.839 363.369 161.029 357.115 153.217 350.578C137.401 337.342 114.886 345.165 109.575 365.741C107.644 373.225 109.511 385.607 112.826 387.301C115.243 388.536 116.827 397.549 115.189 400.753C112.214 406.574 104.143 410.428 90.7719 412.412Z" fill="url(#paint0_linear_2_811)"/>
<defs>
<linearGradient id="paint0_linear_2_811" x1="92.5688" y1="352.787" x2="939.198" y2="785.492" gradientUnits="userSpaceOnUse">
<stop stop-color="#FFC6BF"/>
<stop offset="1" stop-color="#F7F3E4"/>
</linearGradient>
</defs>
</svg>

