
<svg width="687" height="587" viewBox="0 0 687 587" fill="none" xmlns="http://www.w3.org/2000/svg">
<path opacity="0.6" fill-rule="evenodd" clip-rule="evenodd" d="M951.493 87.3477C964.61 77.3053 977.057 72.2457 990.513 71.4874C1003.46 70.7579 1027.26 79.7864 1036.9 89.0841C1053.07 104.667 1059.5 125.388 1055.42 148.755C1050.18 178.818 1057.94 188.003 1084.52 183.206C1107.79 179.009 1126.51 188.264 1135.6 208.446C1142.95 224.792 1137.38 249.04 1123.67 260.321C1093.8 284.901 1049.62 263.15 1050.19 224.145C1050.3 216.961 1048.79 209.049 1046.5 204.718C1043.05 198.221 1041.58 197.202 1033.31 195.549C1027.77 194.44 1019.15 194.869 1012.01 196.611C995.994 200.514 984.109 199.682 969.934 193.662C937.03 179.689 932.514 178.264 925.543 179.653C915.609 181.633 907.159 189.311 902.118 200.932C895.955 215.142 889.349 221.579 878.228 224.211C862.286 227.985 849.968 221.596 840.716 204.759C838.003 199.823 833.34 194.403 830.351 192.715C822.998 188.566 811.216 190.512 800.614 197.63C795.982 200.739 785.7 206.742 777.763 210.967C764.861 217.836 763.075 219.489 760.902 226.576C757.507 237.644 762.754 248.526 777.276 260.524C783.488 265.657 791.327 273.875 794.696 278.787C814.469 307.619 851.591 320.388 884.936 309.827C889.711 308.314 899.933 301.728 907.649 295.192C932.389 274.233 949.769 269.5 974.29 277.042C992.648 282.688 1002.3 291.614 1015.84 315.466C1029.34 339.248 1037.5 346.44 1058.15 352.757C1079.02 359.14 1090.46 357.514 1110.36 345.328C1123.8 337.105 1135.71 333.679 1154.09 332.752C1163.29 332.287 1175.37 323.712 1180.07 314.296C1185.09 304.257 1185.15 294.072 1180.27 278.614C1176.79 267.579 1176.69 264.131 1179.5 252.865C1183.51 236.785 1192.26 227.052 1207.06 222.214C1220.3 217.884 1238.41 221.866 1248.09 231.239C1255.68 238.592 1261.15 250.287 1262.02 261.026C1263.21 275.603 1264.17 279.602 1268.69 288.949C1276 304.065 1286.44 310.753 1307.43 313.784C1324.42 316.235 1333.57 328.319 1330.85 344.707C1328.52 358.793 1312.69 368.926 1299.37 364.86C1287.23 361.156 1279.7 350.051 1280.48 337.028C1281.82 314.916 1259.44 299.758 1231.65 303.949C1190.59 310.141 1179.04 334.754 1197.79 376.082C1203.28 388.185 1211.82 395.953 1220.1 396.382C1220.68 396.412 1225.01 397.273 1231.54 398.569L1231.54 398.569C1255.51 403.333 1309.11 413.984 1315.35 410.973C1336.8 400.634 1344.52 402.212 1355.57 419.185C1361.44 428.205 1362.31 428.793 1373.83 431.538C1385.08 434.22 1386.88 433.989 1399.68 428.226C1420.47 418.862 1425.92 418.166 1439.43 423.153C1453.22 428.245 1460.22 435.922 1464.13 450.228C1470.42 473.274 1450.26 499.077 1426.42 498.491C1408.22 498.042 1394.56 487.642 1387.93 469.177C1379.78 446.479 1365.78 438.354 1346.88 445.347C1332.86 450.535 1328.34 449.987 1317.16 441.742C1295.56 425.807 1202.3 405.041 1181.66 422.269C1173.23 429.31 1165.32 433.72 1155.92 436.617C1138.4 442.014 1128.47 450.413 1122.98 464.465C1116.48 481.112 1119.68 496.805 1135.92 527.852C1145.6 546.359 1149.68 556.886 1151.6 568.346C1156.15 595.45 1164.48 608.356 1178.98 610.76C1185.32 611.811 1201.48 608.754 1207.43 605.381C1213.04 602.203 1228.96 597.378 1233.03 597.624C1254.86 598.934 1276.04 612.268 1282.66 628.866C1290.23 647.866 1301.84 655.6 1312.29 648.617C1315.55 646.44 1324.76 641.197 1332.76 636.966C1351.05 627.292 1351.23 626.177 1338.54 600.801C1335.88 595.469 1333.68 589.572 1333.65 587.698C1333.63 585.824 1330.11 579.923 1325.83 574.583C1318.59 565.551 1317.03 564.568 1303.38 560.458C1288.08 555.854 1277.18 556.305 1265.65 562.019C1258.48 565.568 1244.42 567.845 1235.72 566.866C1227.09 565.893 1205.29 550.798 1200.56 542.519C1196 534.538 1193.86 517.697 1196.04 507.034C1203.7 469.606 1249.65 455.001 1278.15 480.933C1287.48 489.431 1290.29 494.693 1295.33 513.12C1300.94 533.641 1312.91 547.498 1329.41 552.558C1336.35 554.686 1340.08 554.357 1349.44 550.791C1364.35 545.112 1371.27 544.401 1381.4 547.507C1398.04 552.61 1407.1 562.582 1409.21 578.084C1410.74 589.356 1407.26 600.498 1399.64 608.745C1391.36 617.704 1388.41 619.401 1375.93 622.328C1369.99 623.723 1363.69 626.295 1361.93 628.047C1357.43 632.51 1357.51 640.286 1362.11 645.819C1367.81 652.682 1369.46 665.825 1366.04 676.994C1359.82 697.268 1366.4 707.242 1390.86 714.618C1411.71 720.906 1421.27 728.797 1426.02 743.649C1429.03 753.09 1428.98 755.891 1425.52 767.157C1422.1 778.305 1420.52 780.781 1413.21 786.459C1401.8 795.33 1389.72 797.747 1376.64 793.78C1363.25 789.717 1353.12 780.159 1349.22 767.907C1346.55 759.525 1346.79 756.535 1351.63 737.665C1356.48 718.741 1356.69 716.08 1353.8 710.058C1349.94 702.031 1341.97 694.991 1333.97 692.538C1326.66 690.295 1316.67 682.134 1312.68 675.144C1308.48 667.792 1301.01 666.069 1292.32 670.443C1288.31 672.462 1284.74 675.027 1284.39 676.146C1282.75 681.325 1267.73 695.394 1259.01 699.917C1245.12 707.124 1234.27 708.049 1218.78 703.351C1197.51 696.902 1183.79 680.765 1179.73 657.429C1174.46 627.131 1148.88 620.635 1118.78 641.95C1101.14 654.434 1083.97 659.08 1060.4 657.745C1022.3 655.587 1009.41 668.323 1018.87 698.771C1021.06 705.792 1023.14 714.271 1023.5 717.612C1024.62 727.868 1018.35 744.274 1007.94 758.325C997.119 772.945 995.021 781.362 999.606 791.761C1004.19 802.144 1011.42 807.769 1025.92 812.218C1060.61 822.859 1084.2 810.375 1099.49 773.282C1107.37 754.16 1114.72 744.928 1127.77 737.769C1142.01 729.954 1154.86 728.973 1172.06 734.39C1197.3 742.341 1207.47 755.633 1212.91 787.812C1217.55 815.217 1227.42 823.615 1244.99 815.131C1266.59 804.702 1291.38 811.779 1302.54 831.562C1310.41 845.514 1309.71 860.063 1300.51 874.098C1290.34 889.601 1272.71 896.18 1255.25 890.992C1243.61 887.533 1223.98 887.052 1214.72 890.003C1203.26 893.651 1195.28 902.26 1188.46 918.295C1182.4 932.577 1176.89 938.424 1165.57 942.607C1158.19 945.337 1155.06 945.267 1144.87 942.14C1131.45 938.022 1126.27 932.86 1122.12 919.435C1120.38 913.819 1120.6 908.991 1122.93 901.399C1129.09 881.327 1142.93 873.923 1166.23 878.241C1185.25 881.765 1194.61 881.195 1205.43 875.851C1215.64 870.813 1219.83 866.153 1222.77 856.574C1226.44 844.583 1222.45 834.878 1212.54 831.742C1205.97 829.665 1199.79 831.142 1181.55 839.143C1164.49 846.63 1153.17 847.328 1137.27 841.879C1105.76 831.082 1095.97 828.913 1085.5 830.411C1068.96 832.774 1056.49 844.327 1050.9 862.464C1048.67 869.687 1043.85 876.409 1037.64 881.59C1037.2 881.951 1036.77 882.314 1036.33 882.677C1026.76 890.644 1016.59 899.098 1012.96 910.934C1009.44 922.411 1013.2 934.606 1016.88 946.584L1016.89 946.586C1018.21 950.9 1019.53 955.187 1020.5 959.401C1021.83 965.206 1021.7 971.429 1019.83 977.533C1014.14 996.081 994.495 1006.51 975.946 1000.82C957.398 995.127 946.973 975.478 952.663 956.929C955.19 948.691 960.471 942.055 967.185 937.723L967.787 937.335C977.348 931.169 987.835 924.406 991.157 913.576L993.223 906.839C996.323 896.732 989.523 887.184 982.555 879.233C975.51 871.193 971.362 861.545 971.51 853.532C971.575 849.959 974.25 838.488 977.454 828.04C986.859 797.38 982.007 783.707 957.548 771.954C939.592 763.327 931.548 756.851 925.808 746.402C906.591 711.426 931.967 669.027 972.288 668.74C989.019 668.621 992.11 667.73 999.192 660.984C1009.64 651.028 1009.26 637.684 997.881 614.643C981.877 582.244 986.471 547.383 1010.2 521.191C1019.88 510.505 1032.86 502.276 1048.59 496.862C1063.43 491.753 1078.08 482.722 1088.73 472.119C1097.79 463.089 1098.8 461.257 1101.85 448.38C1105.7 432.122 1104.3 420.692 1096.79 406.977C1084.81 385.096 1058.76 370.356 1034.79 371.896C1020.8 372.792 1009.8 377.112 994.338 387.776C980.365 397.415 969.263 401.032 954.325 400.808C931.613 400.471 913.325 389.591 899.225 368.031C889.24 352.761 884.665 348.844 869.912 342.931C850.882 335.301 833.592 335.139 820.219 342.466C804.199 351.244 803.301 351.886 798.328 358.159C795.751 361.411 792.667 364.669 791.473 365.4C790.279 366.13 788.875 368.12 788.353 369.821C787.831 371.523 785.108 374.238 782.302 375.857C779.496 377.474 777.021 379.382 776.803 380.094C775.587 384.057 747.057 392.236 734.834 392.123C725.285 392.037 708.258 386.927 694.877 380.133C688.146 376.717 685.683 376.375 681.097 378.223C675.069 380.651 673.406 384.254 670.912 400.263C670.024 405.958 668.007 412.752 666.429 415.363C661.844 422.952 649.497 427.561 636.724 426.454C623.05 425.267 617.986 427.166 613.869 435.017C611.458 439.611 611.373 442.928 613.493 449.797C614.995 454.67 615.992 459.412 615.708 460.337C615.11 462.287 618.485 470.165 626.376 485.236C638.598 508.58 665.982 514.231 692.332 498.847C698.133 495.459 706.405 491.765 710.713 490.638C718.847 488.509 723.791 489.944 751.243 502.4C781.383 516.073 804.357 505.638 827.331 467.842C837.555 451.022 843.04 445.469 854.893 439.931C869.702 433.011 882.578 432.295 899.401 437.456C916.38 442.664 925.638 450.276 933.558 465.539C941.592 481.023 942.651 493.163 937.43 510.012C931.499 529.165 923.733 537.705 901.698 549.31C882.437 559.456 873.77 567.565 870.694 578.319C868.302 586.679 870.083 591.482 879.753 602.742C883.533 607.147 886.434 611.38 886.198 612.15C885.962 612.919 886.793 615.48 888.046 617.842C889.558 620.691 889.339 626.259 887.396 634.413C883.895 649.099 876.5 657.401 863.214 661.559C854.045 664.428 843.57 662.038 822.853 652.349C805.12 644.054 793.773 649.793 783.78 672.107C771.194 700.217 740.884 705.128 716.701 682.977C709.563 676.437 705.349 673.958 700.428 673.404C685.79 671.755 671.368 683.177 665.892 700.756C663.502 708.424 663.574 712.654 666.24 721.719C671.553 739.781 680.969 747.534 700.325 749.789C719.323 752.003 725.241 756.085 734.526 773.394C739.946 783.496 744.786 789.711 749.574 792.716C765.836 802.929 793.405 798.869 807.672 784.161C824.384 766.931 844.459 761.805 867.519 768.879C879.888 772.673 883.114 774.54 890.45 782.144C907.401 799.717 911.656 820.453 903.034 843.465C900.446 850.368 895.935 858.591 893.008 861.735C885.628 869.659 872.427 877.238 863.18 878.86C843.41 882.326 830.984 891.144 829.851 902.505C829.532 905.707 830.733 912.553 832.518 917.72C839.628 938.295 837.339 953.049 825.67 961.876C817.842 967.798 803.27 969.235 794.187 964.981C793.203 964.52 792.256 964.076 791.344 963.648L791.242 963.6C775.357 956.149 770.246 953.752 765.602 954.452C763.399 954.783 761.3 955.812 758.207 957.328L758.171 957.346C757.793 957.531 757.401 957.723 756.991 957.923C747.518 962.534 746.021 964.178 739.392 977.234C731.19 993.39 723.852 1000.32 710.33 1004.68C707.156 1005.71 704.729 1008.57 704.697 1011.91L704.55 1027.49C704.447 1038.34 712.144 1047.52 719.125 1055.83C726.323 1064.39 729.167 1076.32 725.641 1087.82C720.114 1105.83 701.027 1115.96 683.009 1110.43C664.99 1104.91 654.864 1085.82 660.391 1067.8C662.154 1062.05 665.297 1057.11 669.346 1053.22C678.236 1044.67 688.42 1034.87 688.537 1022.54L688.683 1007.08C688.702 1005.13 687.421 1003.4 685.551 1002.82C665.812 996.767 660.964 991.305 653.403 966.606C646.657 944.564 638.025 934.569 619.601 927.469C609.125 923.432 605.228 922.939 594.304 924.257C583.735 925.534 578.949 924.982 567.94 921.216C556.555 917.322 548.575 933.793 542.209 946.935L542.209 946.936C542.209 946.936 542.208 946.936 542.208 946.936C542.208 946.936 542.208 946.937 542.208 946.937C539.298 952.945 536.724 958.257 534.316 960.609C533.65 961.26 532.839 961.974 531.923 962.781C526.593 967.476 517.69 975.317 512.78 992.329C504.99 1019.31 502.179 1023.39 484.428 1033.48C472.82 1040.07 457.821 1041.12 442.481 1036.42C429.546 1032.45 422.592 1026.73 413.959 1012.95C404.264 997.474 398.539 992.417 386.424 988.617C380.447 986.743 375.103 976.514 370.467 967.64C365.892 958.883 362.006 951.444 358.88 954.653C353.744 959.924 342.815 965.884 335.944 967.161C322.041 969.746 304.718 958.917 299.669 944.484C294.881 930.795 285.885 922.612 268.71 916.319C252.158 910.255 248.212 910.305 217.607 916.969C192.797 919.172 181.29 913.938 166.023 891.118C158.646 878.498 157.76 868.624 162.597 852.911C167.541 836.853 175.014 828.324 189.756 821.91C201.205 816.929 211.934 816.602 225.662 820.813C243.452 826.27 252.851 837.234 259.366 860.133C269.147 894.509 291.364 911.197 317.583 903.859C334.97 898.994 344.41 901.247 357.424 913.371C363.039 918.603 368.295 929.535 373.42 940.198L373.421 940.198C379.986 953.855 386.339 967.07 392.963 967.299C405.483 967.733 407.1 965.959 415.705 956.516C415.943 956.255 416.186 955.988 416.435 955.715C416.85 955.26 417.281 954.789 417.729 954.3C422.816 948.757 431.278 942.042 436.531 939.381C451.582 931.754 458.721 931.913 486.712 940.489C508.176 947.066 512.239 947.763 519.193 946.053C529.512 943.515 539.169 918.957 546.212 901.046L546.212 901.045L546.212 901.044C548.636 894.88 550.75 889.504 552.475 886.084C559.969 871.221 562.64 868.16 571.934 863.784C580.357 859.819 592.83 861.123 602.089 866.936C608.621 871.037 617.873 884.535 616.722 888.285C615.55 892.106 625.824 910.726 632.242 916.411C644.847 927.58 659.427 929.204 682.34 921.993C699.898 916.467 716.396 920.081 729.878 932.409C738.227 940.041 748.869 942.948 759.775 940.572C769.364 938.485 774.944 933.777 777.428 925.681C779.507 918.902 790.114 909.219 797.387 907.463C821.066 901.742 825.143 886.173 808.893 863.537C805.327 858.569 799.514 849.435 795.975 843.236C786.89 827.325 778.353 820.37 761.49 815.141C746.112 810.373 731.72 810.362 718.679 815.111C688.401 826.134 664.619 805.771 670.062 773.48C672.174 760.956 666.96 749.955 654.296 740.216C642.579 731.203 636.896 729.594 620.425 730.622C612.989 731.086 603.309 730.997 598.915 730.426C587.341 728.921 569.667 733.098 562.295 739.082C553.399 746.302 551.508 754.582 554.819 771.793C560.37 800.632 546.321 822.666 520.544 825.552C512.055 826.503 508.193 825.658 490.044 818.884C470.254 811.499 468.88 811.248 461.23 813.626C451.463 816.662 439.715 825.802 433.479 835.215C417.53 859.286 406.692 868.807 389.566 873.786C373.33 878.505 365.617 878.44 349.331 873.444C337.306 869.756 333.965 867.751 323.961 858.213C302.832 838.071 298.315 818.735 306.877 785.08C316.775 746.171 314.067 738.069 287.275 726.447C276.666 721.845 272.206 718.751 268.282 713.272C258.273 699.299 258.907 685.179 270.273 668.872C284.439 648.551 284.829 636.848 271.774 624.064C264.395 616.837 241.001 600.576 235.122 598.584C223.433 594.627 210.111 605.249 204.712 622.83C201.188 634.305 193.4 642.507 183.007 645.688C175.984 647.836 173.446 647.559 164.081 643.616C149.444 637.455 142.21 638.908 132.195 650.024C118.201 665.555 113.211 694.315 122.118 708.1C129.031 718.799 136.646 721.478 153.026 718.972C176.843 715.33 194.835 724.532 200.538 743.272C209.138 771.539 178.981 798.935 152.25 787.141C138.91 781.256 133.361 773.607 128.936 755.005C123.818 733.492 118.007 726.899 99.0359 721.08C88.4576 717.835 82.4437 717.255 71.9081 718.464C61.0793 719.705 55.4939 719.124 43.9916 715.558C19.3914 707.932 4.69716 690.663 1.5839 665.716C0.101802 653.846 0.53036 650.607 5.25581 637.947C11.42 621.438 18.9482 612.591 33.7719 604.439C54.9977 592.768 78.7731 596.107 103.816 614.275C120.393 626.304 129.05 628.241 140.075 622.39C145.436 619.548 147.786 616.766 149.482 611.258C152.047 602.926 160.318 594.716 168.562 592.326C171.632 591.434 179.359 591.421 185.736 592.296C200.725 594.351 207.201 592.316 215.258 583.019C220.363 577.131 222.257 573.092 223.796 564.817C224.882 558.969 226.683 549.298 227.8 543.324C232.233 519.569 254.622 499.615 280.973 495.933C308.912 492.029 337.504 509.122 346.841 535.308C357.278 564.588 349.04 589.909 322.032 611.565C311.139 620.301 308.614 623.459 305.186 632.644C300.134 646.176 301.096 648.812 316.453 663.495C330.494 676.918 333.284 685.47 329.763 704.287C328.521 710.923 328.014 719.16 328.638 722.589C331.135 736.346 343.691 743.406 364.78 742.914C387.568 742.38 410.413 753.052 425.042 771.061C437.751 786.705 457.459 794.056 466.52 786.53C468.976 784.491 473.476 777.261 476.521 770.464C484.097 753.54 493.373 746.512 512.074 743.519C528.645 740.869 536.211 736.656 542.564 726.535C548.679 716.798 550.242 704.968 548.498 681.589C547.196 664.112 547.569 660.903 552.508 647.124C558.962 629.114 565.453 621.363 580.991 613.106C594.52 605.918 608.481 604.143 624.185 607.614C639.57 611.014 650.498 618.589 664.013 635.217C675.736 649.641 683.214 652.949 697.194 649.897C704.594 648.28 707.373 646.279 712.807 638.646C721.444 626.518 728.775 621.075 738.751 619.383C751.252 617.261 760.273 619.035 769.891 625.506C792.149 640.478 811.347 637.122 817.461 617.19C820.582 607.015 829.036 597.751 839.724 592.801C852.851 586.717 857.478 577.472 854.213 563.843C848.134 538.461 830.438 523.872 804.122 522.546C781.501 521.405 763.622 530.228 752.859 547.842C743.509 563.141 722.842 572.108 707.503 567.521C698.554 564.845 687.063 555.609 682.453 547.386C674.033 532.375 656.981 523.621 637.333 524.227C625.549 524.59 606.144 533.862 596.646 543.669C587.389 553.23 566.519 563.324 550.923 565.784C543.056 567.024 531.501 566.913 522.779 565.51C505.499 562.729 492.572 563.911 483.743 569.076C473.982 574.786 470.363 589.035 473.992 607.454C476.324 619.289 476.19 623.609 473.208 632.674C464.992 657.644 440.7 670.503 416.033 662.937C386.042 653.737 373.727 618.899 391.387 593.217C400.451 580.033 413.104 573.487 430.49 572.987C445.654 572.549 451.933 570.397 458.957 563.223C469.163 552.8 470.177 534.043 461.863 509.48C454.094 486.528 459.002 457.184 473.865 437.714C481.919 427.165 487.203 422.493 502.585 412.324C507.953 408.774 516.617 401.982 521.834 397.231C529.814 389.968 531.96 386.605 535.336 376.092C538.953 364.826 538.983 362.654 535.637 354.083C529.193 337.577 511.65 324.134 496.955 324.446C487.098 324.654 481.205 330.676 476.799 345.039C473.849 354.658 472.256 356.949 465.361 361.505C459.655 365.275 455.203 366.5 449.881 365.766C438.766 364.236 433.448 365.139 428.272 369.439C421.102 375.393 419.07 385.514 422.007 400.624C427.212 427.389 416.212 451.291 393.026 463.59C360.228 480.99 322.119 464.402 311.325 428.027C307.583 415.419 307.628 414.259 312.463 398.35C316.71 384.375 318.877 380.221 326.362 371.678C333.882 363.098 335.193 360.571 334.984 355.069C334.696 347.43 332.466 345.322 319.137 340.087C300.602 332.806 288.913 314.111 293.516 299.105C294.364 296.34 293.147 290.648 290.614 285.512C286.926 278.04 284.978 276.285 277.994 274.143C273.452 272.75 267.981 272.432 265.833 273.436C263.688 274.441 256.058 274.434 248.876 273.421C238.312 271.93 234.468 272.387 228.748 275.806C219.068 281.59 216.341 291.097 220.486 304.597C224.538 317.789 224.178 328.824 219.188 344.595C214.847 358.314 208.98 366.299 193.624 379.382C176.512 393.961 178.085 409.559 197.574 418.544C211.723 425.068 218.241 430.189 222.924 438.462C232.575 455.516 227.718 479.581 212.151 491.812C197.098 503.64 177.368 503.221 158.719 490.672C149.104 484.204 140.043 483.283 132.485 488.007C127.124 491.358 125.445 494.889 120.96 512.234C116.751 528.501 109.818 538.147 96.639 546.063C55.0837 571.021 3.98669 531.875 17.9359 485.769C28.5107 450.815 71.8382 436.412 100.887 458.196C104.643 461.011 112.095 464.674 117.448 466.333C125.194 468.734 128.321 468.698 132.777 466.153C139.212 462.476 145.203 454.007 148.218 444.322C149.369 440.624 152.837 434.152 155.926 429.941C165.024 417.531 164.203 406.393 153.413 395.877C151.555 394.068 143.191 389.512 134.825 385.751C110.701 374.91 97.6031 359.069 92.6462 334.739C90.4933 324.172 90.7801 320.533 94.8192 307.194C101.189 286.162 111.032 273.869 128.564 265.052C143.518 257.532 157.605 257.064 183.322 263.233C208.495 269.272 221.578 263.152 222.236 245.032C222.893 226.934 228.337 216.812 240.904 210.326C264.568 198.116 291.312 216.316 290.608 244.152C290.431 251.113 291.783 258.344 293.932 261.955C297.063 267.211 298.891 268.276 307.462 269.834C312.914 270.824 318.112 270.997 319.017 270.216C319.921 269.435 324.574 268.826 329.354 268.862C342.114 268.959 353.937 275.265 360.104 285.265C369.042 299.759 367.823 312.926 355.852 331.177L353.283 335.092C350.939 338.666 350.899 343.279 353.179 346.893C356.678 352.44 358.163 353.133 375.91 357.512C395.812 362.424 410.258 362.998 416.149 359.113C418.492 357.568 421.416 351.038 424.997 339.364C429.423 324.936 431.284 321.23 435.779 317.905C442.42 312.992 444.553 312.74 459.633 315.074C473.33 317.195 481.358 315.013 488.848 307.14C500.287 295.113 500.355 275.472 488.996 264.349C482.361 257.852 479.481 257.382 465.542 260.529C446.998 264.717 435.862 257.743 434.205 240.901C432.619 224.814 417.04 217.633 391.722 221.319C378.453 223.254 374.606 222.933 361.2 218.774C342.118 212.854 331.601 204.276 322.917 187.546C306.16 155.267 317.715 117 349.453 99.6514C367.112 89.9984 382.388 89.1535 402.844 96.7007C416.356 101.685 419.511 103.81 432.995 117.008C446.31 130.039 449.748 132.377 462.655 137.167C484.07 145.117 495.265 141.757 506.902 123.888C511.762 116.424 517.747 112.404 529.289 108.851C536.834 106.529 540.135 106.786 552.863 110.69C566.644 114.917 568.194 114.964 575.344 111.375C589.361 104.342 593.295 88.6967 584.158 76.3363C578.617 68.8414 562.46 56.9375 554.556 54.5299C540.944 50.3798 532.427 51.9962 514.217 62.1793C495.824 72.4659 488.71 74.2143 478.27 71.0119C464.152 66.6816 454.573 48.0774 459.011 33.609C463.398 19.3076 481.816 9.09591 495.572 13.3365C498.755 14.3188 506.748 19.1118 513.335 23.9902C526.96 34.0801 537.772 38.0139 553.501 38.6034C574.517 39.391 588.742 33.7851 609.929 16.3682C622.215 6.26827 628.084 3.64643 643.919 1.17971C678.564 -4.21603 712.188 20.1718 718.405 55.206C721.328 71.676 715.575 93.9552 704.801 107.887C696.569 118.533 673.408 132.968 667.476 131.148C665.824 130.641 664.25 130.954 663.977 131.843C662.911 135.319 646.255 133.038 624.923 126.495L608.157 121.352C604.564 120.249 600.687 120.537 597.295 122.157L593.378 124.027L590.34 125.479C586.432 127.347 583.522 130.813 582.359 134.986L578.753 147.927C574.225 164.175 572.306 168.479 567.272 173.677C558.788 182.438 548.372 186.282 535.797 185.295C525.947 184.522 523.902 183.634 512.29 175.092C505.294 169.944 496.045 164.673 491.737 163.377C474.615 158.226 456.034 165.62 442.772 182.864C425.46 205.371 430.777 220.368 455.634 219.14C464.61 218.696 470.183 222.362 477.412 233.461C487.439 248.86 501.783 250.295 530.216 238.742C550.6 230.46 554.944 230.153 573.331 235.692C592.083 241.341 601.111 248.49 608.415 263.478C615.836 278.706 616.536 288.841 611.356 306.057C606.027 323.765 602.036 328.876 584.414 340.579C569.846 350.254 560.255 363.463 559.949 374.277C559.363 395.055 580.129 421.052 596.805 420.421C608.759 419.97 613.461 413.647 613.563 397.893C613.683 379.814 629.488 366.839 648.051 369.585C666.462 372.31 671.618 362.832 666.759 335.192C664.825 324.184 664.473 313.853 665.786 306.703C669.986 283.857 686.818 264.017 711.191 253.183C741.325 239.79 748.126 222.254 733.565 195.478C729.433 187.878 725.337 177.727 724.463 172.922C718.624 140.775 749.225 114.423 781.182 124.078C795.546 128.417 799.136 132.006 809.819 152.706C815.08 162.902 821.383 172.451 823.826 173.927C829.684 177.466 838.589 175.686 850.93 168.502C864.033 160.876 871.826 160.352 889.268 165.925C900.519 169.521 904.934 170.058 909.582 168.404C918.742 165.141 924.453 158.857 927.61 148.565C930.204 140.111 929.941 138.107 924.989 128.662C917.871 115.081 912.695 113.404 897.435 119.729C882.575 125.888 872.112 124.651 861.533 115.482C853.192 108.254 850.299 100.977 851.151 89.3752C852.876 65.8858 877.19 53.6485 898.282 65.655C905.952 70.0214 914.618 81.3975 913.371 85.4623C912.462 88.4254 918.592 96.8904 922.521 98.0954C929.658 100.285 939.235 96.732 951.493 87.3477Z" fill="url(#paint0_linear_2_238)"/>
<defs>
<linearGradient id="paint0_linear_2_238" x1="1324.21" y1="456.419" x2="46.4967" y2="653.194" gradientUnits="userSpaceOnUse">
<stop stop-color="#D7C0F5"/>
<stop offset="0.5" stop-color="#6C4CDC"/>
<stop offset="1" stop-color="#D7C0F5"/>
</linearGradient>
</defs>
</svg>

