<svg width="674" height="577" viewBox="0 0 674 577" fill="none" xmlns="http://www.w3.org/2000/svg">
<path opacity="0.6" fill-rule="evenodd" clip-rule="evenodd" d="M159.427 -387.652C172.544 -397.695 184.991 -402.754 198.448 -403.513C211.389 -404.242 235.19 -395.214 244.835 -385.916C261 -370.333 267.431 -349.612 263.355 -326.245C258.11 -296.182 265.871 -286.997 292.459 -291.794C315.72 -295.991 334.447 -286.736 343.532 -266.554C350.887 -250.208 345.312 -225.96 331.605 -214.679C301.735 -190.099 257.554 -211.85 258.127 -250.855C258.234 -258.039 256.728 -265.951 254.43 -270.282C250.983 -276.779 249.517 -277.798 241.245 -279.451C235.706 -280.56 227.085 -280.131 219.947 -278.389C203.928 -274.486 192.043 -275.318 177.868 -281.338C144.964 -295.311 140.448 -296.736 133.478 -295.347C123.543 -293.367 115.093 -285.689 110.052 -274.068C103.89 -259.858 97.2832 -253.421 86.1622 -250.789C70.2207 -247.015 57.9023 -253.404 48.6501 -270.241C45.9377 -275.177 41.2739 -280.597 38.285 -282.285C30.9321 -286.434 19.15 -284.488 8.5487 -277.37C3.91659 -274.261 -6.36553 -268.258 -14.303 -264.033C-27.2046 -257.164 -28.9902 -255.511 -31.1642 -248.424C-34.559 -237.356 -29.3112 -226.474 -14.7893 -214.476C-8.57792 -209.343 -0.738978 -201.125 2.63001 -196.213C22.403 -167.381 59.5253 -154.612 92.8704 -165.173C97.6451 -166.686 107.867 -173.272 115.583 -179.808C140.323 -200.767 157.703 -205.5 182.224 -197.958C200.582 -192.312 210.233 -183.386 223.773 -159.534C237.272 -135.752 245.434 -128.56 266.085 -122.243C286.955 -115.86 298.395 -117.486 318.299 -129.672C331.733 -137.895 343.646 -141.321 362.022 -142.248C371.226 -142.713 383.303 -151.288 388.008 -160.704C393.027 -170.743 393.083 -180.928 388.209 -196.386C384.729 -207.421 384.626 -210.869 387.435 -222.135C391.445 -238.215 400.197 -247.948 414.991 -252.786C428.239 -257.116 446.341 -253.134 456.022 -243.761C463.612 -236.408 469.086 -224.713 469.959 -213.974C471.147 -199.397 472.102 -195.398 476.623 -186.051C483.936 -170.935 494.37 -164.247 515.367 -161.216C532.354 -158.765 541.504 -146.681 538.786 -130.293C536.45 -116.207 520.622 -106.074 507.305 -110.14C495.169 -113.844 487.634 -124.949 488.418 -137.972C489.752 -160.084 467.374 -175.242 439.584 -171.051C398.525 -164.859 386.971 -140.246 405.725 -98.9181C411.216 -86.8151 419.755 -79.0472 428.035 -78.6177C428.618 -78.5876 432.947 -77.7272 439.471 -76.4308L439.473 -76.4306C463.445 -71.667 517.044 -61.0159 523.289 -64.027C544.73 -74.3656 552.454 -72.788 563.506 -55.815C569.377 -46.7952 570.246 -46.2072 581.763 -43.462C593.014 -40.7795 594.813 -41.0109 607.61 -46.7735C628.408 -56.1377 633.854 -56.8337 647.36 -51.8467C661.153 -46.7549 668.157 -39.0781 672.061 -24.7722C678.352 -1.72573 658.192 24.0773 634.353 23.4906C616.154 23.042 602.498 12.6422 595.864 -5.82288C587.71 -28.521 573.714 -36.6462 554.811 -29.653C540.789 -24.4654 536.271 -25.0135 525.097 -33.2577C503.497 -49.1932 410.23 -69.9587 389.597 -52.7311C381.165 -45.6901 373.253 -41.2804 363.854 -38.3829C346.333 -32.9857 336.4 -24.5872 330.911 -10.5354C324.411 6.11182 327.616 21.8055 343.854 52.8521C353.534 71.3593 357.61 81.886 359.533 93.346C364.082 120.45 372.415 133.356 386.914 135.76C393.249 136.811 409.412 133.754 415.364 130.381C420.973 127.203 436.891 122.378 440.964 122.624C462.794 123.934 483.976 137.268 490.593 153.866C498.165 172.866 509.77 180.6 520.225 173.617C523.482 171.44 532.696 166.197 540.698 161.966C558.987 152.292 559.165 151.177 546.478 125.801C543.812 120.469 541.612 114.572 541.588 112.698C541.565 110.824 538.044 104.923 533.763 99.583C526.522 90.5505 524.961 89.5678 511.309 85.4581C496.018 80.8539 485.113 81.305 473.58 87.0187C466.415 90.5678 452.351 92.845 443.655 91.8656C435.023 90.8934 413.224 75.7976 408.494 67.5186C403.936 59.5377 401.79 42.6971 403.971 32.034C411.63 -5.39358 457.582 -19.9994 486.082 5.9331C495.419 14.4305 498.229 19.6934 503.266 38.1202C508.875 58.6413 520.849 72.4978 537.346 77.558C544.282 79.6855 548.017 79.3572 557.377 75.7908C572.284 70.1125 579.207 69.4013 589.33 72.5065C605.969 77.6103 615.039 87.5816 617.141 103.084C618.67 114.356 615.194 125.498 607.575 133.745C599.298 142.704 596.34 144.401 583.868 147.328C577.929 148.723 571.626 151.295 569.862 153.047C565.367 157.51 565.445 165.286 570.04 170.819C575.74 177.682 577.399 190.825 573.972 201.994C567.754 222.268 574.332 232.242 598.79 239.618C619.646 245.906 629.204 253.797 633.95 268.649C636.969 278.09 636.91 280.891 633.454 292.157C630.035 303.305 628.456 305.781 621.146 311.459C609.732 320.33 597.652 322.747 584.575 318.78C571.186 314.717 561.053 305.159 557.152 292.907C554.482 284.525 554.721 281.535 559.562 262.665C564.418 243.741 564.627 241.08 561.731 235.058C557.871 227.031 549.905 219.991 541.908 217.538C534.596 215.295 524.604 207.134 520.611 200.144C516.412 192.792 508.947 191.069 500.256 195.443C496.248 197.462 492.679 200.027 492.323 201.146C490.682 206.325 475.66 220.394 466.941 224.917C453.053 232.124 442.208 233.049 426.713 228.351C405.443 221.902 391.72 205.765 387.662 182.429C382.389 152.131 356.817 145.635 326.712 166.95C309.077 179.434 291.906 184.08 268.339 182.745C230.234 180.587 217.341 193.323 226.808 223.771C228.991 230.792 231.074 239.271 231.435 242.612C232.55 252.868 226.281 269.274 215.877 283.325C205.054 297.945 202.955 306.362 207.54 316.761C212.12 327.144 219.354 332.769 233.857 337.218C268.547 347.859 292.135 335.375 307.422 298.282C315.301 279.16 322.654 269.928 335.703 262.769C349.949 254.954 362.796 253.973 379.992 259.39C405.235 267.341 415.401 280.633 420.847 312.812C425.487 340.217 435.349 348.615 452.925 340.131C474.528 329.702 499.319 336.779 510.475 356.562C518.344 370.514 517.646 385.063 508.441 399.098C498.272 414.601 480.647 421.18 463.188 415.992C451.539 412.533 431.914 412.052 422.65 415.003C411.198 418.651 403.212 427.26 396.399 443.295C390.334 457.577 384.828 463.424 373.507 467.607C366.12 470.337 362.997 470.267 352.804 467.14C339.38 463.022 334.208 457.86 330.055 444.435C328.318 438.819 328.535 433.991 330.863 426.399C337.02 406.327 350.861 398.923 374.159 403.241C393.185 406.765 402.54 406.195 413.366 400.851C423.572 395.813 427.763 391.153 430.701 381.574C434.379 369.583 430.381 359.878 420.47 356.742C413.905 354.665 407.727 356.142 389.489 364.143C372.427 371.63 361.108 372.328 345.205 366.879C313.695 356.082 303.908 353.913 293.435 355.411C276.895 357.774 264.423 369.327 258.83 387.464C256.603 394.687 251.785 401.409 245.572 406.59C245.139 406.951 244.703 407.314 244.267 407.677C234.691 415.644 224.529 424.098 220.899 435.934C217.378 447.411 221.132 459.606 224.819 471.584L224.819 471.586C226.147 475.9 227.466 480.187 228.434 484.401C229.767 490.206 229.639 496.429 227.767 502.533C222.078 521.081 202.429 531.506 183.88 525.816C165.332 520.127 154.908 500.478 160.597 481.929C163.124 473.691 168.405 467.055 175.12 462.723L175.721 462.335C185.282 456.169 195.769 449.406 199.091 438.576L201.158 431.839C204.258 421.732 197.458 412.184 190.49 404.233C183.444 396.193 179.296 386.545 179.445 378.532C179.509 374.959 182.184 363.488 185.389 353.04C194.793 322.38 189.942 308.707 165.482 296.954C147.526 288.327 139.482 281.851 133.743 271.402C114.525 236.426 139.902 194.027 180.222 193.74C196.954 193.621 200.045 192.73 207.126 185.984C217.575 176.028 217.198 162.684 205.815 139.643C189.811 107.244 194.405 72.3827 218.132 46.1913C227.814 35.5047 240.799 27.2758 256.528 21.8621C271.367 16.7532 286.015 7.72218 296.661 -2.88103C305.725 -11.9114 306.736 -13.743 309.785 -26.6196C313.632 -42.8777 312.238 -54.3079 304.728 -68.0232C292.749 -89.9045 266.698 -104.644 242.719 -103.104C228.733 -102.208 217.731 -97.8877 202.273 -87.2236C188.299 -77.5846 177.197 -73.9685 162.259 -74.1916C139.547 -74.5294 121.26 -85.4091 107.159 -106.969C97.1746 -122.239 92.5996 -126.156 77.8467 -132.069C58.8164 -139.699 41.5266 -139.861 28.1529 -132.534C12.1333 -123.756 11.2351 -123.114 6.26224 -116.841C3.68583 -113.589 0.601645 -110.331 -0.592884 -109.6C-1.78682 -108.87 -3.19104 -106.88 -3.71259 -105.179C-4.23475 -103.477 -6.95741 -100.762 -9.76368 -99.1426C-12.5694 -97.5255 -15.0442 -95.618 -15.2626 -94.906C-16.4782 -90.943 -45.0086 -82.7644 -57.2321 -82.8771C-66.7805 -82.9629 -83.8082 -88.0726 -97.1886 -94.8665C-103.92 -98.2835 -106.383 -98.6254 -110.969 -96.7774C-116.996 -94.3492 -118.66 -90.7462 -121.154 -74.7366C-122.042 -69.0417 -124.059 -62.2482 -125.636 -59.6372C-130.221 -52.0484 -142.568 -47.4391 -155.342 -48.5456C-169.016 -49.7333 -174.079 -47.8343 -178.197 -39.9825C-180.608 -35.3887 -180.693 -32.0721 -178.573 -25.2026C-177.071 -20.3304 -176.073 -15.5878 -176.357 -14.6628C-176.955 -12.7129 -173.581 -4.83487 -165.689 10.2364C-153.467 33.5799 -126.084 39.2308 -99.7341 23.847C-93.9328 20.4591 -85.6605 16.7646 -81.3527 15.6377C-73.2186 13.5092 -68.275 14.9436 -40.8227 27.3999C-10.6824 41.0733 12.2914 30.6382 35.2655 -7.15833C45.4891 -23.978 50.9741 -29.5311 62.827 -35.069C77.636 -41.9889 90.5126 -42.7047 107.336 -37.5444C124.314 -32.3364 133.572 -24.7241 141.493 -9.46114C149.526 6.02331 150.585 18.1633 145.365 35.0121C139.433 54.1645 131.667 62.705 109.632 74.3101C90.3711 84.4564 81.7043 92.5654 78.6282 103.319C76.2361 111.679 78.0176 116.482 87.6869 127.742C91.4672 132.147 94.3683 136.38 94.1323 137.15C93.8962 137.919 94.7275 140.48 95.9808 142.842C97.4922 145.691 97.2729 151.259 95.3304 159.413C91.8292 174.099 84.4345 182.401 71.1488 186.559C61.9791 189.428 51.504 187.038 30.7871 177.349C13.0545 169.054 1.70689 174.793 -8.28518 197.107C-20.8716 225.217 -51.182 230.128 -75.3643 207.977C-82.5025 201.437 -86.7163 198.958 -91.6381 198.404C-106.275 196.755 -120.698 208.177 -126.174 225.756C-128.564 233.424 -128.492 237.654 -125.826 246.719C-120.513 264.781 -111.097 272.534 -91.7405 274.789C-72.7431 277.003 -66.825 281.085 -57.5393 298.394C-52.1192 308.496 -47.2793 314.711 -42.492 317.716C-26.2295 327.929 1.33978 323.869 15.6065 309.161C32.3181 291.931 52.3931 286.805 75.4535 293.879C87.8223 297.673 91.048 299.54 98.3846 307.144C115.335 324.717 119.591 345.453 110.968 368.465C108.38 375.368 103.869 383.591 100.942 386.735C93.5622 394.659 80.361 402.238 71.1142 403.86C51.3446 407.326 38.9181 416.144 37.7851 427.505C37.4661 430.707 38.667 437.553 40.4521 442.72C47.5625 463.295 45.2732 478.049 33.6039 486.876C25.7759 492.798 11.2042 494.235 2.12167 489.981C1.13716 489.52 0.18991 489.076 -0.721817 488.648L-0.82379 488.6C-16.7087 481.149 -21.8195 478.752 -26.464 479.452C-28.6671 479.783 -30.7653 480.812 -33.8589 482.328L-33.8945 482.346C-34.2723 482.531 -34.6649 482.723 -35.0743 482.923C-44.5475 487.534 -46.045 489.178 -52.6741 502.234C-60.8761 518.39 -68.2137 525.322 -81.7358 529.682C-89.8593 532.303 -92.5667 532.1 -106.515 527.822C-126.253 521.767 -131.102 516.305 -138.662 491.606C-145.409 469.564 -154.04 459.569 -172.465 452.469C-182.941 448.432 -186.838 447.939 -197.762 449.257C-208.331 450.534 -213.117 449.982 -224.125 446.216C-235.511 442.322 -243.49 458.793 -249.857 471.935L-249.857 471.936C-249.857 471.936 -249.857 471.936 -249.857 471.936C-249.857 471.936 -249.857 471.937 -249.857 471.937C-252.768 477.945 -255.342 483.257 -257.749 485.609C-258.416 486.26 -259.226 486.974 -260.142 487.781C-265.473 492.476 -274.376 500.317 -279.286 517.329C-287.075 544.312 -289.887 548.393 -307.638 558.475C-319.245 565.069 -334.245 566.12 -349.585 561.415C-362.52 557.447 -369.474 551.726 -378.106 537.947C-387.802 522.474 -393.526 517.417 -405.641 513.617C-411.619 511.743 -416.962 501.514 -421.599 492.64C-426.174 483.883 -430.06 476.444 -433.186 479.653C-438.322 484.924 -449.25 490.884 -456.122 492.161C-470.025 494.746 -487.348 483.917 -492.397 469.484C-497.184 455.795 -506.181 447.612 -523.356 441.319C-539.908 435.255 -543.854 435.305 -574.458 441.969C-599.269 444.172 -610.776 438.938 -626.043 416.118C-633.42 403.498 -634.305 393.624 -629.469 377.911C-624.524 361.853 -617.051 353.324 -602.309 346.91C-590.86 341.929 -580.131 341.602 -566.404 345.813C-548.613 351.27 -539.215 362.234 -532.7 385.133C-522.919 419.509 -500.701 436.197 -474.482 428.859C-457.095 423.994 -447.655 426.247 -434.642 438.371C-429.026 443.603 -423.771 454.535 -418.645 465.198L-418.645 465.198C-412.08 478.855 -405.727 492.07 -399.102 492.299C-386.583 492.733 -384.966 490.959 -376.361 481.516C-376.123 481.255 -375.88 480.988 -375.631 480.715C-375.216 480.26 -374.785 479.789 -374.336 479.3C-369.249 473.757 -360.788 467.042 -355.535 464.381C-340.484 456.754 -333.345 456.913 -305.353 465.489C-283.89 472.066 -279.826 472.763 -272.873 471.053C-262.553 468.515 -252.897 443.957 -245.854 426.046L-245.854 426.045L-245.853 426.044C-243.43 419.88 -241.316 414.504 -239.591 411.084C-232.097 396.221 -229.425 393.16 -220.131 388.784C-211.709 384.819 -199.236 386.123 -189.976 391.936C-183.445 396.037 -174.193 409.535 -175.343 413.285C-176.515 417.106 -166.242 435.726 -159.824 441.411C-147.219 452.58 -132.638 454.204 -109.726 446.993C-92.1674 441.467 -75.6698 445.081 -62.1876 457.409C-53.8389 465.041 -43.197 467.948 -32.2907 465.572C-22.7015 463.485 -17.1212 458.777 -14.6376 450.681C-12.5584 443.902 -1.95177 434.219 5.32084 432.463C29.0008 426.742 33.077 411.173 16.8271 388.537C13.2612 383.569 7.44796 374.435 3.90894 368.236C-5.17549 352.325 -13.713 345.37 -30.576 340.141C-45.9533 335.373 -60.3454 335.362 -73.3863 340.111C-103.665 351.134 -127.446 330.771 -122.003 298.48C-119.892 285.956 -125.105 274.955 -137.769 265.216C-149.486 256.203 -155.17 254.594 -171.641 255.622C-179.077 256.086 -188.757 255.997 -193.151 255.426C-204.725 253.921 -222.398 258.098 -229.771 264.082C-238.667 271.302 -240.558 279.582 -237.247 296.793C-231.696 325.632 -245.744 347.666 -271.521 350.552C-280.01 351.503 -283.873 350.658 -302.022 343.884C-321.812 336.499 -323.186 336.248 -330.836 338.626C-340.603 341.662 -352.351 350.802 -358.587 360.215C-374.535 384.286 -385.374 393.807 -402.5 398.786C-418.735 403.505 -426.449 403.44 -442.735 398.444C-454.76 394.756 -458.101 392.751 -468.105 383.213C-489.234 363.071 -493.751 343.735 -485.189 310.08C-475.291 271.171 -477.998 263.069 -504.791 251.447C-515.4 246.845 -519.86 243.751 -523.784 238.272C-533.792 224.299 -533.159 210.179 -521.792 193.872C-507.627 173.551 -507.237 161.848 -520.292 149.064C-527.671 141.837 -551.065 125.576 -556.944 123.584C-568.633 119.627 -581.955 130.249 -587.354 147.83C-590.878 159.305 -598.666 167.507 -609.059 170.688C-616.082 172.836 -618.62 172.559 -627.984 168.616C-642.621 162.455 -649.855 163.908 -659.871 175.024C-673.865 190.555 -678.855 219.315 -669.947 233.1C-663.035 243.799 -655.42 246.478 -639.04 243.972C-615.223 240.33 -597.231 249.532 -591.528 268.272C-582.928 296.539 -613.084 323.935 -639.816 312.141C-653.156 306.256 -658.705 298.607 -663.13 280.005C-668.247 258.492 -674.059 251.899 -693.03 246.08C-703.608 242.835 -709.622 242.255 -720.158 243.464C-730.986 244.705 -736.572 244.124 -748.074 240.558C-772.674 232.932 -787.369 215.663 -790.482 190.716C-791.964 178.846 -791.535 175.607 -786.81 162.947C-780.646 146.438 -773.117 137.591 -758.294 129.439C-737.068 117.768 -713.293 121.107 -688.249 139.275C-671.673 151.304 -663.016 153.241 -651.991 147.39C-646.629 144.548 -644.279 141.766 -642.583 136.258C-640.019 127.926 -631.748 119.716 -623.504 117.326C-620.434 116.434 -612.707 116.421 -606.33 117.296C-591.34 119.351 -584.864 117.316 -576.807 108.019C-571.703 102.131 -569.809 98.0925 -568.27 89.8171C-567.184 83.9688 -565.382 74.2977 -564.266 68.3242C-559.833 44.5693 -537.444 24.6153 -511.093 20.9334C-483.153 17.0291 -454.562 34.1225 -445.225 60.3079C-434.788 89.5876 -443.026 114.909 -470.033 136.565C-480.927 145.301 -483.452 148.459 -486.88 157.644C-491.932 171.176 -490.97 173.812 -475.613 188.495C-461.572 201.918 -458.782 210.47 -462.303 229.287C-463.545 235.923 -464.051 244.16 -463.428 247.589C-460.93 261.346 -448.375 268.406 -427.286 267.914C-404.498 267.38 -381.653 278.052 -367.024 296.061C-354.315 311.705 -334.607 319.056 -325.546 311.53C-323.09 309.491 -318.589 302.261 -315.545 295.464C-307.968 278.54 -298.692 271.512 -279.992 268.519C-263.421 265.869 -255.855 261.656 -249.502 251.535C-243.387 241.798 -241.824 229.968 -243.568 206.589C-244.87 189.112 -244.496 185.903 -239.558 172.124C-233.104 154.114 -226.613 146.363 -211.075 138.106C-197.546 130.918 -183.584 129.143 -167.881 132.614C-152.496 136.014 -141.568 143.589 -128.052 160.217C-116.33 174.641 -108.851 177.949 -94.8715 174.897C-87.4718 173.28 -84.6931 171.279 -79.259 163.646C-70.6213 151.518 -63.291 146.075 -53.3151 144.383C-40.8133 142.261 -31.7932 144.035 -22.1752 150.506C0.0833257 165.478 19.2815 162.122 25.3954 142.19C28.5166 132.015 36.9706 122.751 47.6585 117.801C60.7854 111.717 65.4123 102.472 62.1473 88.8426C56.0684 63.4612 38.3725 48.8721 12.0562 47.5463C-10.5645 46.4049 -28.4435 55.2283 -39.2068 72.842C-48.5566 88.1407 -69.2241 97.1081 -84.5622 92.521C-93.5114 89.8452 -105.002 80.6092 -109.613 72.3857C-118.033 57.3748 -135.085 48.6209 -154.733 49.2271C-166.517 49.5895 -185.921 58.8623 -195.42 68.6689C-204.677 78.2303 -225.547 88.324 -241.142 90.7843C-249.01 92.0244 -260.564 91.9133 -269.287 90.5103C-286.567 87.7295 -299.494 88.9107 -308.322 94.0765C-318.084 99.7856 -321.703 114.035 -318.074 132.454C-315.741 144.289 -315.876 148.609 -318.858 157.674C-327.073 182.644 -351.366 195.503 -376.033 187.937C-406.023 178.737 -418.339 143.899 -400.679 118.217C-391.615 105.033 -378.961 98.4873 -361.576 97.9871C-346.412 97.5489 -340.133 95.3971 -333.109 88.2226C-322.903 77.7995 -321.889 59.0432 -330.203 34.4796C-337.972 11.5278 -333.063 -17.8155 -318.201 -37.2857C-310.146 -47.8353 -304.862 -52.5074 -289.481 -62.6762C-284.113 -66.2264 -275.449 -73.0176 -270.231 -77.7687C-262.252 -85.0324 -260.106 -88.3949 -256.73 -98.9078C-253.112 -110.174 -253.082 -112.346 -256.429 -120.917C-262.872 -137.423 -280.416 -150.866 -295.111 -150.554C-304.968 -150.346 -310.861 -144.324 -315.267 -129.961C-318.217 -120.342 -319.81 -118.051 -326.705 -113.495C-332.411 -109.725 -336.863 -108.5 -342.185 -109.234C-353.3 -110.764 -358.618 -109.861 -363.794 -105.561C-370.964 -99.607 -372.996 -89.486 -370.059 -74.3764C-364.854 -47.6106 -375.853 -23.7093 -399.04 -11.4098C-431.837 5.99015 -469.946 -10.598 -480.741 -46.9733C-484.483 -59.5813 -484.438 -60.7412 -479.602 -76.6498C-475.356 -90.6247 -473.189 -94.779 -465.704 -103.322C-458.184 -111.902 -456.873 -114.429 -457.081 -119.931C-457.369 -127.57 -459.599 -129.678 -472.929 -134.913C-491.464 -142.194 -503.153 -160.889 -498.55 -175.895C-497.701 -178.66 -498.918 -184.352 -501.452 -189.488C-505.14 -196.96 -507.088 -198.715 -514.072 -200.857C-518.614 -202.25 -524.085 -202.568 -526.233 -201.564C-528.378 -200.559 -536.008 -200.566 -543.189 -201.579C-553.753 -203.07 -557.597 -202.613 -563.318 -199.194C-572.998 -193.41 -575.725 -183.903 -571.58 -170.403C-567.528 -157.211 -567.887 -146.176 -572.878 -130.405C-577.219 -116.686 -583.086 -108.701 -598.442 -95.618C-615.554 -81.0393 -613.981 -65.4409 -594.492 -56.4563C-580.342 -49.9323 -573.825 -44.8111 -569.142 -36.5379C-559.49 -19.4842 -564.348 4.58129 -579.915 16.8119C-594.967 28.6397 -614.698 28.221 -633.347 15.6724C-642.962 9.20412 -652.023 8.28304 -659.58 13.0074C-664.942 16.358 -666.621 19.889 -671.106 37.2343C-675.314 53.5012 -682.248 63.1474 -695.427 71.063C-736.982 96.0208 -788.079 56.8748 -774.13 10.769C-763.555 -24.1853 -720.227 -38.5881 -691.179 -16.8044C-687.423 -13.9894 -679.971 -10.3263 -674.618 -8.66741C-666.871 -6.26612 -663.744 -6.30223 -659.289 -8.84744C-652.853 -12.5236 -646.862 -20.9934 -643.847 -30.6784C-642.696 -34.3757 -639.229 -40.848 -636.14 -45.0594C-627.042 -57.4686 -627.863 -68.6072 -638.653 -79.1231C-640.51 -80.9318 -648.874 -85.4879 -657.241 -89.249C-681.365 -100.09 -694.463 -115.931 -699.419 -140.261C-701.572 -150.828 -701.286 -154.467 -697.246 -167.806C-690.877 -188.838 -681.034 -201.131 -663.501 -209.948C-648.548 -217.468 -634.46 -217.936 -608.743 -211.767C-583.571 -205.728 -570.487 -211.848 -569.83 -229.968C-569.173 -248.066 -563.729 -258.188 -551.161 -264.674C-527.498 -276.884 -500.754 -258.684 -501.458 -230.848C-501.634 -223.887 -500.283 -216.656 -498.134 -213.045C-495.003 -207.789 -493.175 -206.724 -484.603 -205.166C-479.152 -204.176 -473.953 -204.003 -473.048 -204.784C-472.145 -205.565 -467.492 -206.174 -462.712 -206.138C-449.952 -206.041 -438.129 -199.735 -431.962 -189.735C-423.024 -175.241 -424.243 -162.074 -436.214 -143.823L-438.782 -139.908C-441.126 -136.334 -441.167 -131.721 -438.887 -128.107C-435.387 -122.56 -433.903 -121.867 -416.156 -117.488C-396.254 -112.576 -381.808 -112.002 -375.917 -115.887C-373.574 -117.432 -370.649 -123.962 -367.069 -135.636C-362.643 -150.064 -360.782 -153.77 -356.287 -157.095C-349.646 -162.008 -347.513 -162.26 -332.433 -159.926C-318.736 -157.805 -310.707 -159.987 -303.217 -167.86C-291.778 -179.887 -291.711 -199.528 -303.07 -210.651C-309.705 -217.148 -312.584 -217.618 -326.524 -214.471C-345.068 -210.283 -356.203 -217.257 -357.861 -234.099C-359.446 -250.186 -375.026 -257.367 -400.343 -253.681C-413.613 -251.746 -417.459 -252.067 -430.865 -256.226C-449.948 -262.146 -460.465 -270.724 -469.149 -287.454C-485.906 -319.733 -474.351 -358 -442.613 -375.349C-424.954 -385.002 -409.678 -385.846 -389.221 -378.299C-375.71 -373.315 -372.555 -371.19 -359.071 -357.992C-345.756 -344.961 -342.317 -342.623 -329.41 -337.833C-307.996 -329.883 -296.801 -333.243 -285.163 -351.112C-280.304 -358.576 -274.319 -362.596 -262.777 -366.149C-255.232 -368.471 -251.93 -368.214 -239.203 -364.31C-225.421 -360.083 -223.872 -360.036 -216.721 -363.625C-202.705 -370.658 -198.771 -386.303 -207.907 -398.664C-213.449 -406.159 -229.606 -418.063 -237.51 -420.47C-251.122 -424.62 -259.638 -423.004 -277.848 -412.821C-296.241 -402.534 -303.356 -400.786 -313.796 -403.988C-327.913 -408.318 -337.492 -426.923 -333.054 -441.391C-328.668 -455.692 -310.25 -465.904 -296.493 -461.664C-293.311 -460.681 -285.318 -455.888 -278.73 -451.01C-265.105 -440.92 -254.293 -436.986 -238.565 -436.397C-217.549 -435.609 -203.323 -441.215 -182.137 -458.632C-169.85 -468.732 -163.982 -471.354 -148.147 -473.82C-113.501 -479.216 -79.878 -454.828 -73.6607 -419.794C-70.738 -403.324 -76.4906 -381.045 -87.2647 -367.113C-95.4962 -356.467 -118.657 -342.032 -124.589 -343.852C-126.242 -344.359 -127.816 -344.046 -128.088 -343.157C-129.155 -339.681 -145.811 -341.962 -167.142 -348.505L-183.908 -353.648C-187.502 -354.751 -191.379 -354.463 -194.771 -352.843L-198.687 -350.973L-201.725 -349.521C-205.634 -347.653 -208.544 -344.187 -209.707 -340.014L-213.313 -327.073C-217.841 -310.825 -219.76 -306.521 -224.793 -301.323C-233.278 -292.562 -243.694 -288.718 -256.268 -289.705C-266.118 -290.478 -268.164 -291.366 -279.776 -299.908C-286.772 -305.056 -296.021 -310.327 -300.329 -311.623C-317.451 -316.774 -336.032 -309.38 -349.294 -292.136C-366.606 -269.629 -361.289 -254.632 -336.432 -255.86C-327.456 -256.304 -321.882 -252.638 -314.654 -241.539C-304.627 -226.14 -290.283 -224.705 -261.849 -236.258C-241.466 -244.54 -237.121 -244.847 -218.735 -239.308C-199.983 -233.659 -190.955 -226.51 -183.651 -211.522C-176.23 -196.294 -175.53 -186.159 -180.71 -168.943C-186.039 -151.235 -190.029 -146.124 -207.651 -134.421C-222.22 -124.746 -231.811 -111.537 -232.117 -100.723C-232.703 -79.9454 -211.937 -53.9476 -195.26 -54.5792C-183.307 -55.0302 -178.604 -61.3525 -178.503 -77.1069C-178.383 -95.1863 -162.577 -108.161 -144.014 -105.415C-125.604 -102.69 -120.448 -112.168 -125.307 -139.808C-127.241 -150.816 -127.593 -161.147 -126.28 -168.297C-122.079 -191.143 -105.247 -210.983 -80.8748 -221.817C-50.7405 -235.21 -43.9401 -252.746 -58.5005 -279.522C-62.6322 -287.122 -66.7289 -297.273 -67.6023 -302.078C-73.4414 -334.225 -42.8407 -360.577 -10.8842 -350.922C3.48022 -346.583 7.06998 -342.994 17.7533 -322.294C23.0143 -312.098 29.3177 -302.549 31.7605 -301.073C37.6185 -297.534 46.5237 -299.314 58.8645 -306.498C71.9668 -314.124 79.76 -314.648 97.2021 -309.075C108.454 -305.479 112.868 -304.942 117.516 -306.596C126.677 -309.859 132.388 -316.143 135.545 -326.435C138.138 -334.889 137.875 -336.893 132.923 -346.338C125.805 -359.919 120.63 -361.596 105.369 -355.271C90.5098 -349.112 80.0466 -350.349 69.4669 -359.518C61.1267 -366.746 58.2334 -374.023 59.0856 -385.625C60.8105 -409.114 85.1244 -421.352 106.216 -409.345C113.886 -404.979 122.552 -393.602 121.305 -389.538C120.397 -386.575 126.526 -378.11 130.455 -376.905C137.592 -374.715 147.169 -378.268 159.427 -387.652ZM-190.358 552.815C-195.885 570.834 -214.972 580.96 -232.991 575.433C-251.009 569.906 -261.136 550.819 -255.609 532.8C-254.245 528.356 -252.057 524.391 -249.263 521.024C-239.984 509.839 -227.564 498.239 -227.426 483.707L-227.224 462.405C-227.182 457.97 -223.554 454.41 -219.119 454.452C-214.685 454.494 -211.124 458.122 -211.166 462.557L-211.4 487.238C-211.532 501.227 -201.078 513.129 -193.818 525.088C-188.941 533.122 -187.385 543.123 -190.358 552.815Z" fill="url(#paint0_linear_2_245)"/>
<defs>
<linearGradient id="paint0_linear_2_245" x1="408.208" y1="-78.5807" x2="-869.503" y2="118.195" gradientUnits="userSpaceOnUse">
<stop stop-color="#D7C0F5"/>
<stop offset="0.5" stop-color="#6C4CDC"/>
<stop offset="1" stop-color="#D7C0F5"/>
</linearGradient>
</defs>
</svg>

