
<svg width="1039" height="1337" viewBox="0 0 1039 1337" fill="none" xmlns="http://www.w3.org/2000/svg">
<path opacity="0.4" d="M811.436 1021.45C815.512 1036.24 815.533 1048.71 811.5 1060.56C807.622 1071.95 791.564 1089.29 780.204 1094.35C761.164 1102.84 741.091 1101.16 722.399 1089.52C698.351 1074.53 687.743 1078.02 682.614 1102.57C678.128 1124.05 663.641 1136.95 643.108 1137.74C626.479 1138.38 607.55 1125.14 602.614 1109.41C591.859 1075.14 625.962 1044.69 659.333 1058.77C665.479 1061.36 672.813 1062.82 677.34 1062.35C684.133 1061.64 685.52 1060.74 689.823 1054.19C692.706 1049.81 695.338 1042.24 696.325 1035.49C698.543 1020.35 703.398 1010.41 713.513 1000.3C736.996 976.85 739.795 973.459 741.027 966.976C742.782 957.737 739.116 947.791 730.87 939.406C720.785 929.154 717.545 921.227 719.152 910.739C721.455 895.705 731.242 887.327 748.954 885.226C754.148 884.611 760.437 882.484 762.93 880.499C769.061 875.615 771.488 864.797 769.053 853.194C767.991 848.126 766.404 837.186 765.531 828.883C764.112 815.388 763.311 813.275 757.968 808.936C749.624 802.161 738.431 802.889 723.048 811.209C716.468 814.768 706.665 818.653 701.265 819.843C669.565 826.822 645.65 854.326 643.13 886.702C642.769 891.339 644.879 902.429 647.817 911.346C657.242 939.937 655.264 956.543 640.234 975.021C628.983 988.856 617.941 994.054 592.698 997.402C567.53 1000.74 558.498 1005.26 545.87 1020.83C533.11 1036.57 530.526 1046.99 534.084 1068.36C536.484 1082.79 535.285 1094.23 529.685 1110.37C526.88 1118.45 530.055 1131.83 536.521 1139.16C543.413 1146.98 552.159 1150.57 567.161 1151.76C577.87 1152.61 580.873 1153.72 589.592 1160.06C602.035 1169.11 607.365 1180.03 606.377 1194.45C605.492 1207.36 595.762 1221.55 584.323 1226.62C575.352 1230.59 563.381 1231.23 553.834 1228.24C540.875 1224.19 537.101 1223.62 527.482 1224.26C511.925 1225.29 502.536 1231.94 492.617 1248.95C484.592 1262.72 471.007 1266.39 457.848 1258.34C446.538 1251.43 443.328 1234.28 451.464 1224.23C458.877 1215.08 471.059 1212.46 481.994 1217.67C500.561 1226.51 521.399 1212.53 527.468 1187.15C536.435 1149.66 519.274 1131.15 477.175 1132.9C464.846 1133.41 455.187 1138.05 451.935 1145.03C450.865 1147.33 405.68 1213.76 406.211 1221.93C407.644 1243.99 403.596 1250.08 385.14 1253.69C375.333 1255.6 374.524 1256.14 368.151 1265.1C361.925 1273.85 361.498 1275.48 362.002 1288.5C362.82 1309.66 361.523 1314.59 352.528 1324.48C343.343 1334.57 334.297 1337.93 320.626 1336.31C298.6 1333.7 283.411 1307.36 292.217 1287.05C298.939 1271.54 312.645 1263.41 330.847 1264.13C353.221 1265.01 365.088 1255.8 365.651 1237.09C366.068 1223.22 368.113 1219.52 379.099 1212.77C400.335 1199.73 450.682 1126.69 443.039 1102.93C439.914 1093.23 438.874 1084.88 439.653 1075.78C441.108 1058.82 437.339 1047.35 427.155 1037.73C415.091 1026.34 400.468 1023.64 368.093 1026.8C348.794 1028.69 338.315 1028.53 327.782 1026.2C302.871 1020.68 288.862 1023.35 281.745 1035C278.634 1040.08 275.638 1055.06 276.468 1061.35C277.251 1067.29 275.861 1082.67 274.231 1086.09C265.502 1104.42 246.651 1118.01 230.062 1117.92C211.072 1117.83 200.375 1125.12 202.745 1136.55C203.485 1140.11 204.79 1149.87 205.645 1158.23C207.603 1177.34 208.501 1177.88 234.758 1175.8C240.276 1175.36 246.117 1175.52 247.738 1176.15C249.359 1176.78 255.663 1175.8 261.75 1173.98C272.045 1170.89 273.435 1169.89 281.725 1159.57C291.012 1148.02 294.421 1138.47 293.519 1126.56C292.959 1119.15 295.896 1106.26 299.767 1099.11C303.609 1092.02 324.191 1078.52 332.964 1077.33C341.42 1076.19 356.661 1080.2 365.079 1085.79C394.625 1105.42 391.196 1150.05 358.953 1165.55C348.389 1170.63 342.881 1171.21 325.268 1169.13C305.653 1166.82 289.558 1172.3 279.459 1184.73C275.213 1189.96 274.195 1193.29 274.005 1202.59C273.702 1217.4 271.904 1223.6 265.706 1231.23C255.52 1243.78 243.78 1248.11 229.706 1244.52C219.472 1241.91 211.093 1235.04 206.648 1225.61C201.819 1215.37 201.389 1212.23 203.212 1200.48C204.079 1194.88 204.06 1188.56 203.166 1186.43C200.89 1181.01 194.171 1178.37 187.808 1180.4C179.917 1182.92 168.028 1179.77 159.608 1172.93C144.324 1160.52 133.45 1162.71 118.585 1181.19C105.912 1196.95 95.7917 1202.43 81.3567 1201.34C72.1804 1200.65 69.7897 1199.63 61.2972 1192.73C52.8928 1185.91 51.311 1183.68 48.9695 1175.42C45.3091 1162.5 47.4346 1151.27 55.4027 1141.39C63.5612 1131.28 75.3157 1125.89 87.2188 1126.8C95.3626 1127.42 97.8529 1128.67 112.408 1139.4C127.004 1150.17 129.222 1151.28 135.413 1150.88C143.666 1150.35 152.498 1145.95 157.394 1139.92C161.87 1134.41 172.373 1128.65 179.78 1127.65C187.57 1126.59 191.652 1120.77 190.913 1111.76C190.571 1107.61 189.606 1103.65 188.767 1102.95C184.881 1099.74 178.002 1081.91 177.146 1072.83C175.778 1058.37 178.758 1048.71 188.197 1037.01C201.153 1020.95 219.82 1014.76 241.318 1019.39C269.229 1025.4 283.724 1005.65 275.862 972.322C271.257 952.797 273.237 936.401 282.592 916.583C297.717 884.538 291.245 869.007 261.743 866.554C254.94 865.987 246.917 864.828 243.916 863.976C234.701 861.364 222.764 850.256 214.292 836.41C205.478 822.004 198.965 817.267 188.418 817.593C177.887 817.919 170.527 822.187 161.648 833.12C140.411 859.272 142.943 883.919 169.544 909.992C183.259 923.431 188.645 932.974 190.263 946.698C192.029 961.68 188.4 973.078 177.75 985.992C162.117 1004.95 147.139 1009.07 117.546 1002.55C92.3445 997.005 81.6822 1002.57 82.8646 1020.65C84.319 1042.87 69.5958 1061.75 48.6851 1064.46C33.9373 1066.38 21.6585 1060.71 12.7845 1047.9C2.98184 1033.75 3.45633 1016.29 14.0002 1003.07C21.0335 994.248 28.2806 977.525 28.9661 968.524C29.8142 957.398 25.1851 947.526 13.7563 936.08C3.57572 925.887 0.46052 919.113 0.802553 907.912C1.02512 900.605 2.17306 897.94 8.41275 890.257C16.6309 880.136 22.8744 877.483 35.8747 878.583C41.3135 879.043 45.3932 880.911 51.1167 885.559C66.2485 897.846 67.8017 912.336 55.9728 930.885C46.3152 946.033 43.5485 954.283 44.3794 965.461C45.161 975.999 47.7133 981.229 54.9341 987.093C63.9736 994.433 73.7186 994.371 79.8686 986.934C83.9418 982.007 84.8221 976.175 84.2856 957.692C83.7828 940.401 87.1234 930.416 97.3505 918.626C117.614 895.266 122.888 887.597 125.246 878.062C128.971 863.004 123.37 848.247 109.707 837.119C99.2747 828.62 93.7437 812.569 96.489 798.76C98.3499 789.403 110.262 775.529 119.07 772.461C128.443 769.197 138.191 768.986 145.036 771.904C148.089 773.204 157.03 779.5 164.907 785.896C188.02 804.665 201.477 805.25 220.109 788.291C233.787 775.841 242.161 771.172 253.152 769.871C289.946 765.509 317.602 802.112 303.81 836.915C298.087 851.357 297.778 854.327 301.118 862.771C306.048 875.23 317.664 879.552 341.459 877.778C374.915 875.284 403.32 891.376 417.601 920.917C423.427 932.971 425.988 947.012 425.171 962.434C424.402 976.984 427.074 992.736 432.493 1005.59C437.109 1016.54 438.333 1018.04 448.354 1025.15C461.008 1034.12 471.331 1036.9 485.75 1035.22C508.754 1032.52 530.51 1015.23 537.534 994.061C541.632 981.712 541.745 970.738 537.949 953.721C534.518 938.338 535.271 927.524 540.664 914.745C548.863 895.315 564.594 883.363 588.06 878.734C604.679 875.458 609.643 872.884 619.869 862.245C633.062 848.523 639.221 833.699 637.572 819.638C635.594 802.794 635.354 801.797 631.687 795.333C629.785 791.983 628.056 788.194 627.842 786.912C627.629 785.63 626.405 783.728 625.123 782.687C623.84 781.645 622.451 778.357 622.035 775.378C621.62 772.4 620.84 769.606 620.303 769.17C617.316 766.744 620.21 739.341 624.563 728.86C627.962 720.672 638.288 707.795 648.795 698.645C654.079 694.041 655.231 692.04 655.237 687.45C655.246 681.417 652.724 678.731 639.814 671.01C635.222 668.263 630.077 664.162 628.379 661.894C623.444 655.306 623.776 643.074 629.176 632.466C634.959 621.111 635.088 616.092 629.764 609.814C626.649 606.14 623.824 604.912 617.174 604.344C612.458 603.94 608.028 603.148 607.331 602.581C605.861 601.388 597.906 601.549 582.187 603.093C557.84 605.484 543.442 627.085 547.508 655.12C548.404 661.292 548.703 669.698 548.173 673.798C547.173 681.54 544.217 685.296 523.938 704.586C501.675 725.766 502.657 749.172 527.188 782.105C538.105 796.761 540.974 803.415 541.614 815.545C542.413 830.7 538.546 842.031 528.247 854.714C517.853 867.513 508.078 872.83 492.184 874.333C476.06 875.856 465.242 872.541 452.559 862.181C438.14 850.407 433.494 840.75 431.178 817.744C429.152 797.634 425.19 787.351 417.006 780.959C410.643 775.99 405.89 775.851 392.832 780.252C387.724 781.972 383.071 782.995 382.491 782.524C381.911 782.053 379.417 781.877 376.948 782.133C373.97 782.442 369.253 780.314 362.912 775.803C351.491 767.676 346.921 758.422 347.968 745.539C348.692 736.648 354.396 728.465 369.948 714.008C383.262 701.634 382.273 689.87 366.547 673.5C346.737 652.88 353.063 625.083 380.548 611.983C388.662 608.116 392.263 605.353 394.454 601.31C400.969 589.286 396.16 572.896 382.937 562.062C377.17 557.336 373.504 555.925 364.774 555.063C347.379 553.346 337.427 558.751 328.747 574.625C320.227 590.205 314.653 593.877 296.522 595.842C285.941 596.99 278.907 598.991 274.653 602.065C260.201 612.506 254.096 637.648 261.788 655.048C270.798 675.43 268.22 694.493 254.103 711.877C246.531 721.202 243.801 723.328 234.701 726.994C213.675 735.464 194.346 731.907 177.543 716.473C172.502 711.842 166.996 705.097 165.309 701.483C161.059 692.372 159.132 678.372 160.957 669.849C164.857 651.627 161.594 637.861 152.211 632.931C149.565 631.541 143.255 630.191 138.186 629.928C118.003 628.884 106.102 621.777 102.567 608.659C100.196 599.86 104.033 586.819 110.856 580.483C131.449 561.365 130.681 562.557 129.883 550.927C129.212 541.168 128.318 539.307 119.39 529.056C108.341 516.371 104.93 507.642 105.885 494.486C106.458 486.582 107.575 484.322 116.114 473.807C128.198 458.927 134.587 456.656 158.477 458.749C179.797 460.617 191.405 456.668 203.931 443.283C211.052 435.672 212.834 432.49 215.503 422.629C218.084 413.088 220.226 409.161 227.299 400.998C237.961 388.694 208.882 367.557 205.103 358.342C202.862 352.883 200.456 340.656 185.301 328.762C164.79 312.663 162.257 308.822 159.76 290.034C158.126 277.748 162.444 264.472 171.835 252.908C179.753 243.157 187.099 239.164 201.963 236.531C218.657 233.575 225.002 230.408 232.491 221.305C239.831 212.38 274.682 217.09 271.314 209.424C268.565 203.168 267.24 191.687 268.534 185.328C271.15 172.462 286.502 161.324 300.682 162.004C314.13 162.649 324.306 157.755 335.702 145.165C346.684 133.03 348.016 129.617 352.935 100.956C359.679 78.8356 368.19 70.7543 393.146 65.5596C406.576 63.6048 415.382 66.2806 427.222 75.9143C439.321 85.761 444.06 95.1627 444.447 110.084C444.748 121.672 441.294 131.02 432.89 141.369C421.999 154.78 409.289 159.052 387.313 156.686C354.321 153.135 332.222 166.446 329.409 191.567C327.542 208.225 322.316 215.565 307.35 222.544C292.621 229.413 253.02 224.344 248.562 234.355C243.48 245.762 244.966 247.238 251.127 260.196C254.126 266.505 256.959 276.125 257.421 281.573C258.744 297.183 256.121 303.271 238.994 324.377C225.86 340.56 223.846 343.814 222.896 350.394C221.002 363.521 253.771 389.47 262.922 399.92C273.104 411.544 274.808 414.909 275.339 424.432C275.819 433.062 270.354 443.343 262.127 449.288C256.322 453.482 241.484 456.745 238.657 454.449C235.776 452.11 216.174 454.469 209.046 458.013C195.044 464.973 188.571 476.956 186.798 499.187C185.441 516.223 176.587 529.164 161.282 536.475C151.806 541.003 145.599 549.15 143.847 559.364C142.304 568.344 144.413 574.786 150.517 579.742C155.627 583.892 160.267 596.392 159.247 603.263C155.926 625.636 167.906 634.565 193.046 628.461C198.564 627.121 208.449 625.298 215.016 624.411C231.874 622.132 240.832 617.206 251.204 604.513C260.661 592.938 265.682 580.555 266.135 567.678C267.191 537.78 292.997 524.402 318.894 540.33C328.938 546.508 340.222 545.852 353.013 538.343C364.85 531.397 368.214 527.065 373.063 512.531C375.254 505.97 378.7 497.669 380.721 494.086C386.047 484.649 388.606 467.984 386.022 459.555C382.906 449.385 376.438 444.874 360.472 441.731C333.718 436.468 319.646 416.705 326.137 393.514C328.275 385.877 330.347 382.847 342.496 369.585C355.743 355.124 356.437 354.029 357.054 346.617C357.841 337.153 354.066 323.86 348.136 315.215C332.971 293.108 328.55 280.464 330.228 263.991C331.82 248.374 334.562 241.758 344.532 229.481C351.893 220.415 354.782 218.238 366.475 212.949C391.167 201.777 409.381 204.622 435.366 223.709C465.408 245.776 473.323 246.266 492.655 227.253C500.31 219.725 504.525 216.964 510.607 215.494C526.118 211.746 538.05 217.207 548.128 232.668C560.684 251.935 570.622 256.346 586.169 249.56C594.959 245.726 617.1 231.254 620.861 226.887C628.337 218.205 623.833 203.041 610.582 192.272C601.932 185.243 597.585 175.685 598.466 165.632C599.063 158.84 600.184 156.752 606.839 150.065C617.238 139.613 618.506 132.881 612.426 120.391C603.932 102.939 580.916 88.6304 565.951 91.4969C554.335 93.7205 549.379 99.3422 545.832 114.312C540.674 136.079 526.489 148.36 508.374 146.744C481.052 144.303 467.973 108.809 487.431 89.9091C497.141 80.4769 505.656 78.3642 523.207 81.0327C543.504 84.1186 551.202 81.4123 562.816 67.111C569.292 59.1363 571.885 54.1625 574.513 44.6738C577.215 34.9217 579.66 30.317 586.735 21.659C601.863 3.14145 621.842 -3.49247 644.397 2.51397C655.13 5.37158 657.768 6.86807 667.019 15.3433C679.081 26.3968 684.074 35.9564 685.929 51.5531C688.583 73.8849 677.431 93.1851 653.075 108.413C636.951 118.492 632.269 125.268 633.466 136.794C634.046 142.398 635.621 145.39 639.771 148.767C646.05 153.875 650.236 163.852 649.423 171.78C649.121 174.733 646.442 181.388 643.469 186.572C636.481 198.757 635.977 205.039 641.174 215.211C644.464 221.654 647.28 224.691 653.867 228.896C658.522 231.868 666.218 236.785 670.971 239.826C689.873 251.912 699.251 278.13 693.245 302.091C686.877 327.497 662.21 346.153 636.422 345.072C607.588 343.86 588.663 327.953 579.428 297.169C575.702 284.751 573.863 281.478 567.152 275.33C557.264 266.27 554.66 266.18 536.676 274.285C520.234 281.696 511.903 281.12 496.934 271.538C491.655 268.158 484.742 264.854 481.573 264.197C468.864 261.556 458.416 269.904 451.496 288.226C444.021 308.025 426.882 323.971 406.288 330.291C388.399 335.782 375.21 350.185 378.532 360.604C379.432 363.428 384.088 369.819 388.878 374.806C400.806 387.219 403.625 397.649 399.689 414.786C396.2 429.971 397.192 437.95 403.691 446.942C409.943 455.596 419.58 461.059 440.309 467.699C455.803 472.663 458.436 474.102 468.576 483.15C481.829 494.976 486.24 503.261 487.936 519.509C489.412 533.656 486.079 546.29 477.624 558.597C469.34 570.655 459.016 577.423 439.999 583.265C423.503 588.332 418.052 593.617 415.811 606.712C414.626 613.643 415.381 616.732 420.058 624.066C427.489 635.723 429.621 643.927 427.604 653.102C425.078 664.601 420.41 671.747 411.492 677.771C390.855 691.715 387.059 709.407 402.086 721.609C409.756 727.839 414.786 738.34 415.325 749.263C415.991 762.679 422.337 769.88 435.204 771.815C459.165 775.421 477.883 765.27 488.187 743.082C497.046 724.011 495.677 705.551 484.265 690.154C474.353 676.78 473.831 655.87 483.12 644.266C488.539 637.496 500.489 630.822 509.172 629.717C525.023 627.697 538.495 616.068 544.814 598.947C548.605 588.679 547.381 568.749 542.248 557.16C537.242 545.864 535.821 524.387 539.133 510.108C540.806 502.904 544.924 492.999 549.169 485.98C557.579 472.076 561.063 460.539 559.691 451.142C558.176 440.753 547.172 432.676 530.056 429.386C519.058 427.273 515.386 425.653 508.623 419.93C489.993 404.165 487.384 378.78 502.484 360.185C520.844 337.576 555.117 339.106 571.071 363.248C579.262 375.64 580.49 388.809 574.867 403.947C569.965 417.151 569.63 423.304 573.36 431.847C578.777 444.26 594.567 451.664 618.603 453.061C641.062 454.366 664.607 468.807 676.19 488.378C682.465 498.983 684.646 505.158 688.043 521.937C689.229 527.793 692.058 537.614 694.33 543.759C697.803 553.156 699.95 556.174 707.823 562.74C716.26 569.776 718.119 570.558 726.661 570.662C743.111 570.864 760.788 560.445 765.637 547.689C768.89 539.133 765.759 531.964 754.931 523.172C747.68 517.283 746.262 515.114 744.742 507.594C743.484 501.37 743.979 497.112 746.464 492.787C751.651 483.754 752.725 478.862 750.827 472.91C748.199 464.666 740.196 459.393 726.169 456.66C701.32 451.82 684.579 434.031 682.066 409.793C678.51 375.507 706.056 348.483 741.122 351.858C753.276 353.027 754.259 353.47 766.267 363.171C776.816 371.692 779.637 375.003 784.383 384.42C789.15 393.88 790.868 395.887 795.676 397.624C802.351 400.036 804.941 398.85 814.088 389.201C826.808 375.784 846.968 372.233 858.281 381.419C860.366 383.112 865.688 384.047 870.991 383.654C878.706 383.082 880.894 382.016 885.17 376.751C887.95 373.327 890.129 368.729 890.012 366.531C889.894 364.334 892.557 357.77 895.929 351.942C900.891 343.369 901.836 339.902 900.885 333.788C899.277 323.443 892.045 317.785 878.983 316.652C866.217 315.546 856.845 311.395 845.009 301.608C834.713 293.096 829.884 285.265 823.97 267.494C817.381 247.69 803.408 243.613 788.89 257.258C778.348 267.165 771.671 270.991 762.92 272.141C744.882 274.51 725.861 261.949 720.755 244.293C715.816 227.22 723.046 210.384 740.34 198.702C749.254 192.68 753.202 185.202 751.767 177.052C750.75 171.271 748.296 168.596 734.929 158.697C722.394 149.411 716.506 140.085 714.282 125.986C707.271 81.5312 758.753 51.1837 793.578 79.2427C819.98 100.515 817.29 142.82 788.428 160.237C784.697 162.489 778.95 167.627 775.658 171.657C770.894 177.488 769.836 180.192 770.476 184.913C771.399 191.732 776.603 199.837 783.888 205.804C786.67 208.082 791.033 213.32 793.582 217.445C801.095 229.596 810.967 232.768 823.774 227.143C825.978 226.173 832.812 220.561 838.962 214.67C856.692 197.682 874.886 191.925 897.552 196.13C907.396 197.956 910.428 199.47 920.502 207.591C936.386 220.396 943.54 233.148 945.023 251.307C946.289 266.795 941.787 279.083 927.523 299.069C913.56 318.632 914.272 332.023 929.639 338.898C944.986 345.765 951.803 353.975 953.009 367.05C955.279 391.667 930.302 408.348 906.59 398.05C900.66 395.474 893.967 394.12 890.11 394.712C884.496 395.577 882.943 396.779 878.618 403.614C875.867 407.962 873.909 412.375 874.265 413.426C874.623 414.475 873.528 418.692 871.832 422.794C867.306 433.742 857.762 441.722 847.008 443.548C831.421 446.194 820.513 440.56 808.973 423.902L806.498 420.329C804.239 417.067 800.283 415.426 796.378 416.13C790.385 417.21 789.272 418.247 779.324 431.996C768.167 447.415 762.643 459.649 763.935 466.072C764.449 468.626 769.051 473.416 777.852 480.563C788.728 489.396 791.27 492.288 792.567 497.314C794.483 504.74 793.958 506.664 786.697 518.83C780.103 529.88 779.186 537.55 783.354 546.738C789.723 560.771 806.603 567.668 820.132 561.764C828.034 558.316 829.44 556.001 831.586 542.908C834.437 525.489 844.317 518.334 859.39 522.771C873.788 527.008 885.393 516.1 891.035 493.026C893.99 480.932 895.606 477.733 903.852 467.643C915.592 453.281 926.637 447.216 944.06 445.567C977.675 442.383 1006.59 465.653 1010.47 499.009C1012.63 517.569 1008.04 531.011 994.418 545.989C985.423 555.882 982.496 557.858 966.442 564.868C950.59 571.79 947.381 573.936 938.764 583.376C924.465 599.039 923.46 609.844 934.786 626.082C939.519 632.863 940.895 639.414 939.934 650.585C939.305 657.887 937.935 660.639 930.143 670.234C921.706 680.623 921.126 681.941 921.726 689.345C922.898 703.857 934.994 712.69 948.814 709.131C957.194 706.971 973.065 697.21 977.889 691.245C986.2 680.975 987.774 673.082 985.351 653.864C982.901 634.452 983.874 627.72 990.265 619.849C998.907 609.207 1018.25 607.44 1029.16 616.297C1039.94 625.053 1042.32 644.46 1033.88 654.823C1031.93 657.22 1025.02 662.43 1018.53 666.402C1005.1 674.615 997.947 682.551 991.964 695.883C983.968 713.696 983.84 727.892 991.453 752.191C995.868 766.282 996.081 772.246 992.691 786.733C985.272 818.43 952.575 838.877 920.257 832.03C905.064 828.81 887.892 816.102 879.653 801.978C873.356 791.187 868.997 766.227 872.629 761.755C873.64 760.509 873.919 759.045 873.249 758.501C870.629 756.374 878.392 742.832 891.45 726.751L901.45 714.437C903.82 711.519 905.008 707.817 904.778 704.065L904.558 700.461L904.396 697.828C904.13 693.504 902.008 689.506 898.576 686.863L889.08 679.552C876.672 669.997 873.636 666.847 870.915 660.705C866.329 650.352 866.648 640.049 871.875 629.57C875.97 621.361 877.446 619.91 888.841 612.89C895.708 608.662 903.465 602.536 906.081 599.28C916.476 586.337 916.581 567.771 906.357 550.353C893.014 527.616 878.255 526.97 870.657 548.791C867.914 556.672 862.818 560.192 850.749 562.549C834.004 565.817 827.775 577.663 827.818 606.157C827.848 626.584 826.6 630.43 815.431 644.326C804.04 658.499 794.744 663.78 779.301 664.847C763.611 665.933 754.644 663.006 741.63 652.553C728.245 641.801 725.236 636.587 721.299 617.345C718.045 601.438 710.016 588.584 700.815 584.556C683.137 576.817 653.531 585.637 648.268 600.21C644.494 610.655 648.298 616.904 661.822 622.477C677.34 628.875 683.004 646.996 674.177 662.016C665.422 676.913 671.784 684.65 697.265 690.092C707.412 692.261 716.427 695.555 722.123 699.175C740.323 710.744 751.538 732.139 752.376 756.888C753.411 787.487 766.136 799.445 794.251 796.237C802.23 795.327 812.393 795.335 816.833 796.257C846.534 802.424 858.56 837.937 839.123 862.079C830.388 872.931 826.049 874.771 804.513 876.758C793.906 877.737 783.493 879.837 781.372 881.425C776.286 885.235 774.718 893.519 776.604 906.642C778.605 920.574 776.343 927.463 765.473 940.535C758.46 948.967 756.461 952.579 756.266 957.156C755.885 966.176 759.305 973.279 767.064 979.58C773.437 984.755 775.253 985.226 785.106 984.254C799.273 982.856 802.519 978.986 802.389 963.649C802.261 948.715 806.97 940.141 818.545 934.228C827.669 929.566 834.94 929.61 844.628 934.383C864.245 944.046 866.311 969.233 848.634 983.205C842.205 988.287 829.397 991.784 826.332 989.296C824.098 987.482 814.679 989.81 812.274 992.772C807.904 998.152 807.627 1007.63 811.436 1021.45Z" fill="url(#paint0_linear_2_803)"/>
<defs>
<linearGradient id="paint0_linear_2_803" x1="868.487" y1="994.144" x2="85.8924" y2="358.631" gradientUnits="userSpaceOnUse">
<stop stop-color="#FFC6BF"/>
<stop offset="1" stop-color="#F7F3E4"/>
</linearGradient>
</defs>
</svg>

