
<svg width="324" height="17" viewBox="0 0 324 17" fill="none" xmlns="http://www.w3.org/2000/svg">
<path d="M131.215 0.94494C151.508 0.502851 180.394 0.128052 201.556 0.0323025C213.308 -0.020853 265.691 0.0647622 272.937 0.149078C293.736 0.390852 306.595 0.639096 311.581 0.895097C314.708 1.05561 316.808 1.36728 318.507 1.9231C320.173 2.46801 321.149 3.01607 322.077 3.92827C325.671 7.45966 321.303 13.6604 313.547 16.0349C311.749 16.5856 309.367 16.9983 307.979 17C306.671 17.0015 304.738 16.6472 302.827 16.0557C296.899 14.2211 295.876 13.9316 294.775 13.7762C291.787 13.3543 268.48 11.8696 250.825 10.9762C233.687 10.1091 225.226 9.70405 218.029 9.40642C215.662 9.30857 212.924 9.19136 211.944 9.14597C209.803 9.04673 199.84 8.65386 197.55 8.57827C196.652 8.54859 194.448 8.46812 192.652 8.39925C176.835 7.79298 152.857 7.14186 139.674 6.9604C135.838 6.90759 132.526 6.84789 132.314 6.82773C131.051 6.70737 104.665 6.6151 95.0055 6.69723C51.3932 7.06818 23.8852 9.19101 9.59787 13.2883C7.40957 13.9157 6.67142 14.0332 4.91793 14.0332C4.04238 14.0332 3.50042 13.9661 2.69372 13.7578C0.38492 13.1617 -0.135378 12.3491 1.21625 11.4503C5.38568 8.67786 19.1281 6.46655 44.1044 4.54912C45.6551 4.43006 47.4582 4.30045 48.1111 4.26099C48.7641 4.22154 51.4353 4.05072 54.0471 3.8813C56.659 3.71198 60.3319 3.49351 62.2091 3.39584C64.0864 3.29825 67.225 3.13513 69.1839 3.03353C78.6693 2.54134 93.7678 1.95733 107.471 1.55268C118.332 1.23192 119.985 1.18959 131.215 0.94494Z" fill="#FE6F5F"/>
</svg>

