<svg width="334" height="19" viewBox="0 0 334 19" fill="none" xmlns="http://www.w3.org/2000/svg">
<path d="M135.229 1.91148C156.162 1.45546 185.958 1.06884 207.788 0.970076C219.91 0.915245 273.945 1.00356 281.418 1.09053C302.874 1.33993 316.137 1.596 321.281 1.86007C324.506 2.02564 326.673 2.34714 328.426 2.92048C330.144 3.48257 331.15 4.04791 332.108 4.98886C335.816 8.63158 331.309 15.0278 323.309 17.4771C321.454 18.0452 318.998 18.4709 317.565 18.4726C316.216 18.4743 314.222 18.1087 312.25 17.4986C306.136 15.6061 305.081 15.3075 303.945 15.1472C300.863 14.7121 276.822 13.1805 258.61 12.259C240.932 11.3645 232.203 10.9467 224.78 10.6397C222.338 10.5388 219.514 10.4179 218.503 10.3711C216.294 10.2687 206.018 9.86342 203.655 9.78545C202.729 9.75484 200.456 9.67183 198.603 9.60079C182.287 8.97541 157.554 8.30376 143.954 8.11658C139.997 8.06211 136.581 8.00052 136.363 7.97972C135.06 7.85557 107.842 7.76039 97.878 7.84511C52.8909 8.22776 24.5158 10.4175 9.77802 14.6439C7.52074 15.2912 6.75933 15.4124 4.95056 15.4124C4.0474 15.4124 3.48836 15.3431 2.65623 15.1283C0.274643 14.5134 -0.262056 13.6751 1.13218 12.748C5.43305 9.88818 19.6087 7.60716 45.3723 5.62928C46.972 5.50648 48.8319 5.37277 49.5054 5.33208C50.179 5.29138 52.9344 5.11517 55.6285 4.94042C58.3227 4.76575 62.1114 4.54039 64.0478 4.43964C65.9842 4.33898 69.2218 4.17072 71.2425 4.06592C81.0269 3.55821 96.6014 2.95579 110.737 2.53839C121.94 2.20751 123.645 2.16385 135.229 1.91148Z" fill="#FE6F5F"/>
</svg>

