
<svg width="401" height="20" viewBox="0 0 401 20" fill="none" xmlns="http://www.w3.org/2000/svg">
<path d="M353.71 5.80614C371.102 4.76748 386.73 3.04377 398.059 0.914539C399.461 0.651065 400.197 0.558865 400.421 0.618494C400.601 0.666147 400.8 0.980044 400.864 1.31613C401.269 3.44109 393.5 6.53753 384.475 7.8487C381.906 8.22189 379.14 8.48134 373.761 8.85353C354.208 10.2066 332.861 10.9988 308.87 11.2618C291.814 11.4487 263.625 11.3486 246.98 11.0419C243.333 10.9747 238.146 10.8799 235.454 10.8313C232.762 10.7825 228.357 10.6895 225.665 10.6245C222.973 10.5594 219.634 10.4839 218.245 10.4567C216.855 10.4295 213.658 10.3529 211.14 10.2867C208.622 10.2204 204.288 10.1085 201.509 10.038C198.73 9.96737 196.172 9.89367 195.825 9.87399C195.478 9.85439 193.417 9.79786 191.246 9.74845C189.075 9.69904 185.594 9.60398 183.51 9.53724C181.426 9.47049 178.229 9.37442 176.405 9.32359C174.582 9.27284 171.455 9.17838 169.458 9.11373C167.461 9.04899 163.056 8.9175 159.669 8.82153C156.283 8.72555 150.386 8.55604 146.565 8.4449C142.744 8.33377 136.634 8.16618 132.987 8.07255C126.647 7.90983 124.088 7.84736 115.639 7.64921C109.17 7.49754 95.3229 7.31789 90.0221 7.31689C84.6246 7.3158 79.7071 7.45608 75.4016 7.73379C66.9324 8.28017 57.6295 9.53842 49.9582 11.1751C43.3801 12.5787 36.191 14.8375 32.2641 16.735C30.3467 17.6612 28.7726 18.1325 26.1025 18.5795C21.0205 19.4304 12.6769 19.3358 7.19638 18.3652C2.04208 17.4524 -0.720876 15.9203 0.162962 14.4653C1.10206 12.9183 5.64945 10.9123 12.2051 9.15292C27.7536 4.97997 51.8781 2.71204 80.7394 2.71011C89.2307 2.70952 101.787 3.00407 118.304 3.59115C122.598 3.74382 127.627 3.91811 132.75 4.09164C134.791 4.16081 136.816 4.23561 137.25 4.25781C137.684 4.28008 140.313 4.37587 143.092 4.47059C150.279 4.71581 156.187 4.91909 164.88 5.22008C169.048 5.36446 174.163 5.53489 176.247 5.59879C178.331 5.66277 182.594 5.79308 185.72 5.88856C188.846 5.98395 193.109 6.11711 195.193 6.18436C202.287 6.41358 226.173 7.00242 232.454 7.10292C234.017 7.12796 238.351 7.20341 242.085 7.27066C255.86 7.51856 265.065 7.59351 281.714 7.59351C306.263 7.59343 320.98 7.32753 339.342 6.55227C345.357 6.29835 346.202 6.25445 353.71 5.80614Z" fill="#6C4CDC"/>
</svg>

