<svg width="50" height="49" viewBox="0 0 50 49" fill="none" xmlns="http://www.w3.org/2000/svg">
<path d="M35.3686 14.3902C35.3686 14.3902 37.6813 13.5065 37.4886 15.6527C37.4243 16.5365 36.8462 19.6296 36.3965 22.9752L34.8547 32.8859C34.8547 32.8859 34.7262 34.3378 33.5699 34.5903C32.4135 34.8428 30.679 33.7066 30.3578 33.454C30.1008 33.2647 25.5397 30.424 23.9337 29.0353C23.484 28.6565 22.97 27.899 23.9979 27.0152L30.7433 20.7028C31.5142 19.9453 32.285 18.1777 29.073 20.324L20.0792 26.3209C20.0792 26.3209 19.0513 26.9521 17.1241 26.384L12.9484 25.1215C12.9484 25.1215 11.4066 24.1747 14.0405 23.2277C20.4647 20.2608 28.3664 17.2308 35.3686 14.3902Z" fill="#FE6F5F"/>
</svg>

