<svg width="383" height="667" viewBox="0 0 383 667" fill="none" xmlns="http://www.w3.org/2000/svg">
<path fill-rule="evenodd" clip-rule="evenodd" d="M79.5 0.453612C74.522 1.74361 70.54 4.22561 66.796 8.37061C60.61 15.2166 60.342 17.2766 62.625 40.3706C63.209 46.2826 63.016 47.1226 59.522 53.8706C54.322 63.9096 54.378 63.8696 45.795 63.6706C36.928 63.4646 32.156 64.9936 23.146 70.9266C13.522 77.2636 12.745 77.5656 6.066 77.5656H0V83.4446C0 89.0596 0.137 89.3796 3.061 90.5906C6.882 92.1736 9.886 96.1086 14.063 105.003C19.733 117.076 27.129 122.645 41.84 125.918C55.593 128.978 64.131 134.795 67.97 143.719C70.507 149.614 71.043 163.046 68.971 168.771C67.901 171.73 67.863 173.725 68.782 178.67C70.952 190.337 78.717 197.654 89.7 198.382C97.346 198.888 101.344 197.131 112 188.58C116.125 185.269 123.174 179.63 127.664 176.047C132.155 172.465 138.393 168.36 141.527 166.925C150.052 163.022 152.063 163.947 167.912 179.057C183.352 193.778 186.647 195.727 197.151 196.354C203.474 196.732 206.425 196.333 214.151 194.052C227.243 190.188 228.181 190.107 232.773 192.45C238.542 195.393 239.109 197.915 238.778 219.167C238.502 236.96 238.517 237.102 241.308 243.063C245.832 252.726 249.068 255.325 260.53 258.503C263.949 259.451 268.747 261.4 271.193 262.833C282.371 269.384 287.127 285.007 283.616 303.644C279.982 322.937 281.873 331.6 291.917 341.657C300.683 350.435 306.886 352.89 319 352.376C329.579 351.927 333.495 350.148 341.598 342.107C350.537 333.236 351.488 331.021 351.495 319.066C351.501 307.85 350.306 302.811 346.184 296.675C341.83 290.192 334.95 285.934 322.522 282.032C308.27 277.557 302.294 274.033 295.871 266.317C287.984 256.841 286.594 253.031 286.479 240.566C286.371 228.857 284.643 223.388 279.418 218.223C274.074 212.941 271.355 212.058 260.729 212.156C249.255 212.262 250.228 213.611 249.779 196.969L249.479 185.871L245.363 180.469C240.304 173.828 239.302 170.779 238 158.066C237.274 150.981 236.237 146.553 234.443 142.876C231.322 136.478 222.426 128.142 215 124.658C210.224 122.416 208.183 122.079 199.5 122.093C187.011 122.114 184.219 123.432 171.868 135.137C162.643 143.879 157.251 147.217 148 149.912C144.729 150.865 138.673 154.165 133.057 158.054C123.454 164.703 117.698 167.123 114.357 165.913C113.336 165.543 110.393 163.299 107.817 160.926C105.241 158.553 99.391 154.881 94.817 152.767C88.47 149.833 85.339 147.637 81.597 143.494C74.25 135.36 71.604 128.866 71.643 119.066C71.661 114.666 72.254 108.366 72.962 105.066C75.086 95.1536 74.661 87.3656 71.72 82.3666C70.329 80.0016 68.023 76.9746 66.595 75.6416C65.168 74.3076 64 72.5516 64 71.7376C64 69.5466 70.466 58.3946 73.163 55.9326C76.296 53.0726 79.944 51.3516 89.645 48.1546C98.799 45.1386 104.009 40.9586 107.103 34.1466C109.323 29.2576 109.581 19.8926 107.625 15.2106C105.695 10.5916 100.358 4.78861 95.99 2.56061C91.664 0.353614 83.774 -0.655388 79.5 0.453612ZM0.081 204.757L0.162 219.066L2.021 215.072C4.922 208.839 5.441 202.411 3.513 196.606C2.597 193.847 1.431 191.333 0.924 191.019C0.374 190.679 0.033 196.241 0.081 204.757ZM86.5 239.924C77.816 243.986 73.357 250.113 67.019 266.692C64.898 272.24 61.588 276.249 57.316 278.444C51.852 281.251 36.121 278.613 29.211 273.731C27.72 272.678 21.879 269.457 16.23 266.574C10.582 263.691 4.619 260.079 2.98 258.548L0 255.764V304.305V352.846L5.667 352.261C13.139 351.49 21.965 347.005 29.733 340.032C35.255 335.075 36.795 332.774 43.233 319.866C56.82 292.622 64.941 287.79 86.597 294.066C100.886 298.207 105.519 297.359 118.985 288.137C129.306 281.068 132.953 280.722 139.052 286.232C144.46 291.117 147.519 296.602 149.558 305.066C153.619 321.92 162.692 334.48 176.885 342.892C181.364 345.547 186.436 348.903 188.156 350.351C191.655 353.295 194.945 359.717 194.978 363.667C195.005 366.892 191.616 373.365 185.674 381.436C178.11 391.711 177.754 396.05 183.029 413.647C185.65 422.393 185.314 425 180.916 430.009C176.244 435.33 172.388 437.234 160.683 440C154.769 441.397 147.471 443.704 144.467 445.125C123.072 455.247 113.445 482.695 123.92 503.708C131.089 518.09 141.82 525.883 158.052 528.497C168.57 530.191 182.655 526.783 190.802 520.573C192.286 519.442 197.55 513.69 202.5 507.791C209.104 499.921 212.77 496.436 216.27 494.7C222.446 491.637 229.489 491.459 234.098 494.248C235.969 495.38 240.174 497.94 243.441 499.936C252.672 505.576 260.47 504.876 269.5 497.598C273.228 494.593 273.925 494.4 279.75 494.767C285.426 495.125 286.368 495.519 289.988 499.055C292.182 501.196 295.779 506.414 297.983 510.65C310.18 534.095 325.017 543.395 345.574 540.484C357.539 538.79 372.46 528.513 377.556 518.456C389.781 494.331 379.654 468.831 352.877 456.318C345.694 452.962 341.911 450.434 337.563 446.085C327.664 436.187 326.381 430.735 330.081 414.305C333.324 399.909 331.78 392.581 323.83 384.631C319.072 379.874 314.515 378.165 306.429 378.109C298.014 378.05 289.752 382.246 285.336 388.822C274.812 404.495 282.261 421.916 302.761 429.575C313.704 433.663 318 438.698 318 447.433C318 460.495 304.368 476.221 289.798 479.966C281.728 482.04 278.711 480.93 271.093 473.084C264.086 465.867 259.614 463.936 252.243 464.946C246.816 465.69 243.373 467.483 237.334 472.709C228.529 480.331 219.737 482.546 213.5 478.716C210.364 476.79 205.168 468.24 199.738 456.066C197.596 451.264 196.491 447.025 196.219 442.566C195.858 436.641 196.082 435.712 198.747 432.066C200.638 429.479 204.839 426.212 210.637 422.819C224.75 414.559 229 408.879 229 398.277C229 392.184 226.573 386.887 218.608 375.6C209.519 362.719 210.759 357.502 227.537 338.049C244.908 317.907 248.319 306.509 242.982 286.446C240.065 275.481 229.816 262.628 219.94 257.55C214.434 254.718 204.866 252.566 197.787 252.566C189.767 252.566 183.405 254.418 169.847 260.697C158.102 266.138 149.434 268.147 142.229 267.099C137.79 266.454 136.733 265.627 125 253.63C114.584 242.98 111.679 240.576 107.572 239.208C100.445 236.833 92.533 237.103 86.5 239.924ZM85.852 368.416C79.514 370.979 72.582 376.114 69.594 380.459C68.229 382.443 65.715 387.949 64.006 392.696C59.451 405.342 52.438 412.566 44.714 412.566C39.493 412.566 31.615 409.185 22.311 402.951C12.267 396.22 7.219 393.354 3.25 392.127L1 391.431V446.066V500.701L3.25 500.005C11.789 497.365 22.315 489.567 28.659 481.182C34.652 473.26 37.221 467.344 40 455.066C42.787 442.751 45.671 436.043 50.453 430.749C57.471 422.982 67.314 421.651 77.937 427.034C85.379 430.805 94.39 432.879 99.887 432.087C110.509 430.555 120.995 423.295 125.823 414.129C128.17 409.675 128.491 407.924 128.492 399.566C128.495 388.728 126.961 384.733 119.82 376.987C111.461 367.919 96.45 364.131 85.852 368.416ZM56.024 510.105C41.656 514.135 33.243 523.237 26.482 542.066C25.448 544.946 22.901 548.868 20.475 551.316C16.714 555.111 15.762 555.566 11.582 555.566C9.007 555.566 5.573 554.879 3.95 554.04L1 552.515V566.04C1 573.479 1.283 579.566 1.628 579.566C1.974 579.566 5.409 576.592 9.263 572.957C15.753 566.835 16.526 566.39 19.768 566.916C24.529 567.688 32.286 572.552 41.96 580.831C56.108 592.939 56.627 598.497 44.226 605.101C37.184 608.852 30.454 616.167 28.967 621.687C27.109 628.588 28.134 636.627 31.587 642.239C34.852 647.544 42.058 652.966 47.953 654.553C52.091 655.668 61 662.904 61 665.151C61 666.246 62.704 666.566 68.53 666.566H76.06L73.908 663.655C70.787 659.434 71.47 649.261 75.202 644.367C82.265 635.108 80.84 621.437 71.636 610.146C66.897 604.331 65.781 601.838 66.485 598.633C67.359 594.656 70.268 592.319 80 587.776C86.96 584.527 89.911 582.371 96.291 575.873C105.342 566.656 106.968 562.547 106.988 548.854C107.013 531.836 97.29 517.29 82 511.467C74.744 508.704 63.18 508.097 56.024 510.105ZM189.723 551.658C177.04 553.65 166.323 565.67 165.244 579.114C164.663 586.35 166.52 591.35 173.649 601.746C183.739 616.46 179.772 624.132 159.5 629.108C155.65 630.054 149.8 632.18 146.5 633.835C135.694 639.252 124.417 653.042 122.391 663.316L121.75 666.566H167.794H213.839L212.807 662.816C211.281 657.266 208.478 652.175 200.969 641.317C192.811 629.52 191.653 624.98 195.027 618.011C196.756 614.438 198.543 612.753 203.956 609.592C207.677 607.418 212.697 603.982 215.111 601.955C220.728 597.239 226.492 594.616 231.298 594.588C234.515 594.569 235.814 595.292 239.8 599.316C242.388 601.928 246.301 607.16 248.496 610.942C255.846 623.606 265.929 630.09 280.126 631.28C297.218 632.713 313.83 621.277 318.627 604.777C323.617 587.611 314.361 567.226 298.196 559.784C293.749 557.736 290.527 557.075 283.5 556.769C270.108 556.185 265.403 558.246 252.97 570.144C242.93 579.751 240.198 581.256 234.765 580.169C229.701 579.156 227.408 577.081 221.583 568.235C212.749 554.821 202.74 549.613 189.723 551.658Z" fill="url(#paint0_linear_354_5)"/>
<defs>
<linearGradient id="paint0_linear_354_5" x1="1984.5" y1="266.5" x2="383.052" y2="1186.48" gradientUnits="userSpaceOnUse">
<stop offset="0.012213" stop-color="#F28275"/>
<stop offset="0.54" stop-color="#FCDCD5"/>
<stop offset="1" stop-color="#F28275"/>
</linearGradient>
</defs>
</svg>

