<svg width="456" height="657" viewBox="0 0 456 657" fill="none" xmlns="http://www.w3.org/2000/svg">
<path fill-rule="evenodd" clip-rule="evenodd" d="M250.332 2.41681C228.957 9.80381 223.263 35.2328 239.459 50.9748C244.691 56.0588 251.542 58.9908 260.623 60.0308C268.818 60.9698 272.603 63.3778 273.992 68.5348C275.257 73.2328 274.57 77.7058 270.533 91.0658C268.675 97.2148 267.764 102.607 267.657 108.087C267.516 115.302 267.83 116.777 270.784 122.779C274.838 131.014 284.146 140.508 291.897 144.314C296.876 146.76 298.614 147.066 307.5 147.066C319.688 147.066 324.328 145.21 337.685 134.994C342.533 131.286 349.425 126.86 353 125.159C358.772 122.412 360.508 122.066 368.5 122.066C376.881 122.066 377.947 122.307 384 125.566C387.575 127.491 393.247 131.805 396.605 135.152C404.107 142.632 406.427 147.991 405.816 156.434C405.244 164.34 402.289 168.123 392.823 173.065C374.074 182.853 368.196 188.75 365.081 200.892C359.921 221.01 357.397 225.468 349.897 227.715C344.403 229.361 336.064 226.902 324 220.077C307.708 210.86 304.447 210.071 283.789 210.338C268.037 210.542 265.473 210.341 260.599 208.517C254.289 206.156 249.611 201.428 248.06 195.843C246.607 190.611 246.707 189.057 249.084 180.004C251.603 170.409 251.762 160.377 249.504 153.578C246.165 143.526 234.691 131.762 225.568 129.038C215.94 126.164 200.384 127.779 190.85 132.643C186.374 134.926 182.181 135.086 177.548 133.151C173.553 131.481 172.492 129.71 171.659 123.322C170.953 117.914 167.622 110.846 163.115 105.196C157.861 98.6098 156.4 88.6628 159.864 83.0658C160.886 81.4158 164.985 76.4658 168.973 72.0658C177.993 62.1158 179.956 58.0938 179.956 49.5658C179.956 41.5138 177.763 36.3648 171.464 29.6308C165.876 23.6568 159.865 21.0828 151.5 21.0828C142.666 21.0828 137.081 23.6308 130.624 30.6048C126.072 35.5228 124.952 37.4788 123.962 42.2508C122.519 49.1988 123.21 56.0968 125.871 61.3128C126.961 63.4488 131.069 68.7378 135 73.0658C148.484 87.9108 149.254 93.3328 139.481 104.616C133.058 112.032 130.67 117.618 130.739 125.064C130.853 137.267 127.173 139.446 112.312 135.974C106.827 134.693 104.526 134.599 100.5 135.493C86.3871 138.626 77.0001 149.513 77.0001 162.747C77.0001 168.723 78.9291 173.553 83.5841 179.233C88.6201 185.379 94.0791 188.221 104.265 189.997C114.368 191.759 117.72 193.256 121.429 197.664C128.856 206.49 130.806 218.551 127.499 235.213C125.33 246.146 125.903 253.371 129.551 261.082C138.921 280.889 163.635 287.626 181.573 275.264C189.9 269.526 197.049 256.407 197.186 246.615C197.265 240.964 194.163 232.675 188.95 224.609C185.549 219.348 184.052 218.017 178.733 215.529C175.007 213.787 169.281 212.175 164.5 211.523C153.819 210.067 147.189 206.874 139.48 199.471C129.517 189.904 128.524 185.483 130.632 160.066C131.704 147.149 132.807 143.843 136.279 143.14C142.048 141.974 165.963 141.592 168.242 142.63C172.932 144.767 174.36 148.99 174.988 162.566C175.721 178.433 177.875 183.659 187.735 193.485C195.251 200.976 197.591 201.928 212.708 203.645C222.169 204.72 230.716 207.614 234.949 211.176C240.869 216.158 241.839 227.181 237.627 241.601C234.154 253.49 233.191 260.631 232.579 279.066C231.797 302.625 228.317 313.101 218.764 320.656C212.78 325.389 208.079 326.974 200.5 326.814C197.2 326.745 186.562 326.548 176.86 326.377L159.221 326.066L149.843 321.318C144.686 318.706 135.524 312.886 129.483 308.385C115.525 297.984 95.5201 278.007 91.6101 270.566C86.3731 260.597 84.109 259.005 71.69 256.548C65.343 255.293 60.1631 251.582 57.2011 246.168C55.8081 243.623 55.5481 240.733 55.7491 230.066C55.9291 220.52 55.5871 215.841 54.4631 212.457C51.1201 202.388 40.5261 194.452 30.1851 194.271C13.5221 193.978 0.906076 205.887 0.813076 221.998C0.769076 229.611 3.24106 235.04 9.85006 241.85C15.3241 247.492 19.9461 249.159 32.7581 250.116C43.1161 250.889 47.9311 252.882 53.7391 258.8C57.5521 262.685 58.0341 263.757 58.9841 270.452C60.9181 284.087 64.3231 287.521 77.5001 289.127C81.1161 289.567 85.0891 290.851 87.5001 292.357C97.9801 298.906 138.123 331.297 140.77 335.341C143.591 339.649 143.195 358.958 140.101 367.977C136.704 377.878 129.809 384.85 121.638 386.646C106.309 390.015 84.3621 380.208 78.0501 367.169C75.2261 361.336 75.3921 354.414 78.5161 347.703C82.0601 340.09 82.602 335.432 80.565 330.098C74.805 315.014 53.7191 314.968 46.8801 330.025C42.8671 338.858 45.0051 344.103 57.4951 356.066C66.0211 364.231 67.0481 365.617 68.5731 371.008C70.8371 379.014 69.979 387.36 65.867 397.302C63.104 403.984 62.6461 406.32 62.5791 414.066C62.5131 421.589 62.87 423.759 64.757 427.289C70.237 437.545 80.8331 444.006 92.0001 443.899C100.24 443.821 104.782 441.832 111.736 435.254C118.268 429.077 120.193 425.516 122.383 415.566C125.639 400.768 132.336 393.357 144.302 391.307C150.49 390.247 151.136 390.336 158.641 393.289C170.837 398.087 174.421 398.747 189.47 398.967C202.325 399.156 203.988 399.397 209.326 401.849C217.266 405.496 228.178 416.144 232.039 424.013C235.224 430.506 236.904 440.027 236.986 452.066C237.046 460.772 239.156 470.99 242.073 476.71C245.133 482.71 256.455 493.684 262.5 496.509C271.32 500.631 279.646 501.214 294.221 498.731C310.099 496.025 316.403 496.009 324.282 498.654C344.237 505.354 358.506 522.295 362.532 544.066C363.448 549.016 365.727 557.654 367.598 563.262C372.631 578.346 372.026 585.001 365.092 590.836C362.213 593.258 361.451 593.368 342.712 594.071C324.524 594.753 323.028 594.672 318.741 592.776C312.607 590.062 310.951 587.17 309.891 577.323C308.73 566.538 306.747 561.474 302.012 557.196C293.068 549.115 282.142 549.634 269.626 558.733C267.357 560.382 263.983 562.37 262.128 563.149C257.794 564.97 249.664 564.968 246.2 563.144C242.912 561.413 236.668 554.931 227.132 543.348C218.524 532.893 213.319 529.122 202.515 525.516C192.11 522.042 187.218 519.505 183.621 515.718C181.014 512.974 180.787 512.186 181.221 507.377C181.497 504.322 183.101 499.092 184.995 495.066C191.422 481.411 189.921 467.439 180.931 457.225C178.678 454.665 174.432 451.454 171.214 449.877C163.553 446.121 151.86 445.921 145.151 449.432C130.447 457.126 123.086 473.029 127.384 487.815C129.527 495.187 136.747 503.226 144.152 506.488C159.024 513.037 162.057 514.775 163.509 517.583C164.329 519.169 164.99 521.502 164.978 522.766C164.946 526.142 161.453 533.284 156.86 539.368C154.643 542.304 151.405 547.712 149.665 551.386C146.682 557.681 146.5 558.729 146.5 569.566C146.5 579.168 146.848 581.809 148.606 585.566C151.805 592.401 159.356 601.83 165.234 606.33C173.521 612.673 178.481 614.034 192 613.671C218.444 612.96 217.662 612.92 220.664 615.163C224.006 617.66 225.887 623.916 224.138 626.716C221.56 630.845 224.083 641.818 228.97 647.726C235.336 655.423 247.134 658.089 255.634 653.753C268.92 646.975 272.11 630.17 262.32 618.535C258.886 614.453 253.273 611.947 245.5 611.024C235.511 609.837 232.387 607.418 231.997 600.565C231.433 590.671 231.893 588.69 235.75 584.413C241.795 577.708 249.86 575.041 256.478 577.558C257.913 578.103 262.364 581.651 266.369 585.442C276.383 594.92 278.18 595.697 291.953 596.504C310.19 597.572 310.241 597.632 311.025 618.97C311.71 637.602 313.078 641.888 320.338 648.151C327.057 653.946 331.641 655.846 340.127 656.353C351.029 657.004 356.851 654.875 364.168 647.558C371.109 640.617 372.501 636.43 373.819 618.53C374.5 609.268 375.272 604.958 376.773 602.03C381.519 592.772 387.527 590.247 404.5 590.376C425.538 590.536 439.799 585.759 449.774 575.211L454.9 569.792L455.31 574.429C455.535 576.979 455.494 563.541 455.218 544.566L454.717 510.066L452.284 507.066C446.73 500.216 438.652 494.559 431 492.16C420.156 488.761 410.778 487.32 407.532 488.554C406.068 489.11 403.649 489.566 402.157 489.566C400.666 489.566 398.557 490.176 397.473 490.922C396.388 491.667 391.812 493.522 387.303 495.043C380.085 497.479 377.984 497.76 369.702 497.398C357.004 496.843 350.038 493.496 340.352 483.3C332.711 475.256 330.332 471.074 328.969 463.294C328.466 460.419 327.387 454.269 326.571 449.628C323.238 430.65 312.444 417.939 295 412.448C289.167 410.612 286.986 410.472 273.735 411.08C257.104 411.844 252.069 411.076 242.589 406.333C222.091 396.075 211.325 367.553 220.572 348.005C222.031 344.922 225.922 339.515 229.22 335.99C234.382 330.471 236.115 329.302 241.673 327.585C251.759 324.47 264.253 323.285 274.051 324.513C284.848 325.867 295.507 325.853 302.201 324.476C310.248 322.821 323.111 316.231 329.253 310.618C341.415 299.502 346.412 288.138 348.551 266.735C350.582 246.407 353.959 240.728 365.448 238.318C370.637 237.229 370.969 237.302 379.453 241.373C398.828 250.67 413.742 248.863 427.087 235.603C434.255 228.482 437.229 221.224 437.35 210.566C437.449 201.784 435.388 196.497 427.048 184.137C415.035 166.334 416.146 159.074 433.77 140.229C438.998 134.639 443.887 129.135 444.634 127.997C447.402 123.782 447.983 116.58 446.344 106.778C444.345 94.8178 444.998 91.5508 450.585 85.5778L455.037 80.8188L454.769 57.5728L454.5 34.3268L452.236 38.3568C450.991 40.5738 448.863 47.4038 447.506 53.5368C442.53 76.0358 437.477 81.7998 419 86.0548C407.432 88.7188 403.551 90.4188 397.806 95.3388C389.911 102.101 382.923 105.05 375 104.964C364.829 104.853 360.722 102.332 343.861 85.8568C327.152 69.5288 324.431 67.9308 310.689 66.3828C295.031 64.6188 291.14 63.6278 287.566 60.4898C283.495 56.9148 282.499 52.7008 284.56 47.7668C286.54 43.0288 289.535 39.8658 294.404 37.3698C297.547 35.7578 299.797 35.4358 305.946 35.7168C314.67 36.1158 320.113 38.4578 330.012 46.0758C344.228 57.0138 354.19 57.3618 365.629 47.3178C370.517 43.0268 372.951 37.4178 372.978 30.3808C373.007 22.9558 371.996 20.5498 366.264 14.3948C360.561 8.27082 356.91 6.56582 349.5 6.56582C342.49 6.56582 338.792 8.11982 329.299 15.0528C320.547 21.4438 312.996 24.1108 306.266 23.1888C300.195 22.3568 287.832 15.6888 280.007 9.02681C270.246 0.716814 261.129 -1.31419 250.332 2.41681ZM435.801 284.107C430.618 285.75 422.357 293.04 419.57 298.431C417.698 302.05 417.31 309.406 418.403 320.566C419.332 330.06 417.707 333.095 409.553 337.084C404.479 339.567 402.421 339.91 388.218 340.645C365.905 341.801 360.56 343.821 349.558 355.254C343.634 361.41 340.284 368.314 339.095 376.814C337.087 391.172 340.919 402.33 351.272 412.272C359.087 419.776 365.823 423.254 375.437 424.749C384.885 426.218 390.785 425.012 401.035 419.517C415.667 411.674 423.284 408.399 430.29 406.938C438.357 405.256 443.408 405.722 450.24 408.778L454.98 410.898L455.25 455.482C455.5 496.548 455.527 495.686 455.592 444.566C455.632 414.041 455.487 390.755 455.271 392.82C454.906 396.311 454.691 396.532 452.189 395.984C446.335 394.701 436.213 388.935 430.848 383.828C422.786 376.154 420.525 370.63 420.511 358.566C420.502 350.405 420.852 348.368 423 344.118C426.724 336.748 429.03 335.507 440.711 334.589C456.207 333.371 455 335.565 455 308.608V285.721L451.75 284.673C445.869 282.776 440.589 282.589 435.801 284.107Z" fill="url(#paint0_linear_206_470)"/>
<defs>
<linearGradient id="paint0_linear_206_470" x1="717.5" y1="265.5" x2="-883.948" y2="1185.48" gradientUnits="userSpaceOnUse">
<stop offset="0.012213" stop-color="#F28275"/>
<stop offset="0.54" stop-color="#FCDCD5"/>
<stop offset="1" stop-color="#F28275"/>
</linearGradient>
</defs>
</svg>

