<?xml version="1.0" encoding="utf-8"?>
<!-- Generator: Adobe Illustrator 27.0.0, SVG Export Plug-In . SVG Version: 6.00 Build 0)  -->
<svg version="1.1" id="Слой_1" xmlns="http://www.w3.org/2000/svg" xmlns:xlink="http://www.w3.org/1999/xlink" x="0px" y="0px"
	 viewBox="0 0 1366 768" style="enable-background:new 0 0 1366 768;" xml:space="preserve">
<style type="text/css">
	.st0{fill:#E75346;}
	.st1{fill:#F36757;}
	.st2{fill:#FF907E;}
</style>
<g>
	<ellipse class="st0" cx="662.36" cy="568.17" rx="68.36" ry="40.29"/>
	<ellipse class="st0" cx="734.1" cy="560.45" rx="48.7" ry="40.29"/>
	<ellipse class="st0" cx="694.44" cy="516.1" rx="49.56" ry="45.9"/>
	
		<ellipse transform="matrix(0.9068 -0.4216 0.4216 0.9068 -208.443 312.6541)" class="st0" cx="602.79" cy="627.69" rx="51.34" ry="41.86"/>
	<ellipse class="st0" cx="581.59" cy="568.25" rx="44.59" ry="44.75"/>
	<ellipse class="st0" cx="734.34" cy="606.5" rx="46.66" ry="46.5"/>
	<ellipse class="st0" cx="666.12" cy="627.81" rx="39.88" ry="37.4"/>
	<ellipse class="st0" cx="630.53" cy="513.26" rx="44.47" ry="40.29"/>
</g>
<g>
	
		<ellipse transform="matrix(0.0742 -0.9972 0.9972 0.0742 474.5753 1366.4412)" class="st1" cx="973.26" cy="427.61" rx="40.29" ry="68.36"/>
	
		<ellipse transform="matrix(0.0742 -0.9972 0.9972 0.0742 541.7625 1422.3925)" class="st1" cx="1036.99" cy="419.4" rx="45.47" ry="48.7"/>
	
		<ellipse transform="matrix(0.0742 -0.9972 0.9972 0.0742 553.8134 1343.6635)" class="st1" cx="1000.61" cy="373.55" rx="45.9" ry="43.53"/>
	
		<ellipse transform="matrix(0.9356 -0.3531 0.3531 0.9356 -105.5224 371.1104)" class="st1" cx="964.31" cy="474.75" rx="36.18" ry="36.37"/>
	
		<ellipse transform="matrix(0.0742 -0.9972 0.9972 0.0742 381.7042 1319.5132)" class="st1" cx="901.55" cy="454.17" rx="46.71" ry="51.6"/>
	
		<ellipse transform="matrix(0.6489 -0.7609 0.7609 0.6489 2.5472 949.3948)" class="st1" cx="1029.93" cy="471.94" rx="41.96" ry="47.5"/>
	
		<ellipse transform="matrix(0.0742 -0.9972 0.9972 0.0742 416.4536 1261.7137)" class="st1" cx="887.79" cy="406.55" rx="40.56" ry="40.33"/>
	
		<ellipse transform="matrix(0.0742 -0.9972 0.9972 0.0742 502.7301 1268.5171)" class="st1" cx="934.59" cy="363.49" rx="40.29" ry="44.47"/>
</g>
<g>
	<ellipse class="st0" cx="762.09" cy="176.43" rx="68.36" ry="40.29"/>
	<ellipse class="st0" cx="833.83" cy="168.71" rx="48.7" ry="40.29"/>
	<ellipse class="st0" cx="794.17" cy="124.36" rx="49.56" ry="45.9"/>
	
		<ellipse transform="matrix(0.9068 -0.4216 0.4216 0.9068 -33.9854 318.1827)" class="st0" cx="702.52" cy="235.94" rx="51.34" ry="41.86"/>
	<ellipse class="st0" cx="681.32" cy="176.51" rx="44.59" ry="44.75"/>
	<ellipse class="st0" cx="834.08" cy="214.76" rx="46.66" ry="46.5"/>
	<ellipse class="st0" cx="765.85" cy="236.07" rx="39.88" ry="37.4"/>
	<ellipse class="st0" cx="730.26" cy="121.52" rx="44.47" ry="40.29"/>
</g>
<g>
	
		<ellipse transform="matrix(0.3016 -0.9534 0.9534 0.3016 -0.4159 617.064)" class="st2" cx="420.97" cy="308.82" rx="43.31" ry="40.84"/>
	
		<ellipse transform="matrix(0.5918 -0.8061 0.8061 0.5918 -30.5536 464.0028)" class="st2" cx="442.83" cy="262.17" rx="48.62" ry="41.2"/>
	<ellipse transform="matrix(0.1 -0.995 0.995 0.1 25.9759 751.3943)" class="st2" cx="428.32" cy="361.34" rx="54.26" ry="51.68"/>
	
		<ellipse transform="matrix(0.2072 -0.9783 0.9783 0.2072 72.9423 760.6533)" class="st2" cx="505.8" cy="335.32" rx="44.74" ry="36.49"/>
	
		<ellipse transform="matrix(0.9974 -0.0715 0.0715 0.9974 -25.6424 34.4361)" class="st2" cx="468.21" cy="375.41" rx="38.69" ry="40.6"/>
	
		<ellipse transform="matrix(0.4679 -0.8838 0.8838 0.4679 51.574 619.2903)" class="st2" cx="540.12" cy="266.81" rx="44.74" ry="41.04"/>
	
		<ellipse transform="matrix(0.2655 -0.9641 0.9641 0.2655 102.579 739.3752)" class="st2" cx="536.55" cy="302.36" rx="40.04" ry="37.86"/>
	
		<ellipse transform="matrix(0.4679 -0.8838 0.8838 0.4679 46.9721 562.7597)" class="st2" cx="490.87" cy="242.37" rx="44.74" ry="41.04"/>
	
		<ellipse transform="matrix(0.4679 -0.8838 0.8838 0.4679 -11.7973 597.8566)" class="st2" cx="490.63" cy="308.73" rx="44.74" ry="41.04"/>
</g>
</svg>
