<svg width="67" height="67" viewBox="0 0 67 67" fill="none" xmlns="http://www.w3.org/2000/svg">
<path fill-rule="evenodd" clip-rule="evenodd" d="M10.519 56.481C23.2111 69.173 43.7889 69.173 56.481 56.481C69.173 43.789 69.173 23.2111 56.481 10.5191C43.7889 -2.17298 23.2111 -2.17298 10.519 10.5191C-2.17301 23.2111 -2.17301 43.789 10.519 56.481ZM46.935 20.065C47.5208 20.6508 47.5208 21.6005 46.935 22.1863L35.6213 33.5L46.935 44.8137C47.5208 45.3995 47.5208 46.3493 46.935 46.9351C46.3492 47.5208 45.3995 47.5208 44.8137 46.9351L33.5 35.6213L22.1863 46.9351C21.6005 47.5208 20.6508 47.5208 20.065 46.9351C19.4792 46.3493 19.4792 45.3995 20.065 44.8137L31.3787 33.5L20.065 22.1863C19.4792 21.6005 19.4792 20.6508 20.065 20.065C20.6508 19.4792 21.6005 19.4792 22.1863 20.065L33.5 31.3787L44.8137 20.065C45.3995 19.4792 46.3492 19.4792 46.935 20.065Z" fill="#6C4CDC"/>
<path d="M35.6213 33.5L35.2678 33.1465L34.9142 33.5L35.2678 33.8536L35.6213 33.5ZM33.5 35.6213L33.8536 35.2678L33.5 34.9142L33.1464 35.2678L33.5 35.6213ZM31.3787 33.5L31.7322 33.8536L32.0858 33.5L31.7322 33.1465L31.3787 33.5ZM33.5 31.3787L33.1464 31.7323L33.5 32.0858L33.8536 31.7323L33.5 31.3787ZM56.1274 56.1274C43.6306 68.6242 23.3694 68.6242 10.8726 56.1274L10.1655 56.8345C23.0528 69.7218 43.9472 69.7218 56.8345 56.8345L56.1274 56.1274ZM56.1274 10.8726C68.6242 23.3694 68.6242 43.6307 56.1274 56.1274L56.8345 56.8345C69.7218 43.9472 69.7218 23.0528 56.8345 10.1655L56.1274 10.8726ZM10.8726 10.8726C23.3694 -1.62417 43.6306 -1.62417 56.1274 10.8726L56.8345 10.1655C43.9472 -2.7218 23.0528 -2.7218 10.1655 10.1655L10.8726 10.8726ZM10.8726 56.1274C-1.62419 43.6307 -1.62419 23.3694 10.8726 10.8726L10.1655 10.1655C-2.72182 23.0528 -2.72182 43.9472 10.1655 56.8345L10.8726 56.1274ZM47.2886 22.5399C48.0696 21.7588 48.0696 20.4925 47.2886 19.7114L46.5815 20.4186C46.972 20.8091 46.972 21.4422 46.5815 21.8328L47.2886 22.5399ZM35.9749 33.8536L47.2886 22.5399L46.5815 21.8328L35.2678 33.1465L35.9749 33.8536ZM47.2886 44.4602L35.9749 33.1465L35.2678 33.8536L46.5815 45.1673L47.2886 44.4602ZM47.2886 47.2886C48.0696 46.5076 48.0696 45.2412 47.2886 44.4602L46.5815 45.1673C46.972 45.5578 46.972 46.191 46.5815 46.5815L47.2886 47.2886ZM44.4602 47.2886C45.2412 48.0697 46.5075 48.0697 47.2886 47.2886L46.5815 46.5815C46.191 46.972 45.5578 46.972 45.1673 46.5815L44.4602 47.2886ZM33.1464 35.9749L44.4602 47.2886L45.1673 46.5815L33.8536 35.2678L33.1464 35.9749ZM22.5398 47.2886L33.8536 35.9749L33.1464 35.2678L21.8327 46.5815L22.5398 47.2886ZM19.7114 47.2886C20.4925 48.0697 21.7588 48.0697 22.5398 47.2886L21.8327 46.5815C21.4422 46.972 20.809 46.972 20.4185 46.5815L19.7114 47.2886ZM19.7114 44.4602C18.9304 45.2412 18.9304 46.5076 19.7114 47.2886L20.4185 46.5815C20.028 46.191 20.028 45.5578 20.4185 45.1673L19.7114 44.4602ZM31.0251 33.1465L19.7114 44.4602L20.4185 45.1673L31.7322 33.8536L31.0251 33.1465ZM19.7114 22.5399L31.0251 33.8536L31.7322 33.1465L20.4185 21.8328L19.7114 22.5399ZM19.7114 19.7114C18.9304 20.4925 18.9304 21.7588 19.7114 22.5399L20.4185 21.8328C20.028 21.4422 20.028 20.8091 20.4185 20.4186L19.7114 19.7114ZM22.5398 19.7114C21.7588 18.9304 20.4925 18.9304 19.7114 19.7114L20.4185 20.4186C20.809 20.028 21.4422 20.028 21.8327 20.4186L22.5398 19.7114ZM33.8536 31.0252L22.5398 19.7114L21.8327 20.4186L33.1464 31.7323L33.8536 31.0252ZM44.4602 19.7114L33.1464 31.0252L33.8536 31.7323L45.1673 20.4186L44.4602 19.7114ZM47.2886 19.7114C46.5075 18.9304 45.2412 18.9304 44.4602 19.7114L45.1673 20.4186C45.5578 20.028 46.191 20.028 46.5815 20.4186L47.2886 19.7114Z" fill="#6C4CDC"/>
</svg>
