<?xml version="1.0" encoding="UTF-8" standalone="no"?>
<svg
   width="65"
   height="65"
   viewBox="0 0 65 65"
   fill="none"
   version="1.1"
   id="svg7771"
   sodipodi:docname="icon1.svg"
   inkscape:version="1.2.2 (b0a8486541, 2022-12-01)"
   xmlns:inkscape="http://www.inkscape.org/namespaces/inkscape"
   xmlns:sodipodi="http://sodipodi.sourceforge.net/DTD/sodipodi-0.dtd"
   xmlns="http://www.w3.org/2000/svg"
   xmlns:svg="http://www.w3.org/2000/svg">
  <defs
     id="defs7775" />
  <sodipodi:namedview
     id="namedview7773"
     pagecolor="#ffffff"
     bordercolor="#000000"
     borderopacity="0.25"
     inkscape:showpageshadow="2"
     inkscape:pageopacity="0.0"
     inkscape:pagecheckerboard="0"
     inkscape:deskcolor="#d1d1d1"
     showgrid="false"
     inkscape:zoom="8.5"
     inkscape:cx="46"
     inkscape:cy="46"
     inkscape:window-width="1920"
     inkscape:window-height="1011"
     inkscape:window-x="0"
     inkscape:window-y="0"
     inkscape:window-maximized="1"
     inkscape:current-layer="svg7771" />
  <circle
     cx="45.948601"
     cy="6.7016214e-07"
     r="31"
     transform="rotate(45)"
     stroke="#6c4cdc"
     stroke-width="3"
     id="circle7767" />
  <path
     fill-rule="evenodd"
     clip-rule="evenodd"
     d="m 33.898668,14.899271 c 0,-0.8284 -0.6716,-1.5 -1.5,-1.5 -0.8285,0 -1.5,0.6716 -1.5,1.5 v 16.0002 h -15.9999 c -0.8284,0 -1.5,0.6715 -1.5,1.5 0,0.8284 0.6716,1.5 1.5,1.5 h 15.9999 v 15.9998 c 0,0.8284 0.6715,1.5 1.5,1.5 0.8284,0 1.5,-0.6716 1.5,-1.5 v -15.9998 h 16.0001 c 0.8284,0 1.5,-0.6716 1.5,-1.5 0,-0.8285 -0.6716,-1.5 -1.5,-1.5 h -16.0001 z"
     fill="#6c4cdc"
     id="path7769" />
</svg>
