<svg width="124" height="39" viewBox="0 0 124 39" fill="none" xmlns="http://www.w3.org/2000/svg">
<path d="M0.817172 2.18132H10.829V32H0.817172V2.18132ZM52.0571 32V0.479197H55.8741V14.5158H72.6811V0.479197H76.498V32H72.6811V17.9018H55.8741V32H52.0571ZM95.0784 22.3344V8.3594H98.7107V32H95.0784V27.9983H94.8321C94.278 29.1988 93.4161 30.2198 92.2464 31.0611C91.0767 31.8923 89.5992 32.3078 87.8138 32.3078C86.3363 32.3078 85.0229 31.9846 83.8737 31.3382C82.7245 30.6815 81.8216 29.6965 81.1649 28.3831C80.5082 27.0595 80.1799 25.3921 80.1799 23.381V8.3594H83.8121V23.1348C83.8121 24.8586 84.2944 26.2335 85.2589 27.2596C86.2337 28.2856 87.4752 28.7987 88.9835 28.7987C89.8865 28.7987 90.8048 28.5678 91.7385 28.1061C92.6825 27.6443 93.4726 26.9364 94.1087 25.9821C94.7552 25.0279 95.0784 23.812 95.0784 22.3344ZM102.389 32V0.479197H106.021V12.1148H106.329C106.596 11.7044 106.965 11.1811 107.437 10.5449C107.919 9.8985 108.607 9.3239 109.499 8.82113C110.402 8.3081 111.623 8.05158 113.162 8.05158C115.153 8.05158 116.908 8.54922 118.426 9.54451C119.945 10.5398 121.13 11.9506 121.981 13.777C122.833 15.6034 123.259 17.7582 123.259 20.2413C123.259 22.7449 122.833 24.915 121.981 26.7517C121.13 28.5781 119.95 29.994 118.441 30.9996C116.933 31.9949 115.194 32.4925 113.224 32.4925C111.705 32.4925 110.489 32.2411 109.576 31.7384C108.663 31.2253 107.96 30.6456 107.468 29.9992C106.975 29.3425 106.596 28.7987 106.329 28.3677H105.898V32H102.389ZM105.959 20.1797C105.959 21.9651 106.221 23.5401 106.744 24.9047C107.268 26.2592 108.032 27.3211 109.038 28.0907C110.043 28.85 111.274 29.2296 112.731 29.2296C114.25 29.2296 115.517 28.8295 116.533 28.0291C117.559 27.2185 118.329 26.1309 118.842 24.7662C119.365 23.3913 119.627 21.8625 119.627 20.1797C119.627 18.5175 119.37 17.0194 118.857 15.6855C118.354 14.3414 117.59 13.2794 116.564 12.4996C115.548 11.7095 114.271 11.3145 112.731 11.3145C111.254 11.3145 110.012 11.689 109.007 12.438C108.001 13.1768 107.242 14.2131 106.729 15.547C106.216 16.8706 105.959 18.4149 105.959 20.1797Z" fill="white"/>
<path fill-rule="evenodd" clip-rule="evenodd" d="M29.9232 33.1842C29.9804 33.1842 30.0388 33.1831 30.0983 33.1808C30.6016 33.1616 31.1105 33.251 31.5315 33.5272L39.2578 38.5965C39.9738 39.0663 40.9094 39.0287 41.5853 38.5029L45.2981 35.6152C45.688 35.312 45.916 34.8457 45.916 34.3517C45.916 33.8124 45.6445 33.3094 45.1936 33.0135L42.6197 31.3244C41.498 30.5883 41.4101 28.9757 42.2743 27.9493C43.1672 26.8888 43.9044 25.7154 44.4858 24.4293C45.4393 22.2912 45.916 20.023 45.916 17.6248C45.916 14.562 45.237 11.8604 43.879 9.51998C42.5499 7.15067 40.6717 5.3159 38.2446 4.01566C35.8464 2.68654 33.0871 2.02197 29.9665 2.02197C26.8459 2.02197 24.0721 2.68654 21.645 4.01566C19.2468 5.3159 17.3687 7.15067 16.0107 9.51998C14.6815 11.8893 14.017 14.5909 14.017 17.6248C14.017 20.6298 14.6815 23.3169 16.0107 25.6862C17.3687 28.0266 19.2468 29.8614 21.645 31.1905C24.0721 32.5197 26.8315 33.1842 29.9232 33.1842ZM28.0553 21.9853C27.8476 21.9702 27.696 22.1593 27.7174 22.3665C27.7389 22.5737 27.927 22.719 28.1321 22.7555C28.6619 22.8498 29.0848 23.2435 29.3568 23.5764C29.5718 23.8396 29.6554 24.1798 29.6554 24.5196V25.6803C29.6554 26.9137 28.6165 27.9172 27.3395 27.9172C26.6731 27.9172 26.0391 27.6399 25.5999 27.1566C25.3534 26.8853 25.1823 26.5697 25.0938 26.2315C24.9862 25.8204 25.1837 25.4121 25.3823 25.0365C25.7343 24.3708 25.9745 23.4282 25.5586 22.4981C25.4735 22.308 25.2374 22.2556 25.0611 22.3665C24.8848 22.4774 24.8366 22.7096 24.911 22.9041C25.1382 23.4981 25.0008 24.0723 24.8083 24.4961C24.6193 24.9121 24.2027 25.1842 23.7458 25.1854C22.6179 25.1883 21.7853 24.5123 21.3725 23.8292C20.7367 22.7774 20.8648 21.5221 21.6988 20.6309C21.8704 20.4476 21.8122 20.1409 21.586 20.0329C20.4564 19.4934 19.7547 18.4021 19.7547 17.1848C19.7547 16.1094 20.3022 15.137 21.1941 14.5558C21.5304 14.3366 21.9545 14.2978 22.3274 14.4462C22.4493 14.4947 22.5784 14.5542 22.7067 14.6267C23.2479 14.9327 23.572 15.3509 23.6739 15.8731C23.7139 16.0776 23.8779 16.2481 24.0862 16.2481C24.2945 16.2481 24.4664 16.0784 24.4385 15.872C24.3298 15.0676 23.865 14.4151 23.078 13.9701C22.4573 13.6191 21.8305 13.1003 21.973 12.4017C22.0455 12.0468 22.1923 11.7042 22.4108 11.3933C22.9272 10.6587 23.7491 10.2251 24.6657 10.2038C24.8804 10.1988 25.0517 10.0074 25.0325 9.79326C24.9775 9.17571 25.1809 8.58022 25.6052 8.11644C26.044 7.63677 26.6761 7.36164 27.3393 7.36164C28.6164 7.36164 29.6553 8.36508 29.6553 9.59851V14.0952C29.6553 14.1002 29.6498 14.1022 29.6467 14.0984C29.5524 13.9841 28.7301 12.988 27.2082 13.3797C27.0088 13.431 26.9063 13.6445 26.9682 13.8408C27.0325 14.0448 27.2507 14.1537 27.4619 14.1204C28.4737 13.9606 29.0992 14.5415 29.4196 14.9831C29.5964 15.2268 29.6553 15.5307 29.6553 15.8318V21.2283C29.6553 21.8048 28.8893 22.138 28.3246 22.0225C28.2374 22.0047 28.1476 21.9921 28.0553 21.9853ZM28.5007 11.1416C28.7055 11.0979 28.8373 10.8949 28.7485 10.7052C28.5548 10.2913 28.1497 9.81024 27.4484 9.68129C27.2435 9.64362 27.0728 9.81697 27.0728 10.0253C27.0728 10.2336 27.2464 10.3936 27.4448 10.4569C27.7138 10.5428 27.882 10.7163 27.985 10.877C28.0973 11.0522 28.2971 11.185 28.5007 11.1416ZM24.852 19.8143C25.6499 19.8143 26.2338 19.4637 26.6166 19.1158C26.9106 18.8486 27.1178 18.5544 27.2484 18.3349C27.3552 18.1555 27.2654 17.9351 27.0722 17.8557C26.8797 17.7765 26.6578 17.8672 26.5451 18.0422C26.2571 18.4892 25.6088 19.209 24.4922 19.0277C24.2866 18.9943 24.0743 19.1005 24.0116 19.2992C23.949 19.4979 24.059 19.7123 24.2632 19.7535C24.471 19.7955 24.6673 19.8143 24.852 19.8143ZM37.7443 14.4394C38.1125 14.2946 38.5296 14.335 38.8617 14.5498C39.759 15.1304 40.3103 16.1057 40.3103 17.1848C40.3103 18.4021 39.6086 19.4934 38.4791 20.033C38.2528 20.141 38.1947 20.4477 38.3663 20.631C39.2002 21.5221 39.3284 22.7775 38.6926 23.8293C38.2798 24.5124 37.4472 25.1884 36.3194 25.1855C35.8625 25.1843 35.4458 24.9122 35.2568 24.4962C35.0643 24.0724 34.927 23.4982 35.1541 22.9042C35.2285 22.7096 35.1804 22.4775 35.0041 22.3666C34.8277 22.2557 34.5916 22.3081 34.5066 22.4982C34.0906 23.4283 34.3308 24.3708 34.6828 25.0366C34.8815 25.4122 35.079 25.8205 34.9714 26.2315C34.8828 26.5698 34.7117 26.8854 34.4652 27.1567C34.026 27.64 33.392 27.9173 32.7257 27.9173C31.4487 27.9173 30.4097 26.9138 30.4097 25.6804V24.516C30.4097 24.178 30.4921 23.8395 30.7052 23.5772C30.9761 23.2436 31.399 22.8486 31.933 22.755C32.1382 22.7191 32.3262 22.5737 32.3476 22.3666C32.369 22.1593 32.2175 21.9702 32.0097 21.9853C31.9174 21.992 31.8277 22.0046 31.7405 22.0225C31.1757 22.1379 30.4097 21.8047 30.4097 21.2282V15.8407C30.4097 15.5348 30.471 15.2264 30.6511 14.9793C30.742 14.8546 30.8566 14.7189 30.996 14.5922C31.4537 14.1763 31.9967 14.0187 32.614 14.1214C32.8195 14.1556 33.0311 14.0492 33.0937 13.8505C33.1564 13.6519 33.0462 13.4374 32.8421 13.3962C31.7365 13.1729 30.9602 13.6054 30.4887 14.0339C30.4588 14.0612 30.4097 14.0404 30.4097 13.9999V9.59851C30.4097 8.36508 31.4486 7.36164 32.7256 7.36164C33.3888 7.36164 34.0209 7.63677 34.4598 8.11644C34.884 8.58022 35.0875 9.17576 35.0324 9.79326C35.0133 10.0074 35.1846 10.1988 35.3993 10.2038C36.3159 10.2251 37.1378 10.6587 37.6541 11.3933C37.8727 11.7042 38.0195 12.0468 38.0919 12.4017C38.2345 13.1003 37.6076 13.6191 36.987 13.9701C36.2 14.4151 35.7352 15.0676 35.6264 15.872C35.5985 16.0784 35.7705 16.2481 35.9788 16.2481C36.1871 16.2481 36.3512 16.0772 36.3915 15.8729C36.5512 15.0636 37.2179 14.6463 37.7443 14.4394ZM31.3581 11.1412C31.5511 11.2193 31.7733 11.1262 31.9003 10.9612C32.046 10.7721 32.2795 10.5516 32.6196 10.4537C32.8197 10.3961 32.9922 10.2336 32.9922 10.0253C32.9922 9.81696 32.822 9.64413 32.6167 9.67974C31.8615 9.81078 31.4115 10.3203 31.1867 10.667C31.0729 10.8424 31.1642 11.0628 31.3581 11.1412ZM33.4484 19.1158C33.8313 19.4638 34.415 19.8144 35.213 19.8144C35.3977 19.8144 35.5939 19.7956 35.8018 19.7536C36.006 19.7123 36.1161 19.4979 36.0534 19.2992C35.9908 19.1006 35.7785 18.9943 35.5729 19.0277C34.4564 19.209 33.8082 18.4895 33.5201 18.0425C33.4073 17.8674 33.1852 17.7766 32.9926 17.8558C32.7995 17.9352 32.7097 18.1553 32.8164 18.3347C32.947 18.5542 33.1543 18.8486 33.4484 19.1158Z" fill="white"/>
</svg>

