<svg width="1449" height="224" viewBox="0 0 1449 224" fill="none" xmlns="http://www.w3.org/2000/svg">
<path fill-rule="evenodd" clip-rule="evenodd" d="M525.03 108.016C513.069 109.354 503.591 114.31 494.715 123.868C473.769 146.425 481.186 183.589 509.42 197.543C549.136 217.172 591.926 174.731 572.695 134.783C563.848 116.405 544.943 105.788 525.03 108.016ZM499 137.5C499.5 137 499.5 137 500.5 136C501.283 135.217 502.512 134.954 502.992 134.807C505.681 133.983 509.056 135.218 511.053 137.756C514.498 142.136 513.249 146.838 508.068 148.984C500.302 152.201 492.953 143.001 499 137.5ZM557.5 166.253C555 164.006 554.77 160 557 157.5C559.23 155 565.5 154 568.107 156.923C570.713 159.846 569.046 165.063 567 166.81C564.954 168.557 560 168.5 557.5 166.253ZM521.439 166.81C516.821 162.553 516.245 161.185 518.23 159.2C520.032 157.398 521.429 157.729 524.106 160.595C527.409 164.131 531.276 166 535.289 166C542.535 166 544.865 172.221 537.838 172.806C531.934 173.299 526.207 171.205 521.439 166.81Z" fill="url(#paint0_radial_209_629)"/>
<path d="M557 157.5C554.77 160 555 164.006 557.5 166.253C560 168.5 564.954 168.557 567 166.81C569.046 165.063 570.713 159.846 568.107 156.923C565.5 154 559.23 155 557 157.5Z" fill="#392970"/>
<path d="M499 137.5C492.953 143.001 500.302 152.201 508.068 148.984C513.249 146.838 514.498 142.136 511.053 137.756C509.056 135.218 505.681 133.983 502.992 134.807C502.512 134.954 501.283 135.217 500.5 136C499.5 137 499.5 137 499 137.5Z" fill="#392970"/>
<path fill-rule="evenodd" clip-rule="evenodd" d="M86.0277 17.993C84.2517 14.515 80.0297 2.438 80.0297 0.835C80.0297 0.376 108.83 0 144.03 0C179.23 0 208.03 0.189 208.03 0.42C208.03 0.651 206.635 4.794 204.929 9.626C200.034 23.496 195.155 30.107 180.391 42.876C161.64 59.092 162.725 73.201 183.53 83.715C193.324 88.665 201.448 94.551 204.414 98.846C224.798 128.371 201.114 168.826 166.33 163.9C158.321 162.766 153.37 160.81 143.53 154.894C135.989 150.36 127.765 147.514 124.839 148.425C124.119 148.65 122.281 149.107 120.755 149.442C119.228 149.777 116.187 151.67 113.996 153.65C110.445 156.857 109.565 158.674 105.891 170.374C100.589 187.256 97.0627 194.164 90.4537 200.617C84.2357 206.688 71.8567 213.271 63.3237 215.044C49.7057 217.874 33.7587 214.264 21.6207 205.602C-7.91733 184.524 -7.03434 139.946 23.3177 120.031C42.3047 107.573 67.7067 108.185 85.5297 121.53C92.1877 126.515 105.504 131.966 111.084 131.989C114.894 132.005 122.467 126.742 126.46 121.302C128.399 118.661 131.154 113.478 132.582 109.784C134.011 106.09 137.582 99.34 140.519 94.784C147.17 84.465 148.609 79.582 146.989 72.828C144.835 63.848 140.197 59.434 124.173 51.109C116.367 47.055 107.04 41.51 103.445 38.789C97.0887 33.977 89.6637 25.112 86.0277 17.993ZM306.564 6.611C302.459 4.714 298.084 2.451 296.843 1.581C294.756 0.12 296.339 0 317.682 0H340.779L338.919 3.76C337.406 6.818 337.247 8.202 338.069 11.178C339.752 17.275 344.312 20.299 357.141 23.827C380.11 30.142 395.729 31.393 401.815 27.405C404.425 25.695 408.424 17.567 411.976 6.75L414.193 0H441.695C456.821 0 469.025 0.337 468.815 0.75C466.706 4.899 462.964 13.446 461.546 17.355C459.187 23.855 455.033 28.362 448.415 31.6C443.278 34.114 442.381 34.238 433.976 33.603C422.214 32.716 417.743 33.934 412.407 39.482C406.961 45.146 405.427 51.227 406.626 62.403C408.26 77.642 407.705 91.759 405.18 99.19C399.252 116.638 383.889 130.676 365.478 135.472C357.952 137.432 344.103 137.431 336.572 135.469C318.181 130.679 303.82 116.2 296.927 95.5C293.449 85.059 293.77 77.932 298.322 64.5C302.695 51.594 305.941 45.636 312.935 37.679C319.582 30.118 321.03 27.162 321.03 21.153C321.03 16.752 320.644 15.868 317.529 13.134C315.604 11.443 310.67 8.508 306.564 6.611ZM522.08 43.572C526.268 30.61 522.834 19.782 510.562 7.25L503.462 0H544.305C566.769 0 584.911 0.383 584.621 0.852C584.332 1.321 579.352 4.98 573.555 8.983C557.524 20.053 549.009 29.937 546.057 40.9C542.315 54.798 555.587 79.957 571.166 88.499C575.379 90.809 577.738 91.428 582.163 91.381C593.259 91.263 597.517 86.128 599.085 70.976C599.609 65.914 600.878 59.871 601.906 57.547C604.324 52.081 609.489 46.97 615.635 43.959C620.043 41.799 621.856 41.558 633.86 41.53L647.19 41.5L650.048 38.303C655.128 32.622 656.014 25.368 653.658 8.75L652.417 0H829.14H1005.86L1011.47 8.007C1020.66 21.12 1031.77 28.202 1050.76 33.06C1066.08 36.978 1078.79 34.805 1094.9 25.515C1108.66 17.58 1118.78 14.472 1135.74 12.982C1147.1 11.984 1151.55 10.258 1159.21 3.892L1163.89 0H1173.44H1182.99L1180.09 4.562C1176.06 10.926 1174.64 17.712 1175.33 27.407C1176.75 47.465 1188.92 71.613 1199.71 75.79C1203.24 77.157 1250.99 87.125 1269.87 90.438C1293.3 94.548 1297.46 94.687 1304.77 91.607C1322.37 84.204 1329.69 86.163 1339.37 100.869C1345.7 110.47 1348.31 112.351 1358.95 114.98C1369.9 117.685 1371.27 117.49 1387.52 110.924C1403.99 104.273 1408.92 103.344 1416.89 105.387C1431.66 109.17 1439.93 115.35 1445.24 126.561C1448.24 132.89 1448.53 134.335 1448.53 143C1448.53 151.619 1448.23 153.128 1445.32 159.275C1436.77 177.325 1417.97 185.821 1399.19 180.117C1386.62 176.299 1378.64 168.05 1372.48 152.5C1362.84 128.169 1351.35 121.82 1329.03 128.5C1316.07 132.378 1314.24 132.036 1300.75 123.214C1278.3 108.54 1220.65 94.591 1189.53 96.304C1177.01 96.994 1170.94 98.838 1163.99 104.06C1157.18 109.187 1149.58 113.053 1140.53 115.999C1121.21 122.288 1111.08 131.319 1105.91 146.86C1104.11 152.272 1103.86 154.828 1104.28 163.381C1104.89 175.605 1107.66 183.982 1118.65 206.903C1122.71 215.375 1126.03 222.463 1126.03 222.653C1126.03 222.844 1092.73 223 1052.03 223C1011.33 223 978.03 222.653 978.03 222.229C978.03 221.805 980.132 217.868 982.7 213.479C988.848 202.975 1001.91 189.973 1012.05 184.27C1016.18 181.943 1024.51 178.179 1030.55 175.905C1051.42 168.043 1063.34 160.628 1075.43 147.981C1081.82 141.288 1083.2 139.202 1084.94 133.554C1092.93 107.696 1088.6 88.763 1070.51 70.464C1062.32 62.176 1052.74 56.208 1041.53 52.397C1034.91 50.148 1031.8 49.679 1023.53 49.687C1007.79 49.701 998.76 52.802 979.708 64.742C966.431 73.062 957.66 76.135 945.53 76.717C919.348 77.975 901.044 67.486 883.689 41.281C875.697 29.215 871.334 25.204 860.442 19.914C848.234 13.984 837.937 11.703 825.468 12.164C815.247 12.542 815.142 12.572 803.378 18.426C792.798 23.69 790.685 25.209 783.236 32.904C778.659 37.632 774.508 42.496 774.01 43.714C773.513 44.932 770.614 47.583 767.568 49.606C764.522 51.628 762.03 53.614 762.03 54.018C762.03 55.262 752.185 59.071 742.111 61.725C734.885 63.629 729.949 64.26 722.03 64.294C709.786 64.347 701.802 62.158 683.729 53.795C671.208 48.001 667.897 47.933 662.467 53.363C659.885 55.945 658.942 58.115 657.614 64.534C652.965 86.996 651.614 89.604 642.233 94.218C635.804 97.38 635.1 97.503 623.044 97.569C616.162 97.607 609.533 97.72 608.315 97.819C604.954 98.094 599.359 103.57 597.52 108.388C595.966 112.455 595.989 113.145 597.955 121.42C599.096 126.226 600.03 131.251 600.03 132.587C600.03 135.639 608.992 155.631 612.919 161.339C619.408 170.769 629.037 176.96 640.52 179.083C650.504 180.928 662.088 178.508 675.464 171.781C686.706 166.127 695.406 163 699.896 163C704.821 163 712.056 165.523 728.401 172.941C745.421 180.666 752.18 182.408 762.415 181.709C779.47 180.544 793.506 169.51 811.019 143.5C816.203 135.8 822.545 127.397 825.112 124.828C833.677 116.253 849.645 110 862.975 110C879.32 110 898.853 117.649 907.964 127.618C913.47 133.643 921.221 148.309 922.962 156C926.597 172.05 919.853 196.553 908.565 208.311C906.025 210.957 900.478 215.344 896.238 218.061L888.53 223L860.03 222.998L831.53 222.996L828.703 218.522C818.213 201.918 794.522 193.142 771.453 197.316C757.432 199.853 745.43 207.235 738.03 217.874L734.53 222.906L701.333 222.953L668.137 223L664.485 217.499C655.364 203.756 640.19 195.772 623.065 195.703C609.749 195.65 594.464 201.936 581.419 212.832C577.63 215.997 573.111 219.58 571.376 220.793L568.221 223H508.26H448.298L449.767 216.75C452.195 206.426 451.125 198.04 443.93 171C443.418 169.075 442.971 162.544 442.938 156.488C442.767 125.86 455.766 103.226 484.53 84.066C510.373 66.852 516.798 59.923 522.08 43.572ZM1266.98 18.356C1266.52 11.194 1265.73 6.966 1264.3 4.089L1262.28 0H1284.33H1306.37L1310.48 4.285C1319.08 13.259 1319.43 28.501 1311.26 38.048C1304.3 46.172 1291.98 49.511 1282.91 45.725C1272.71 41.46 1267.93 33.252 1266.98 18.356ZM494.715 123.868C503.591 114.31 513.069 109.354 525.03 108.016C544.943 105.788 563.848 116.405 572.695 134.783C591.926 174.731 549.136 217.172 509.42 197.543C481.186 183.589 473.769 146.425 494.715 123.868ZM1180.5 185.429C1185.66 167.551 1198.81 154.916 1216.81 150.553C1232.52 146.744 1249.11 151.296 1262.27 163.025C1269.1 169.116 1273.94 178.126 1277.56 191.5C1280.83 203.614 1284.5 211.914 1289.37 218.259L1293.03 223.017L1238.28 222.759L1183.53 222.5L1181.65 217C1178.9 208.92 1178.31 192.993 1180.5 185.429ZM215.753 196C222.636 181.463 239.605 168.131 257.03 163.571C270.308 160.096 288.412 162.422 301.523 169.287C309.625 173.53 321.892 185.782 325.8 193.535C329.202 200.285 332.573 211.072 333.524 218.25L334.153 223H271.226H208.3L210.251 213.25C211.372 207.649 213.713 200.308 215.753 196Z" fill="url(#paint1_linear_209_629)"/>
<path d="M518.23 159.2C516.245 161.185 516.821 162.553 521.439 166.81C526.207 171.205 531.934 173.299 537.838 172.806C544.865 172.221 542.535 166 535.289 166C531.276 166 527.409 164.131 524.106 160.595C521.429 157.729 520.032 157.398 518.23 159.2Z" fill="#392970"/>
<defs>
<radialGradient id="paint0_radial_209_629" cx="0" cy="0" r="1" gradientUnits="userSpaceOnUse" gradientTransform="translate(724.265 111.508) scale(724.265 111.508)">
<stop offset="0.805" stop-color="#C7B9F4"/>
<stop offset="1" stop-color="#E3DBFD"/>
</radialGradient>
<linearGradient id="paint1_linear_209_629" x1="1257.87" y1="56.0023" x2="1040.64" y2="574.846" gradientUnits="userSpaceOnUse">
<stop stop-color="#6C4CDC"/>
<stop offset="0.435" stop-color="#D7C0F5"/>
<stop offset="1" stop-color="#6C4CDC"/>
</linearGradient>
</defs>
</svg>

