<svg width="575" height="816" viewBox="0 0 575 816" fill="none" xmlns="http://www.w3.org/2000/svg">
<path opacity="0.6" fill-rule="evenodd" clip-rule="evenodd" d="M94.831 1.44767C86.741 3.93567 78.223 10.6257 69.723 21.1657C60.871 32.1427 56.711 35.7177 51.889 36.4867C47.719 37.1527 42.235 33.7377 40.037 29.1067C35.028 18.5507 16.656 14.4847 5.402 21.4397L0.546 24.4407L0.273 41.4977L0 58.5537L3.773 61.0987C9.207 64.7627 14.436 66.1417 21.077 65.6617C25.837 65.3177 27.931 64.5237 32.588 61.2997C42.191 54.6517 45.441 52.8917 48.146 52.8737C51.398 52.8537 57.609 57.2837 61.546 62.4337C64.22 65.9307 64.546 67.1187 64.546 73.3577C64.546 81.6177 62.339 86.6857 56.784 91.1817C53.318 93.9877 52.594 94.1427 39.855 94.8167C24.247 95.6427 22.558 96.3047 12.906 105.375C9.254 108.807 4.867 112.442 3.156 113.452C0.201 115.198 0.046 115.602 0.046 121.574C0.046 126.583 0.361 127.858 1.596 127.858C4.105 127.858 8.418 130.457 14.165 135.432C17.125 137.994 21.346 140.928 23.546 141.952C29.247 144.606 37.33 144.413 43.546 141.475C52.448 137.266 56.069 131.734 58.054 119.311C60.175 106.033 65.427 98.3217 74.125 95.7157C77.483 94.7097 81.576 94.7937 96.438 96.1747C118.844 98.2557 122.358 97.7527 137.607 90.2837C145.86 86.2417 150.247 84.7017 154.889 84.2167L161.109 83.5657L165.424 88.0697C168.477 91.2557 170.561 94.8267 172.551 100.284C177.241 113.143 181.713 118.558 192.046 123.893C198.838 127.4 211.51 127.815 219.546 124.794C234.495 119.175 243.358 102.497 240.041 86.2267C236.663 69.6607 223.445 58.3797 207.546 58.4957C200.565 58.5467 198.339 59.1647 186.046 64.4717C177.498 68.1617 171.22 68.2927 167.498 64.8577C163.774 61.4217 162.549 58.1297 160.049 44.8317C157.423 30.8657 153.799 22.8577 146.601 15.1117C139.7 7.68668 132.153 3.19867 123.472 1.35967C114.749 -0.488327 100.986 -0.446326 94.831 1.44767ZM298.046 59.7357C289.324 62.5977 280.646 70.1247 277.52 77.5407C275.321 82.7577 274.556 93.3447 275.918 99.6967C276.538 102.588 278.605 107.392 280.512 110.372C289.611 124.596 291.653 132.503 288.601 141.691C286.171 149.009 279.497 156.054 272.315 158.883C261.682 163.071 255.706 167.172 244.243 178.149C237.848 184.272 231.029 189.861 228.698 190.889C222.221 193.747 211.692 195.199 202.821 194.46C189.391 193.34 183.166 190.088 168.046 176.298C151.219 160.951 142.488 157.232 125.23 158.063C116.832 158.468 114.309 159.014 108.675 161.651C100.013 165.704 92.862 172.592 84.016 185.402C72.768 201.689 65.81 206.954 50.29 210.923C35.729 214.648 21.686 213.162 7.296 206.376L0.046 202.957V243.93V284.904L2.546 283.266C3.921 282.365 5.046 281.294 5.046 280.887C5.046 280.479 6.621 278.083 8.546 275.562C10.471 273.041 12.046 270.367 12.046 269.62C12.046 268.873 13.89 264.458 16.144 259.81C20.427 250.977 28.959 240.974 36.177 236.323C42.364 232.336 50.553 230.451 61.546 230.482C75.428 230.521 80.429 232.236 92.046 240.939C107.439 252.471 115.68 255.834 128.546 255.834C141.286 255.834 153.248 251.174 161.734 242.905C164.38 240.325 170.064 234.316 174.364 229.551C181.02 222.175 183.427 220.271 190.559 216.736C198.122 212.989 199.843 212.538 208.242 212.099C219.738 211.497 226.838 212.892 236.309 217.612C244.953 221.919 254.61 231.133 257.898 238.209C260.946 244.771 262.305 252.823 261.891 261.859C261.581 268.623 261.093 270.174 257.046 277.271C251.729 286.595 241.965 297.391 232.027 304.934C214.233 318.44 204.607 337.457 204.731 358.858C204.829 375.653 210.142 387.749 224.938 404.872C236.782 418.579 239.152 426.034 234.613 435.311C231.425 441.826 228.963 443.74 219.304 447.208C205.248 452.256 198.738 456.966 193.338 465.995C187.127 476.379 185.593 488.01 188.992 498.931C194.198 515.659 205.668 524.383 227.046 527.874C242.343 530.373 250.786 535.923 253.906 545.532C254.589 547.636 255.553 557.081 256.047 566.52C256.658 578.198 257.456 584.908 258.545 587.52C260.532 592.291 265.844 597.887 273.12 602.873C281.151 608.378 284.777 612.882 285.602 618.38C287.062 628.121 284.597 634.953 275.541 646.262C266.513 657.536 264.888 667.732 270.396 678.53C274.611 686.792 281.715 691.716 291.759 693.34C305.128 695.502 319.782 683.65 321.603 669.204C322.547 661.716 320.469 655.957 312.163 643.04C303.87 630.142 302.046 625.693 302.046 618.358C302.046 611.401 303.966 606.249 310.75 595.005C316.808 584.963 319.032 578.383 319.07 570.39C319.095 565.075 322.184 556.282 325.82 551.176C326.982 549.544 329.733 546.961 331.935 545.435C339.57 540.144 342.73 539.576 368.07 538.945L391.594 538.358L398.07 535.127C401.632 533.35 407.465 529.4 411.033 526.349C421.352 517.524 424.585 515.609 430.048 515.084C438.947 514.229 444.036 519.888 444.042 530.648C444.047 538.384 441.956 542.843 435.556 548.742C430.065 553.803 424.779 556.304 416.546 557.735C413.246 558.309 407.519 559.295 403.82 559.927C388.474 562.548 381.046 571.08 381.046 586.087C381.046 601.195 389.185 610.325 403.723 611.525C412.918 612.284 417.805 610.779 423.881 605.317C429.807 599.988 431.417 596.182 433.557 582.446C435.431 570.418 439.359 562.272 445.441 557.799C451 553.711 462.786 550.164 474.963 548.914C493.947 546.966 503.982 538.391 507.116 521.437C509.637 507.8 502.982 495 489.83 488.19C485.322 485.856 483.298 485.447 476.046 485.406C468.763 485.365 466.687 485.76 461.546 488.165C458.246 489.708 454.421 492.025 453.046 493.313C441.088 504.512 432.504 501.445 422.029 482.229C410.241 460.604 402.345 453.982 385.867 451.903C376.469 450.718 366.719 451.945 359.586 455.211C352.391 458.505 343.091 467.386 339.802 474.103C337.24 479.337 334.062 492.253 334.029 497.566C333.995 503.011 331.017 514.443 328.069 520.447C324.118 528.493 316.29 535.858 308.521 538.838C304.167 540.508 299.698 541.259 292.046 541.606C276.865 542.295 270.51 540.054 263.722 531.618C259.222 526.026 259.063 519.99 263.084 507.358C265.447 499.932 266.397 494.784 266.775 487.358C267.367 475.723 266.885 474.16 258.652 460.995C252.272 450.795 250.637 446.176 251.306 440.246C252.323 431.219 259.244 426.097 277.575 420.808C297.403 415.086 307.945 408.733 317.814 396.558C324.89 387.827 330.238 383.143 336.406 380.271C348.837 374.483 359.523 379.027 367.691 393.575C373.203 403.393 379.148 409.305 387.821 413.592C395.301 417.29 395.649 417.358 406.993 417.358C417.542 417.358 419.024 417.122 424.046 414.644C427.071 413.151 431.21 410.55 433.243 408.864C437.946 404.965 446.617 392.055 448.22 386.565C449.764 381.275 452.623 377.282 456.649 374.794C461.238 371.958 464.859 372.365 470.457 376.345C476.256 380.468 484.806 383.858 489.405 383.858C497.725 383.858 508.898 390.743 510.933 397.124C511.5 398.903 512.391 406.708 512.914 414.469C513.973 430.207 515.258 434.003 521.713 440.459C526.984 445.729 533.1 448.132 542.558 448.647C554.813 449.315 563.04 445.112 570.061 434.598L574.046 428.63L574.037 418.494C574.028 409.113 573.808 407.976 571.084 403.227C567.27 396.577 560.918 391.204 554.59 389.276C551.816 388.431 543.653 387.388 536.45 386.959C515.867 385.731 511.592 382.342 510.063 366.036C509.002 354.733 506.326 348.48 499.988 342.498C495.745 338.493 495.046 337.294 495.046 334.02C495.046 329.597 496.773 327.658 506.255 321.433C509.67 319.192 513.933 315.426 515.729 313.064C524.796 301.141 523.82 283.79 513.501 273.471C507.97 267.94 502.086 265.851 492.118 265.88C483.479 265.905 478.602 267.688 470.558 273.761C461.949 280.261 459.503 281.159 451.9 280.615C439.186 279.706 429.38 272.943 419.53 258.291C410.418 244.737 405.76 240.921 394.114 237.468C376.183 232.152 356.224 241.307 348.376 258.448C345.379 264.995 344.293 275.81 345.965 282.452C347.444 288.323 352.44 298.559 355.364 301.707C360.662 307.411 377.759 313.336 386.99 312.668C393.708 312.182 403.331 307.87 409.546 302.561C411.746 300.682 415.36 298.22 417.578 297.092C425.465 293.078 441.811 291.612 449.212 294.255C454.576 296.171 462.664 302.443 465.972 307.251C467.558 309.556 472.053 314.962 475.96 319.264C483.115 327.141 484.746 330.186 483.607 333.536C483.266 334.538 477.699 340.871 471.237 347.608C460.162 359.154 459.264 359.858 455.604 359.858C450.415 359.858 444.949 356.462 437.395 348.544C427.739 338.423 415.542 333.94 400.984 335.16C392.845 335.842 387.573 338.389 377.372 346.564C364.056 357.235 353.289 360.621 345.491 356.588C341.424 354.485 334.034 346.435 330.578 340.343C322.489 326.087 318.031 320.021 306.99 308.248C286.517 286.417 282.046 278.759 282.046 265.525C282.046 254.281 284.098 249.575 292.463 241.631C301.999 232.574 313.356 221.265 317.96 216.241C326.901 206.485 358.096 199.581 393.546 199.514C407.929 199.487 411.812 199.819 418.77 201.67C429.089 204.416 432.607 204.401 437.187 201.592C451.308 192.931 451.43 192.877 457.046 192.877C464.65 192.877 471.216 196.775 478.023 205.33C484.509 213.48 490.09 217.398 498.158 219.465C511.806 222.962 524.868 216.787 531.772 203.575C534.108 199.104 534.502 197.142 534.522 189.858C534.551 179.6 532.921 175.671 525.582 168.303C519.648 162.346 514.135 160.358 503.546 160.358C494.689 160.358 490.592 162.332 478.639 172.356C469.217 180.258 467.837 180.82 457.013 181.156C450.57 181.355 450.382 181.285 443.318 176.054C439.378 173.137 434.693 170.33 432.906 169.818C428.113 168.443 422.869 170.251 416.423 175.501C413.344 178.009 409.6 180.412 408.102 180.842C396.669 184.121 335.582 191.121 330.543 189.73C322.892 187.617 311.718 175.979 305.767 163.924C301.778 155.844 300.898 146.152 303.529 139.264C307.984 127.598 329.326 114.858 344.414 114.858C355.477 114.858 365.524 121.895 368.952 132.045C371.577 139.82 375.256 144.596 380.43 146.945C398.754 155.266 415.734 134.652 404.941 117.188C403.843 115.412 401.28 112.924 399.246 111.658C395.787 109.508 394.504 109.358 379.546 109.358C364.676 109.358 363.235 109.192 359.147 107.012C351.772 103.078 345.392 95.4557 339.969 84.0987C334.62 72.8997 329.214 66.2127 322.173 62.0867C318.428 59.8917 316.267 59.4117 309.116 59.1857C304.402 59.0377 299.421 59.2847 298.046 59.7357ZM96.327 294.77C90.696 296.209 82.708 300.646 77.48 305.24C70.958 310.97 67.023 318.519 63.081 332.858C58.986 347.755 54.075 357.89 47.668 364.664C38.696 374.151 29.738 376.869 13.686 374.976C8.472 374.361 3.269 373.858 2.126 373.858C0.066 373.858 0.046 374.143 0.046 403.788V433.718L3.13 432.834C8.119 431.403 14.439 427.272 18.477 422.803C22.137 418.752 27.017 409.741 27.036 406.998C27.058 404.023 33.577 393.635 38.046 389.455C51.212 377.14 72.51 373.381 87.451 380.736C98.437 386.145 108.046 398.951 108.046 408.185C108.046 413.019 106.147 416.365 99.21 423.755C93.572 429.76 90.888 435.763 90.058 444.221C89.06 454.398 85.506 460.224 78.731 462.791C74.567 464.369 63.639 464.086 57.275 462.236C41.538 457.661 25.123 465.087 19.476 479.336C14.392 492.166 12.926 494.175 6.321 497.358L0.097 500.358L0.071 513.108C0.057 520.121 0.234 525.858 0.464 525.858C0.695 525.858 1.859 524.279 3.051 522.349C4.244 520.419 7.133 517.719 9.471 516.349C15.285 512.942 20.997 513.075 29.803 516.822C46.198 523.799 59.673 522.215 69.186 512.193C74.197 506.913 75.653 503.629 77.568 493.284C79.611 482.25 81.808 477.078 85.923 473.615C90.301 469.931 94.257 469.427 107.551 470.859C124.166 472.648 130.662 471.286 137.884 464.496C142.479 460.175 144.964 454.939 145.683 448.057C146.954 435.896 143.017 427.195 133.248 420.574C130.112 418.448 126.083 415.174 124.296 413.298C121.393 410.251 121.046 409.267 121.046 404.069C121.046 396.11 124.465 389.6 133.968 379.463C149.452 362.946 152.164 358.428 154.107 345.906C155.553 336.585 154.103 325.878 150.408 318.587C146.715 311.297 136.274 300.791 129.282 297.327C124.082 294.751 122.424 294.46 111.546 294.217C104.946 294.069 98.098 294.318 96.327 294.77ZM151.046 546.893C139.359 549.339 128.461 557.611 121.451 569.358C112.966 583.576 101.352 590.879 86.989 591.028C78.592 591.115 74.493 589.069 64.29 579.701C53.511 569.804 49.98 568.363 39.098 569.417C24.634 570.819 18.014 570.487 13.546 568.137C9.541 566.03 4.794 561.524 1.697 556.885C0.108 554.506 0.046 554.791 0.046 564.486V574.559L4.975 577.623C11.393 581.613 14.59 586.65 16.466 595.728C19.35 609.688 26.686 618.515 37.395 620.912C44.505 622.503 50.895 620.989 59.269 615.728C73.31 606.908 82.317 604.339 96.781 605.031C108.61 605.597 115.364 608.836 128.546 620.269C146.552 635.885 149.606 639.059 151.542 644.17C153.316 648.852 153.313 649.106 151.455 653.586C150.073 656.92 147.89 659.471 143.546 662.83C136.048 668.627 131.368 675.384 130.519 681.635C130.166 684.233 129.66 687.148 129.393 688.113C128.462 691.483 123.59 696.161 118.587 698.491C111.62 701.735 105.368 701.566 95.209 697.858C81.351 692.801 71.225 693.925 58.555 701.927C47.41 708.965 41.308 711.254 33.546 711.309C27.874 711.349 25.486 710.838 20.962 708.616C15.153 705.763 3.046 694.242 3.046 691.567C3.046 690.762 2.371 689.543 1.546 688.858C0.223 687.76 0.046 689.572 0.046 704.22V720.827L5.903 720.215C13.927 719.376 24.38 721.386 31.368 725.11C37.251 728.246 42.616 733.762 49.078 743.319C57.181 755.303 62.882 759.423 72.722 760.404C82.984 761.427 82.423 760.994 84.986 769.863C88.098 780.634 87.467 785.59 81.497 797.27C78.798 802.551 76.67 808.235 76.336 811.057L75.767 815.858H102.543H129.318L128.676 811.177C127.6 803.328 123.287 797.034 114.939 791.131C103.94 783.354 101.568 780.358 98.537 770.422C97.097 765.699 96.19 760.981 96.521 759.936C96.853 758.891 98.713 756.824 100.654 755.344C108.133 749.639 111.82 741.881 115.141 724.858C116.264 719.107 117.038 717.698 121.861 712.628C128.503 705.646 130.253 705.221 144.326 707.168C159.62 709.284 167.619 706.998 174.406 698.571C176.942 695.422 177.526 693.687 177.87 688.277C178.368 680.461 176.678 675.355 170.379 665.645C167.984 661.952 165.579 657.761 165.035 656.33C161.607 647.313 167.738 637.544 181.778 629.653C193.209 623.229 201.248 613.121 203.544 602.286C208.488 578.947 199.691 559.701 179.547 549.784C174.079 547.092 171.767 546.56 164.323 546.281C159.496 546.1 153.521 546.375 151.046 546.893Z" fill="url(#paint0_linear_206_514)"/>
<defs>
<linearGradient id="paint0_linear_206_514" x1="498.49" y1="204.872" x2="-406.936" y2="263.081" gradientUnits="userSpaceOnUse">
<stop offset="0.012213" stop-color="#F6F3E4"/>
<stop offset="0.624677" stop-color="#D7C0F5"/>
<stop offset="1" stop-color="#F7F3E4"/>
</linearGradient>
</defs>
</svg>

