<svg width="261" height="108" viewBox="0 0 261 108" fill="none" xmlns="http://www.w3.org/2000/svg">
<path fill-rule="evenodd" clip-rule="evenodd" d="M52.298 1.96693C49.987 3.24293 46.049 5.56793 43.547 7.13293C35.379 12.2429 27.837 11.9819 18.99 6.28093C12.215 1.91693 8.824 1.80993 4.8 5.83393C2.168 8.46693 1.834 9.38393 2.343 12.5839C3.03 16.9009 6.937 20.7879 10.589 20.7879C11.952 20.7879 15.406 19.6029 18.265 18.1539C25.225 14.6269 29.691 14.6089 34.712 18.0889C39.872 21.6649 41.675 24.9679 40.417 28.5439C38.981 32.6269 35.783 33.8109 30.162 32.3409C23.924 30.7099 20.349 31.8329 15.68 36.8899C12.12 40.7449 11.566 40.9959 7.678 40.5199C5.38 40.2389 2.712 39.6859 1.75 39.2909C0.204 38.6579 0 39.2389 0 44.2879C0 49.3559 0.198 49.9149 1.75 49.2329C6.847 46.9939 11.044 47.5309 16.953 51.1779C27.235 57.5249 34.209 55.1459 37.69 44.1039C40.316 35.7719 41.893 35.1139 52.701 37.8429C63.398 40.5439 67.879 39.7309 73.887 33.9999C86.098 22.3519 78.836 1.77493 61.945 0.164926C57.489 -0.260074 55.737 0.0669261 52.298 1.96693ZM123.704 20.3839C118.345 23.2899 117.47 30.4109 121.923 34.8649C125.126 38.0679 128.489 38.5589 134.018 36.6319C137.078 35.5649 137.515 35.6859 139.667 38.1879C142.378 41.3389 142.636 44.4349 140.449 47.5579C137.707 51.4719 135.554 52.0049 129.542 50.2569C124.31 48.7359 123.858 48.7569 119.406 50.7269C111.851 54.0689 110.318 53.4359 106.223 45.2879C103.327 39.5249 100.712 37.5609 95.26 37.0529C91.431 36.6959 89.819 37.0729 87.015 38.9789C80.427 43.4569 79.429 49.1159 83.517 58.8279C87.331 67.8899 85.869 70.7139 74.079 77.0569C70.583 78.9369 67.981 81.3249 65.966 84.5019C63.226 88.8239 63 89.8869 63 98.4839V107.788H81.965H100.931L105.661 104.788C109.229 102.525 111.574 101.788 115.207 101.788C119.734 101.788 128.294 104.837 129.572 106.904C129.872 107.39 141.662 107.788 155.771 107.788H181.424L176.962 105.538C173.711 103.899 171.359 101.551 168.295 96.8899C162.417 87.9449 159.501 85.1879 154.412 83.7629C147.974 81.9609 143.655 83.0849 135.275 88.7459C128.408 93.3859 127.343 93.7879 121.927 93.7879C112.863 93.7879 109.173 91.7639 100.065 81.7989C88.825 69.5009 88.967 67.4419 101.5 60.9159C108.31 57.3709 111.392 57.0149 113.44 59.5379C120.26 67.9369 120.064 67.7879 124.284 67.7879C127.378 67.7879 129.082 67.1249 131.195 65.1009C132.738 63.6229 134 61.8629 134 61.1899C134 59.4999 139.775 54.7879 141.846 54.7879C142.776 54.7879 146.873 56.1889 150.948 57.9009C157.801 60.7809 158.928 60.9649 165.929 60.3559C175.704 59.5049 176.929 60.3349 177.887 68.4589C178.754 75.8159 180.966 79.4579 185.792 81.4739C193.592 84.7329 202.157 80.4589 203.975 72.4009C206.247 62.3249 198.554 54.9279 187.394 56.4579C180.786 57.3629 180 56.2119 180 45.6259C180 32.7319 176.709 27.1999 167.101 23.9409C161.86 22.1629 157.724 22.5559 152.907 25.2879C144.396 30.1159 142.101 30.9119 139.977 29.7759C138.89 29.1939 138 28.0429 138 27.2179C138 24.5689 134.958 20.9689 131.785 19.8629C127.855 18.4929 127.102 18.5419 123.704 20.3839ZM0 70.2879V76.7879L4.25 76.8029C9.115 76.8209 10.216 77.3689 11.935 80.6309C14.699 85.8769 10.089 92.7879 3.826 92.7879H0V100.288C0 104.413 0.255 107.788 0.566 107.788C2.608 107.788 5.288 105.109 6.648 101.709C8.699 96.5849 11.019 95.3089 15.56 96.8079C19.197 98.0079 24 103.315 24 106.132C24 107.428 24.979 107.788 28.5 107.788C30.975 107.788 33 107.338 33 106.787C33 106.236 35.684 103.702 38.964 101.155C43.803 97.3969 45.238 95.5869 46.578 91.5539C49.484 82.8029 46.166 74.1299 38.595 70.6919C33.34 68.3049 29.037 68.3319 21.161 70.8009C12.797 73.4229 12.385 73.3729 8.261 69.2489C4.972 65.9599 1.911 63.7879 0.566 63.7879C0.255 63.7879 0 66.7129 0 70.2879ZM223.27 69.2369C221.493 70.0279 219.11 72.1629 217.974 73.9809C216.142 76.9139 215.981 78.2639 216.55 85.9139C217.181 94.3879 217.142 94.5969 214.346 97.7119C212.019 100.304 210.405 101.037 205.5 101.727C202.2 102.191 197.295 103.745 194.601 105.18L189.702 107.788H204.351H219V104.423C219 97.1559 225.69 93.2049 237.194 93.6769C241.509 93.8549 245.231 97.7819 245.911 102.875L246.5 107.288L253.75 107.582L261 107.876V104.332C261 100.474 258.21 96.8029 255.25 96.7659C254.287 96.7539 251.572 95.8689 249.216 94.7999C245.946 93.3159 244.472 91.8419 242.988 88.5719C241.919 86.2159 241.034 83.0059 241.022 81.4389C240.993 77.6719 238.223 71.9739 235.601 70.2869C232.222 68.1139 226.826 67.6539 223.27 69.2369Z" fill="url(#paint0_linear_543_197)"/>
<defs>
<linearGradient id="paint0_linear_543_197" x1="276.5" y1="4.53196e-06" x2="4.70044" y2="395.076" gradientUnits="userSpaceOnUse">
<stop stop-color="#6C4CDC"/>
<stop offset="0.435" stop-color="#D7C0F5"/>
<stop offset="1" stop-color="#6C4CDC"/>
</linearGradient>
</defs>
</svg>

