
<svg width="49" height="49" viewBox="0 0 49 49" fill="none" xmlns="http://www.w3.org/2000/svg">
<path fill-rule="evenodd" clip-rule="evenodd" d="M24.7368 11.27C28.3092 11.2713 31.6624 12.6621 34.1837 15.1865C36.7054 17.7109 38.093 21.0659 38.0908 24.6347C38.0877 31.9975 32.0964 37.9887 24.7363 37.9887H24.731C22.4963 37.9879 20.2998 37.4273 18.3494 36.3632L11.27 38.22L13.1648 31.2997C11.9963 29.2749 11.3814 26.9773 11.3823 24.6236C11.385 17.2604 17.3762 11.27 24.7368 11.27ZM24.7328 35.7331H24.7372C30.855 35.7331 35.8342 30.7538 35.8365 24.633C35.8373 21.667 34.6841 18.8783 32.5884 16.7804C30.4927 14.6825 27.7059 13.5261 24.7412 13.5252C18.619 13.5252 13.6393 18.504 13.6371 24.624C13.6362 26.7215 14.2231 28.7638 15.334 30.531L15.5978 30.9513L14.4766 35.0473L18.6778 33.9453L19.0833 34.1859C20.7873 35.197 22.7409 35.7322 24.7328 35.7331ZM28.545 26.3343C28.8512 26.4457 30.4914 27.2527 30.8252 27.4198C30.8897 27.4521 30.95 27.4813 31.006 27.5084C31.2397 27.6214 31.3975 27.6977 31.4647 27.8102C31.548 27.9492 31.548 28.6176 31.2699 29.397C30.9919 30.1764 29.659 30.8876 29.0178 30.9834C28.4426 31.0694 27.7153 31.105 26.9159 30.851C26.4311 30.6973 25.8099 30.4923 25.0136 30.1483C21.8842 28.7969 19.7697 25.7633 19.3713 25.1919C19.3436 25.1522 19.3242 25.1243 19.3134 25.1098L19.3121 25.1081C19.1404 24.8797 17.9507 23.2966 17.9507 21.6581C17.9507 20.1218 18.705 19.3165 19.0527 18.9452C19.0767 18.9196 19.0988 18.896 19.1186 18.8744C19.4247 18.5401 19.7861 18.4568 20.0085 18.4568C20.2308 18.4568 20.4536 18.4586 20.6479 18.4684C20.6719 18.4696 20.6969 18.4695 20.7228 18.4693C20.9173 18.4681 21.1596 18.4667 21.3988 19.041C21.4911 19.2628 21.6264 19.5922 21.769 19.9392C22.0558 20.6372 22.372 21.407 22.4277 21.5186C22.5111 21.6857 22.5667 21.8805 22.4553 22.1033C22.4384 22.137 22.4228 22.1689 22.4078 22.1994C22.3244 22.3693 22.2629 22.4947 22.1216 22.6598C22.0661 22.7247 22.0088 22.7945 21.9514 22.8644C21.8364 23.0044 21.7213 23.1446 21.6212 23.2444C21.454 23.4107 21.2803 23.5912 21.475 23.9253C21.6697 24.2591 22.3395 25.3517 23.3314 26.2367C24.3974 27.1879 25.324 27.5898 25.7939 27.7936C25.8858 27.8334 25.9603 27.8657 26.0149 27.8931C26.3482 28.0602 26.5429 28.0325 26.7377 27.8097C26.9324 27.5869 27.5718 26.8357 27.7942 26.5014C28.0166 26.1672 28.2394 26.2229 28.545 26.3343Z" fill="white"/>
</svg>

