<svg width="266" height="233" viewBox="0 0 266 233" fill="none" xmlns="http://www.w3.org/2000/svg">
<path fill-rule="evenodd" clip-rule="evenodd" d="M239.891 0.414837C234.695 1.37484 232.504 2.48883 225.853 7.55183C219.299 12.5408 214.685 14.2118 207.312 14.2678C200.654 14.3188 196.991 12.9938 189.472 7.81984C182.536 3.04584 177.82 3.30585 172.845 8.73585C169.2 12.7129 168.657 16.5989 171.088 21.3009C174.715 28.3149 181.084 29.0998 191.459 23.8118C200.109 19.4038 204.54 19.2569 210.719 23.1759C220.113 29.1339 222.282 35.8718 216.399 40.8218C213.071 43.6228 212.328 43.6598 203.473 41.4748C198.093 40.1468 193.022 42.3078 187.547 48.2638C183.308 52.8748 182.524 53.3098 178.5 53.2898C172.434 53.2598 166.405 50.2778 159.517 43.9018C149.636 34.7528 138.394 32.5969 128.477 37.9468C121.982 41.4498 117.236 47.4688 115.604 54.2698C113.976 61.0558 114.972 66.8629 118.885 73.3959C121.465 77.7039 123.257 79.3489 128.027 81.7829C133.464 84.5589 134.802 84.8128 144.027 84.8208C156.667 84.8318 160.594 86.8399 160.594 93.2919C160.594 94.4529 161.742 96.5508 163.145 97.9538C165.546 100.355 166.095 100.465 172.484 99.8228C179.216 99.1468 179.295 99.1678 181.933 102.303C186.189 107.361 185.188 114.658 179.64 119.03C178.736 119.743 174.876 120.262 170.344 120.28C160.974 120.319 159.788 121.213 156.664 130.603C155.467 134.197 153.801 137.402 152.96 137.725C148.028 139.617 132.291 136.305 130.064 132.906C128.818 131.004 128.985 130.151 131.631 124.904C135.076 118.074 135.3 115.101 132.731 110.296C129.842 104.894 125.469 102.848 117.336 103.093C111.258 103.277 110.216 103.025 108.042 100.851C106.245 99.0538 105.594 97.3178 105.594 94.3248C105.594 85.3398 100.501 79.3118 92.9085 79.3118C84.3295 79.3118 80.4545 83.1848 79.1115 93.1038C78.1755 100.01 75.8045 101.741 68.3695 100.941C48.9045 98.8488 48.1625 98.8778 42.5305 101.94C35.9835 105.5 32.3295 110.415 30.0945 118.669C28.5055 124.542 28.4935 125.456 29.9455 130.451C32.0395 137.653 37.3375 143.657 44.9595 147.464C53.1865 151.575 55.5935 153.924 55.5935 157.844C55.5935 161.274 49.7605 173.387 46.3395 177.062C43.1495 180.488 42.0925 180.281 29.7155 173.805C24.0015 170.816 18.5175 170.742 12.3355 173.572C5.82451 176.553 2.06852 181.095 0.509515 187.872C-3.46748 205.162 16.6805 218.799 31.6075 208.921C36.3705 205.769 39.0095 201.795 41.1005 194.623C41.9325 191.77 43.3165 188.732 44.1755 187.873C46.4315 185.617 51.1135 185.953 55.9155 188.716C62.3465 192.416 67.2245 192.82 72.5935 190.095C77.6955 187.507 81.5935 181.211 81.5935 175.56C81.5935 171.927 78.4475 164.917 76.3865 163.957C72.0195 161.922 66.9675 158.354 65.3085 156.132C62.6715 152.6 63.6025 150.362 70.6185 143.367C77.8945 136.114 80.2805 129.498 79.0885 119.881C77.9485 110.687 78.1795 109.064 80.9735 106.662C83.2825 104.676 84.4275 104.49 92.5165 104.795C97.4555 104.982 101.972 105.428 102.553 105.786C104.607 107.056 106.784 112.612 106.258 115.242C105.086 121.103 110.347 128.07 118.357 131.264C123.319 133.243 123.583 136.386 119.254 141.943C114.719 147.763 112.207 155.184 112.847 160.865C113.51 166.746 117.841 173.785 122.826 177.084C126.348 179.416 127.986 179.812 134.094 179.812C143.684 179.812 149.661 176.335 153.892 168.297C156.632 163.09 156.746 162.379 156.128 154.271C155.536 146.514 155.672 145.482 157.608 143.021C159.451 140.679 160.463 140.312 165.09 140.312C171.657 140.312 175.643 137.43 177.459 131.367C178.976 126.305 182.433 123.83 186.772 124.698C191.463 125.636 196.579 130.025 198.779 134.997C200.628 139.178 200.644 139.645 199.095 144.309C197.35 149.563 194.804 152.231 184.915 159.168C178.677 163.544 174.001 169.19 171.547 175.312C169.631 180.09 169.744 190.274 171.814 199.377C174.779 212.411 171.622 217.882 160.332 219.283C152.571 220.245 147.601 222.446 144.936 226.1C140.278 232.489 139.887 232.312 158.625 232.312H175.594V228.262C175.594 223.625 177.696 218.931 180.307 217.738C181.29 217.289 188.169 216.897 195.594 216.867C208.48 216.814 209.344 216.681 214.594 213.93C217.619 212.345 221.64 209.698 223.529 208.048C234.136 198.785 248.59 199.305 255.128 209.184C257.379 212.586 261.457 216.312 262.928 216.312C264.306 216.312 265.649 206.386 265.393 198.08L265.094 188.348L260.094 190.799C257.344 192.147 253.631 193.539 251.844 193.892C241.423 195.952 233.442 188.803 229.986 174.312C228.798 169.333 228.846 168.575 230.485 166.312C231.999 164.221 233.344 163.727 238.695 163.293C247.018 162.619 249.254 161.267 250.679 156.046C253.245 146.642 253.791 145.384 255.551 144.826C256.559 144.506 258.999 145.015 260.975 145.957C262.952 146.899 264.808 147.432 265.099 147.14C265.391 146.848 265.509 135.485 265.362 121.888L265.094 97.1658L260.848 100.243C251.215 107.222 247.811 115.964 249.722 128.816C251.254 139.116 250.106 140.89 241.504 141.512C236.064 141.906 234.944 142.356 232.445 145.152C230.69 147.117 229.594 149.466 229.594 151.263C229.594 155.669 227.91 159.211 225.236 160.429C220.072 162.782 211.918 155.855 209.544 147.099C208.154 141.972 210.124 137.672 216.122 132.741C224.313 126.008 227.151 122.734 228.393 118.588C232.686 104.261 225.693 92.4488 211.071 89.3248C206.58 88.3648 205.222 88.5568 197.156 91.2868C184.607 95.5349 183.207 95.3858 177.489 89.1988C173.337 84.7058 172.177 84.0229 167.929 83.5679C165.27 83.2829 162.532 82.6039 161.844 82.0589C158.094 79.0839 162.926 68.9598 170.103 64.7538C176.604 60.9438 181.566 61.4068 189.478 66.5618C195.001 70.1598 196.786 70.8118 201.125 70.8118C208.961 70.8118 212.935 67.3278 215.712 58.0238C216.896 54.0578 218.525 50.0498 219.333 49.1188C221.834 46.2348 225.91 46.0448 233.747 48.4488C246.665 52.4098 254.534 50.9878 262.344 43.2818L265.594 40.0748V25.2698V10.4658L262.354 7.22685C256.674 1.54585 247.999 -1.08416 239.891 0.414837ZM99.9915 190.236C95.0065 191.462 88.4955 195.535 85.4375 199.34C83.4215 201.849 82.0395 205.457 80.6485 211.84C78.9325 219.715 78.2455 221.224 75.0305 224.178C71.4905 227.433 71.1725 227.523 65.4715 226.878C59.3895 226.19 54.3575 227.878 53.1565 231.009C52.3905 233.004 75.3735 232.793 78.0345 230.78C79.1025 229.973 80.9285 229.312 82.0935 229.312C83.2585 229.312 85.0845 229.973 86.1525 230.78C87.6685 231.927 91.6305 232.255 104.255 232.28L120.416 232.312L123.157 229.062C130.816 219.979 130.516 207.049 122.434 197.868C116.992 191.685 107.387 188.418 99.9915 190.236ZM8.59351 230.812C6.32051 232.112 7.13652 232.237 17.5935 232.2C28.3255 232.163 28.8595 232.07 25.5935 230.812C20.9555 229.026 11.7175 229.026 8.59351 230.812Z" fill="url(#paint0_linear_542_109)"/>
<defs>
<linearGradient id="paint0_linear_542_109" x1="367" y1="13" x2="188.917" y2="-22.955" gradientUnits="userSpaceOnUse">
<stop stop-color="#D7C0F5"/>
<stop offset="0.5" stop-color="#6C4CDC"/>
<stop offset="1" stop-color="#D7C0F5"/>
</linearGradient>
</defs>
</svg>

