<svg width="179" height="291" viewBox="0 0 179 291" fill="none" xmlns="http://www.w3.org/2000/svg">
<path fill-rule="evenodd" clip-rule="evenodd" d="M32.006 1.75C32.018 5.719 34.232 11.037 36.669 12.955C40.462 15.938 45.483 15.594 52.538 11.867C61.507 7.128 62.638 7.658 74.182 22C77.663 26.325 79.917 28.034 84.733 30C95.381 34.347 97.137 37.838 92.833 46.095C87.01 57.269 94.022 70 106 70C117.798 70 125.612 57.199 119.956 47.136C118.227 44.058 116.048 42.222 110.945 39.541C107.244 37.596 103.955 35.324 103.636 34.493C102.835 32.407 104.504 28.415 108.044 23.944C113.37 17.219 115.288 9.408 113.37 2.25C112.769 0.00699997 112.702 0 91.699 0C72.587 0 70.243 0.188 66.448 2.025C62.205 4.079 58.16 3.686 56.538 1.062C56.135 0.409 51.285 0 43.941 0C33.233 0 32.001 0.181 32.006 1.75ZM1.539 19.182C0.692 22.032 0 28.106 0 32.682V41H2.662C10.958 41 21 52.882 21 62.699C21 69.053 23.238 74.293 27.972 79.028C33.397 84.453 37.931 86 48.398 86C60.537 86 67.015 89.766 71.617 99.5C74.171 104.902 74.715 111.97 72.94 116.685C71.399 120.78 65.178 126.785 61.062 128.15C59.083 128.807 53.944 129.184 49.5 129C32.594 128.297 28.623 128.556 23.949 130.661C13.635 135.308 8.939 142.128 6.499 156.005C5.087 164.039 2.979 169 0.977 169C0.44 169 0 171.32 0 174.155C0 179.086 0.08 179.238 1.829 177.655C4.933 174.845 9.595 175.674 18.747 180.663C27.01 185.167 27.669 185.349 38.014 185.958C52.928 186.838 56.166 189.336 54.592 198.753C52.836 209.263 52.796 213.767 54.428 217.207C56.927 222.474 61.924 226.733 67.277 228.158C71.378 229.249 73.005 229.185 78.777 227.706C82.475 226.759 86.218 225.987 87.095 225.992C89.474 226.004 91.658 229.032 92.293 233.198C92.604 235.232 94.015 238.599 95.429 240.68C99.439 246.582 98.917 250.141 93.138 256.31C90.463 259.164 87.763 262.483 87.138 263.684C84.587 268.582 86.316 275.17 91.397 279.917C95.024 283.305 103.24 283.903 107.696 281.103C112.19 278.279 114.169 274.799 114.248 269.576C114.316 265.04 114.067 264.544 106.472 254.102C103.92 250.594 103.194 245.616 105.066 244.459C108.015 242.637 112 235.479 112 232.005C112 226.73 114.381 224.838 119.52 226.03C128.666 228.15 134.893 226.091 138.05 219.902C142.924 210.348 137.79 202.56 124.3 199.044C116.463 197.002 113.638 189.52 115.992 177.042C117.603 168.507 116.756 163.931 112.716 159.33C104.166 149.591 89.414 151.316 83.904 162.699C81.001 168.696 81.124 172.337 84.45 178.902C87.322 184.57 89.745 186.108 98.875 188.067C104.556 189.285 111.067 194.333 113.012 199.028C114.664 203.018 113.03 220.734 110.884 222.093C110.123 222.575 106.038 222.976 101.807 222.985C92.256 223.004 91 221.755 91 212.245C91 204.656 89.396 200.463 84.696 195.762C81.784 192.851 79.989 192.029 74.424 191.06C59.265 188.42 57.294 184.513 62.285 167C63.147 163.975 64.142 157.9 64.496 153.5C65.374 142.59 66.561 138.569 70.092 134.548C73.979 130.121 78.588 128.61 85.285 129.568C88.153 129.979 93.218 130.356 96.539 130.407C101.565 130.484 103.561 131.087 108.429 134C115.846 138.438 132.137 154.223 134.816 159.567C137.347 164.618 138.435 165.52 143.696 166.926C150.42 168.724 152 171.62 152 182.15C152 190.808 152.083 191.12 155.312 194.643C161.348 201.23 172.445 200.239 177.04 192.701C179.714 188.317 179.577 182.153 176.713 177.898C173.935 173.771 170.689 172.106 163.847 171.295C156.722 170.452 151 165.468 151 160.106C151 154.976 148.694 152.135 143.912 151.37C139.346 150.64 135.197 147.825 123.11 137.256C111.104 126.759 110.999 126.615 111.006 120.639C111.023 104.324 120.27 97.189 133.834 103.024C143.374 107.128 146.614 113.567 143.062 121.364C140.611 126.743 140.529 128.189 142.463 131.928C144.146 135.184 145.783 136 150.627 136C155.538 136 159 132.332 159 127.13C159 123.788 158.362 122.569 154.918 119.334C147.171 112.058 146.453 108.089 150.65 95.739C152.98 88.882 153.159 87.475 152.137 84.064C150.005 76.948 141.307 71.702 134.481 73.415C129.827 74.583 124.233 80.687 122.568 86.413C120.558 93.328 117.766 96.717 113.026 97.993C109.791 98.864 108.291 98.685 103.83 96.893C100.899 95.715 94.45 94.362 89.5 93.887C79.201 92.898 74.702 90.498 69.639 83.293C66.982 79.514 66.658 78.13 66.018 67.821C65.242 55.331 64.109 52.145 58.512 46.709C53.509 41.85 48.823 40.744 36.677 41.557C28.458 42.107 25.762 41.929 22.662 40.633C13.581 36.836 6.649 28.011 5.36 18.606C5.012 16.073 4.357 14 3.903 14C3.449 14 2.385 16.332 1.539 19.182ZM0 97.5C0 111.458 0.325 117 1.143 117C1.771 117 4.421 114.862 7.03 112.25C16.551 102.718 16.209 90.816 6.153 81.75C3.866 79.688 1.546 78 0.997 78C0.368 78 0 85.204 0 97.5ZM16.299 218.013C15.089 218.5 11.814 220.47 9.023 222.391C6.231 224.311 3.059 226.164 1.974 226.508C0.256 227.053 0 228.044 0 234.134V241.134L5.25 247.147C11.35 254.134 15.611 256.624 23.105 257.582C31.267 258.626 34 260.345 34 264.437C34 267.019 33.239 268.462 30.795 270.519C26.052 274.51 19.949 273.712 12.561 268.134C7.419 264.251 3.151 262 0.935 262C0.407 262 0 267.224 0 274V286L2.75 285.974C4.263 285.96 7.954 284.385 10.954 282.474C19.611 276.959 24.968 277.75 34.433 285.942C41.592 292.138 49.993 292.611 55.841 287.148C64.885 278.7 60.225 264.76 47.398 261.89C38.667 259.936 38.022 258.233 41.449 246.18C43.821 237.838 44.054 235.915 43.118 232.437C41.781 227.475 36.244 220.818 31.632 218.63C27.955 216.885 19.905 216.561 16.299 218.013Z" fill="url(#paint0_linear_542_107)"/>
<defs>
<linearGradient id="paint0_linear_542_107" x1="89" y1="161" x2="30.3953" y2="17.6212" gradientUnits="userSpaceOnUse">
<stop stop-color="#D7C0F5"/>
<stop offset="0.5" stop-color="#6C4CDC"/>
<stop offset="1" stop-color="#D7C0F5"/>
</linearGradient>
</defs>
</svg>

