<svg width="671" height="528" viewBox="0 0 671 528" fill="none" xmlns="http://www.w3.org/2000/svg">
<path fill-rule="evenodd" clip-rule="evenodd" d="M31.399 0.976C30.244 1.443 27.7 4.002 25.746 6.663C21.264 12.766 10.765 22.874 5.39 26.259C0.755 29.179 0 31.331 0 41.625V48H9.29C34.988 48 53.118 60.821 60.511 84.223C65.888 101.246 62.287 110.283 47.061 117.969C38.422 122.33 31.629 129.019 27.541 137.19C25.594 141.083 24 144.816 24 145.484C24 147.935 17.919 155.001 14.158 156.919C12.031 158.005 7.975 159.2 5.145 159.575L0 160.258V171.122V181.987L4.523 178.534C12.835 172.189 18.889 172.478 36.5 180.058C52.091 186.768 61.647 188.845 69.178 187.159C76.958 185.418 85.033 180.054 89.363 173.748C93.161 168.22 97.027 155.681 96.967 149.09C96.91 142.739 93.417 134.813 87.233 127C79.757 117.554 78 114.132 78 109.018C78 96.879 86.642 87.419 109.5 74.538C131.14 62.343 138.234 55.15 143.771 39.786C149.03 25.194 149.941 14.923 146.96 3.853L145.923 0L89.711 0.063C58.795 0.098 32.555 0.509 31.399 0.976ZM288.5 4.101C280.703 10.334 269.385 16.693 259 20.674C229.759 31.884 213.988 45.438 203.493 68.378C198.299 79.732 196.631 87.842 196.678 101.5C196.728 115.762 198.726 124.328 205.402 138.893C212.089 153.48 214 159.952 214 168.008C214 176.249 212.187 180.553 206.335 186.201C200.851 191.494 197.042 192.706 183.5 193.468C169.795 194.238 163.029 195.842 154.513 200.339C147.663 203.956 138.413 212.733 134.606 219.228C125.624 234.556 124.856 253.866 132.618 269.259C138.427 280.778 145.276 286.732 163.88 296.437C183.711 306.783 189.46 314.249 189.338 329.5C189.273 337.609 188.784 340.061 182.959 361.5C178.678 377.258 178.62 383.475 182.673 392.051C184.35 395.598 188.029 401.363 190.849 404.862C197.752 413.429 199.633 416.639 201.049 422.275C202.065 426.312 201.981 428.01 200.511 433.275C199.555 436.699 198.111 440.789 197.302 442.364C194.71 447.411 187.736 454.118 178.905 460.06C169.09 466.664 165.751 470.226 162.09 478C159.886 482.68 159.507 484.841 159.545 492.5C159.599 503.366 161.595 508.514 168.698 516.109C186.901 535.569 218.891 528.709 227.445 503.512C230.223 495.328 229.585 487.297 224.902 471.5C215.761 440.665 218.545 430.16 241.037 410.615C252.206 400.91 255.562 396.469 259.412 386.298C265.029 371.459 273.209 362.31 284.706 358.009C297.384 353.265 305.748 354.22 336 363.862C346.175 367.105 357.008 370.06 360.074 370.429C367.307 371.3 377.384 369.199 388.746 364.452C400.96 359.35 411.494 356 415.326 356C420.894 356 427.21 359.924 429.75 364.962C432.375 370.167 432.58 374.683 430.51 381.655C427.443 391.983 419.71 399.048 407.145 403.001C399.321 405.462 389.401 405.584 375.619 403.387C349.66 399.25 336.657 406.173 330.481 427.416C328.028 435.855 328.806 443.17 333.056 451.638C337.262 460.018 341.867 463.742 352.087 467.028C361.433 470.033 367.851 470.04 375.441 467.052C384.566 463.46 389.551 457.776 397.031 442.437C404.674 426.762 410.927 419.719 420.507 415.997C425.713 413.974 428.274 413.666 440 413.65C449.702 413.637 455.329 414.121 460 415.369C471.072 418.326 477.863 418.54 485.645 416.177C497.625 412.538 506.305 404.754 512.157 392.401C523.979 367.45 506.171 338.391 477.203 335.363C470.293 334.641 462.151 336.199 452.373 340.115C441.315 344.542 435.318 343.732 429.697 337.052C426.181 332.873 423.712 325.712 420.543 310.504C414.574 281.858 406.442 269.95 387.447 262.042C368.226 254.041 352.781 254.036 336.946 262.028C323.931 268.596 317.952 275.95 306.477 299.5C297.092 318.761 291.623 326.236 282.209 332.669C273.771 338.436 266.817 340.4 255 340.357C240.618 340.304 224.576 335.275 215.929 328.109C210.369 323.501 205.79 314.046 205.784 307.162C205.778 299.961 207.401 296.29 216.898 282.031C225.404 269.26 229.318 260.579 231.047 250.654C232.139 244.381 232.007 243.355 228.095 227.76C225.843 218.781 224 209.297 224 206.685C224 198.266 228.534 190.84 236 187.032C242.046 183.948 249.539 183 267.866 183C285.807 183 293.376 182.196 302.5 179.322C309.265 177.191 319.83 171.869 327.113 166.923C330.416 164.68 336.539 161.221 340.72 159.235C347.042 156.233 349.708 155.552 356.536 155.193C366.555 154.668 370.369 155.812 376.458 161.172C382.402 166.404 384.32 170.294 387.954 184.483C389.586 190.858 392.402 198.862 394.211 202.271C399.065 211.417 408.17 220.235 417.119 224.455C436.373 233.537 452.944 233.255 469.478 223.566C475.187 220.22 488.066 208.173 491.803 202.683C494.709 198.414 501.566 194.269 507.248 193.347C512.473 192.499 517.115 195.198 521.577 201.676C526.247 208.457 533.042 213.718 543 218.264C551.122 221.971 557.906 227.935 561.081 234.159C563.863 239.612 563.489 245.929 559.423 262.193C553.459 286.052 554.729 295.193 565.651 306.989C575.113 317.21 590.234 322.635 602.433 320.185C613.532 317.956 626.092 309.661 630.017 301.966C633.493 295.153 636.257 283.16 635.754 277.078C634.261 259.056 622.638 247.168 599 239.486C583.978 234.604 577.326 230.37 574.05 223.604C571.422 218.176 571.443 212.094 574.126 201.746C577.453 188.908 576.304 180.546 569.769 170.054C564.718 161.945 566.699 153.824 574.525 150.554C576.363 149.786 581.304 148.215 585.506 147.062C596.163 144.138 599.837 142.023 606.202 135.148C615.704 124.885 619.147 114.408 617.024 102.217C614.446 87.415 606.124 78.095 590.905 72.968C580.97 69.621 573.499 70.113 558.833 75.082C547.053 79.072 546.254 79.209 541.019 78.134C522.375 74.306 509.549 59.94 502.504 35C497.937 18.828 493.655 11.726 483.756 3.902L478.82 0H452.56H426.3L422.4 2.836C413.461 9.337 407.335 18.645 404.348 30.265C401.179 42.599 404.179 62.301 410.485 70.57C413.921 75.074 427.531 85.152 435.431 89.041C441.792 92.172 442.276 92.252 451.743 91.744C461.092 91.241 464.662 90.37 479 85.09C489.861 81.091 509.865 83.299 522.867 89.932C529.571 93.352 540.12 106.578 541.552 113.358C541.917 115.086 544.941 122.35 548.272 129.5C551.891 137.268 554.507 144.332 554.772 147.051C555.179 151.219 554.932 151.851 551.847 154.551C546.687 159.068 515.643 176 512.523 176C505.162 176 497.887 169.088 491.989 156.492C486.981 145.795 481.567 139.192 473.329 133.734C462.522 126.575 451.628 122.902 441.153 122.887C435.382 122.878 423.28 126.286 416.134 129.931C411.423 132.335 402.347 134.681 394.36 135.559C382.662 136.844 373.284 131.414 367.503 120.006C364.927 114.922 360.751 100.399 359.45 92C358.246 84.225 353.31 71.781 343.71 52.318C332.551 29.695 328.97 19.488 328.248 8.25L327.718 0L310.609 0.052L293.5 0.104L288.5 4.101ZM599.693 3.129C607.892 17.328 626.344 26.236 641.034 23.086C651.396 20.864 663.05 12.348 668.307 3.158L670.113 0H634H597.887L599.693 3.129ZM40.883 292.905C32.734 295.511 25.542 299.953 16.803 307.776C12.569 311.565 7.057 315.753 4.553 317.081L0 319.497V340.695V361.893L3.671 368.196C5.69 371.663 10.506 379.225 14.374 385C22.956 397.815 25.945 404.718 25.976 411.8C26.02 421.535 20.851 427.22 8.095 431.468L0 434.164V461.633V489.102L3.75 490.705C6.068 491.695 10.423 492.319 15.155 492.338C28.014 492.389 37.989 486.206 42.722 475.25C45.297 469.29 44.776 456.398 41.521 445.5C40.043 440.55 38.586 434.176 38.285 431.336C36.931 418.558 47.932 408.932 68.944 404.512C84.797 401.177 99.301 391.253 106.382 378.894C114.399 364.902 117.244 344.747 113.119 331.165C109.076 317.856 96.48 302.398 85.628 297.43C71.863 291.128 52.544 289.174 40.883 292.905Z" fill="url(#paint0_linear_206_221)"/>
<defs>
<linearGradient id="paint0_linear_206_221" x1="518.064" y1="122.242" x2="-388.963" y2="342.438" gradientUnits="userSpaceOnUse">
<stop stop-color="#D7C0F5"/>
<stop offset="0.5" stop-color="#6C4CDC"/>
<stop offset="1" stop-color="#D7C0F5"/>
</linearGradient>
</defs>
</svg>

