<svg width="383" height="320" viewBox="0 0 383 320" fill="none" xmlns="http://www.w3.org/2000/svg">
<path d="M235.401 265.72C235.488 277.94 228.371 295.856 219.887 304.777C198.383 322.122 184.605 324.422 157.704 312.015C156.333 311.382 155.065 310.528 153.98 309.477C147.918 303.609 141.172 295.74 138.379 291.202C132.618 281.845 132.516 275.111 137.544 235.996C143.062 193.052 121.28 168.321 65.4052 154.087C40.5407 147.753 31.5253 143.023 20.0951 130.322C5.81323 114.455 -9.65031e-06 98.6239 -1.06546e-05 75.6024C-1.16682e-05 52.3683 5.94664 37.8689 21.9369 22.1063C38.16 6.11786 52.8814 0.135374 75.87 0.201016C102.001 0.271938 115.61 6.70867 138.491 29.8168C158.495 50.015 171.911 57.744 186.486 57.4657C197.817 57.2503 203.12 53.1797 213.454 36.7658C217.498 30.3473 221.663 25.095 222.713 25.095C223.762 25.095 226.634 23.0729 229.099 20.599C232.071 17.6156 239.093 15.7535 249.994 15.0549C269.632 13.7995 282.802 19.8636 293.06 34.8856C300.139 45.2539 301.165 59.2727 297.01 88.9017C293.452 114.263 304.94 126.254 336.562 130.191C376.397 135.149 394.1 171.176 375.742 209.92C365.856 234.391 344.132 236.609 321.995 231.799C305.921 228.308 293.999 218.569 288.078 206.74C280.656 191.918 279.419 179.955 283.806 165.443C293.954 131.859 282.435 109.134 255.263 109.134C241.392 109.134 226.619 102.114 216.366 90.6455C203.769 76.5611 190.481 74.3208 174.747 83.6334C145.445 100.974 134.031 128.705 142.437 162.129C149.66 190.859 167.487 209.836 193.547 216.541C216.182 222.366 235.255 244.776 235.401 265.72Z" fill="#F9A69C"/>
</svg>

