<svg width="672" height="587" viewBox="0 0 672 587" fill="none" xmlns="http://www.w3.org/2000/svg">
<path fill-rule="evenodd" clip-rule="evenodd" d="M625.294 1.12628C613.693 3.32428 607.085 6.22128 598.259 12.9763C577.621 28.7743 570.126 33.1353 558.432 36.1503C553.354 37.4603 548.868 37.7323 537.932 37.3973C520.412 36.8603 515.374 35.0943 497.519 23.2373C480.826 12.1513 481.002 12.2303 472.932 12.2393C467.23 12.2453 464.85 12.7833 460.095 15.1423C453.087 18.6203 445.311 26.7503 443.632 32.3573C440.587 42.5193 443.45 54.0963 451.116 62.6223C456.499 68.6093 459.527 70.3453 467 71.7263C474.386 73.0923 480.112 71.3683 497.43 62.5673C504.856 58.7933 512.901 55.0133 515.308 54.1673C521.119 52.1253 532.654 52.2523 538.946 54.4283C549.627 58.1223 567.122 72.2483 570.926 80.2513C576.855 92.7273 570.471 107.011 556.598 112.31C552.123 114.019 551.929 114.004 541.498 111.182C522.773 106.116 521.053 105.991 512.066 109.031C501.641 112.559 496.546 116.241 490.077 124.922C483.33 133.975 481.118 135.996 474.981 138.71C468.393 141.625 459.076 140.957 447.568 136.746C435.553 132.349 431.831 129.866 418.679 117.467C404.571 104.167 401.042 101.645 390.912 97.6213C373.327 90.6363 359.482 89.5513 345.925 94.0963C306.152 107.431 288.624 148.856 306.968 186.168C315.279 203.073 325.844 211.983 344.863 218.125C357.228 222.118 360.161 222.353 382.932 221.178C396.877 220.458 398.326 220.553 403.53 222.531C406.61 223.702 410.776 226.306 412.789 228.32C416.399 231.929 417.007 233.461 419.398 244.954C420.353 249.549 421.487 251.69 424.77 255.099C431.046 261.615 437.725 262.924 450.432 260.129C463.525 257.249 468.506 258.393 474.777 265.719C479.328 271.036 481.432 277.309 481.431 285.557C481.43 293.576 477.713 302.174 471.801 307.83C464.523 314.793 457.107 316.377 441.557 314.289C429.76 312.705 425.957 313.229 420.822 317.145C415.84 320.945 414.025 324.339 409.333 338.629C404.39 353.684 402.052 358.13 398.251 359.704C393.142 361.82 372.746 360.263 359.092 356.715C344.6 352.948 340.741 351.182 338.318 347.209C335.207 342.108 335.89 338.474 341.804 328.664C348.277 317.926 350.934 309.101 350.184 300.827C349.09 288.768 340.768 277.017 329.628 271.803C323.676 269.017 323.219 268.985 297.564 269.529C286.967 269.754 280.674 266.622 277.672 259.629C276.845 257.704 275.819 251.179 275.392 245.129C274.416 231.307 271.977 224.481 265.475 217.366C259.993 211.369 254.186 208.115 246.042 206.48C235.116 204.285 220.262 210.36 213.404 219.827C209.609 225.065 207.717 231.545 206.489 243.508C205.73 250.91 204.976 253.72 202.913 256.837C197.386 265.188 185.877 266.731 164.762 261.951C155.207 259.787 150.336 259.263 139.432 259.223C127.121 259.179 125.347 259.407 119.297 261.814C98.6801 270.014 86.8571 283.132 79.3581 306.129C74.0381 322.445 75.0831 335.722 82.9891 352.268C90.1381 367.228 99.622 375.697 121.512 386.667C137.465 394.661 140.401 396.919 143.854 403.849C147.951 412.071 146.912 419.711 140.41 429.16C138.704 431.641 135.964 436.698 134.322 440.399C126.403 458.246 120.366 465.8 112.904 467.2C106.784 468.348 94.787 463.869 82.971 456.023C67.978 446.069 46.7231 444.908 29.9321 453.128C9.54607 463.107 -2.59499 485.773 0.471009 508.129C3.83601 532.668 27.9631 553.542 53.0461 553.614C71.9371 553.669 92.2761 541.787 100.217 526.055C101.87 522.78 104.684 514.791 106.469 508.302C109.994 495.494 112.179 491.39 117.318 487.927C124.495 483.09 132.197 483.889 143.432 490.634C152.931 496.338 158.322 498.48 165.865 499.548C178.945 501.401 190.696 497.496 199.98 488.212C208.85 479.342 213.153 467.493 212.168 454.652C210.969 439.02 203.394 428.871 186.432 420.169C174.328 413.96 171.786 412.063 168.834 407.041C165.892 402.034 165.747 396.672 168.406 391.195C169.509 388.922 175.895 381.703 182.883 374.827C193.724 364.16 195.923 361.434 199.415 354.327C207.355 338.169 209.471 321.041 205.432 305.629C201.57 290.894 203.686 281.98 212.432 276.136L216.932 273.129L239.489 273.198C261.431 273.265 262.168 273.333 266.489 275.698C270.111 277.68 271.568 279.396 274.374 284.987C277.196 290.609 277.765 292.773 277.529 296.987C276.839 309.354 277.228 312.691 280.03 318.439C283.645 325.855 292.396 334.539 299.682 337.943C302.844 339.42 307.953 341.81 311.035 343.253C315.291 345.246 316.973 346.68 318.035 349.221C321.001 356.319 319.451 360.864 310.392 371.629C303.346 380.003 299.963 386.751 295.987 400.37C292.63 411.867 292.598 417.928 295.839 428.129C299.331 439.119 304.703 447.748 312.625 455.093C320.693 462.572 329.65 467.179 340.134 469.24C364.221 473.976 391.45 460.346 402.045 438.249C407.81 426.226 408.069 422.946 405.828 390.351C405.267 382.195 405.416 381.182 407.927 376.05C409.761 372.301 411.943 369.66 414.718 367.828C418.604 365.263 419.35 365.14 429.783 365.354C441.763 365.599 445.806 364.496 452.974 359.029C457.1 355.882 458.605 353.266 461.913 343.488C464.817 334.904 468.44 329.223 472.722 326.538C475.324 324.906 477.258 324.588 482.932 324.859C492.212 325.302 499.2 328.61 507.748 336.606C515.053 343.44 521.122 353.901 522.127 361.393C522.74 365.959 519.78 377.036 515.903 384.686C512.962 390.49 500.619 402.163 488.47 410.629C473.019 421.396 466.406 427.05 460.298 434.714C449.519 448.237 443.893 463.295 442.768 481.629C442.126 492.094 443.467 500.804 448.005 515.629C451.583 527.316 452.428 543.053 449.909 551.063C447.811 557.733 441.197 565.688 435.21 568.742C432.828 569.958 427.631 571.133 422.098 571.709C399.47 574.063 390.381 576.892 383.983 583.574L381.035 586.653L419.303 586.391L457.571 586.129L459.366 580.825C462.626 571.193 468.901 566.726 482.277 564.518C488.374 563.511 492.217 563.613 506.444 565.159C520.879 566.729 524.683 566.823 532.382 565.798C542.66 564.429 552.576 561.148 563.432 555.524C570.624 551.798 573.158 549.993 586.123 539.369C593.827 533.057 606.335 526.959 615.499 525.048C628.251 522.389 644.08 525.765 654.216 533.307C659.75 537.424 662.237 540.157 667.245 547.629L670.932 553.129L671.199 527.73C671.347 513.76 671.315 502.178 671.129 501.992C670.943 501.806 668.122 502.653 664.861 503.873C660.015 505.687 656.832 506.096 647.432 506.111C636.716 506.128 635.523 505.929 629.932 503.19C620.162 498.406 614.447 491.79 606.946 476.581C603.363 469.318 600.432 462.27 600.432 460.919C600.432 459.568 599.496 454.797 598.353 450.318C596.089 441.452 596.311 438.179 599.531 432.969C603.064 427.252 606.269 426.206 620.432 426.147C634.985 426.087 640.851 424.53 647.284 419.023C651.831 415.132 653.182 411.658 655.993 396.629C656.868 391.954 658.41 386.249 659.419 383.951C660.987 380.386 662 379.509 666.344 377.967L671.432 376.16V322.394C671.432 292.823 671.212 268.629 670.944 268.629C670.676 268.629 667.773 272.005 664.494 276.132C650.87 293.276 646.954 310.004 650.918 334.129C652.93 346.371 652.874 357.895 650.783 362.303C647.953 368.265 645.574 369.129 631.974 369.129C620.82 369.129 619.513 369.335 614.25 371.919C603.565 377.166 598.985 384.858 597.605 399.871C596.25 414.604 592 419.624 580.878 419.627C567.231 419.632 550.723 402.637 545.833 383.549C541.766 367.676 549.338 354.382 571.432 338.606C580.836 331.891 586.629 326.48 589.622 321.615C593.858 314.73 599.432 294.353 599.432 285.751C599.432 276.311 592.421 259.306 585.099 250.989C582.841 248.423 578.621 244.806 575.722 242.952C567.851 237.916 550.632 232.469 540.932 231.946C533.648 231.553 532.037 231.841 522.932 235.156C498.324 244.117 495.869 244.83 487.844 245.358C474.846 246.214 469.675 243.423 460.036 230.348C453.056 220.879 450.239 219.371 438.088 218.593C427.125 217.891 422.991 216.427 419.52 212.014C414.399 205.504 419.24 191.273 430.791 178.881C442.392 166.436 454.602 160.867 468.141 161.845C476.213 162.428 483.407 165.741 496.932 175.102C508.689 183.24 509.008 183.39 517.217 184.664C530.099 186.662 542.28 182.834 551.099 174.014C556.546 168.568 558.147 165.082 563.299 147.461C565.497 139.944 568.013 132.406 568.89 130.711C570.791 127.035 582.642 120.629 587.541 120.629C589.278 120.629 597.315 122.62 605.4 125.054C629.205 132.221 647.105 135.076 648.179 131.879C648.428 131.137 650.352 130.629 652.913 130.629C655.915 130.629 659.386 129.518 664.329 126.975L671.432 123.322V66.1123V8.90228L665.246 6.12628C652.325 0.328279 638.586 -1.39172 625.294 1.12628ZM260.948 496.288C241.454 500.465 223.313 514.558 215.813 531.352C214.53 534.225 212.333 542.55 210.93 549.852C206.43 573.279 205.927 574.741 199.741 582.379L196.298 586.629H262.345H328.391L330.335 582.819C336.354 571.02 337.075 551.794 332.048 537.129C324.785 515.941 307.338 500.688 285.224 496.195C275.88 494.297 270.141 494.319 260.948 496.288Z" fill="url(#paint0_linear_0_1)"/>
<g filter="url(#filter0_f_0_1)">
<circle cx="525" cy="490" r="47" fill="#D7C0F5"/>
</g>
<path d="M507.623 477.457C507.623 481.575 504.126 484.913 499.812 484.913C495.497 484.913 492 481.575 492 477.457C492 473.338 495.497 470 499.812 470C504.126 470 507.623 473.338 507.623 477.457Z" fill="black"/>
<path d="M565.5 496.275C565.5 500.393 562.003 503.732 557.688 503.732C553.374 503.732 549.877 500.393 549.877 496.275C549.877 492.157 553.374 488.819 557.688 488.819C562.003 488.819 565.5 492.157 565.5 496.275Z" fill="black"/>
<path d="M512.798 495.322C513.859 493.063 517.053 492.974 518.586 494.944C522.258 499.66 526.429 501.46 533.493 501.405C535.979 501.386 537.787 503.925 536.73 506.175C536.175 507.355 534.957 508.086 533.658 507.985C523.412 507.189 518.316 504.973 513.119 498.393C512.43 497.52 512.325 496.329 512.798 495.322Z" fill="black"/>
<defs>
<filter id="filter0_f_0_1" x="458" y="423" width="134" height="134" filterUnits="userSpaceOnUse" color-interpolation-filters="sRGB">
<feFlood flood-opacity="0" result="BackgroundImageFix"/>
<feBlend mode="normal" in="SourceGraphic" in2="BackgroundImageFix" result="shape"/>
<feGaussianBlur stdDeviation="10" result="effect1_foregroundBlur_0_1"/>
</filter>
<linearGradient id="paint0_linear_0_1" x1="1197" y1="219.5" x2="24.5834" y2="323.24" gradientUnits="userSpaceOnUse">
<stop stop-color="#D7C0F5"/>
<stop offset="0.5" stop-color="#6C4CDC"/>
<stop offset="1" stop-color="#D7C0F5"/>
</linearGradient>
</defs>
</svg>


