<svg width="244" height="363" viewBox="0 0 244 363" fill="none" xmlns="http://www.w3.org/2000/svg">
<path d="M222.38 148.263C240.019 161.704 245.782 194.507 242.97 204.805C240.157 215.104 229.931 228.262 222.141 234.12C214.352 239.978 205.803 242.732 199.075 243.811C192.735 244.827 176.194 243.79 172.473 242.141C152.532 233.308 137.358 213.46 136.92 195.637C136.422 175.235 128.257 163.959 116.073 166.844C112.276 167.745 101.854 169.436 92.9134 170.603C72.4788 173.274 71.9264 174.254 74.9961 202.399C75.642 208.313 75.6562 214.593 75.0297 216.353C74.4032 218.113 75.6505 224.857 77.8017 231.342C81.4403 242.31 82.5584 243.772 93.89 252.372C106.582 262.006 116.927 265.385 129.679 264.062C137.601 263.241 151.528 266.013 159.314 269.96C167.042 273.877 182.183 295.587 183.736 304.975C185.233 314.025 181.409 330.517 175.681 339.726C155.572 372.048 107.586 369.689 89.9347 335.512C84.1529 324.314 83.3494 318.415 85.0207 299.432C86.8832 278.292 80.4921 261.164 66.8312 250.684C61.0877 246.278 57.4844 245.283 47.505 245.355C31.6129 245.469 24.8994 243.721 16.5163 237.29C2.73776 226.72 -2.28418 214.237 1.117 199.011C3.58958 187.94 10.6933 178.735 20.6663 173.68C31.4996 168.188 34.8503 167.633 47.5149 169.243C53.5467 170.009 60.3256 169.8 62.5796 168.777C68.3238 166.172 70.9424 158.875 68.5642 152.1C65.6148 143.697 68.6138 130.832 75.6804 121.584C88.507 104.797 85.813 93.1799 65.5158 77.76C48.208 64.6133 42.0094 53.9045 42.7156 38.3654C43.1623 28.4873 44.1875 25.8887 51.3148 16.5609C58.368 7.33005 60.6998 5.56489 69.4943 2.8042C83.2276 -1.51116 95.3499 0.438696 106.195 8.70547C117.297 17.1697 123.455 29.637 122.86 42.451C122.453 51.2178 121.195 53.9301 110.142 69.8843C99.0557 85.8843 97.9389 88.2992 98.5602 94.9386C99.3883 103.788 104.394 113.146 111.016 118.226C117.071 122.871 123.582 133.983 124.893 141.91C126.271 150.247 132.649 154.459 142.283 153.398C146.726 152.908 150.948 151.754 151.668 150.831C154.993 146.562 173.897 138.644 183.609 137.454C199.077 135.556 209.53 138.47 222.38 148.263Z" fill="#FCDCD5"/>
</svg>

