<svg width="377" height="939" viewBox="0 0 377 939" fill="none" xmlns="http://www.w3.org/2000/svg">
<path fill-rule="evenodd" clip-rule="evenodd" d="M254.556 4.579C249.524 7.098 243.79 10.777 241.812 12.755C233.945 20.622 229.677 36.478 232.404 47.702C233.046 50.341 236.755 59.115 240.646 67.201C253.039 92.948 251.568 99.819 230.75 113.418C221.497 119.462 216.222 126.549 214.122 135.757C212.439 143.135 210.159 146.844 206.075 148.845C202.145 150.771 198.393 149.757 185.952 143.407L175.037 137.835L164.518 138.168C155.628 138.449 153.115 138.915 148.282 141.18C136.641 146.636 127.433 158.684 125.973 170.37C124.67 180.799 130.769 196.307 139.249 204.123C141.896 206.562 148.302 210.404 154.969 213.548C167.768 219.585 172.081 223.637 175.596 232.921C178.542 240.701 179.189 252.753 177.104 261C176.2 264.575 172.58 273.575 169.061 281C165.541 288.425 162.12 296.249 161.458 298.387C159.577 304.461 160.714 322.241 163.41 328.91C171.256 348.321 189.874 361 210.529 361C228.834 361 246.851 349.015 255.982 330.763C258.988 324.755 259.5 322.726 259.5 316.823C259.5 308.909 257.294 297.197 254.292 289.174C250.596 279.294 238.601 269.176 224 263.619C211.277 258.778 204.13 251.802 195.546 235.844C193.071 231.243 191.204 226.256 190.865 223.344C190.001 215.905 192.085 203.772 195.351 197.238C196.928 194.082 199.887 186.46 201.926 180.3C208.074 161.721 210.687 159.408 222.25 162.304C246.852 168.466 255.91 171.039 258.134 172.496C264.348 176.567 265.121 187.044 260.292 201.738C257.616 209.88 257.091 212.994 257.126 220.5C257.188 233.905 262.132 247.082 271.623 259.135C274.697 263.038 286.501 269.732 296.188 273.065C308.734 277.381 320.341 285.932 324.11 293.635C329.256 304.154 326.303 316.112 313.541 336.435C305.267 349.611 302.008 357.209 295.5 378.5C284.918 413.12 277.016 425.652 261.063 433.117C247.591 439.422 236.295 438.91 218.975 431.213C207.349 426.045 204.943 425.334 193.202 423.589C182.101 421.94 178.227 420.066 168.017 411.403C145.557 392.349 111.422 340.942 105.996 318C103.12 305.836 102.411 303.968 99.3459 300.477C97.6609 298.558 93.069 295.456 89.141 293.584C78.336 288.435 74.103 284.931 70.985 278.558C68.497 273.475 68.295 272.227 68.746 264.735C69.137 258.229 70.052 254.506 73.104 247C76.733 238.076 76.968 236.863 76.983 227C76.998 217.463 76.739 215.967 74.15 210.692C70.625 203.51 62.527 195.12 56.337 192.241C45.566 187.23 32.231 187.516 20.933 193C13.154 196.776 7.20399 202.812 3.18799 211C0.321988 216.844 0 218.408 0 226.5C0 234.858 0.27196 236.071 3.80896 243.5C10.095 256.704 14.514 260.215 34 267.484C49.762 273.363 50.878 274.208 58.49 286L62.686 292.5L62.051 300C61.701 304.125 61.161 310.251 60.85 313.612C59.753 325.473 64.7151 331.468 80.6801 337.569C86.9271 339.956 88.203 340.961 94.368 348.351C108.75 365.591 145.005 416.198 147.13 422C149.3 427.923 148.76 435.428 145.457 445.289C141.196 458.007 135.996 467.397 129.177 474.686C116.258 488.497 101.995 490.326 82.783 480.638C62.247 470.282 50.3989 454.728 50.2729 437.956C50.2119 429.819 52.813 423.511 58.923 416.979C65.646 409.791 67.855 404.77 67.932 396.5C68.021 386.842 64.32 379.896 56.642 375.314C41.584 366.328 22.813 373.553 17.484 390.388C15.025 398.159 17.667 407.009 25.572 417.48C27.669 420.257 30.873 425.672 32.692 429.514C35.739 435.948 35.995 437.251 35.933 446C35.854 457.178 33.205 465.272 26.531 474.725C24.289 477.901 20.447 483.33 17.994 486.79C8.65202 499.962 6.79297 517.035 13.267 530.181C21.661 547.224 40.029 557.303 56.75 554.041C60.188 553.37 66.07 551.214 69.821 549.249C80.25 543.788 85.678 538.318 91.213 527.69C97.547 515.529 106.562 506.133 114.788 503.12C126.216 498.933 139.111 500.895 148.093 508.186C162.347 519.757 171.259 524.227 189 528.707C209.627 533.914 219.2 540.645 228.8 556.689C239.862 575.177 241.476 588.245 235.693 612.5C231.886 628.464 230.513 636.83 230.522 644C230.538 655.821 235.717 669.439 244.784 681.5C256.172 696.649 269.077 702.237 299 704.975C315.413 706.477 322.809 708.372 330.827 713.13C353.989 726.873 369.432 753.112 369.575 778.965C369.601 783.659 369.469 799.425 369.282 814C368.871 845.986 368.437 847.583 358.1 855.146C352.662 859.125 348.547 858.908 326.5 853.479C301.019 847.204 298.598 846.448 293.382 843.14C284.067 837.233 281.997 830.672 284.974 816.489C287.133 806.197 286.728 795.177 283.981 789.5C279.529 780.3 268.695 773.122 257.943 772.249C252.79 771.831 250.265 772.311 241.026 775.468C235.052 777.509 227.818 779.421 224.95 779.717C214.112 780.836 204.004 776.129 199.035 767.65C197.606 765.212 193.118 755.741 189.061 746.604C177.365 720.263 174.13 715.834 159.572 706.242C147.244 698.12 143.159 694.604 138.946 688.486C135.485 683.46 135.258 682.694 135.822 677.931C136.551 671.777 139.632 666.255 147.058 657.797C150.098 654.334 154.197 648.265 156.165 644.311C159.235 638.144 159.817 635.849 160.254 628.175C161.076 613.761 156.479 601.82 146.367 592.102C137.195 583.289 122.155 578.595 110.205 580.818C96.365 583.391 82.214 593.742 76.407 605.538C72.296 613.889 70.6379 624.858 72.2939 632.752C74.9289 645.315 80.821 653.441 94.981 664.037C100.033 667.818 105.441 672.751 107 675C113.031 683.702 109.625 692.912 96.46 703.5C74.401 721.241 66.351 733.455 63.578 753.392C62.244 762.983 63.375 771.153 67.5229 781.89C74.035 798.749 82.9909 809.868 95.2159 816.269C103.477 820.594 109.916 822.494 123 824.466C139.478 826.95 147.33 830.039 150.858 835.424C153.414 839.325 153.006 846.976 150.005 851.397C146.561 856.472 145.117 862.992 145.804 870.357C146.57 878.559 149.428 884.939 155.005 890.901C161.126 897.446 167.865 900.353 177.036 900.405C186.247 900.457 193.381 897.099 200.418 889.399C208.096 880.998 210.065 872.43 207.012 860.706C204.172 849.803 198.392 843.964 184.668 838.134C170.184 831.981 167.891 828.257 170.86 815.704C173.574 804.225 175.796 801.111 184.387 796.75C190.738 793.525 192.7 793.003 198.387 793.022C205.688 793.046 211.57 795.181 215.189 799.118C216.393 800.428 219.702 805.55 222.542 810.5C232.517 827.885 235.74 830.479 254.885 836.534C264.976 839.726 267.43 840.925 271.135 844.475C274.851 848.036 275.496 849.24 275.476 852.579C275.45 856.877 273.202 867.308 269.135 882C264.573 898.478 265.843 907.544 274.429 919.783C279.563 927.103 284.459 931.138 293.266 935.31C299.568 938.295 300.706 938.5 311 938.5C321.307 938.5 322.427 938.298 328.774 935.291C342.112 928.973 348.453 920.242 355.454 898.554C360.753 882.14 365.54 874.448 372.934 870.465L376.5 868.545V794.46V720.374L373.365 717.437C366.099 710.629 356.914 693.13 354.497 681.488C353.261 675.53 353.546 670.929 356.071 656.119C356.857 651.509 357.492 644.759 357.483 641.119C357.405 611.484 336.654 585.798 307.664 579.452C278.88 573.152 272.531 570.762 262.023 562.276C246.974 550.123 238.5 531.309 238.5 510.05C238.5 487.883 246.844 472.272 265.283 459.939C275.822 452.89 281.071 451.603 296.47 452.289C311.414 452.955 319.375 454.879 338.254 462.387C351.654 467.717 364.751 471 372.61 471H376.5V388.58V306.161L371.563 304.521C368.848 303.619 363.917 301.13 360.605 298.989C346.162 289.654 342.846 276.263 351.083 260.534C360.657 242.252 362.304 238.603 363.363 233.327C366.989 215.273 361.618 196.802 348.677 182.825C338.336 171.655 320.954 165.956 302 167.522C285.804 168.86 283.338 168.701 277.972 165.968C270.874 162.354 269.033 158.312 270.236 148.987C271.425 139.777 270.18 130.13 266.901 123.147C263.66 116.243 262.57 104.395 264.531 97.388C266.186 91.478 270.231 87.583 282.744 79.849C300.536 68.853 303.913 65.937 307.65 58.347C310.807 51.935 311 50.934 311 41.021C311 31.269 310.767 30.008 307.815 23.777C300.498 8.33 286.917 0 269.052 0C264.697 0 262.003 0.851002 254.556 4.579Z" fill="url(#paint0_linear_206_410)"/>
<defs>
<linearGradient id="paint0_linear_206_410" x1="889" y1="886" x2="780.111" y2="167.615" gradientUnits="userSpaceOnUse">
<stop offset="0.012213" stop-color="#F6F3E4"/>
<stop offset="0.624677" stop-color="#FFC6BF"/>
<stop offset="1" stop-color="#F7F3E4"/>
</linearGradient>
</defs>
</svg>

